G75*
G70*
%OFA0B0*%
%FSLAX24Y24*%
%IPPOS*%
%LPD*%
%AMOC8*
5,1,8,0,0,1.08239X$1,22.5*
%
%ADD10OC8,0.0600*%
%ADD11C,0.0600*%
%ADD12OC8,0.1900*%
%ADD13OC8,0.0574*%
%ADD14C,0.1266*%
%ADD15C,0.0046*%
%ADD16C,0.0440*%
%ADD17C,0.0500*%
%ADD18C,0.0240*%
%ADD19C,0.0160*%
%ADD20C,0.0320*%
%ADD21C,0.0120*%
%ADD22C,0.0100*%
%ADD23OC8,0.0360*%
%ADD24C,0.0400*%
%ADD25C,0.0080*%
%ADD26C,0.0360*%
D10*
X030088Y016300D03*
X031088Y016300D03*
X031088Y017300D03*
X030088Y017300D03*
X030088Y018300D03*
X031088Y018300D03*
X042038Y018300D03*
X043038Y018300D03*
X043038Y017300D03*
X042038Y017300D03*
X042038Y016300D03*
X043038Y016300D03*
X043038Y015300D03*
X042038Y015300D03*
X042038Y014300D03*
X043038Y014300D03*
X043038Y013300D03*
X042038Y013300D03*
X042038Y012300D03*
X043038Y012300D03*
X043038Y011300D03*
X042038Y011300D03*
X042038Y010300D03*
X043038Y010300D03*
X043038Y009300D03*
X042038Y009300D03*
X042038Y019300D03*
X043038Y019300D03*
X043038Y020300D03*
X042038Y020300D03*
X042038Y021300D03*
X043038Y021300D03*
X043038Y022300D03*
X042038Y022300D03*
X042038Y023300D03*
X043038Y023300D03*
X043038Y024300D03*
X042038Y024300D03*
X042038Y025300D03*
X043038Y025300D03*
X043038Y026300D03*
X042038Y026300D03*
X013238Y025000D03*
X012238Y025000D03*
X011238Y025000D03*
X011238Y024000D03*
X012238Y024000D03*
X013238Y024000D03*
D11*
X014438Y026000D02*
X014438Y026600D01*
X015438Y026600D02*
X015438Y026000D01*
X016438Y026000D02*
X016438Y026600D01*
X017438Y026600D02*
X017438Y026000D01*
X018438Y026000D02*
X018438Y026600D01*
X019438Y026600D02*
X019438Y026000D01*
X020438Y026000D02*
X020438Y026600D01*
X021438Y026600D02*
X021438Y026000D01*
X023038Y026000D02*
X023038Y026600D01*
X024038Y026600D02*
X024038Y026000D01*
X025038Y026000D02*
X025038Y026600D01*
X026038Y026600D02*
X026038Y026000D01*
X027038Y026000D02*
X027038Y026600D01*
X028038Y026600D02*
X028038Y026000D01*
X029038Y026000D02*
X029038Y026600D01*
X030038Y026600D02*
X030038Y026000D01*
X032038Y026000D02*
X032038Y026600D01*
X033038Y026600D02*
X033038Y026000D01*
X034038Y026000D02*
X034038Y026600D01*
X035038Y026600D02*
X035038Y026000D01*
X036038Y026000D02*
X036038Y026600D01*
X037038Y026600D02*
X037038Y026000D01*
X038038Y026000D02*
X038038Y026600D01*
X039038Y026600D02*
X039038Y026000D01*
X039038Y007600D02*
X039038Y007000D01*
X040038Y007000D02*
X040038Y007600D01*
X041038Y007600D02*
X041038Y007000D01*
X038038Y007000D02*
X038038Y007600D01*
X037038Y007600D02*
X037038Y007000D01*
X036038Y007000D02*
X036038Y007600D01*
X035038Y007600D02*
X035038Y007000D01*
X034038Y007000D02*
X034038Y007600D01*
X032038Y007600D02*
X032038Y007000D01*
X031038Y007000D02*
X031038Y007600D01*
X030038Y007600D02*
X030038Y007000D01*
X029038Y007000D02*
X029038Y007600D01*
X028038Y007600D02*
X028038Y007000D01*
X027038Y007000D02*
X027038Y007600D01*
X026038Y007600D02*
X026038Y007000D01*
X025038Y007000D02*
X025038Y007600D01*
X023038Y007600D02*
X023038Y007000D01*
X022038Y007000D02*
X022038Y007600D01*
X021038Y007600D02*
X021038Y007000D01*
X020038Y007000D02*
X020038Y007600D01*
X019038Y007600D02*
X019038Y007000D01*
X018038Y007000D02*
X018038Y007600D01*
D12*
X009638Y009570D03*
X007278Y009570D03*
X008458Y007600D03*
D13*
X008392Y020808D03*
X007605Y020808D03*
X007605Y021792D03*
X008392Y021792D03*
D14*
X006538Y023662D03*
X006538Y018938D03*
D15*
X008781Y019008D02*
X009195Y019008D01*
X008781Y019008D02*
X008781Y019592D01*
X009195Y019592D01*
X009195Y019008D01*
X009195Y019053D02*
X008781Y019053D01*
X008781Y019098D02*
X009195Y019098D01*
X009195Y019143D02*
X008781Y019143D01*
X008781Y019188D02*
X009195Y019188D01*
X009195Y019233D02*
X008781Y019233D01*
X008781Y019278D02*
X009195Y019278D01*
X009195Y019323D02*
X008781Y019323D01*
X008781Y019368D02*
X009195Y019368D01*
X009195Y019413D02*
X008781Y019413D01*
X008781Y019458D02*
X009195Y019458D01*
X009195Y019503D02*
X008781Y019503D01*
X008781Y019548D02*
X009195Y019548D01*
X009381Y019008D02*
X009795Y019008D01*
X009381Y019008D02*
X009381Y019592D01*
X009795Y019592D01*
X009795Y019008D01*
X009795Y019053D02*
X009381Y019053D01*
X009381Y019098D02*
X009795Y019098D01*
X009795Y019143D02*
X009381Y019143D01*
X009381Y019188D02*
X009795Y019188D01*
X009795Y019233D02*
X009381Y019233D01*
X009381Y019278D02*
X009795Y019278D01*
X009795Y019323D02*
X009381Y019323D01*
X009381Y019368D02*
X009795Y019368D01*
X009795Y019413D02*
X009381Y019413D01*
X009381Y019458D02*
X009795Y019458D01*
X009795Y019503D02*
X009381Y019503D01*
X009381Y019548D02*
X009795Y019548D01*
X013630Y021893D02*
X013630Y022307D01*
X013630Y021893D02*
X013046Y021893D01*
X013046Y022307D01*
X013630Y022307D01*
X013630Y021938D02*
X013046Y021938D01*
X013046Y021983D02*
X013630Y021983D01*
X013630Y022028D02*
X013046Y022028D01*
X013046Y022073D02*
X013630Y022073D01*
X013630Y022118D02*
X013046Y022118D01*
X013046Y022163D02*
X013630Y022163D01*
X013630Y022208D02*
X013046Y022208D01*
X013046Y022253D02*
X013630Y022253D01*
X013630Y022298D02*
X013046Y022298D01*
X013630Y022493D02*
X013630Y022907D01*
X013630Y022493D02*
X013046Y022493D01*
X013046Y022907D01*
X013630Y022907D01*
X013630Y022538D02*
X013046Y022538D01*
X013046Y022583D02*
X013630Y022583D01*
X013630Y022628D02*
X013046Y022628D01*
X013046Y022673D02*
X013630Y022673D01*
X013630Y022718D02*
X013046Y022718D01*
X013046Y022763D02*
X013630Y022763D01*
X013630Y022808D02*
X013046Y022808D01*
X013046Y022853D02*
X013630Y022853D01*
X013630Y022898D02*
X013046Y022898D01*
D16*
X013238Y018520D02*
X013238Y018080D01*
X011238Y018080D02*
X011238Y018520D01*
X019318Y013050D02*
X019758Y013050D01*
X019758Y011050D02*
X019318Y011050D01*
D17*
X017738Y011900D02*
X016888Y012750D01*
X016888Y015250D01*
X017938Y015250D01*
X019788Y017100D01*
X021388Y017100D01*
X021938Y017650D01*
X021938Y018200D01*
X022188Y018450D01*
X022588Y018450D01*
X027278Y019750D02*
X029888Y019750D01*
X037888Y021700D02*
X039438Y023250D01*
X039438Y023750D01*
X042038Y026300D01*
X016838Y016650D02*
X016838Y015250D01*
X016888Y015250D01*
X016838Y016650D02*
X016438Y017000D01*
X016088Y017350D01*
X015488Y017950D01*
X015488Y021350D01*
X014338Y022500D01*
X014338Y022750D01*
X013288Y023800D01*
X013288Y023950D01*
X013238Y024000D01*
X013288Y023800D02*
X013288Y023550D01*
X013038Y023300D01*
X011088Y023300D01*
X010788Y023050D01*
X010188Y022450D01*
X007038Y022450D01*
X006788Y022200D01*
X006788Y020300D01*
X008288Y018800D01*
X008288Y018050D01*
X008538Y017800D01*
X006538Y018938D02*
X006538Y019300D01*
X005788Y020050D01*
X005788Y022550D01*
X006538Y023300D01*
X006538Y023662D01*
X008658Y011000D02*
X007278Y009570D01*
X008658Y011000D02*
X010588Y011000D01*
X013138Y008550D01*
X014888Y008550D01*
X014488Y009200D02*
X014638Y009400D01*
X022288Y009400D01*
X023038Y008650D01*
X023038Y007300D01*
X020038Y007300D02*
X019788Y007750D01*
X019288Y008250D01*
X016988Y008250D01*
D18*
X018538Y010300D02*
X018688Y010300D01*
X018538Y010300D02*
X018388Y010450D01*
X016488Y010450D01*
X015088Y011850D01*
X013738Y011850D01*
X013538Y012050D01*
X013538Y013250D01*
X014588Y014300D01*
X014588Y015100D01*
X014488Y015200D01*
X012638Y019900D02*
X012288Y020250D01*
X011088Y020250D01*
X012638Y019900D02*
X012788Y020050D01*
X012788Y020800D01*
X011138Y022450D01*
X010188Y022450D01*
X029888Y019750D02*
X029898Y019740D01*
D19*
X029238Y018150D02*
X028688Y018150D01*
X027488Y016950D01*
X027488Y016800D01*
X027038Y017300D02*
X026488Y017850D01*
X023038Y018000D02*
X023038Y019400D01*
X022838Y019450D01*
X022238Y018750D02*
X022588Y018400D01*
X022588Y018450D01*
X022238Y018750D02*
X022238Y020750D01*
X026488Y020950D02*
X026788Y021250D01*
X026788Y021600D01*
X023038Y018000D02*
X022788Y017750D01*
X022788Y017600D01*
X016788Y012750D02*
X014438Y012750D01*
D20*
X008988Y019300D02*
X007605Y020683D01*
X007605Y020808D01*
X007200Y023100D02*
X006538Y023662D01*
X007200Y023100D02*
X008838Y023100D01*
X027038Y017300D02*
X027238Y017300D01*
X028238Y018300D01*
X028258Y018300D01*
X028608Y018650D01*
X028988Y018650D01*
X029488Y018400D02*
X029488Y019400D01*
X029898Y019740D01*
X029488Y018400D02*
X029238Y018150D01*
X041938Y009400D02*
X042038Y009300D01*
D21*
X035988Y009750D02*
X035788Y009750D01*
X035738Y009700D01*
X034538Y009700D01*
X031888Y012350D01*
X031288Y012350D01*
X031416Y012600D02*
X032138Y012600D01*
X034138Y010600D01*
X034238Y011000D02*
X032388Y012850D01*
X032588Y013100D02*
X031610Y013100D01*
X032588Y013100D02*
X034488Y011200D01*
X030138Y016250D02*
X030088Y016300D01*
X036538Y017050D02*
X036538Y018950D01*
X021608Y021400D02*
X021288Y021720D01*
X021288Y023800D01*
X020988Y024100D01*
X016438Y024100D01*
X016138Y024350D01*
X014438Y022650D02*
X014338Y022650D01*
X011713Y022675D02*
X011588Y022550D01*
X011588Y022500D01*
X014038Y020050D01*
X014038Y018050D01*
X013288Y017300D01*
X013288Y016300D01*
X011638Y014650D01*
X011638Y012300D01*
X011538Y012300D01*
X009288Y012344D02*
X005548Y012344D01*
X005548Y012462D02*
X009288Y012462D01*
X009288Y012581D02*
X005548Y012581D01*
X005548Y012699D02*
X009288Y012699D01*
X009288Y012818D02*
X005548Y012818D01*
X005548Y012936D02*
X009288Y012936D01*
X009288Y013055D02*
X005548Y013055D01*
X005548Y013173D02*
X009288Y013173D01*
X009288Y013292D02*
X005548Y013292D01*
X005548Y013410D02*
X009288Y013410D01*
X009288Y013529D02*
X005548Y013529D01*
X005548Y013647D02*
X009288Y013647D01*
X009288Y013766D02*
X005548Y013766D01*
X005548Y013884D02*
X009288Y013884D01*
X009288Y014003D02*
X005548Y014003D01*
X005548Y014121D02*
X009288Y014121D01*
X009288Y014240D02*
X005548Y014240D01*
X005548Y014358D02*
X009288Y014358D01*
X009288Y014477D02*
X005548Y014477D01*
X005548Y014595D02*
X009288Y014595D01*
X009288Y014714D02*
X005548Y014714D01*
X005548Y014832D02*
X009288Y014832D01*
X009288Y014951D02*
X005548Y014951D01*
X005548Y015069D02*
X009288Y015069D01*
X009288Y015188D02*
X005548Y015188D01*
X005548Y015306D02*
X009288Y015306D01*
X009288Y015425D02*
X005548Y015425D01*
X005548Y015543D02*
X009288Y015543D01*
X009288Y015662D02*
X005548Y015662D01*
X005548Y015780D02*
X009288Y015780D01*
X009288Y015899D02*
X005548Y015899D01*
X005548Y016017D02*
X009288Y016017D01*
X009288Y016136D02*
X005548Y016136D01*
X005548Y016254D02*
X009288Y016254D01*
X009288Y016373D02*
X005548Y016373D01*
X005548Y016491D02*
X009288Y016491D01*
X009288Y016610D02*
X005548Y016610D01*
X005548Y016728D02*
X009288Y016728D01*
X009288Y016847D02*
X005548Y016847D01*
X005548Y016965D02*
X009288Y016965D01*
X009288Y017084D02*
X005548Y017084D01*
X005548Y017202D02*
X009288Y017202D01*
X009288Y017321D02*
X005548Y017321D01*
X005548Y017439D02*
X009288Y017439D01*
X009288Y017558D02*
X005548Y017558D01*
X005548Y017676D02*
X009288Y017676D01*
X009288Y017795D02*
X005548Y017795D01*
X005548Y017913D02*
X009288Y017913D01*
X009288Y018032D02*
X005548Y018032D01*
X005548Y018050D02*
X009288Y018050D01*
X009288Y011550D01*
X005548Y011550D01*
X005548Y018050D01*
X009038Y019300D02*
X009588Y019300D01*
X010738Y023250D02*
X011088Y023300D01*
X014438Y026300D02*
X014538Y026200D01*
X009288Y012225D02*
X005548Y012225D01*
X005548Y012107D02*
X009288Y012107D01*
X009288Y011988D02*
X005548Y011988D01*
X005548Y011870D02*
X009288Y011870D01*
X009288Y011751D02*
X005548Y011751D01*
X005548Y011633D02*
X009288Y011633D01*
X015488Y010900D02*
X016388Y010000D01*
X017438Y010000D01*
X017638Y009850D01*
X023188Y009850D01*
X023485Y009553D01*
D22*
X030338Y013300D02*
X031288Y012350D01*
X031488Y012850D02*
X032388Y012850D01*
X031610Y013100D02*
X030888Y013822D01*
X030888Y015400D01*
X031538Y016050D01*
X031538Y016950D01*
X030138Y017300D02*
X030088Y017300D01*
X030138Y016250D02*
X030338Y016050D01*
X030338Y013300D01*
X034488Y011200D02*
X034888Y010750D01*
X034888Y010300D01*
X034538Y010150D02*
X034788Y009900D01*
X035488Y009900D01*
X035788Y010200D01*
X036688Y010200D01*
X036938Y009950D01*
X036938Y009750D01*
X034538Y010150D02*
X034538Y010700D01*
X034238Y011000D01*
X020938Y020150D02*
X020288Y020750D01*
X017438Y020750D01*
X017388Y021200D02*
X020488Y021200D01*
X021038Y020650D01*
X017188Y022350D02*
X017038Y022500D01*
X017038Y023050D01*
X016788Y023300D01*
X016288Y023300D01*
X015538Y024050D01*
X015538Y024800D01*
X016538Y025800D01*
X016438Y026300D01*
X014338Y022750D02*
X014438Y022650D01*
X013338Y022100D02*
X013338Y021750D01*
X013688Y021400D01*
X013988Y021097D01*
X013988Y021100D01*
X014638Y020450D01*
X014638Y017400D01*
X015738Y016300D01*
X015738Y013450D01*
X015188Y013450D01*
D23*
X015188Y013450D03*
X014438Y012750D03*
X012238Y014250D03*
X010238Y015000D03*
X008538Y014050D03*
X008288Y015050D03*
X007538Y015050D03*
X006788Y015050D03*
X006038Y015050D03*
X008538Y012550D03*
X008288Y011800D03*
X007538Y011800D03*
X006788Y011800D03*
X006038Y011800D03*
X010388Y011800D03*
X011538Y012300D03*
X014738Y010900D03*
X015488Y010900D03*
X017438Y010000D03*
X018688Y010300D03*
X017738Y011900D03*
X017888Y012600D03*
X020088Y014650D03*
X021088Y014650D03*
X022588Y015350D03*
X022838Y016300D03*
X022638Y017050D03*
X022788Y017600D03*
X022588Y018450D03*
X022838Y019450D03*
X020938Y020150D03*
X021038Y020650D03*
X021608Y021400D03*
X022238Y020750D03*
X022938Y021600D03*
X023188Y022050D03*
X023538Y022400D03*
X023888Y022750D03*
X024238Y023100D03*
X024588Y023450D03*
X024888Y022950D03*
X025238Y023300D03*
X025638Y023700D03*
X025988Y023350D03*
X026338Y023700D03*
X026538Y022850D03*
X026538Y022150D03*
X026788Y021600D03*
X027988Y022600D03*
X025488Y022850D03*
X024888Y022250D03*
X024438Y021800D03*
X022288Y022200D03*
X020638Y019500D03*
X017888Y019550D03*
X017438Y020750D03*
X017088Y021250D03*
X017188Y022350D03*
X014688Y023350D03*
X014338Y022650D03*
X012338Y022700D03*
X011713Y022675D03*
X013688Y021400D03*
X011838Y020950D03*
X011088Y020250D03*
X012638Y019900D03*
X011838Y019050D03*
X012238Y017650D03*
X012288Y016550D03*
X014538Y016750D03*
X015088Y015850D03*
X014488Y015200D03*
X016088Y017350D03*
X019888Y016000D03*
X020738Y015800D03*
X021138Y016200D03*
X021188Y017650D03*
X020688Y017650D03*
X020138Y017806D03*
X026988Y018000D03*
X027038Y017300D03*
X027488Y016800D03*
X028988Y017250D03*
X028788Y017750D03*
X028988Y018650D03*
X029898Y019740D03*
X027278Y019750D03*
X026988Y018850D03*
X032731Y018937D03*
X033578Y020360D03*
X034944Y021506D03*
X036038Y021650D03*
X037088Y021700D03*
X037888Y021700D03*
X039538Y021500D03*
X036538Y018950D03*
X035738Y017200D03*
X036538Y017050D03*
X036488Y015700D03*
X039588Y014550D03*
X035238Y013403D03*
X034688Y012950D03*
X034188Y013250D03*
X033638Y013350D03*
X032203Y014174D03*
X029841Y014174D03*
X028888Y014450D03*
X028288Y014750D03*
X027888Y014350D03*
X028638Y014000D03*
X028288Y013650D03*
X028988Y015150D03*
X032738Y015700D03*
X033238Y016950D03*
X044332Y018800D03*
X044332Y012800D03*
X036938Y009750D03*
X035988Y009750D03*
X034888Y010300D03*
X034138Y010600D03*
X024988Y010286D03*
X024420Y010350D03*
X024488Y010850D03*
X024338Y009700D03*
X023485Y009553D03*
X024088Y008531D03*
X016988Y008250D03*
X015188Y007650D03*
X014488Y009200D03*
X009838Y017700D03*
X008538Y017800D03*
X008838Y023100D03*
X013732Y026300D03*
X016138Y024350D03*
X017038Y024700D03*
X024488Y024950D03*
X024988Y024850D03*
X028688Y024700D03*
X030738Y024950D03*
X031338Y024950D03*
X031082Y026550D03*
X035548Y025120D03*
X036588Y024700D03*
D24*
X021538Y008800D02*
X021038Y008800D01*
X019888Y008800D01*
X019788Y008700D01*
X019588Y008850D01*
X015188Y008850D01*
X014888Y008550D01*
X021038Y008800D02*
X021038Y007300D01*
X022038Y007300D02*
X022038Y008300D01*
X021538Y008800D01*
D25*
X005528Y006790D02*
X005528Y011310D01*
X009336Y011310D01*
X009424Y011347D01*
X009491Y011414D01*
X009528Y011502D01*
X009528Y018098D01*
X009491Y018186D01*
X009424Y018253D01*
X009336Y018290D01*
X009288Y018290D01*
X009288Y018814D01*
X009328Y018854D01*
X009359Y018845D01*
X009548Y018845D01*
X009548Y019260D01*
X009628Y019260D01*
X009628Y019340D01*
X009958Y019340D01*
X009958Y019613D01*
X009947Y019655D01*
X009925Y019692D01*
X009895Y019722D01*
X009858Y019744D01*
X009816Y019755D01*
X009628Y019755D01*
X009628Y019340D01*
X009548Y019340D01*
X009548Y019755D01*
X009359Y019755D01*
X009328Y019746D01*
X009288Y019786D01*
X009288Y022020D01*
X010273Y022020D01*
X010431Y022085D01*
X010496Y022150D01*
X011014Y022150D01*
X012488Y020676D01*
X012488Y020474D01*
X012458Y020504D01*
X012348Y020550D01*
X011297Y020550D01*
X011237Y020610D01*
X010939Y020610D01*
X010728Y020399D01*
X010728Y020101D01*
X010939Y019890D01*
X011237Y019890D01*
X011297Y019950D01*
X012164Y019950D01*
X012278Y019836D01*
X012278Y019751D01*
X012489Y019540D01*
X012787Y019540D01*
X012998Y019751D01*
X012998Y019836D01*
X013042Y019880D01*
X013088Y019990D01*
X013088Y020661D01*
X013798Y019951D01*
X013798Y018149D01*
X013630Y017982D01*
X013638Y018000D01*
X013638Y018600D01*
X013577Y018747D01*
X013464Y018859D01*
X013317Y018920D01*
X013158Y018920D01*
X013011Y018859D01*
X012899Y018747D01*
X012838Y018600D01*
X012838Y018000D01*
X012899Y017853D01*
X013011Y017741D01*
X013158Y017680D01*
X013317Y017680D01*
X013336Y017688D01*
X013152Y017503D01*
X013084Y017436D01*
X013048Y017348D01*
X013048Y016399D01*
X011434Y014786D01*
X011398Y014698D01*
X011398Y012660D01*
X011389Y012660D01*
X011178Y012449D01*
X011178Y012151D01*
X011389Y011940D01*
X011687Y011940D01*
X011898Y012151D01*
X011898Y012449D01*
X011878Y012469D01*
X011878Y014551D01*
X013491Y016164D01*
X013528Y016252D01*
X013528Y017201D01*
X014174Y017847D01*
X014241Y017914D01*
X014278Y018002D01*
X014278Y020098D01*
X014241Y020186D01*
X011987Y022440D01*
X012073Y022526D01*
X012073Y022824D01*
X012027Y022870D01*
X012883Y022870D01*
X012883Y022740D01*
X013298Y022740D01*
X013298Y022660D01*
X012883Y022660D01*
X012883Y022472D01*
X012891Y022440D01*
X012843Y022391D01*
X012843Y021809D01*
X012962Y021690D01*
X013108Y021690D01*
X013108Y021655D01*
X013328Y021435D01*
X013328Y021251D01*
X013539Y021040D01*
X013721Y021040D01*
X013758Y021002D01*
X013758Y021002D01*
X013825Y020935D01*
X013891Y020867D01*
X013892Y020867D01*
X013893Y020867D01*
X013896Y020867D01*
X014408Y020355D01*
X014408Y017305D01*
X015508Y016205D01*
X015508Y013680D01*
X015467Y013680D01*
X015337Y013810D01*
X015039Y013810D01*
X014828Y013599D01*
X014828Y013301D01*
X015039Y013090D01*
X015337Y013090D01*
X015467Y013220D01*
X015833Y013220D01*
X015968Y013355D01*
X015968Y016395D01*
X014868Y017495D01*
X014868Y020545D01*
X014218Y021195D01*
X014083Y021330D01*
X014081Y021330D01*
X014048Y021363D01*
X014048Y021549D01*
X013837Y021760D01*
X013784Y021760D01*
X013833Y021809D01*
X013833Y022391D01*
X013784Y022440D01*
X013793Y022472D01*
X013793Y022660D01*
X013378Y022660D01*
X013378Y022740D01*
X013740Y022740D01*
X013908Y022572D01*
X013908Y022414D01*
X013973Y022256D01*
X015058Y021172D01*
X015058Y017864D01*
X015123Y017706D01*
X015844Y016985D01*
X016084Y016746D01*
X016090Y016733D01*
X016144Y016686D01*
X016194Y016635D01*
X016208Y016630D01*
X016408Y016455D01*
X016408Y015164D01*
X016458Y015044D01*
X016458Y013010D01*
X014687Y013010D01*
X014587Y013110D01*
X014289Y013110D01*
X014078Y012899D01*
X014078Y012601D01*
X014289Y012390D01*
X014587Y012390D01*
X014687Y012490D01*
X016540Y012490D01*
X017494Y011535D01*
X017652Y011470D01*
X017823Y011470D01*
X017981Y011535D01*
X018102Y011656D01*
X018168Y011814D01*
X018168Y011986D01*
X018102Y012144D01*
X017318Y012928D01*
X017318Y014820D01*
X018023Y014820D01*
X018181Y014885D01*
X018302Y015006D01*
X019966Y016670D01*
X021473Y016670D01*
X021631Y016735D01*
X022302Y017406D01*
X022368Y017564D01*
X022368Y018020D01*
X022673Y018020D01*
X022831Y018085D01*
X022952Y018206D01*
X023018Y018364D01*
X023018Y018536D01*
X022952Y018694D01*
X022831Y018815D01*
X022673Y018880D01*
X022498Y018880D01*
X022498Y020501D01*
X022598Y020601D01*
X022598Y020899D01*
X022387Y021110D01*
X022358Y021110D01*
X022358Y021741D01*
X022058Y022041D01*
X022058Y023509D01*
X022429Y023880D01*
X025279Y023880D01*
X025579Y024180D01*
X026847Y024180D01*
X026968Y024059D01*
X027097Y023930D01*
X028929Y023930D01*
X029058Y024059D01*
X030129Y025130D01*
X030309Y025130D01*
X030659Y025480D01*
X031377Y025480D01*
X031598Y025259D01*
X031727Y025130D01*
X034129Y025130D01*
X034258Y025259D01*
X034279Y025280D01*
X034929Y025280D01*
X035058Y025409D01*
X035194Y025545D01*
X035310Y025593D01*
X035445Y025728D01*
X035518Y025905D01*
X035518Y026695D01*
X035470Y026810D01*
X035605Y026810D01*
X035558Y026695D01*
X035558Y025905D01*
X035631Y025728D01*
X035766Y025593D01*
X035818Y025572D01*
X035818Y023141D01*
X033947Y021270D01*
X033818Y021141D01*
X033818Y014300D01*
X033620Y014127D01*
X033592Y014155D01*
X033460Y014210D01*
X033316Y014210D01*
X033184Y014155D01*
X033083Y014054D01*
X033028Y013922D01*
X033028Y013778D01*
X033083Y013646D01*
X033184Y013545D01*
X033283Y013504D01*
X033278Y013499D01*
X033278Y013201D01*
X033489Y012990D01*
X033787Y012990D01*
X033863Y013066D01*
X034039Y012890D01*
X034328Y012890D01*
X034328Y012801D01*
X034539Y012590D01*
X034837Y012590D01*
X035048Y012801D01*
X035048Y013099D01*
X034858Y013289D01*
X034858Y019709D01*
X036629Y021480D01*
X036799Y021480D01*
X036939Y021340D01*
X037237Y021340D01*
X037448Y021551D01*
X037448Y021849D01*
X037308Y021989D01*
X037308Y022259D01*
X038258Y023209D01*
X038258Y024709D01*
X038879Y025330D01*
X039129Y025330D01*
X039258Y025459D01*
X039258Y025572D01*
X039310Y025593D01*
X039445Y025728D01*
X039518Y025905D01*
X039518Y025973D01*
X039541Y025887D01*
X039682Y025643D01*
X039881Y025444D01*
X040125Y025303D01*
X040347Y025244D01*
X039196Y024115D01*
X039194Y024115D01*
X039135Y024056D01*
X039076Y023997D01*
X039075Y023995D01*
X039073Y023994D01*
X039041Y023917D01*
X039009Y023840D01*
X039009Y023838D01*
X039008Y023836D01*
X039008Y023752D01*
X039007Y023669D01*
X039008Y023667D01*
X039008Y023428D01*
X037523Y021944D01*
X037458Y021786D01*
X037458Y021614D01*
X037523Y021456D01*
X037644Y021335D01*
X037802Y021270D01*
X037973Y021270D01*
X038131Y021335D01*
X039802Y023006D01*
X039868Y023164D01*
X039868Y023569D01*
X041558Y025227D01*
X041558Y025101D01*
X041839Y024820D01*
X042237Y024820D01*
X042518Y025101D01*
X042518Y025499D01*
X042237Y025780D01*
X042122Y025780D01*
X042163Y025820D01*
X042237Y025820D01*
X042518Y026101D01*
X042518Y026499D01*
X042237Y026780D01*
X041839Y026780D01*
X041585Y026526D01*
X041535Y026713D01*
X041479Y026810D01*
X042835Y026810D01*
X042865Y026780D01*
X042839Y026780D01*
X042558Y026499D01*
X042558Y026101D01*
X042839Y025820D01*
X043237Y025820D01*
X043518Y026101D01*
X043518Y026127D01*
X043548Y026097D01*
X043548Y022203D01*
X043622Y022022D01*
X043760Y021885D01*
X044548Y021097D01*
X044548Y008003D01*
X044082Y007537D01*
X044035Y007713D01*
X043894Y007957D01*
X043695Y008156D01*
X043451Y008297D01*
X043368Y008319D01*
X043858Y008809D01*
X043858Y010541D01*
X043508Y010891D01*
X043408Y010991D01*
X043518Y011101D01*
X043518Y011499D01*
X043237Y011780D01*
X042839Y011780D01*
X042558Y011499D01*
X042558Y011101D01*
X042639Y011020D01*
X042629Y011020D01*
X042518Y011131D01*
X042518Y011499D01*
X042237Y011780D01*
X041839Y011780D01*
X041558Y011499D01*
X041558Y011101D01*
X041839Y010820D01*
X042207Y010820D01*
X042447Y010580D01*
X042639Y010580D01*
X042558Y010499D01*
X042558Y010101D01*
X042839Y009820D01*
X043237Y009820D01*
X043418Y010001D01*
X043418Y009542D01*
X043220Y009740D01*
X043078Y009740D01*
X043078Y009340D01*
X042998Y009340D01*
X042998Y009740D01*
X042856Y009740D01*
X042598Y009482D01*
X042598Y009340D01*
X042998Y009340D01*
X042998Y009260D01*
X043078Y009260D01*
X043078Y008860D01*
X043220Y008860D01*
X043418Y009058D01*
X043418Y008991D01*
X043097Y008670D01*
X041029Y008670D01*
X040429Y009270D01*
X037779Y009270D01*
X037298Y009751D01*
X037298Y009899D01*
X037168Y010029D01*
X037168Y010045D01*
X036918Y010295D01*
X036783Y010430D01*
X035693Y010430D01*
X035393Y010130D01*
X035227Y010130D01*
X035248Y010151D01*
X035248Y010449D01*
X035118Y010579D01*
X035118Y010743D01*
X035123Y010832D01*
X035118Y010837D01*
X035118Y010845D01*
X035055Y010908D01*
X034706Y011301D01*
X034691Y011336D01*
X032724Y013303D01*
X032636Y013340D01*
X031695Y013340D01*
X031118Y013917D01*
X031118Y015305D01*
X031768Y015955D01*
X031768Y017045D01*
X031633Y017180D01*
X031619Y017180D01*
X031568Y017231D01*
X031568Y017499D01*
X031287Y017780D01*
X030889Y017780D01*
X030888Y017779D01*
X030888Y017811D01*
X030759Y017940D01*
X030568Y018131D01*
X030568Y018499D01*
X030287Y018780D01*
X029889Y018780D01*
X029828Y018719D01*
X029828Y019240D01*
X029924Y019320D01*
X029973Y019320D01*
X030131Y019385D01*
X030252Y019506D01*
X030272Y019553D01*
X030381Y019444D01*
X030625Y019303D01*
X030897Y019230D01*
X031179Y019230D01*
X031451Y019303D01*
X031695Y019444D01*
X031894Y019643D01*
X032035Y019887D01*
X032108Y020159D01*
X032108Y020441D01*
X032035Y020713D01*
X031894Y020957D01*
X031695Y021156D01*
X031451Y021297D01*
X031179Y021370D01*
X030897Y021370D01*
X030625Y021297D01*
X030381Y021156D01*
X030182Y020957D01*
X030041Y020713D01*
X029968Y020441D01*
X029968Y020180D01*
X027192Y020180D01*
X027088Y020137D01*
X027088Y020190D01*
X031440Y024590D01*
X031487Y024590D01*
X031698Y024801D01*
X031698Y025099D01*
X031487Y025310D01*
X031189Y025310D01*
X031038Y025159D01*
X030887Y025310D01*
X030589Y025310D01*
X030378Y025099D01*
X030378Y024801D01*
X030518Y024661D01*
X030518Y024591D01*
X026522Y020585D01*
X026458Y020521D01*
X026458Y020521D01*
X026458Y020521D01*
X026458Y021009D01*
X026608Y021159D01*
X026608Y021790D01*
X026687Y021790D01*
X026898Y022001D01*
X026898Y022299D01*
X026723Y022474D01*
X026758Y022509D01*
X026758Y022561D01*
X026898Y022701D01*
X026898Y022999D01*
X026687Y023210D01*
X026558Y023210D01*
X026558Y023411D01*
X026698Y023551D01*
X026698Y023849D01*
X026487Y024060D01*
X026189Y024060D01*
X025988Y023859D01*
X025787Y024060D01*
X025489Y024060D01*
X025278Y023849D01*
X025278Y023660D01*
X025089Y023660D01*
X024948Y023519D01*
X024948Y023599D01*
X024737Y023810D01*
X024439Y023810D01*
X024228Y023599D01*
X024228Y023460D01*
X024089Y023460D01*
X023878Y023249D01*
X023878Y023110D01*
X023739Y023110D01*
X023528Y022899D01*
X023528Y022760D01*
X023389Y022760D01*
X023178Y022549D01*
X023178Y022410D01*
X023039Y022410D01*
X022828Y022199D01*
X022828Y021960D01*
X022789Y021960D01*
X022578Y021749D01*
X022578Y021451D01*
X022718Y021311D01*
X022718Y021309D01*
X022847Y021180D01*
X023018Y021009D01*
X023018Y016629D01*
X022987Y016660D01*
X022689Y016660D01*
X022478Y016449D01*
X022478Y016420D01*
X021427Y016420D01*
X021287Y016560D01*
X020989Y016560D01*
X020778Y016349D01*
X020778Y016160D01*
X020589Y016160D01*
X020378Y015949D01*
X020378Y015651D01*
X020589Y015440D01*
X020887Y015440D01*
X021027Y015580D01*
X021176Y015580D01*
X021254Y015571D01*
X021265Y015580D01*
X021279Y015580D01*
X021335Y015636D01*
X021515Y015780D01*
X022297Y015780D01*
X022403Y015674D01*
X022228Y015499D01*
X022228Y015201D01*
X022439Y014990D01*
X022737Y014990D01*
X022787Y015040D01*
X022818Y015009D01*
X022947Y014880D01*
X023097Y014880D01*
X023368Y014609D01*
X023368Y010259D01*
X023497Y010130D01*
X023978Y009649D01*
X023978Y009551D01*
X024189Y009340D01*
X024487Y009340D01*
X024698Y009551D01*
X024698Y009780D01*
X024793Y009780D01*
X024939Y009926D01*
X025137Y009926D01*
X025344Y010133D01*
X025568Y009909D01*
X025568Y008441D01*
X025185Y008059D01*
X025133Y008080D01*
X024942Y008080D01*
X024766Y008007D01*
X024631Y007872D01*
X024558Y007695D01*
X024558Y006905D01*
X024605Y006790D01*
X023470Y006790D01*
X023518Y006905D01*
X023518Y007695D01*
X023468Y007816D01*
X023468Y008736D01*
X023402Y008894D01*
X023281Y009015D01*
X022686Y009610D01*
X023088Y009610D01*
X023125Y009574D01*
X023125Y009404D01*
X023336Y009193D01*
X023634Y009193D01*
X023845Y009404D01*
X023845Y009702D01*
X023634Y009913D01*
X023464Y009913D01*
X023324Y010053D01*
X023236Y010090D01*
X018987Y010090D01*
X019048Y010151D01*
X019048Y010449D01*
X018837Y010660D01*
X018602Y010660D01*
X018558Y010704D01*
X018448Y010750D01*
X016612Y010750D01*
X015342Y012020D01*
X015258Y012104D01*
X015148Y012150D01*
X013862Y012150D01*
X013838Y012174D01*
X013838Y013126D01*
X014842Y014130D01*
X014888Y014240D01*
X014888Y015160D01*
X014848Y015256D01*
X014848Y015349D01*
X014637Y015560D01*
X014339Y015560D01*
X014128Y015349D01*
X014128Y015051D01*
X014288Y014891D01*
X014288Y014424D01*
X013284Y013420D01*
X013238Y013310D01*
X013238Y011990D01*
X013284Y011880D01*
X013368Y011796D01*
X013568Y011596D01*
X013678Y011550D01*
X014964Y011550D01*
X015296Y011217D01*
X015128Y011049D01*
X015128Y010751D01*
X015339Y010540D01*
X015508Y010540D01*
X016184Y009864D01*
X016218Y009830D01*
X014692Y009830D01*
X014662Y009838D01*
X014607Y009830D01*
X014552Y009830D01*
X014523Y009818D01*
X014492Y009814D01*
X014445Y009786D01*
X014394Y009765D01*
X014372Y009742D01*
X014345Y009726D01*
X014312Y009682D01*
X014273Y009644D01*
X014261Y009615D01*
X014093Y009390D01*
X014050Y009224D01*
X014074Y009055D01*
X014161Y008907D01*
X014298Y008805D01*
X014464Y008762D01*
X014633Y008786D01*
X014781Y008874D01*
X014853Y008970D01*
X022110Y008970D01*
X022608Y008472D01*
X022608Y007816D01*
X022558Y007695D01*
X022558Y006905D01*
X022605Y006790D01*
X022425Y006790D01*
X022446Y006831D01*
X022467Y006897D01*
X022478Y006965D01*
X022478Y007260D01*
X022078Y007260D01*
X022078Y007340D01*
X022478Y007340D01*
X022478Y007635D01*
X022467Y007703D01*
X022446Y007769D01*
X022414Y007831D01*
X022374Y007887D01*
X022325Y007936D01*
X022269Y007976D01*
X022207Y008008D01*
X022141Y008029D01*
X022078Y008039D01*
X022078Y007340D01*
X021998Y007340D01*
X021998Y008039D01*
X021935Y008029D01*
X021869Y008008D01*
X021807Y007976D01*
X021751Y007936D01*
X021702Y007887D01*
X021662Y007831D01*
X021630Y007769D01*
X021609Y007703D01*
X021598Y007635D01*
X021598Y007340D01*
X021998Y007340D01*
X021998Y007260D01*
X021598Y007260D01*
X021598Y006965D01*
X021609Y006897D01*
X021630Y006831D01*
X021651Y006790D01*
X021425Y006790D01*
X021446Y006831D01*
X021467Y006897D01*
X021478Y006965D01*
X021478Y007260D01*
X021078Y007260D01*
X021078Y007340D01*
X021478Y007340D01*
X021478Y007635D01*
X021467Y007703D01*
X021446Y007769D01*
X021414Y007831D01*
X021374Y007887D01*
X021325Y007936D01*
X021269Y007976D01*
X021207Y008008D01*
X021141Y008029D01*
X021078Y008039D01*
X021078Y007340D01*
X020998Y007340D01*
X020998Y008039D01*
X020935Y008029D01*
X020869Y008008D01*
X020807Y007976D01*
X020751Y007936D01*
X020702Y007887D01*
X020662Y007831D01*
X020630Y007769D01*
X020609Y007703D01*
X020598Y007635D01*
X020598Y007340D01*
X020998Y007340D01*
X020998Y007260D01*
X020598Y007260D01*
X020598Y006965D01*
X020609Y006897D01*
X020630Y006831D01*
X020651Y006790D01*
X020470Y006790D01*
X020518Y006905D01*
X020518Y007695D01*
X020445Y007872D01*
X020310Y008007D01*
X020133Y008080D01*
X020066Y008080D01*
X019652Y008494D01*
X019531Y008615D01*
X019373Y008680D01*
X016902Y008680D01*
X016744Y008615D01*
X016623Y008494D01*
X016558Y008336D01*
X016558Y008164D01*
X016623Y008006D01*
X016744Y007885D01*
X016902Y007820D01*
X017609Y007820D01*
X017558Y007695D01*
X017558Y006905D01*
X017605Y006790D01*
X011479Y006790D01*
X011535Y006887D01*
X011608Y007159D01*
X011608Y007441D01*
X011535Y007713D01*
X011394Y007957D01*
X011195Y008156D01*
X010951Y008297D01*
X010679Y008370D01*
X010397Y008370D01*
X010125Y008297D01*
X009881Y008156D01*
X009682Y007957D01*
X009548Y007725D01*
X009548Y008051D01*
X008909Y008690D01*
X008498Y008690D01*
X008498Y007640D01*
X008418Y007640D01*
X008418Y008690D01*
X008006Y008690D01*
X007368Y008051D01*
X007368Y007640D01*
X008418Y007640D01*
X008418Y007560D01*
X007368Y007560D01*
X007368Y007149D01*
X007726Y006790D01*
X005528Y006790D01*
X005528Y006850D02*
X007667Y006850D01*
X007588Y006928D02*
X005528Y006928D01*
X005528Y007007D02*
X007510Y007007D01*
X007431Y007085D02*
X005528Y007085D01*
X005528Y007164D02*
X007368Y007164D01*
X007368Y007242D02*
X005528Y007242D01*
X005528Y007321D02*
X007368Y007321D01*
X007368Y007399D02*
X005528Y007399D01*
X005528Y007478D02*
X007368Y007478D01*
X007368Y007556D02*
X005528Y007556D01*
X005528Y007635D02*
X008418Y007635D01*
X008418Y007713D02*
X008498Y007713D01*
X008498Y007792D02*
X008418Y007792D01*
X008418Y007870D02*
X008498Y007870D01*
X008498Y007949D02*
X008418Y007949D01*
X008418Y008027D02*
X008498Y008027D01*
X008498Y008106D02*
X008418Y008106D01*
X008418Y008184D02*
X008498Y008184D01*
X008498Y008263D02*
X008418Y008263D01*
X008418Y008341D02*
X008498Y008341D01*
X008498Y008420D02*
X008418Y008420D01*
X008418Y008498D02*
X008498Y008498D01*
X008498Y008577D02*
X008418Y008577D01*
X008418Y008655D02*
X008498Y008655D01*
X008719Y008891D02*
X008140Y008891D01*
X008218Y008969D02*
X008641Y008969D01*
X008562Y009048D02*
X008297Y009048D01*
X008368Y009119D02*
X008368Y009530D01*
X007318Y009530D01*
X007318Y009610D01*
X008368Y009610D01*
X008368Y010021D01*
X007729Y010660D01*
X007318Y010660D01*
X007318Y009610D01*
X007238Y009610D01*
X007238Y010660D01*
X006826Y010660D01*
X006188Y010021D01*
X006188Y009610D01*
X007238Y009610D01*
X007238Y009530D01*
X007318Y009530D01*
X007318Y008480D01*
X007729Y008480D01*
X008368Y009119D01*
X008368Y009126D02*
X008508Y009126D01*
X008508Y009102D02*
X009170Y008440D01*
X010106Y008440D01*
X010768Y009102D01*
X010768Y010038D01*
X010106Y010700D01*
X009170Y010700D01*
X008508Y010038D01*
X008508Y009102D01*
X008508Y009205D02*
X008368Y009205D01*
X008368Y009283D02*
X008508Y009283D01*
X008508Y009362D02*
X008368Y009362D01*
X008368Y009440D02*
X008508Y009440D01*
X008508Y009519D02*
X008368Y009519D01*
X008368Y009676D02*
X008508Y009676D01*
X008508Y009754D02*
X008368Y009754D01*
X008368Y009833D02*
X008508Y009833D01*
X008508Y009911D02*
X008368Y009911D01*
X008368Y009990D02*
X008508Y009990D01*
X008538Y010068D02*
X008321Y010068D01*
X008243Y010147D02*
X008616Y010147D01*
X008695Y010225D02*
X008164Y010225D01*
X008086Y010304D02*
X008773Y010304D01*
X008852Y010382D02*
X008007Y010382D01*
X007929Y010461D02*
X008930Y010461D01*
X009009Y010539D02*
X007850Y010539D01*
X007772Y010618D02*
X009087Y010618D01*
X009166Y010696D02*
X005528Y010696D01*
X005528Y010618D02*
X006784Y010618D01*
X006705Y010539D02*
X005528Y010539D01*
X005528Y010461D02*
X006627Y010461D01*
X006548Y010382D02*
X005528Y010382D01*
X005528Y010304D02*
X006470Y010304D01*
X006391Y010225D02*
X005528Y010225D01*
X005528Y010147D02*
X006313Y010147D01*
X006234Y010068D02*
X005528Y010068D01*
X005528Y009990D02*
X006188Y009990D01*
X006188Y009911D02*
X005528Y009911D01*
X005528Y009833D02*
X006188Y009833D01*
X006188Y009754D02*
X005528Y009754D01*
X005528Y009676D02*
X006188Y009676D01*
X006188Y009530D02*
X006188Y009119D01*
X006826Y008480D01*
X007238Y008480D01*
X007238Y009530D01*
X006188Y009530D01*
X006188Y009519D02*
X005528Y009519D01*
X005528Y009597D02*
X007238Y009597D01*
X007238Y009519D02*
X007318Y009519D01*
X007318Y009597D02*
X008508Y009597D01*
X008798Y008812D02*
X008061Y008812D01*
X007983Y008734D02*
X008876Y008734D01*
X008944Y008655D02*
X008955Y008655D01*
X009023Y008577D02*
X009033Y008577D01*
X009101Y008498D02*
X009112Y008498D01*
X009180Y008420D02*
X016593Y008420D01*
X016628Y008498D02*
X010164Y008498D01*
X010242Y008577D02*
X016706Y008577D01*
X016842Y008655D02*
X010321Y008655D01*
X010399Y008734D02*
X022346Y008734D01*
X022268Y008812D02*
X014677Y008812D01*
X014793Y008891D02*
X022189Y008891D01*
X022111Y008969D02*
X014852Y008969D01*
X014289Y008812D02*
X010478Y008812D01*
X010556Y008891D02*
X014184Y008891D01*
X014125Y008969D02*
X010635Y008969D01*
X010713Y009048D02*
X014078Y009048D01*
X014064Y009126D02*
X010768Y009126D01*
X010768Y009205D02*
X014053Y009205D01*
X014065Y009283D02*
X010768Y009283D01*
X010768Y009362D02*
X014085Y009362D01*
X014130Y009440D02*
X010768Y009440D01*
X010768Y009519D02*
X014189Y009519D01*
X014248Y009597D02*
X010768Y009597D01*
X010768Y009676D02*
X014305Y009676D01*
X014384Y009754D02*
X010768Y009754D01*
X010768Y009833D02*
X014625Y009833D01*
X014682Y009833D02*
X016216Y009833D01*
X016137Y009911D02*
X010768Y009911D01*
X010768Y009990D02*
X016059Y009990D01*
X015980Y010068D02*
X010738Y010068D01*
X010659Y010147D02*
X015902Y010147D01*
X015823Y010225D02*
X010581Y010225D01*
X010502Y010304D02*
X015745Y010304D01*
X015666Y010382D02*
X010424Y010382D01*
X010345Y010461D02*
X015588Y010461D01*
X015509Y010539D02*
X010267Y010539D01*
X010188Y010618D02*
X015261Y010618D01*
X015183Y010696D02*
X010110Y010696D01*
X009480Y011403D02*
X015111Y011403D01*
X015033Y011481D02*
X009519Y011481D01*
X009528Y011560D02*
X013655Y011560D01*
X013526Y011638D02*
X009528Y011638D01*
X009528Y011717D02*
X013447Y011717D01*
X013369Y011795D02*
X009528Y011795D01*
X009528Y011874D02*
X013290Y011874D01*
X013254Y011952D02*
X011699Y011952D01*
X011778Y012031D02*
X013238Y012031D01*
X013238Y012109D02*
X011856Y012109D01*
X011898Y012188D02*
X013238Y012188D01*
X013238Y012266D02*
X011898Y012266D01*
X011898Y012345D02*
X013238Y012345D01*
X013238Y012423D02*
X011898Y012423D01*
X011878Y012502D02*
X013238Y012502D01*
X013238Y012580D02*
X011878Y012580D01*
X011878Y012659D02*
X013238Y012659D01*
X013238Y012737D02*
X011878Y012737D01*
X011878Y012816D02*
X013238Y012816D01*
X013238Y012894D02*
X011878Y012894D01*
X011878Y012973D02*
X013238Y012973D01*
X013238Y013051D02*
X011878Y013051D01*
X011878Y013130D02*
X013238Y013130D01*
X013238Y013208D02*
X011878Y013208D01*
X011878Y013287D02*
X013238Y013287D01*
X013261Y013365D02*
X011878Y013365D01*
X011878Y013444D02*
X013307Y013444D01*
X013386Y013522D02*
X011878Y013522D01*
X011878Y013601D02*
X013464Y013601D01*
X013543Y013679D02*
X011878Y013679D01*
X011878Y013758D02*
X013621Y013758D01*
X013700Y013836D02*
X011878Y013836D01*
X011878Y013915D02*
X013778Y013915D01*
X013857Y013993D02*
X011878Y013993D01*
X011878Y014072D02*
X013935Y014072D01*
X014014Y014150D02*
X011878Y014150D01*
X011878Y014229D02*
X014092Y014229D01*
X014171Y014307D02*
X011878Y014307D01*
X011878Y014386D02*
X014249Y014386D01*
X014288Y014464D02*
X011878Y014464D01*
X011878Y014543D02*
X014288Y014543D01*
X014288Y014621D02*
X011948Y014621D01*
X012027Y014700D02*
X014288Y014700D01*
X014288Y014778D02*
X012105Y014778D01*
X012184Y014857D02*
X014288Y014857D01*
X014244Y014935D02*
X012262Y014935D01*
X012341Y015014D02*
X014165Y015014D01*
X014128Y015092D02*
X012419Y015092D01*
X012498Y015171D02*
X014128Y015171D01*
X014128Y015249D02*
X012576Y015249D01*
X012655Y015328D02*
X014128Y015328D01*
X014185Y015406D02*
X012733Y015406D01*
X012812Y015485D02*
X014263Y015485D01*
X014712Y015485D02*
X015508Y015485D01*
X015508Y015563D02*
X012890Y015563D01*
X012969Y015642D02*
X015508Y015642D01*
X015508Y015720D02*
X013047Y015720D01*
X013126Y015799D02*
X015508Y015799D01*
X015508Y015877D02*
X013204Y015877D01*
X013283Y015956D02*
X015508Y015956D01*
X015508Y016034D02*
X013361Y016034D01*
X013440Y016113D02*
X015508Y016113D01*
X015508Y016191D02*
X013503Y016191D01*
X013528Y016270D02*
X015443Y016270D01*
X015365Y016348D02*
X013528Y016348D01*
X013528Y016427D02*
X015286Y016427D01*
X015208Y016505D02*
X013528Y016505D01*
X013528Y016584D02*
X015129Y016584D01*
X015051Y016662D02*
X013528Y016662D01*
X013528Y016741D02*
X014972Y016741D01*
X014894Y016819D02*
X013528Y016819D01*
X013528Y016898D02*
X014815Y016898D01*
X014737Y016976D02*
X013528Y016976D01*
X013528Y017055D02*
X014658Y017055D01*
X014580Y017133D02*
X013528Y017133D01*
X013539Y017212D02*
X014501Y017212D01*
X014423Y017290D02*
X013617Y017290D01*
X013696Y017369D02*
X014408Y017369D01*
X014408Y017447D02*
X013774Y017447D01*
X013853Y017526D02*
X014408Y017526D01*
X014408Y017604D02*
X013931Y017604D01*
X014010Y017683D02*
X014408Y017683D01*
X014408Y017761D02*
X014088Y017761D01*
X014167Y017840D02*
X014408Y017840D01*
X014408Y017918D02*
X014243Y017918D01*
X014276Y017997D02*
X014408Y017997D01*
X014408Y018075D02*
X014278Y018075D01*
X014278Y018154D02*
X014408Y018154D01*
X014408Y018232D02*
X014278Y018232D01*
X014278Y018311D02*
X014408Y018311D01*
X014408Y018389D02*
X014278Y018389D01*
X014278Y018468D02*
X014408Y018468D01*
X014408Y018546D02*
X014278Y018546D01*
X014278Y018625D02*
X014408Y018625D01*
X014408Y018703D02*
X014278Y018703D01*
X014278Y018782D02*
X014408Y018782D01*
X014408Y018860D02*
X014278Y018860D01*
X014278Y018939D02*
X014408Y018939D01*
X014408Y019017D02*
X014278Y019017D01*
X014278Y019096D02*
X014408Y019096D01*
X014408Y019174D02*
X014278Y019174D01*
X014278Y019253D02*
X014408Y019253D01*
X014408Y019331D02*
X014278Y019331D01*
X014278Y019410D02*
X014408Y019410D01*
X014408Y019488D02*
X014278Y019488D01*
X014278Y019567D02*
X014408Y019567D01*
X014408Y019645D02*
X014278Y019645D01*
X014278Y019724D02*
X014408Y019724D01*
X014408Y019802D02*
X014278Y019802D01*
X014278Y019881D02*
X014408Y019881D01*
X014408Y019959D02*
X014278Y019959D01*
X014278Y020038D02*
X014408Y020038D01*
X014408Y020116D02*
X014270Y020116D01*
X014233Y020195D02*
X014408Y020195D01*
X014408Y020273D02*
X014154Y020273D01*
X014076Y020352D02*
X014408Y020352D01*
X014333Y020430D02*
X013997Y020430D01*
X013919Y020509D02*
X014254Y020509D01*
X014176Y020587D02*
X013840Y020587D01*
X013762Y020666D02*
X014097Y020666D01*
X014019Y020744D02*
X013683Y020744D01*
X013605Y020823D02*
X013940Y020823D01*
X013858Y020901D02*
X013526Y020901D01*
X013448Y020980D02*
X013780Y020980D01*
X013521Y021058D02*
X013369Y021058D01*
X013442Y021137D02*
X013291Y021137D01*
X013364Y021215D02*
X013212Y021215D01*
X013134Y021294D02*
X013328Y021294D01*
X013328Y021372D02*
X013055Y021372D01*
X012977Y021451D02*
X013312Y021451D01*
X013234Y021529D02*
X012898Y021529D01*
X012820Y021608D02*
X013155Y021608D01*
X013108Y021686D02*
X012741Y021686D01*
X012663Y021765D02*
X012887Y021765D01*
X012843Y021843D02*
X012584Y021843D01*
X012506Y021922D02*
X012843Y021922D01*
X012843Y022000D02*
X012427Y022000D01*
X012349Y022079D02*
X012843Y022079D01*
X012843Y022157D02*
X012270Y022157D01*
X012192Y022236D02*
X012843Y022236D01*
X012843Y022314D02*
X012113Y022314D01*
X012035Y022393D02*
X012844Y022393D01*
X012883Y022471D02*
X012018Y022471D01*
X012073Y022550D02*
X012883Y022550D01*
X012883Y022628D02*
X012073Y022628D01*
X012073Y022707D02*
X013298Y022707D01*
X013378Y022707D02*
X013773Y022707D01*
X013793Y022628D02*
X013852Y022628D01*
X013908Y022550D02*
X013793Y022550D01*
X013793Y022471D02*
X013908Y022471D01*
X013917Y022393D02*
X013831Y022393D01*
X013833Y022314D02*
X013949Y022314D01*
X013994Y022236D02*
X013833Y022236D01*
X013833Y022157D02*
X014073Y022157D01*
X014151Y022079D02*
X013833Y022079D01*
X013833Y022000D02*
X014230Y022000D01*
X014308Y021922D02*
X013833Y021922D01*
X013833Y021843D02*
X014387Y021843D01*
X014465Y021765D02*
X013789Y021765D01*
X013911Y021686D02*
X014544Y021686D01*
X014622Y021608D02*
X013989Y021608D01*
X014048Y021529D02*
X014701Y021529D01*
X014779Y021451D02*
X014048Y021451D01*
X014048Y021372D02*
X014858Y021372D01*
X014936Y021294D02*
X014120Y021294D01*
X014198Y021215D02*
X015015Y021215D01*
X015058Y021137D02*
X014277Y021137D01*
X014355Y021058D02*
X015058Y021058D01*
X015058Y020980D02*
X014434Y020980D01*
X014512Y020901D02*
X015058Y020901D01*
X015058Y020823D02*
X014591Y020823D01*
X014669Y020744D02*
X015058Y020744D01*
X015058Y020666D02*
X014748Y020666D01*
X014826Y020587D02*
X015058Y020587D01*
X015058Y020509D02*
X014868Y020509D01*
X014868Y020430D02*
X015058Y020430D01*
X015058Y020352D02*
X014868Y020352D01*
X014868Y020273D02*
X015058Y020273D01*
X015058Y020195D02*
X014868Y020195D01*
X014868Y020116D02*
X015058Y020116D01*
X015058Y020038D02*
X014868Y020038D01*
X014868Y019959D02*
X015058Y019959D01*
X015058Y019881D02*
X014868Y019881D01*
X014868Y019802D02*
X015058Y019802D01*
X015058Y019724D02*
X014868Y019724D01*
X014868Y019645D02*
X015058Y019645D01*
X015058Y019567D02*
X014868Y019567D01*
X014868Y019488D02*
X015058Y019488D01*
X015058Y019410D02*
X014868Y019410D01*
X014868Y019331D02*
X015058Y019331D01*
X015058Y019253D02*
X014868Y019253D01*
X014868Y019174D02*
X015058Y019174D01*
X015058Y019096D02*
X014868Y019096D01*
X014868Y019017D02*
X015058Y019017D01*
X015058Y018939D02*
X014868Y018939D01*
X014868Y018860D02*
X015058Y018860D01*
X015058Y018782D02*
X014868Y018782D01*
X014868Y018703D02*
X015058Y018703D01*
X015058Y018625D02*
X014868Y018625D01*
X014868Y018546D02*
X015058Y018546D01*
X015058Y018468D02*
X014868Y018468D01*
X014868Y018389D02*
X015058Y018389D01*
X015058Y018311D02*
X014868Y018311D01*
X014868Y018232D02*
X015058Y018232D01*
X015058Y018154D02*
X014868Y018154D01*
X014868Y018075D02*
X015058Y018075D01*
X015058Y017997D02*
X014868Y017997D01*
X014868Y017918D02*
X015058Y017918D01*
X015068Y017840D02*
X014868Y017840D01*
X014868Y017761D02*
X015101Y017761D01*
X015147Y017683D02*
X014868Y017683D01*
X014868Y017604D02*
X015226Y017604D01*
X015304Y017526D02*
X014868Y017526D01*
X014916Y017447D02*
X015383Y017447D01*
X015461Y017369D02*
X014995Y017369D01*
X015073Y017290D02*
X015540Y017290D01*
X015618Y017212D02*
X015152Y017212D01*
X015230Y017133D02*
X015697Y017133D01*
X015775Y017055D02*
X015309Y017055D01*
X015387Y016976D02*
X015854Y016976D01*
X015932Y016898D02*
X015466Y016898D01*
X015544Y016819D02*
X016011Y016819D01*
X016087Y016741D02*
X015623Y016741D01*
X015701Y016662D02*
X016168Y016662D01*
X016261Y016584D02*
X015780Y016584D01*
X015858Y016505D02*
X016351Y016505D01*
X016408Y016427D02*
X015937Y016427D01*
X015968Y016348D02*
X016408Y016348D01*
X016408Y016270D02*
X015968Y016270D01*
X015968Y016191D02*
X016408Y016191D01*
X016408Y016113D02*
X015968Y016113D01*
X015968Y016034D02*
X016408Y016034D01*
X016408Y015956D02*
X015968Y015956D01*
X015968Y015877D02*
X016408Y015877D01*
X016408Y015799D02*
X015968Y015799D01*
X015968Y015720D02*
X016408Y015720D01*
X016408Y015642D02*
X015968Y015642D01*
X015968Y015563D02*
X016408Y015563D01*
X016408Y015485D02*
X015968Y015485D01*
X015968Y015406D02*
X016408Y015406D01*
X016408Y015328D02*
X015968Y015328D01*
X015968Y015249D02*
X016408Y015249D01*
X016408Y015171D02*
X015968Y015171D01*
X015968Y015092D02*
X016438Y015092D01*
X016458Y015014D02*
X015968Y015014D01*
X015968Y014935D02*
X016458Y014935D01*
X016458Y014857D02*
X015968Y014857D01*
X015968Y014778D02*
X016458Y014778D01*
X016458Y014700D02*
X015968Y014700D01*
X015968Y014621D02*
X016458Y014621D01*
X016458Y014543D02*
X015968Y014543D01*
X015968Y014464D02*
X016458Y014464D01*
X016458Y014386D02*
X015968Y014386D01*
X015968Y014307D02*
X016458Y014307D01*
X016458Y014229D02*
X015968Y014229D01*
X015968Y014150D02*
X016458Y014150D01*
X016458Y014072D02*
X015968Y014072D01*
X015968Y013993D02*
X016458Y013993D01*
X016458Y013915D02*
X015968Y013915D01*
X015968Y013836D02*
X016458Y013836D01*
X016458Y013758D02*
X015968Y013758D01*
X015968Y013679D02*
X016458Y013679D01*
X016458Y013601D02*
X015968Y013601D01*
X015968Y013522D02*
X016458Y013522D01*
X016458Y013444D02*
X015968Y013444D01*
X015968Y013365D02*
X016458Y013365D01*
X016458Y013287D02*
X015900Y013287D01*
X015455Y013208D02*
X016458Y013208D01*
X016458Y013130D02*
X015377Y013130D01*
X014999Y013130D02*
X013842Y013130D01*
X013838Y013051D02*
X014230Y013051D01*
X014151Y012973D02*
X013838Y012973D01*
X013838Y012894D02*
X014078Y012894D01*
X014078Y012816D02*
X013838Y012816D01*
X013838Y012737D02*
X014078Y012737D01*
X014078Y012659D02*
X013838Y012659D01*
X013838Y012580D02*
X014099Y012580D01*
X014177Y012502D02*
X013838Y012502D01*
X013838Y012423D02*
X014256Y012423D01*
X014620Y012423D02*
X016607Y012423D01*
X016685Y012345D02*
X013838Y012345D01*
X013838Y012266D02*
X016764Y012266D01*
X016842Y012188D02*
X013838Y012188D01*
X015247Y012109D02*
X016921Y012109D01*
X016999Y012031D02*
X015332Y012031D01*
X015410Y011952D02*
X017078Y011952D01*
X017156Y011874D02*
X015489Y011874D01*
X015567Y011795D02*
X017235Y011795D01*
X017313Y011717D02*
X015646Y011717D01*
X015724Y011638D02*
X017392Y011638D01*
X017470Y011560D02*
X015803Y011560D01*
X015881Y011481D02*
X017626Y011481D01*
X017850Y011481D02*
X023368Y011481D01*
X023368Y011403D02*
X019952Y011403D01*
X019984Y011389D02*
X019837Y011450D01*
X019238Y011450D01*
X019091Y011389D01*
X018979Y011277D01*
X018918Y011130D01*
X018918Y010970D01*
X018979Y010823D01*
X019091Y010711D01*
X019238Y010650D01*
X019837Y010650D01*
X019984Y010711D01*
X020097Y010823D01*
X020158Y010970D01*
X020158Y011130D01*
X020097Y011277D01*
X019984Y011389D01*
X020050Y011324D02*
X023368Y011324D01*
X023368Y011246D02*
X020110Y011246D01*
X020142Y011167D02*
X023368Y011167D01*
X023368Y011089D02*
X020158Y011089D01*
X020158Y011010D02*
X023368Y011010D01*
X023368Y010932D02*
X020142Y010932D01*
X020109Y010853D02*
X023368Y010853D01*
X023368Y010775D02*
X020048Y010775D01*
X019949Y010696D02*
X023368Y010696D01*
X023368Y010618D02*
X018879Y010618D01*
X018958Y010539D02*
X023368Y010539D01*
X023368Y010461D02*
X019036Y010461D01*
X019048Y010382D02*
X023368Y010382D01*
X023368Y010304D02*
X019048Y010304D01*
X019048Y010225D02*
X023402Y010225D01*
X023480Y010147D02*
X019044Y010147D01*
X019127Y010696D02*
X018566Y010696D01*
X018967Y010853D02*
X016509Y010853D01*
X016431Y010932D02*
X018934Y010932D01*
X018918Y011010D02*
X016352Y011010D01*
X016274Y011089D02*
X018918Y011089D01*
X018933Y011167D02*
X016195Y011167D01*
X016117Y011246D02*
X018966Y011246D01*
X019026Y011324D02*
X016038Y011324D01*
X015960Y011403D02*
X019124Y011403D01*
X018127Y011717D02*
X023368Y011717D01*
X023368Y011795D02*
X018160Y011795D01*
X018168Y011874D02*
X023368Y011874D01*
X023368Y011952D02*
X018168Y011952D01*
X018149Y012031D02*
X023368Y012031D01*
X023368Y012109D02*
X018117Y012109D01*
X018058Y012188D02*
X023368Y012188D01*
X023368Y012266D02*
X017980Y012266D01*
X017901Y012345D02*
X023368Y012345D01*
X023368Y012423D02*
X017823Y012423D01*
X017744Y012502D02*
X023368Y012502D01*
X023368Y012580D02*
X017666Y012580D01*
X017587Y012659D02*
X019218Y012659D01*
X019238Y012650D02*
X019837Y012650D01*
X019984Y012711D01*
X020097Y012823D01*
X020158Y012970D01*
X020158Y013130D01*
X020097Y013277D01*
X019984Y013389D01*
X019837Y013450D01*
X019238Y013450D01*
X019091Y013389D01*
X018979Y013277D01*
X018918Y013130D01*
X018918Y012970D01*
X018979Y012823D01*
X019091Y012711D01*
X019238Y012650D01*
X019065Y012737D02*
X017509Y012737D01*
X017430Y012816D02*
X018987Y012816D01*
X018950Y012894D02*
X017352Y012894D01*
X017318Y012973D02*
X018918Y012973D01*
X018918Y013051D02*
X017318Y013051D01*
X017318Y013130D02*
X018918Y013130D01*
X018950Y013208D02*
X017318Y013208D01*
X017318Y013287D02*
X018989Y013287D01*
X019067Y013365D02*
X017318Y013365D01*
X017318Y013444D02*
X019223Y013444D01*
X019853Y013444D02*
X023368Y013444D01*
X023368Y013522D02*
X017318Y013522D01*
X017318Y013601D02*
X023368Y013601D01*
X023368Y013679D02*
X017318Y013679D01*
X017318Y013758D02*
X023368Y013758D01*
X023368Y013836D02*
X017318Y013836D01*
X017318Y013915D02*
X023368Y013915D01*
X023368Y013993D02*
X017318Y013993D01*
X017318Y014072D02*
X023368Y014072D01*
X023368Y014150D02*
X017318Y014150D01*
X017318Y014229D02*
X023368Y014229D01*
X023368Y014307D02*
X017318Y014307D01*
X017318Y014386D02*
X023368Y014386D01*
X023368Y014464D02*
X017318Y014464D01*
X017318Y014543D02*
X023368Y014543D01*
X023356Y014621D02*
X017318Y014621D01*
X017318Y014700D02*
X023277Y014700D01*
X023199Y014778D02*
X017318Y014778D01*
X018112Y014857D02*
X023120Y014857D01*
X022892Y014935D02*
X018231Y014935D01*
X018310Y015014D02*
X022415Y015014D01*
X022337Y015092D02*
X018388Y015092D01*
X018467Y015171D02*
X022258Y015171D01*
X022228Y015249D02*
X018545Y015249D01*
X018624Y015328D02*
X022228Y015328D01*
X022228Y015406D02*
X018702Y015406D01*
X018781Y015485D02*
X020544Y015485D01*
X020466Y015563D02*
X018859Y015563D01*
X018938Y015642D02*
X020387Y015642D01*
X020378Y015720D02*
X019016Y015720D01*
X019095Y015799D02*
X020378Y015799D01*
X020378Y015877D02*
X019173Y015877D01*
X019252Y015956D02*
X020384Y015956D01*
X020463Y016034D02*
X019330Y016034D01*
X019409Y016113D02*
X020541Y016113D01*
X020778Y016191D02*
X019487Y016191D01*
X019566Y016270D02*
X020778Y016270D01*
X020778Y016348D02*
X019644Y016348D01*
X019723Y016427D02*
X020855Y016427D01*
X020934Y016505D02*
X019801Y016505D01*
X019880Y016584D02*
X022612Y016584D01*
X022534Y016505D02*
X021342Y016505D01*
X021420Y016427D02*
X022478Y016427D01*
X022438Y016200D02*
X023138Y015500D01*
X023388Y015500D01*
X023988Y014900D01*
X023988Y010600D01*
X024238Y010350D01*
X024420Y010350D01*
X024238Y010000D02*
X023788Y010450D01*
X023788Y014800D01*
X023288Y015300D01*
X023088Y015300D01*
X022388Y016000D01*
X021438Y016000D01*
X021188Y015800D01*
X020738Y015800D01*
X021010Y015563D02*
X022292Y015563D01*
X022228Y015485D02*
X020932Y015485D01*
X021342Y015642D02*
X022370Y015642D01*
X022357Y015720D02*
X021440Y015720D01*
X021138Y016200D02*
X022438Y016200D01*
X022838Y016300D02*
X022888Y016300D01*
X024188Y015000D01*
X024188Y011100D01*
X024488Y010850D01*
X024388Y011400D02*
X025788Y010000D01*
X025788Y008350D01*
X025038Y007600D01*
X025038Y007300D01*
X024558Y007321D02*
X023518Y007321D01*
X023518Y007399D02*
X024558Y007399D01*
X024558Y007478D02*
X023518Y007478D01*
X023518Y007556D02*
X024558Y007556D01*
X024558Y007635D02*
X023518Y007635D01*
X023511Y007713D02*
X024565Y007713D01*
X024598Y007792D02*
X023478Y007792D01*
X023468Y007870D02*
X024630Y007870D01*
X024708Y007949D02*
X023468Y007949D01*
X023468Y008027D02*
X024814Y008027D01*
X025232Y008106D02*
X023468Y008106D01*
X023468Y008184D02*
X025311Y008184D01*
X025389Y008263D02*
X023468Y008263D01*
X023468Y008341D02*
X025468Y008341D01*
X025546Y008420D02*
X023468Y008420D01*
X023468Y008498D02*
X025568Y008498D01*
X025568Y008577D02*
X023468Y008577D01*
X023468Y008655D02*
X025568Y008655D01*
X025568Y008734D02*
X023468Y008734D01*
X023436Y008812D02*
X025568Y008812D01*
X025568Y008891D02*
X023404Y008891D01*
X023327Y008969D02*
X025568Y008969D01*
X025568Y009048D02*
X023248Y009048D01*
X023170Y009126D02*
X025568Y009126D01*
X025568Y009205D02*
X023645Y009205D01*
X023724Y009283D02*
X025568Y009283D01*
X025568Y009362D02*
X024509Y009362D01*
X024587Y009440D02*
X025568Y009440D01*
X025568Y009519D02*
X024666Y009519D01*
X024698Y009597D02*
X025568Y009597D01*
X025568Y009676D02*
X024698Y009676D01*
X024698Y009754D02*
X025568Y009754D01*
X025568Y009833D02*
X024845Y009833D01*
X024924Y009911D02*
X025566Y009911D01*
X025487Y009990D02*
X025200Y009990D01*
X025279Y010068D02*
X025409Y010068D01*
X024988Y010286D02*
X024702Y010000D01*
X024238Y010000D01*
X024238Y009700D02*
X023588Y010350D01*
X023588Y014700D01*
X023188Y015100D01*
X023038Y015100D01*
X022788Y015350D01*
X022588Y015350D01*
X022761Y015014D02*
X022813Y015014D01*
X023238Y016250D02*
X024388Y015100D01*
X024388Y011400D01*
X024578Y011540D02*
X026038Y010080D01*
X026038Y007300D01*
X027038Y007300D02*
X027038Y009370D01*
X024808Y011600D01*
X024808Y015230D01*
X023648Y016390D01*
X023648Y021190D01*
X023538Y021300D01*
X023538Y022400D01*
X023738Y022100D02*
X023738Y021350D01*
X023838Y021250D01*
X023858Y021200D01*
X023858Y016460D01*
X025018Y015300D01*
X025018Y011690D01*
X028038Y008670D01*
X028038Y007540D01*
X028078Y007500D01*
X028078Y007420D01*
X028038Y007380D01*
X028038Y007300D01*
X029038Y007300D02*
X029038Y007980D01*
X025218Y011800D01*
X025218Y015380D01*
X024058Y016540D01*
X024058Y021280D01*
X023938Y021400D01*
X023938Y022050D01*
X024088Y022200D01*
X024088Y022500D01*
X024238Y022650D01*
X024238Y023100D01*
X024438Y022850D02*
X024438Y022600D01*
X024288Y022450D01*
X024288Y022100D01*
X024138Y021950D01*
X024138Y021450D01*
X024238Y021350D01*
X024238Y016600D01*
X025438Y015400D01*
X025438Y011900D01*
X029238Y008100D01*
X029488Y008100D01*
X030038Y007550D01*
X030038Y007300D01*
X030288Y008050D02*
X031038Y007300D01*
X031538Y008050D02*
X032038Y007550D01*
X032038Y007850D01*
X032038Y007550D02*
X032038Y007300D01*
X032588Y008250D02*
X033288Y007550D01*
X034038Y007550D01*
X034038Y007300D01*
X035038Y007300D02*
X035038Y007800D01*
X034738Y008100D01*
X033788Y008100D01*
X031238Y010650D01*
X027838Y010650D01*
X026238Y012250D01*
X026238Y015600D01*
X025038Y016800D01*
X025038Y021400D01*
X025188Y021550D01*
X025188Y023050D01*
X025238Y023100D01*
X025238Y023300D01*
X024999Y023570D02*
X024948Y023570D01*
X024898Y023649D02*
X025077Y023649D01*
X025278Y023727D02*
X024820Y023727D01*
X024741Y023806D02*
X025278Y023806D01*
X025283Y023884D02*
X025313Y023884D01*
X025362Y023963D02*
X025391Y023963D01*
X025440Y024041D02*
X025470Y024041D01*
X025519Y024120D02*
X026907Y024120D01*
X026986Y024041D02*
X026506Y024041D01*
X026584Y023963D02*
X027064Y023963D01*
X027188Y024150D02*
X028838Y024150D01*
X030038Y025350D01*
X030218Y025350D01*
X030568Y025700D01*
X031468Y025700D01*
X031818Y025350D01*
X034038Y025350D01*
X034188Y025500D01*
X034838Y025500D01*
X035038Y025700D01*
X035038Y026300D01*
X035518Y026318D02*
X035558Y026318D01*
X035558Y026396D02*
X035518Y026396D01*
X035518Y026475D02*
X035558Y026475D01*
X035558Y026553D02*
X035518Y026553D01*
X035518Y026632D02*
X035558Y026632D01*
X035564Y026710D02*
X035512Y026710D01*
X035479Y026789D02*
X035596Y026789D01*
X035558Y026239D02*
X035518Y026239D01*
X035518Y026161D02*
X035558Y026161D01*
X035558Y026082D02*
X035518Y026082D01*
X035518Y026004D02*
X035558Y026004D01*
X035558Y025925D02*
X035518Y025925D01*
X035494Y025847D02*
X035582Y025847D01*
X035614Y025768D02*
X035461Y025768D01*
X035406Y025690D02*
X035670Y025690D01*
X035748Y025611D02*
X035328Y025611D01*
X035182Y025533D02*
X035818Y025533D01*
X035818Y025454D02*
X035103Y025454D01*
X035025Y025376D02*
X035818Y025376D01*
X035818Y025297D02*
X034946Y025297D01*
X034258Y025259D02*
X034258Y025259D01*
X034218Y025219D02*
X035818Y025219D01*
X035818Y025140D02*
X034139Y025140D01*
X033838Y025550D02*
X031848Y025550D01*
X031498Y025900D01*
X030538Y025900D01*
X030188Y025550D01*
X029988Y025550D01*
X028838Y024400D01*
X027288Y024400D01*
X027038Y024650D01*
X025488Y024650D01*
X025138Y024300D01*
X022238Y024300D01*
X021638Y023700D01*
X021638Y021900D01*
X021938Y021600D01*
X021938Y021250D01*
X021638Y020950D01*
X021638Y018900D01*
X020688Y017950D01*
X020688Y017650D01*
X020447Y017918D02*
X016128Y017918D01*
X016206Y017840D02*
X020368Y017840D01*
X020328Y017799D02*
X020328Y017530D01*
X019702Y017530D01*
X019544Y017465D01*
X017760Y015680D01*
X017268Y015680D01*
X017268Y016579D01*
X017273Y016593D01*
X017268Y016664D01*
X017268Y016736D01*
X017262Y016749D01*
X017261Y016764D01*
X017230Y016828D01*
X017202Y016894D01*
X017192Y016904D01*
X017185Y016917D01*
X017132Y016964D01*
X017081Y017015D01*
X017068Y017020D01*
X016732Y017314D01*
X016452Y017594D01*
X015918Y018128D01*
X015918Y021436D01*
X015852Y021594D01*
X015731Y021715D01*
X014768Y022678D01*
X014768Y022836D01*
X014702Y022994D01*
X013718Y023978D01*
X013718Y024199D01*
X013437Y024480D01*
X013039Y024480D01*
X012758Y024199D01*
X012758Y023801D01*
X012829Y023730D01*
X012647Y023730D01*
X012718Y023801D01*
X012718Y024199D01*
X012437Y024480D01*
X012039Y024480D01*
X011758Y024199D01*
X011758Y023801D01*
X011829Y023730D01*
X011590Y023730D01*
X011678Y023818D01*
X011678Y023960D01*
X011278Y023960D01*
X011278Y024040D01*
X011678Y024040D01*
X011678Y024182D01*
X011420Y024440D01*
X011278Y024440D01*
X011278Y024040D01*
X011198Y024040D01*
X011198Y024440D01*
X011056Y024440D01*
X010798Y024182D01*
X010798Y024040D01*
X011198Y024040D01*
X011198Y023960D01*
X010798Y023960D01*
X010798Y023818D01*
X010918Y023697D01*
X010878Y023685D01*
X010863Y023672D01*
X010844Y023665D01*
X010798Y023618D01*
X010576Y023433D01*
X010575Y023432D01*
X010574Y023432D01*
X010563Y023422D01*
X010544Y023415D01*
X010498Y023368D01*
X010447Y023326D01*
X010438Y023308D01*
X010010Y022880D01*
X009288Y022880D01*
X009288Y024550D01*
X005528Y024550D01*
X005528Y026810D01*
X010097Y026810D01*
X010041Y026713D01*
X009968Y026441D01*
X009968Y026159D01*
X010041Y025887D01*
X010182Y025643D01*
X010381Y025444D01*
X010625Y025303D01*
X010812Y025253D01*
X010758Y025199D01*
X010758Y024801D01*
X011039Y024520D01*
X011437Y024520D01*
X011718Y024801D01*
X011718Y025199D01*
X011554Y025363D01*
X011695Y025444D01*
X011894Y025643D01*
X012035Y025887D01*
X012108Y026159D01*
X012108Y026441D01*
X012035Y026713D01*
X011979Y026810D01*
X014005Y026810D01*
X013958Y026695D01*
X013958Y025905D01*
X014031Y025728D01*
X014166Y025593D01*
X014342Y025520D01*
X014533Y025520D01*
X014710Y025593D01*
X014845Y025728D01*
X014918Y025905D01*
X014918Y026695D01*
X014870Y026810D01*
X015051Y026810D01*
X015030Y026769D01*
X015009Y026703D01*
X014998Y026635D01*
X014998Y026340D01*
X015398Y026340D01*
X015398Y026260D01*
X015478Y026260D01*
X015478Y026340D01*
X015878Y026340D01*
X015878Y026635D01*
X015867Y026703D01*
X015846Y026769D01*
X015825Y026810D01*
X016005Y026810D01*
X015958Y026695D01*
X015958Y025905D01*
X016031Y025728D01*
X016086Y025673D01*
X015443Y025030D01*
X015308Y024895D01*
X015308Y023955D01*
X016058Y023205D01*
X016193Y023070D01*
X016693Y023070D01*
X016808Y022955D01*
X016808Y022405D01*
X016828Y022385D01*
X016828Y022201D01*
X017039Y021990D01*
X017337Y021990D01*
X017548Y022201D01*
X017548Y022499D01*
X017337Y022710D01*
X017268Y022710D01*
X017268Y023145D01*
X017133Y023280D01*
X016883Y023530D01*
X016383Y023530D01*
X015768Y024145D01*
X015768Y024705D01*
X016618Y025555D01*
X016710Y025593D01*
X016845Y025728D01*
X016918Y025905D01*
X016918Y026695D01*
X016870Y026810D01*
X017005Y026810D01*
X016958Y026695D01*
X016958Y025905D01*
X017031Y025728D01*
X017166Y025593D01*
X017342Y025520D01*
X017533Y025520D01*
X017710Y025593D01*
X017845Y025728D01*
X017918Y025905D01*
X017918Y026695D01*
X017870Y026810D01*
X018005Y026810D01*
X017958Y026695D01*
X017958Y025905D01*
X018031Y025728D01*
X018166Y025593D01*
X018342Y025520D01*
X018533Y025520D01*
X018710Y025593D01*
X018845Y025728D01*
X018918Y025905D01*
X018918Y026695D01*
X018870Y026810D01*
X019005Y026810D01*
X018958Y026695D01*
X018958Y025905D01*
X019031Y025728D01*
X019166Y025593D01*
X019342Y025520D01*
X019533Y025520D01*
X019710Y025593D01*
X019845Y025728D01*
X019918Y025905D01*
X019918Y026695D01*
X019870Y026810D01*
X020005Y026810D01*
X019958Y026695D01*
X019958Y025905D01*
X020031Y025728D01*
X020166Y025593D01*
X020342Y025520D01*
X020533Y025520D01*
X020710Y025593D01*
X020845Y025728D01*
X020918Y025905D01*
X020918Y026695D01*
X020870Y026810D01*
X021005Y026810D01*
X020958Y026695D01*
X020958Y025905D01*
X021031Y025728D01*
X021166Y025593D01*
X021342Y025520D01*
X021533Y025520D01*
X021710Y025593D01*
X021845Y025728D01*
X021918Y025905D01*
X021918Y026695D01*
X021870Y026810D01*
X022605Y026810D01*
X022558Y026695D01*
X022558Y025905D01*
X022631Y025728D01*
X022766Y025593D01*
X022942Y025520D01*
X023133Y025520D01*
X023310Y025593D01*
X023445Y025728D01*
X023518Y025905D01*
X023518Y026695D01*
X023470Y026810D01*
X023605Y026810D01*
X023558Y026695D01*
X023558Y025905D01*
X023631Y025728D01*
X023766Y025593D01*
X023942Y025520D01*
X024133Y025520D01*
X024310Y025593D01*
X024445Y025728D01*
X024518Y025905D01*
X024518Y026695D01*
X024470Y026810D01*
X024605Y026810D01*
X024558Y026695D01*
X024558Y025905D01*
X024631Y025728D01*
X024743Y025616D01*
X024437Y025310D01*
X024339Y025310D01*
X024128Y025099D01*
X024128Y024801D01*
X024209Y024720D01*
X022629Y024720D01*
X022558Y024791D01*
X022429Y024920D01*
X017327Y024920D01*
X017187Y025060D01*
X016889Y025060D01*
X016678Y024849D01*
X016678Y024551D01*
X016889Y024340D01*
X017187Y024340D01*
X017327Y024480D01*
X022107Y024480D01*
X022018Y024391D01*
X021512Y023885D01*
X021491Y023936D01*
X021424Y024003D01*
X021124Y024303D01*
X021036Y024340D01*
X016525Y024340D01*
X016498Y024362D01*
X016498Y024499D01*
X016287Y024710D01*
X015989Y024710D01*
X015778Y024499D01*
X015778Y024201D01*
X015989Y023990D01*
X016195Y023990D01*
X016276Y023923D01*
X016302Y023897D01*
X016312Y023892D01*
X016321Y023885D01*
X016356Y023874D01*
X016390Y023860D01*
X016401Y023860D01*
X016412Y023857D01*
X016449Y023860D01*
X020888Y023860D01*
X021048Y023701D01*
X021048Y021672D01*
X021084Y021584D01*
X021248Y021421D01*
X021248Y021251D01*
X021438Y021061D01*
X021418Y021041D01*
X021418Y018991D01*
X020597Y018170D01*
X020597Y018170D01*
X020468Y018041D01*
X020468Y017939D01*
X020328Y017799D01*
X020328Y017761D02*
X016285Y017761D01*
X016363Y017683D02*
X020328Y017683D01*
X020328Y017604D02*
X016442Y017604D01*
X016520Y017526D02*
X019692Y017526D01*
X019527Y017447D02*
X016599Y017447D01*
X016677Y017369D02*
X019448Y017369D01*
X019370Y017290D02*
X016759Y017290D01*
X016849Y017212D02*
X019291Y017212D01*
X019213Y017133D02*
X016939Y017133D01*
X017029Y017055D02*
X019134Y017055D01*
X019056Y016976D02*
X017120Y016976D01*
X017198Y016898D02*
X018977Y016898D01*
X018899Y016819D02*
X017234Y016819D01*
X017266Y016741D02*
X018820Y016741D01*
X018742Y016662D02*
X017268Y016662D01*
X017269Y016584D02*
X018663Y016584D01*
X018585Y016505D02*
X017268Y016505D01*
X017268Y016427D02*
X018506Y016427D01*
X018428Y016348D02*
X017268Y016348D01*
X017268Y016270D02*
X018349Y016270D01*
X018271Y016191D02*
X017268Y016191D01*
X017268Y016113D02*
X018192Y016113D01*
X018114Y016034D02*
X017268Y016034D01*
X017268Y015956D02*
X018035Y015956D01*
X017957Y015877D02*
X017268Y015877D01*
X017268Y015799D02*
X017878Y015799D01*
X017800Y015720D02*
X017268Y015720D01*
X015508Y015406D02*
X014791Y015406D01*
X014848Y015328D02*
X015508Y015328D01*
X015508Y015249D02*
X014851Y015249D01*
X014883Y015171D02*
X015508Y015171D01*
X015508Y015092D02*
X014888Y015092D01*
X014888Y015014D02*
X015508Y015014D01*
X015508Y014935D02*
X014888Y014935D01*
X014888Y014857D02*
X015508Y014857D01*
X015508Y014778D02*
X014888Y014778D01*
X014888Y014700D02*
X015508Y014700D01*
X015508Y014621D02*
X014888Y014621D01*
X014888Y014543D02*
X015508Y014543D01*
X015508Y014464D02*
X014888Y014464D01*
X014888Y014386D02*
X015508Y014386D01*
X015508Y014307D02*
X014888Y014307D01*
X014883Y014229D02*
X015508Y014229D01*
X015508Y014150D02*
X014850Y014150D01*
X014784Y014072D02*
X015508Y014072D01*
X015508Y013993D02*
X014705Y013993D01*
X014627Y013915D02*
X015508Y013915D01*
X015508Y013836D02*
X014548Y013836D01*
X014470Y013758D02*
X014986Y013758D01*
X014908Y013679D02*
X014391Y013679D01*
X014313Y013601D02*
X014829Y013601D01*
X014828Y013522D02*
X014234Y013522D01*
X014156Y013444D02*
X014828Y013444D01*
X014828Y013365D02*
X014077Y013365D01*
X013999Y013287D02*
X014842Y013287D01*
X014921Y013208D02*
X013920Y013208D01*
X014646Y013051D02*
X016458Y013051D01*
X015508Y013758D02*
X015389Y013758D01*
X012369Y015720D02*
X009528Y015720D01*
X009528Y015642D02*
X012290Y015642D01*
X012212Y015563D02*
X009528Y015563D01*
X009528Y015485D02*
X012133Y015485D01*
X012055Y015406D02*
X009528Y015406D01*
X009528Y015328D02*
X011976Y015328D01*
X011898Y015249D02*
X009528Y015249D01*
X009528Y015171D02*
X011819Y015171D01*
X011741Y015092D02*
X009528Y015092D01*
X009528Y015014D02*
X011662Y015014D01*
X011584Y014935D02*
X009528Y014935D01*
X009528Y014857D02*
X011505Y014857D01*
X011431Y014778D02*
X009528Y014778D01*
X009528Y014700D02*
X011399Y014700D01*
X011398Y014621D02*
X009528Y014621D01*
X009528Y014543D02*
X011398Y014543D01*
X011398Y014464D02*
X009528Y014464D01*
X009528Y014386D02*
X011398Y014386D01*
X011398Y014307D02*
X009528Y014307D01*
X009528Y014229D02*
X011398Y014229D01*
X011398Y014150D02*
X009528Y014150D01*
X009528Y014072D02*
X011398Y014072D01*
X011398Y013993D02*
X009528Y013993D01*
X009528Y013915D02*
X011398Y013915D01*
X011398Y013836D02*
X009528Y013836D01*
X009528Y013758D02*
X011398Y013758D01*
X011398Y013679D02*
X009528Y013679D01*
X009528Y013601D02*
X011398Y013601D01*
X011398Y013522D02*
X009528Y013522D01*
X009528Y013444D02*
X011398Y013444D01*
X011398Y013365D02*
X009528Y013365D01*
X009528Y013287D02*
X011398Y013287D01*
X011398Y013208D02*
X009528Y013208D01*
X009528Y013130D02*
X011398Y013130D01*
X011398Y013051D02*
X009528Y013051D01*
X009528Y012973D02*
X011398Y012973D01*
X011398Y012894D02*
X009528Y012894D01*
X009528Y012816D02*
X011398Y012816D01*
X011398Y012737D02*
X009528Y012737D01*
X009528Y012659D02*
X011387Y012659D01*
X011309Y012580D02*
X009528Y012580D01*
X009528Y012502D02*
X011230Y012502D01*
X011178Y012423D02*
X009528Y012423D01*
X009528Y012345D02*
X011178Y012345D01*
X011178Y012266D02*
X009528Y012266D01*
X009528Y012188D02*
X011178Y012188D01*
X011220Y012109D02*
X009528Y012109D01*
X009528Y012031D02*
X011298Y012031D01*
X011377Y011952D02*
X009528Y011952D01*
X009369Y011324D02*
X015190Y011324D01*
X015268Y011246D02*
X005528Y011246D01*
X005528Y011167D02*
X015246Y011167D01*
X015167Y011089D02*
X005528Y011089D01*
X005528Y011010D02*
X015128Y011010D01*
X015128Y010932D02*
X005528Y010932D01*
X005528Y010853D02*
X015128Y010853D01*
X015128Y010775D02*
X005528Y010775D01*
X007238Y010618D02*
X007318Y010618D01*
X007318Y010539D02*
X007238Y010539D01*
X007238Y010461D02*
X007318Y010461D01*
X007318Y010382D02*
X007238Y010382D01*
X007238Y010304D02*
X007318Y010304D01*
X007318Y010225D02*
X007238Y010225D01*
X007238Y010147D02*
X007318Y010147D01*
X007318Y010068D02*
X007238Y010068D01*
X007238Y009990D02*
X007318Y009990D01*
X007318Y009911D02*
X007238Y009911D01*
X007238Y009833D02*
X007318Y009833D01*
X007318Y009754D02*
X007238Y009754D01*
X007238Y009676D02*
X007318Y009676D01*
X007318Y009440D02*
X007238Y009440D01*
X007238Y009362D02*
X007318Y009362D01*
X007318Y009283D02*
X007238Y009283D01*
X007238Y009205D02*
X007318Y009205D01*
X007318Y009126D02*
X007238Y009126D01*
X007238Y009048D02*
X007318Y009048D01*
X007318Y008969D02*
X007238Y008969D01*
X007238Y008891D02*
X007318Y008891D01*
X007318Y008812D02*
X007238Y008812D01*
X007238Y008734D02*
X007318Y008734D01*
X007318Y008655D02*
X007238Y008655D01*
X007238Y008577D02*
X007318Y008577D01*
X007318Y008498D02*
X007238Y008498D01*
X007500Y008184D02*
X005528Y008184D01*
X005528Y008106D02*
X007422Y008106D01*
X007368Y008027D02*
X005528Y008027D01*
X005528Y007949D02*
X007368Y007949D01*
X007368Y007870D02*
X005528Y007870D01*
X005528Y007792D02*
X007368Y007792D01*
X007368Y007713D02*
X005528Y007713D01*
X005528Y008263D02*
X007579Y008263D01*
X007657Y008341D02*
X005528Y008341D01*
X005528Y008420D02*
X007736Y008420D01*
X007747Y008498D02*
X007814Y008498D01*
X007826Y008577D02*
X007893Y008577D01*
X007904Y008655D02*
X007971Y008655D01*
X006808Y008498D02*
X005528Y008498D01*
X005528Y008577D02*
X006730Y008577D01*
X006651Y008655D02*
X005528Y008655D01*
X005528Y008734D02*
X006573Y008734D01*
X006494Y008812D02*
X005528Y008812D01*
X005528Y008891D02*
X006416Y008891D01*
X006337Y008969D02*
X005528Y008969D01*
X005528Y009048D02*
X006259Y009048D01*
X006188Y009126D02*
X005528Y009126D01*
X005528Y009205D02*
X006188Y009205D01*
X006188Y009283D02*
X005528Y009283D01*
X005528Y009362D02*
X006188Y009362D01*
X006188Y009440D02*
X005528Y009440D01*
X009258Y008341D02*
X010289Y008341D01*
X010065Y008263D02*
X009337Y008263D01*
X009415Y008184D02*
X009929Y008184D01*
X009830Y008106D02*
X009494Y008106D01*
X009548Y008027D02*
X009752Y008027D01*
X009677Y007949D02*
X009548Y007949D01*
X009548Y007870D02*
X009632Y007870D01*
X009586Y007792D02*
X009548Y007792D01*
X010787Y008341D02*
X016560Y008341D01*
X016558Y008263D02*
X011011Y008263D01*
X011147Y008184D02*
X016558Y008184D01*
X016582Y008106D02*
X011245Y008106D01*
X011324Y008027D02*
X016615Y008027D01*
X016681Y007949D02*
X011399Y007949D01*
X011444Y007870D02*
X016782Y007870D01*
X017565Y007713D02*
X011535Y007713D01*
X011556Y007635D02*
X017558Y007635D01*
X017558Y007556D02*
X011577Y007556D01*
X011598Y007478D02*
X017558Y007478D01*
X017558Y007399D02*
X011608Y007399D01*
X011608Y007321D02*
X017558Y007321D01*
X017558Y007242D02*
X011608Y007242D01*
X011608Y007164D02*
X017558Y007164D01*
X017558Y007085D02*
X011588Y007085D01*
X011567Y007007D02*
X017558Y007007D01*
X017558Y006928D02*
X011546Y006928D01*
X011513Y006850D02*
X017581Y006850D01*
X017598Y007792D02*
X011490Y007792D01*
X016588Y010775D02*
X019028Y010775D01*
X018084Y011638D02*
X023368Y011638D01*
X023368Y011560D02*
X018006Y011560D01*
X019858Y012659D02*
X023368Y012659D01*
X023368Y012737D02*
X020011Y012737D01*
X020089Y012816D02*
X023368Y012816D01*
X023368Y012894D02*
X020126Y012894D01*
X020158Y012973D02*
X023368Y012973D01*
X023368Y013051D02*
X020158Y013051D01*
X020158Y013130D02*
X023368Y013130D01*
X023368Y013208D02*
X020125Y013208D01*
X020087Y013287D02*
X023368Y013287D01*
X023368Y013365D02*
X020009Y013365D01*
X023438Y016320D02*
X024578Y015180D01*
X024578Y011540D01*
X025638Y012000D02*
X029238Y008350D01*
X029538Y008350D01*
X029838Y008050D01*
X030288Y008050D01*
X030288Y008300D02*
X030538Y008050D01*
X031538Y008050D01*
X030588Y008250D02*
X030288Y008550D01*
X029938Y008550D01*
X029638Y008850D01*
X029338Y008850D01*
X026038Y012150D01*
X026038Y015550D01*
X024838Y016750D01*
X024838Y021450D01*
X024988Y021600D01*
X024988Y022150D01*
X024888Y022250D01*
X024588Y022100D02*
X024588Y022500D01*
X024888Y022800D01*
X024888Y022950D01*
X024588Y023000D02*
X024438Y022850D01*
X024588Y023000D02*
X024588Y023450D01*
X024356Y023727D02*
X022276Y023727D01*
X022198Y023649D02*
X024277Y023649D01*
X024228Y023570D02*
X022119Y023570D01*
X022058Y023492D02*
X024228Y023492D01*
X024042Y023413D02*
X022058Y023413D01*
X022058Y023335D02*
X023963Y023335D01*
X023885Y023256D02*
X022058Y023256D01*
X022058Y023178D02*
X023878Y023178D01*
X023728Y023099D02*
X022058Y023099D01*
X022058Y023021D02*
X023649Y023021D01*
X023571Y022942D02*
X022058Y022942D01*
X022058Y022864D02*
X023528Y022864D01*
X023528Y022785D02*
X022058Y022785D01*
X022058Y022707D02*
X023335Y022707D01*
X023257Y022628D02*
X022058Y022628D01*
X022058Y022550D02*
X023178Y022550D01*
X023178Y022471D02*
X022058Y022471D01*
X022058Y022393D02*
X023021Y022393D01*
X022943Y022314D02*
X022058Y022314D01*
X022058Y022236D02*
X022864Y022236D01*
X022828Y022157D02*
X022058Y022157D01*
X022058Y022079D02*
X022828Y022079D01*
X022828Y022000D02*
X022099Y022000D01*
X022177Y021922D02*
X022750Y021922D01*
X022672Y021843D02*
X022256Y021843D01*
X022334Y021765D02*
X022593Y021765D01*
X022578Y021686D02*
X022358Y021686D01*
X022358Y021608D02*
X022578Y021608D01*
X022578Y021529D02*
X022358Y021529D01*
X022358Y021451D02*
X022578Y021451D01*
X022657Y021372D02*
X022358Y021372D01*
X022358Y021294D02*
X022733Y021294D01*
X022812Y021215D02*
X022358Y021215D01*
X022358Y021137D02*
X022890Y021137D01*
X022969Y021058D02*
X022439Y021058D01*
X022517Y020980D02*
X023018Y020980D01*
X023018Y020901D02*
X022596Y020901D01*
X022598Y020823D02*
X023018Y020823D01*
X023018Y020744D02*
X022598Y020744D01*
X022598Y020666D02*
X023018Y020666D01*
X023018Y020587D02*
X022584Y020587D01*
X022506Y020509D02*
X023018Y020509D01*
X023018Y020430D02*
X022498Y020430D01*
X022498Y020352D02*
X023018Y020352D01*
X023018Y020273D02*
X022498Y020273D01*
X022498Y020195D02*
X023018Y020195D01*
X023018Y020116D02*
X022498Y020116D01*
X022498Y020038D02*
X023018Y020038D01*
X023018Y019959D02*
X022498Y019959D01*
X022498Y019881D02*
X023018Y019881D01*
X023018Y019802D02*
X022498Y019802D01*
X022498Y019724D02*
X023018Y019724D01*
X023018Y019645D02*
X022498Y019645D01*
X022498Y019567D02*
X023018Y019567D01*
X023018Y019488D02*
X022498Y019488D01*
X022498Y019410D02*
X023018Y019410D01*
X023018Y019331D02*
X022498Y019331D01*
X022498Y019253D02*
X023018Y019253D01*
X023018Y019174D02*
X022498Y019174D01*
X022498Y019096D02*
X023018Y019096D01*
X023018Y019017D02*
X022498Y019017D01*
X022498Y018939D02*
X023018Y018939D01*
X023018Y018860D02*
X022722Y018860D01*
X022864Y018782D02*
X023018Y018782D01*
X023018Y018703D02*
X022943Y018703D01*
X022981Y018625D02*
X023018Y018625D01*
X023014Y018546D02*
X023018Y018546D01*
X023018Y018468D02*
X023018Y018468D01*
X023018Y018389D02*
X023018Y018389D01*
X023018Y018311D02*
X022996Y018311D01*
X023018Y018232D02*
X022963Y018232D01*
X023018Y018154D02*
X022900Y018154D01*
X022806Y018075D02*
X023018Y018075D01*
X023018Y017997D02*
X022368Y017997D01*
X022368Y017918D02*
X023018Y017918D01*
X023018Y017840D02*
X022368Y017840D01*
X022368Y017761D02*
X023018Y017761D01*
X023018Y017683D02*
X022368Y017683D01*
X022368Y017604D02*
X023018Y017604D01*
X023018Y017526D02*
X022352Y017526D01*
X022319Y017447D02*
X023018Y017447D01*
X023018Y017369D02*
X022265Y017369D01*
X022186Y017290D02*
X023018Y017290D01*
X023018Y017212D02*
X022108Y017212D01*
X022029Y017133D02*
X023018Y017133D01*
X023018Y017055D02*
X021951Y017055D01*
X021872Y016976D02*
X023018Y016976D01*
X023018Y016898D02*
X021794Y016898D01*
X021715Y016819D02*
X023018Y016819D01*
X023018Y016741D02*
X021637Y016741D01*
X021188Y017650D02*
X021188Y018150D01*
X021838Y018800D01*
X021838Y020900D01*
X022138Y021200D01*
X022138Y021650D01*
X021838Y021950D01*
X021838Y023600D01*
X022338Y024100D01*
X025188Y024100D01*
X025488Y024400D01*
X026938Y024400D01*
X027188Y024150D01*
X026663Y023884D02*
X029813Y023884D01*
X029891Y023963D02*
X028962Y023963D01*
X029040Y024041D02*
X029969Y024041D01*
X030048Y024120D02*
X029119Y024120D01*
X029058Y024059D02*
X029058Y024059D01*
X029197Y024198D02*
X030126Y024198D01*
X030204Y024277D02*
X029276Y024277D01*
X029354Y024355D02*
X030283Y024355D01*
X030361Y024434D02*
X029433Y024434D01*
X029511Y024512D02*
X030439Y024512D01*
X030517Y024591D02*
X029590Y024591D01*
X029668Y024669D02*
X030510Y024669D01*
X030431Y024748D02*
X029747Y024748D01*
X029825Y024826D02*
X030378Y024826D01*
X030378Y024905D02*
X029904Y024905D01*
X029982Y024983D02*
X030378Y024983D01*
X030378Y025062D02*
X030061Y025062D01*
X030319Y025140D02*
X030419Y025140D01*
X030398Y025219D02*
X030497Y025219D01*
X030476Y025297D02*
X030576Y025297D01*
X030555Y025376D02*
X031481Y025376D01*
X031500Y025297D02*
X031560Y025297D01*
X031578Y025219D02*
X031638Y025219D01*
X031657Y025140D02*
X031717Y025140D01*
X031698Y025062D02*
X035818Y025062D01*
X035818Y024983D02*
X031698Y024983D01*
X031698Y024905D02*
X035818Y024905D01*
X035818Y024826D02*
X031698Y024826D01*
X031645Y024748D02*
X035818Y024748D01*
X035818Y024669D02*
X031566Y024669D01*
X031488Y024591D02*
X035818Y024591D01*
X035818Y024512D02*
X031363Y024512D01*
X031285Y024434D02*
X035818Y024434D01*
X035818Y024355D02*
X031207Y024355D01*
X031130Y024277D02*
X035818Y024277D01*
X035818Y024198D02*
X031052Y024198D01*
X030974Y024120D02*
X035818Y024120D01*
X035818Y024041D02*
X030897Y024041D01*
X030819Y023963D02*
X035818Y023963D01*
X035818Y023884D02*
X030741Y023884D01*
X030664Y023806D02*
X035818Y023806D01*
X035818Y023727D02*
X030586Y023727D01*
X030509Y023649D02*
X035818Y023649D01*
X035818Y023570D02*
X030431Y023570D01*
X030353Y023492D02*
X035818Y023492D01*
X035818Y023413D02*
X030276Y023413D01*
X030198Y023335D02*
X035818Y023335D01*
X035818Y023256D02*
X030120Y023256D01*
X030043Y023178D02*
X035818Y023178D01*
X035776Y023099D02*
X029965Y023099D01*
X029888Y023021D02*
X035697Y023021D01*
X035619Y022942D02*
X029810Y022942D01*
X029732Y022864D02*
X035540Y022864D01*
X035462Y022785D02*
X029655Y022785D01*
X029577Y022707D02*
X035383Y022707D01*
X035305Y022628D02*
X029499Y022628D01*
X029422Y022550D02*
X035226Y022550D01*
X035148Y022471D02*
X029344Y022471D01*
X029266Y022393D02*
X035069Y022393D01*
X034991Y022314D02*
X029189Y022314D01*
X029111Y022236D02*
X034912Y022236D01*
X034834Y022157D02*
X029034Y022157D01*
X028956Y022079D02*
X034755Y022079D01*
X034677Y022000D02*
X028878Y022000D01*
X028801Y021922D02*
X034598Y021922D01*
X034520Y021843D02*
X028723Y021843D01*
X028645Y021765D02*
X034441Y021765D01*
X034363Y021686D02*
X028568Y021686D01*
X028490Y021608D02*
X034284Y021608D01*
X034206Y021529D02*
X028413Y021529D01*
X028335Y021451D02*
X034127Y021451D01*
X034049Y021372D02*
X028257Y021372D01*
X028180Y021294D02*
X030619Y021294D01*
X030483Y021215D02*
X028102Y021215D01*
X028024Y021137D02*
X030361Y021137D01*
X030283Y021058D02*
X027947Y021058D01*
X027869Y020980D02*
X030204Y020980D01*
X030149Y020901D02*
X027791Y020901D01*
X027714Y020823D02*
X030104Y020823D01*
X030059Y020744D02*
X027636Y020744D01*
X027559Y020666D02*
X030028Y020666D01*
X030007Y020587D02*
X027481Y020587D01*
X027403Y020509D02*
X029986Y020509D01*
X029968Y020430D02*
X027326Y020430D01*
X027248Y020352D02*
X029968Y020352D01*
X029968Y020273D02*
X027170Y020273D01*
X027093Y020195D02*
X029968Y020195D01*
X030234Y019488D02*
X030337Y019488D01*
X030440Y019410D02*
X030156Y019410D01*
X030000Y019331D02*
X030576Y019331D01*
X030813Y019253D02*
X029843Y019253D01*
X029828Y019174D02*
X033818Y019174D01*
X033818Y019096D02*
X029828Y019096D01*
X029828Y019017D02*
X033818Y019017D01*
X033818Y018939D02*
X029828Y018939D01*
X029828Y018860D02*
X033818Y018860D01*
X033818Y018782D02*
X029828Y018782D01*
X030364Y018703D02*
X030812Y018703D01*
X030889Y018780D02*
X030608Y018499D01*
X030608Y018101D01*
X030889Y017820D01*
X031287Y017820D01*
X031568Y018101D01*
X031568Y018499D01*
X031287Y018780D01*
X030889Y018780D01*
X030734Y018625D02*
X030442Y018625D01*
X030521Y018546D02*
X030655Y018546D01*
X030608Y018468D02*
X030568Y018468D01*
X030568Y018389D02*
X030608Y018389D01*
X030608Y018311D02*
X030568Y018311D01*
X030568Y018232D02*
X030608Y018232D01*
X030608Y018154D02*
X030568Y018154D01*
X030624Y018075D02*
X030634Y018075D01*
X030702Y017997D02*
X030713Y017997D01*
X030759Y017940D02*
X030759Y017940D01*
X030781Y017918D02*
X030791Y017918D01*
X030859Y017840D02*
X030870Y017840D01*
X030668Y017720D02*
X030668Y013670D01*
X031488Y012850D01*
X031416Y012600D02*
X030508Y013508D01*
X030508Y016930D01*
X030138Y017300D01*
X030448Y017619D02*
X030287Y017780D01*
X029889Y017780D01*
X029608Y017499D01*
X029608Y017101D01*
X029889Y016820D01*
X030287Y016820D01*
X030288Y016821D01*
X030288Y016779D01*
X030287Y016780D01*
X029889Y016780D01*
X029608Y016499D01*
X029608Y016101D01*
X029889Y015820D01*
X030108Y015820D01*
X030108Y013205D01*
X030943Y012370D01*
X028229Y012370D01*
X027658Y012941D01*
X027658Y015991D01*
X027529Y016120D01*
X026458Y017191D01*
X026458Y020431D01*
X026458Y020430D01*
X026458Y019069D01*
X026628Y018899D01*
X026628Y018701D01*
X026839Y018490D01*
X026867Y018490D01*
X026847Y018470D01*
X026718Y018341D01*
X026718Y018239D01*
X026628Y018149D01*
X026628Y017851D01*
X026839Y017640D01*
X027137Y017640D01*
X027348Y017851D01*
X027348Y018149D01*
X027317Y018180D01*
X027329Y018180D01*
X027458Y018309D01*
X027608Y018459D01*
X027608Y019141D01*
X027479Y019270D01*
X027429Y019320D01*
X029148Y019320D01*
X029148Y018541D01*
X029017Y018410D01*
X028636Y018410D01*
X028541Y018370D01*
X027341Y017170D01*
X027267Y017097D01*
X027261Y017083D01*
X027128Y016949D01*
X027128Y016651D01*
X027339Y016440D01*
X027637Y016440D01*
X027848Y016651D01*
X027848Y016942D01*
X028418Y017512D01*
X028418Y015110D01*
X028139Y015110D01*
X027928Y014899D01*
X027928Y014601D01*
X028068Y014461D01*
X028068Y013939D01*
X027928Y013799D01*
X027928Y013501D01*
X028139Y013290D01*
X028437Y013290D01*
X028648Y013501D01*
X028648Y013640D01*
X028787Y013640D01*
X028927Y013780D01*
X028979Y013780D01*
X029279Y014080D01*
X029408Y014209D01*
X029408Y015041D01*
X029348Y015101D01*
X029348Y015299D01*
X029137Y015510D01*
X028858Y015510D01*
X028858Y017390D01*
X028937Y017390D01*
X029148Y017601D01*
X029148Y017819D01*
X029170Y017810D01*
X029306Y017810D01*
X029430Y017862D01*
X029639Y018070D01*
X029889Y017820D01*
X030257Y017820D01*
X030448Y017629D01*
X030448Y017619D01*
X030394Y017683D02*
X030384Y017683D01*
X030316Y017761D02*
X030306Y017761D01*
X030668Y017720D02*
X030088Y018300D01*
X029713Y017997D02*
X029565Y017997D01*
X029487Y017918D02*
X029791Y017918D01*
X029870Y017840D02*
X029377Y017840D01*
X029148Y017761D02*
X029870Y017761D01*
X029792Y017683D02*
X029148Y017683D01*
X029148Y017604D02*
X029713Y017604D01*
X029635Y017526D02*
X029073Y017526D01*
X028994Y017447D02*
X029608Y017447D01*
X029608Y017369D02*
X028858Y017369D01*
X028858Y017290D02*
X029608Y017290D01*
X029608Y017212D02*
X028858Y017212D01*
X028858Y017133D02*
X029608Y017133D01*
X029655Y017055D02*
X028858Y017055D01*
X028858Y016976D02*
X029733Y016976D01*
X029812Y016898D02*
X028858Y016898D01*
X028858Y016819D02*
X030288Y016819D01*
X029850Y016741D02*
X028858Y016741D01*
X028858Y016662D02*
X029771Y016662D01*
X029693Y016584D02*
X028858Y016584D01*
X028858Y016505D02*
X029614Y016505D01*
X029608Y016427D02*
X028858Y016427D01*
X028858Y016348D02*
X029608Y016348D01*
X029608Y016270D02*
X028858Y016270D01*
X028858Y016191D02*
X029608Y016191D01*
X029608Y016113D02*
X028858Y016113D01*
X028858Y016034D02*
X029675Y016034D01*
X029754Y015956D02*
X028858Y015956D01*
X028858Y015877D02*
X029832Y015877D01*
X030108Y015799D02*
X028858Y015799D01*
X028858Y015720D02*
X030108Y015720D01*
X030108Y015642D02*
X028858Y015642D01*
X028858Y015563D02*
X030108Y015563D01*
X030108Y015485D02*
X029162Y015485D01*
X029241Y015406D02*
X030108Y015406D01*
X030108Y015328D02*
X029319Y015328D01*
X029348Y015249D02*
X030108Y015249D01*
X030108Y015171D02*
X029348Y015171D01*
X029357Y015092D02*
X030108Y015092D01*
X030108Y015014D02*
X029408Y015014D01*
X029408Y014935D02*
X030108Y014935D01*
X030108Y014857D02*
X029408Y014857D01*
X029408Y014778D02*
X030108Y014778D01*
X030108Y014700D02*
X029408Y014700D01*
X029408Y014621D02*
X030108Y014621D01*
X030108Y014543D02*
X029408Y014543D01*
X029408Y014464D02*
X030108Y014464D01*
X030108Y014386D02*
X029408Y014386D01*
X029408Y014307D02*
X030108Y014307D01*
X030108Y014229D02*
X029408Y014229D01*
X029349Y014150D02*
X030108Y014150D01*
X030108Y014072D02*
X029271Y014072D01*
X029192Y013993D02*
X030108Y013993D01*
X030108Y013915D02*
X029114Y013915D01*
X029035Y013836D02*
X030108Y013836D01*
X030108Y013758D02*
X028905Y013758D01*
X028826Y013679D02*
X030108Y013679D01*
X030108Y013601D02*
X028648Y013601D01*
X028648Y013522D02*
X030108Y013522D01*
X030108Y013444D02*
X028591Y013444D01*
X028512Y013365D02*
X030108Y013365D01*
X030108Y013287D02*
X027658Y013287D01*
X027658Y013365D02*
X028064Y013365D01*
X027985Y013444D02*
X027658Y013444D01*
X027658Y013522D02*
X027928Y013522D01*
X027928Y013601D02*
X027658Y013601D01*
X027658Y013679D02*
X027928Y013679D01*
X027928Y013758D02*
X027658Y013758D01*
X027658Y013836D02*
X027965Y013836D01*
X028043Y013915D02*
X027658Y013915D01*
X027658Y013993D02*
X028068Y013993D01*
X028068Y014072D02*
X027658Y014072D01*
X027658Y014150D02*
X028068Y014150D01*
X028068Y014229D02*
X027658Y014229D01*
X027658Y014307D02*
X028068Y014307D01*
X028068Y014386D02*
X027658Y014386D01*
X027658Y014464D02*
X028065Y014464D01*
X027986Y014543D02*
X027658Y014543D01*
X027658Y014621D02*
X027928Y014621D01*
X027928Y014700D02*
X027658Y014700D01*
X027658Y014778D02*
X027928Y014778D01*
X027928Y014857D02*
X027658Y014857D01*
X027658Y014935D02*
X027964Y014935D01*
X028042Y015014D02*
X027658Y015014D01*
X027658Y015092D02*
X028121Y015092D01*
X028418Y015171D02*
X027658Y015171D01*
X027658Y015249D02*
X028418Y015249D01*
X028418Y015328D02*
X027658Y015328D01*
X027658Y015406D02*
X028418Y015406D01*
X028418Y015485D02*
X027658Y015485D01*
X027658Y015563D02*
X028418Y015563D01*
X028418Y015642D02*
X027658Y015642D01*
X027658Y015720D02*
X028418Y015720D01*
X028418Y015799D02*
X027658Y015799D01*
X027658Y015877D02*
X028418Y015877D01*
X028418Y015956D02*
X027658Y015956D01*
X027615Y016034D02*
X028418Y016034D01*
X028418Y016113D02*
X027536Y016113D01*
X027458Y016191D02*
X028418Y016191D01*
X028418Y016270D02*
X027379Y016270D01*
X027301Y016348D02*
X028418Y016348D01*
X028418Y016427D02*
X027222Y016427D01*
X027274Y016505D02*
X027144Y016505D01*
X027195Y016584D02*
X027065Y016584D01*
X027128Y016662D02*
X026987Y016662D01*
X026908Y016741D02*
X027128Y016741D01*
X027128Y016819D02*
X026830Y016819D01*
X026751Y016898D02*
X027128Y016898D01*
X027155Y016976D02*
X026673Y016976D01*
X026594Y017055D02*
X027233Y017055D01*
X027303Y017133D02*
X026516Y017133D01*
X026458Y017212D02*
X027382Y017212D01*
X027460Y017290D02*
X026458Y017290D01*
X026458Y017369D02*
X027539Y017369D01*
X027617Y017447D02*
X026458Y017447D01*
X026458Y017526D02*
X027696Y017526D01*
X027774Y017604D02*
X026458Y017604D01*
X026458Y017683D02*
X026796Y017683D01*
X026718Y017761D02*
X026458Y017761D01*
X026458Y017840D02*
X026639Y017840D01*
X026628Y017918D02*
X026458Y017918D01*
X026458Y017997D02*
X026628Y017997D01*
X026628Y018075D02*
X026458Y018075D01*
X026458Y018154D02*
X026632Y018154D01*
X026711Y018232D02*
X026458Y018232D01*
X026458Y018311D02*
X026718Y018311D01*
X026766Y018389D02*
X026458Y018389D01*
X026458Y018468D02*
X026844Y018468D01*
X026783Y018546D02*
X026458Y018546D01*
X026458Y018625D02*
X026704Y018625D01*
X026628Y018703D02*
X026458Y018703D01*
X026458Y018782D02*
X026628Y018782D01*
X026628Y018860D02*
X026458Y018860D01*
X026458Y018939D02*
X026588Y018939D01*
X026510Y019017D02*
X026458Y019017D01*
X026458Y019096D02*
X026458Y019096D01*
X026458Y019174D02*
X026458Y019174D01*
X026458Y019253D02*
X026458Y019253D01*
X026458Y019331D02*
X026458Y019331D01*
X026458Y019410D02*
X026458Y019410D01*
X026458Y019488D02*
X026458Y019488D01*
X026458Y019567D02*
X026458Y019567D01*
X026458Y019645D02*
X026458Y019645D01*
X026458Y019724D02*
X026458Y019724D01*
X026458Y019802D02*
X026458Y019802D01*
X026458Y019881D02*
X026458Y019881D01*
X026458Y019959D02*
X026458Y019959D01*
X026458Y020038D02*
X026458Y020038D01*
X026458Y020116D02*
X026458Y020116D01*
X026458Y020195D02*
X026458Y020195D01*
X026458Y020273D02*
X026458Y020273D01*
X026458Y020352D02*
X026458Y020352D01*
X026678Y020430D02*
X026678Y019160D01*
X026988Y018850D01*
X027388Y019050D02*
X027388Y018550D01*
X027238Y018400D01*
X027088Y018400D01*
X026938Y018250D01*
X026938Y018050D01*
X026988Y018000D01*
X027348Y017997D02*
X028167Y017997D01*
X028245Y018075D02*
X027348Y018075D01*
X027343Y018154D02*
X028324Y018154D01*
X028402Y018232D02*
X027381Y018232D01*
X027460Y018311D02*
X028481Y018311D01*
X028586Y018389D02*
X027538Y018389D01*
X027608Y018468D02*
X029075Y018468D01*
X029148Y018546D02*
X027608Y018546D01*
X027608Y018625D02*
X029148Y018625D01*
X029148Y018703D02*
X027608Y018703D01*
X027608Y018782D02*
X029148Y018782D01*
X029148Y018860D02*
X027608Y018860D01*
X027608Y018939D02*
X029148Y018939D01*
X029148Y019017D02*
X027608Y019017D01*
X027608Y019096D02*
X029148Y019096D01*
X029148Y019174D02*
X027575Y019174D01*
X027496Y019253D02*
X029148Y019253D01*
X027388Y019050D02*
X027188Y019250D01*
X027138Y019250D01*
X026868Y019530D01*
X026868Y020280D01*
X031338Y024800D01*
X031338Y024950D01*
X031097Y025219D02*
X030978Y025219D01*
X030900Y025297D02*
X031176Y025297D01*
X031403Y025454D02*
X030633Y025454D01*
X030738Y024950D02*
X030738Y024500D01*
X026678Y020430D01*
X026524Y020587D02*
X026458Y020587D01*
X026458Y020666D02*
X026602Y020666D01*
X026680Y020744D02*
X026458Y020744D01*
X026458Y020823D02*
X026759Y020823D01*
X026837Y020901D02*
X026458Y020901D01*
X026458Y020980D02*
X026915Y020980D01*
X026994Y021058D02*
X026507Y021058D01*
X026586Y021137D02*
X027072Y021137D01*
X027150Y021215D02*
X026608Y021215D01*
X026608Y021294D02*
X027229Y021294D01*
X027307Y021372D02*
X026608Y021372D01*
X026608Y021451D02*
X027385Y021451D01*
X027463Y021529D02*
X026608Y021529D01*
X026608Y021608D02*
X027542Y021608D01*
X027620Y021686D02*
X026608Y021686D01*
X026608Y021765D02*
X027698Y021765D01*
X027777Y021843D02*
X026740Y021843D01*
X026819Y021922D02*
X027855Y021922D01*
X027933Y022000D02*
X026897Y022000D01*
X026898Y022079D02*
X028012Y022079D01*
X028090Y022157D02*
X026898Y022157D01*
X026898Y022236D02*
X028168Y022236D01*
X028247Y022314D02*
X026883Y022314D01*
X026804Y022393D02*
X028325Y022393D01*
X028403Y022471D02*
X026726Y022471D01*
X026758Y022550D02*
X028481Y022550D01*
X028560Y022628D02*
X026825Y022628D01*
X026898Y022707D02*
X028638Y022707D01*
X028716Y022785D02*
X026898Y022785D01*
X026898Y022864D02*
X028795Y022864D01*
X028873Y022942D02*
X026898Y022942D01*
X026876Y023021D02*
X028951Y023021D01*
X029030Y023099D02*
X026798Y023099D01*
X026719Y023178D02*
X029108Y023178D01*
X029186Y023256D02*
X026558Y023256D01*
X026558Y023335D02*
X029265Y023335D01*
X029343Y023413D02*
X026560Y023413D01*
X026639Y023492D02*
X029421Y023492D01*
X029499Y023570D02*
X026698Y023570D01*
X026698Y023649D02*
X029578Y023649D01*
X029656Y023727D02*
X026698Y023727D01*
X026698Y023806D02*
X029734Y023806D01*
X028688Y024700D02*
X027538Y024700D01*
X027388Y024850D01*
X025438Y024850D01*
X025088Y024500D01*
X022538Y024500D01*
X022338Y024700D01*
X017038Y024700D01*
X017281Y024434D02*
X022060Y024434D01*
X021982Y024355D02*
X017202Y024355D01*
X016874Y024355D02*
X016507Y024355D01*
X016498Y024434D02*
X016795Y024434D01*
X016717Y024512D02*
X016485Y024512D01*
X016406Y024591D02*
X016678Y024591D01*
X016678Y024669D02*
X016328Y024669D01*
X016678Y024748D02*
X015811Y024748D01*
X015768Y024669D02*
X015948Y024669D01*
X015869Y024591D02*
X015768Y024591D01*
X015768Y024512D02*
X015791Y024512D01*
X015778Y024434D02*
X015768Y024434D01*
X015768Y024355D02*
X015778Y024355D01*
X015768Y024277D02*
X015778Y024277D01*
X015768Y024198D02*
X015781Y024198D01*
X015794Y024120D02*
X015859Y024120D01*
X015872Y024041D02*
X015938Y024041D01*
X015951Y023963D02*
X016228Y023963D01*
X016324Y023884D02*
X016029Y023884D01*
X016108Y023806D02*
X020943Y023806D01*
X021021Y023727D02*
X016186Y023727D01*
X016265Y023649D02*
X021048Y023649D01*
X021048Y023570D02*
X016343Y023570D01*
X016007Y023256D02*
X014440Y023256D01*
X014518Y023178D02*
X016085Y023178D01*
X016164Y023099D02*
X014597Y023099D01*
X014675Y023021D02*
X016742Y023021D01*
X016808Y022942D02*
X014724Y022942D01*
X014756Y022864D02*
X016808Y022864D01*
X016808Y022785D02*
X014768Y022785D01*
X014768Y022707D02*
X016808Y022707D01*
X016808Y022628D02*
X014818Y022628D01*
X014896Y022550D02*
X016808Y022550D01*
X016808Y022471D02*
X014975Y022471D01*
X015053Y022393D02*
X016820Y022393D01*
X016828Y022314D02*
X015132Y022314D01*
X015210Y022236D02*
X016828Y022236D01*
X016872Y022157D02*
X015289Y022157D01*
X015367Y022079D02*
X016950Y022079D01*
X017029Y022000D02*
X015446Y022000D01*
X015524Y021922D02*
X021048Y021922D01*
X021048Y022000D02*
X017347Y022000D01*
X017426Y022079D02*
X021048Y022079D01*
X021048Y022157D02*
X017504Y022157D01*
X017548Y022236D02*
X021048Y022236D01*
X021048Y022314D02*
X017548Y022314D01*
X017548Y022393D02*
X021048Y022393D01*
X021048Y022471D02*
X017548Y022471D01*
X017497Y022550D02*
X021048Y022550D01*
X021048Y022628D02*
X017419Y022628D01*
X017340Y022707D02*
X021048Y022707D01*
X021048Y022785D02*
X017268Y022785D01*
X017268Y022864D02*
X021048Y022864D01*
X021048Y022942D02*
X017268Y022942D01*
X017268Y023021D02*
X021048Y023021D01*
X021048Y023099D02*
X017268Y023099D01*
X017236Y023178D02*
X021048Y023178D01*
X021048Y023256D02*
X017157Y023256D01*
X017079Y023335D02*
X021048Y023335D01*
X021048Y023413D02*
X017000Y023413D01*
X016922Y023492D02*
X021048Y023492D01*
X021465Y023963D02*
X021589Y023963D01*
X021668Y024041D02*
X021386Y024041D01*
X021308Y024120D02*
X021746Y024120D01*
X021825Y024198D02*
X021229Y024198D01*
X021151Y024277D02*
X021903Y024277D01*
X022355Y023806D02*
X024434Y023806D01*
X024181Y024748D02*
X022601Y024748D01*
X022523Y024826D02*
X024128Y024826D01*
X024128Y024905D02*
X022444Y024905D01*
X022748Y025611D02*
X021728Y025611D01*
X021806Y025690D02*
X022670Y025690D01*
X022614Y025768D02*
X021861Y025768D01*
X021894Y025847D02*
X022582Y025847D01*
X022558Y025925D02*
X021918Y025925D01*
X021918Y026004D02*
X022558Y026004D01*
X022558Y026082D02*
X021918Y026082D01*
X021918Y026161D02*
X022558Y026161D01*
X022558Y026239D02*
X021918Y026239D01*
X021918Y026318D02*
X022558Y026318D01*
X022558Y026396D02*
X021918Y026396D01*
X021918Y026475D02*
X022558Y026475D01*
X022558Y026553D02*
X021918Y026553D01*
X021918Y026632D02*
X022558Y026632D01*
X022564Y026710D02*
X021912Y026710D01*
X021879Y026789D02*
X022596Y026789D01*
X023479Y026789D02*
X023596Y026789D01*
X023564Y026710D02*
X023512Y026710D01*
X023518Y026632D02*
X023558Y026632D01*
X023558Y026553D02*
X023518Y026553D01*
X023518Y026475D02*
X023558Y026475D01*
X023558Y026396D02*
X023518Y026396D01*
X023518Y026318D02*
X023558Y026318D01*
X023558Y026239D02*
X023518Y026239D01*
X023518Y026161D02*
X023558Y026161D01*
X023558Y026082D02*
X023518Y026082D01*
X023518Y026004D02*
X023558Y026004D01*
X023558Y025925D02*
X023518Y025925D01*
X023494Y025847D02*
X023582Y025847D01*
X023614Y025768D02*
X023461Y025768D01*
X023406Y025690D02*
X023670Y025690D01*
X023748Y025611D02*
X023328Y025611D01*
X023164Y025533D02*
X023912Y025533D01*
X024164Y025533D02*
X024659Y025533D01*
X024738Y025611D02*
X024328Y025611D01*
X024406Y025690D02*
X024670Y025690D01*
X024614Y025768D02*
X024461Y025768D01*
X024494Y025847D02*
X024582Y025847D01*
X024558Y025925D02*
X024518Y025925D01*
X024518Y026004D02*
X024558Y026004D01*
X024558Y026082D02*
X024518Y026082D01*
X024518Y026161D02*
X024558Y026161D01*
X024558Y026239D02*
X024518Y026239D01*
X024518Y026318D02*
X024558Y026318D01*
X024558Y026396D02*
X024518Y026396D01*
X024518Y026475D02*
X024558Y026475D01*
X024558Y026553D02*
X024518Y026553D01*
X024518Y026632D02*
X024558Y026632D01*
X024564Y026710D02*
X024512Y026710D01*
X024479Y026789D02*
X024596Y026789D01*
X025038Y026300D02*
X024988Y026250D01*
X025038Y026200D01*
X025038Y025600D01*
X024488Y025050D01*
X024488Y024950D01*
X024247Y025219D02*
X016282Y025219D01*
X016360Y025297D02*
X024326Y025297D01*
X024502Y025376D02*
X016439Y025376D01*
X016517Y025454D02*
X024581Y025454D01*
X024169Y025140D02*
X016203Y025140D01*
X016125Y025062D02*
X024128Y025062D01*
X024128Y024983D02*
X017264Y024983D01*
X016812Y024983D02*
X016046Y024983D01*
X015968Y024905D02*
X016733Y024905D01*
X016678Y024826D02*
X015889Y024826D01*
X015553Y025140D02*
X013718Y025140D01*
X013718Y025199D02*
X013718Y024801D01*
X013437Y024520D01*
X013039Y024520D01*
X012758Y024801D01*
X012758Y025199D01*
X013039Y025480D01*
X013437Y025480D01*
X013718Y025199D01*
X013698Y025219D02*
X015631Y025219D01*
X015710Y025297D02*
X013620Y025297D01*
X013541Y025376D02*
X015788Y025376D01*
X015867Y025454D02*
X013463Y025454D01*
X013013Y025454D02*
X012463Y025454D01*
X012437Y025480D02*
X012718Y025199D01*
X012718Y024801D01*
X012437Y024520D01*
X012039Y024520D01*
X011758Y024801D01*
X011758Y025199D01*
X012039Y025480D01*
X012437Y025480D01*
X012541Y025376D02*
X012935Y025376D01*
X012856Y025297D02*
X012620Y025297D01*
X012698Y025219D02*
X012778Y025219D01*
X012758Y025140D02*
X012718Y025140D01*
X012718Y025062D02*
X012758Y025062D01*
X012758Y024983D02*
X012718Y024983D01*
X012718Y024905D02*
X012758Y024905D01*
X012758Y024826D02*
X012718Y024826D01*
X012664Y024748D02*
X012812Y024748D01*
X012890Y024669D02*
X012586Y024669D01*
X012507Y024591D02*
X012969Y024591D01*
X012993Y024434D02*
X012483Y024434D01*
X012562Y024355D02*
X012914Y024355D01*
X012836Y024277D02*
X012640Y024277D01*
X012718Y024198D02*
X012758Y024198D01*
X012758Y024120D02*
X012718Y024120D01*
X012718Y024041D02*
X012758Y024041D01*
X012758Y023963D02*
X012718Y023963D01*
X012718Y023884D02*
X012758Y023884D01*
X012758Y023806D02*
X012718Y023806D01*
X011758Y023806D02*
X011666Y023806D01*
X011678Y023884D02*
X011758Y023884D01*
X011758Y023963D02*
X011278Y023963D01*
X011278Y024041D02*
X011198Y024041D01*
X011198Y023963D02*
X009288Y023963D01*
X009288Y024041D02*
X010798Y024041D01*
X010798Y024120D02*
X009288Y024120D01*
X009288Y024198D02*
X010814Y024198D01*
X010892Y024277D02*
X009288Y024277D01*
X009288Y024355D02*
X010971Y024355D01*
X011049Y024434D02*
X009288Y024434D01*
X009288Y024512D02*
X015308Y024512D01*
X015308Y024434D02*
X013483Y024434D01*
X013562Y024355D02*
X015308Y024355D01*
X015308Y024277D02*
X013640Y024277D01*
X013718Y024198D02*
X015308Y024198D01*
X015308Y024120D02*
X013718Y024120D01*
X013718Y024041D02*
X015308Y024041D01*
X015308Y023963D02*
X013733Y023963D01*
X013812Y023884D02*
X015379Y023884D01*
X015457Y023806D02*
X013890Y023806D01*
X013969Y023727D02*
X015536Y023727D01*
X015614Y023649D02*
X014047Y023649D01*
X014126Y023570D02*
X015693Y023570D01*
X015771Y023492D02*
X014204Y023492D01*
X014283Y023413D02*
X015850Y023413D01*
X015928Y023335D02*
X014361Y023335D01*
X012883Y022864D02*
X012033Y022864D01*
X012073Y022785D02*
X012883Y022785D01*
X011399Y021765D02*
X009288Y021765D01*
X009288Y021843D02*
X011321Y021843D01*
X011242Y021922D02*
X009288Y021922D01*
X009288Y022000D02*
X011164Y022000D01*
X011085Y022079D02*
X010415Y022079D01*
X011478Y021686D02*
X009288Y021686D01*
X009288Y021608D02*
X011556Y021608D01*
X011635Y021529D02*
X009288Y021529D01*
X009288Y021451D02*
X011713Y021451D01*
X011792Y021372D02*
X009288Y021372D01*
X009288Y021294D02*
X011870Y021294D01*
X011949Y021215D02*
X009288Y021215D01*
X009288Y021137D02*
X012027Y021137D01*
X012106Y021058D02*
X009288Y021058D01*
X009288Y020980D02*
X012184Y020980D01*
X012263Y020901D02*
X009288Y020901D01*
X009288Y020823D02*
X012341Y020823D01*
X012420Y020744D02*
X009288Y020744D01*
X009288Y020666D02*
X012488Y020666D01*
X012488Y020587D02*
X011260Y020587D01*
X010916Y020587D02*
X009288Y020587D01*
X009288Y020509D02*
X010837Y020509D01*
X010759Y020430D02*
X009288Y020430D01*
X009288Y020352D02*
X010728Y020352D01*
X010728Y020273D02*
X009288Y020273D01*
X009288Y020195D02*
X010728Y020195D01*
X010728Y020116D02*
X009288Y020116D01*
X009288Y020038D02*
X010791Y020038D01*
X010870Y019959D02*
X009288Y019959D01*
X009288Y019881D02*
X012233Y019881D01*
X012278Y019802D02*
X009288Y019802D01*
X009548Y019724D02*
X009628Y019724D01*
X009628Y019645D02*
X009548Y019645D01*
X009548Y019567D02*
X009628Y019567D01*
X009628Y019488D02*
X009548Y019488D01*
X009548Y019410D02*
X009628Y019410D01*
X009628Y019331D02*
X013798Y019331D01*
X013798Y019253D02*
X009958Y019253D01*
X009958Y019260D02*
X009628Y019260D01*
X009628Y018845D01*
X009816Y018845D01*
X009858Y018856D01*
X009895Y018878D01*
X009925Y018908D01*
X009947Y018945D01*
X009958Y018987D01*
X009958Y019260D01*
X009958Y019174D02*
X013798Y019174D01*
X013798Y019096D02*
X009958Y019096D01*
X009958Y019017D02*
X013798Y019017D01*
X013798Y018939D02*
X009943Y018939D01*
X009865Y018860D02*
X011014Y018860D01*
X011011Y018859D02*
X010899Y018747D01*
X010838Y018600D01*
X010838Y018000D01*
X010899Y017853D01*
X011011Y017741D01*
X011158Y017680D01*
X011317Y017680D01*
X011464Y017741D01*
X011577Y017853D01*
X011638Y018000D01*
X011638Y018600D01*
X011577Y018747D01*
X011464Y018859D01*
X011317Y018920D01*
X011158Y018920D01*
X011011Y018859D01*
X010934Y018782D02*
X009288Y018782D01*
X009288Y018703D02*
X010881Y018703D01*
X010848Y018625D02*
X009288Y018625D01*
X009288Y018546D02*
X010838Y018546D01*
X010838Y018468D02*
X009288Y018468D01*
X009288Y018389D02*
X010838Y018389D01*
X010838Y018311D02*
X009288Y018311D01*
X009445Y018232D02*
X010838Y018232D01*
X010838Y018154D02*
X009505Y018154D01*
X009528Y018075D02*
X010838Y018075D01*
X010840Y017997D02*
X009528Y017997D01*
X009528Y017918D02*
X010872Y017918D01*
X010913Y017840D02*
X009528Y017840D01*
X009528Y017761D02*
X010991Y017761D01*
X011152Y017683D02*
X009528Y017683D01*
X009528Y017604D02*
X013253Y017604D01*
X013324Y017683D02*
X013331Y017683D01*
X013152Y017683D02*
X011324Y017683D01*
X011485Y017761D02*
X012991Y017761D01*
X012913Y017840D02*
X011563Y017840D01*
X011604Y017918D02*
X012872Y017918D01*
X012840Y017997D02*
X011636Y017997D01*
X011638Y018075D02*
X012838Y018075D01*
X012838Y018154D02*
X011638Y018154D01*
X011638Y018232D02*
X012838Y018232D01*
X012838Y018311D02*
X011638Y018311D01*
X011638Y018389D02*
X012838Y018389D01*
X012838Y018468D02*
X011638Y018468D01*
X011638Y018546D02*
X012838Y018546D01*
X012848Y018625D02*
X011628Y018625D01*
X011595Y018703D02*
X012881Y018703D01*
X012934Y018782D02*
X011542Y018782D01*
X011462Y018860D02*
X013014Y018860D01*
X013462Y018860D02*
X013798Y018860D01*
X013798Y018782D02*
X013542Y018782D01*
X013595Y018703D02*
X013798Y018703D01*
X013798Y018625D02*
X013628Y018625D01*
X013638Y018546D02*
X013798Y018546D01*
X013798Y018468D02*
X013638Y018468D01*
X013638Y018389D02*
X013798Y018389D01*
X013798Y018311D02*
X013638Y018311D01*
X013638Y018232D02*
X013798Y018232D01*
X013798Y018154D02*
X013638Y018154D01*
X013638Y018075D02*
X013724Y018075D01*
X013645Y017997D02*
X013636Y017997D01*
X013174Y017526D02*
X009528Y017526D01*
X009528Y017447D02*
X013096Y017447D01*
X013152Y017503D02*
X013152Y017503D01*
X013057Y017369D02*
X009528Y017369D01*
X009528Y017290D02*
X013048Y017290D01*
X013048Y017212D02*
X009528Y017212D01*
X009528Y017133D02*
X013048Y017133D01*
X013048Y017055D02*
X009528Y017055D01*
X009528Y016976D02*
X013048Y016976D01*
X013048Y016898D02*
X009528Y016898D01*
X009528Y016819D02*
X013048Y016819D01*
X013048Y016741D02*
X009528Y016741D01*
X009528Y016662D02*
X013048Y016662D01*
X013048Y016584D02*
X009528Y016584D01*
X009528Y016505D02*
X013048Y016505D01*
X013048Y016427D02*
X009528Y016427D01*
X009528Y016348D02*
X012997Y016348D01*
X012918Y016270D02*
X009528Y016270D01*
X009528Y016191D02*
X012840Y016191D01*
X012761Y016113D02*
X009528Y016113D01*
X009528Y016034D02*
X012683Y016034D01*
X012604Y015956D02*
X009528Y015956D01*
X009528Y015877D02*
X012526Y015877D01*
X012447Y015799D02*
X009528Y015799D01*
X009548Y018860D02*
X009628Y018860D01*
X009628Y018939D02*
X009548Y018939D01*
X009548Y019017D02*
X009628Y019017D01*
X009628Y019096D02*
X009548Y019096D01*
X009548Y019174D02*
X009628Y019174D01*
X009628Y019253D02*
X009548Y019253D01*
X009958Y019410D02*
X013798Y019410D01*
X013798Y019488D02*
X009958Y019488D01*
X009958Y019567D02*
X012462Y019567D01*
X012384Y019645D02*
X009949Y019645D01*
X009893Y019724D02*
X012305Y019724D01*
X012814Y019567D02*
X013798Y019567D01*
X013798Y019645D02*
X012892Y019645D01*
X012971Y019724D02*
X013798Y019724D01*
X013798Y019802D02*
X012998Y019802D01*
X013042Y019881D02*
X013798Y019881D01*
X013789Y019959D02*
X013075Y019959D01*
X013088Y020038D02*
X013711Y020038D01*
X013632Y020116D02*
X013088Y020116D01*
X013088Y020195D02*
X013554Y020195D01*
X013475Y020273D02*
X013088Y020273D01*
X013088Y020352D02*
X013397Y020352D01*
X013318Y020430D02*
X013088Y020430D01*
X013088Y020509D02*
X013240Y020509D01*
X013161Y020587D02*
X013088Y020587D01*
X012488Y020509D02*
X012448Y020509D01*
X015603Y021843D02*
X021048Y021843D01*
X021048Y021765D02*
X015681Y021765D01*
X015760Y021686D02*
X021048Y021686D01*
X021075Y021608D02*
X017239Y021608D01*
X017237Y021610D02*
X016939Y021610D01*
X016728Y021399D01*
X016728Y021101D01*
X016939Y020890D01*
X017078Y020890D01*
X017078Y020601D01*
X017289Y020390D01*
X017587Y020390D01*
X017717Y020520D01*
X020198Y020520D01*
X020578Y020169D01*
X020578Y020001D01*
X020703Y019876D01*
X020687Y019860D01*
X020489Y019860D01*
X020278Y019649D01*
X020278Y019351D01*
X020489Y019140D01*
X020787Y019140D01*
X020998Y019351D01*
X020998Y019549D01*
X021158Y019709D01*
X021158Y019861D01*
X021298Y020001D01*
X021298Y020299D01*
X021247Y020350D01*
X021398Y020501D01*
X021398Y020799D01*
X021187Y021010D01*
X021003Y021010D01*
X020718Y021295D01*
X020718Y021295D01*
X020583Y021430D01*
X017417Y021430D01*
X017237Y021610D01*
X017318Y021529D02*
X021139Y021529D01*
X021218Y021451D02*
X017396Y021451D01*
X017388Y021200D02*
X017088Y021250D01*
X016849Y020980D02*
X015918Y020980D01*
X015918Y021058D02*
X016771Y021058D01*
X016728Y021137D02*
X015918Y021137D01*
X015918Y021215D02*
X016728Y021215D01*
X016728Y021294D02*
X015918Y021294D01*
X015918Y021372D02*
X016728Y021372D01*
X016779Y021451D02*
X015912Y021451D01*
X015879Y021529D02*
X016858Y021529D01*
X016936Y021608D02*
X015838Y021608D01*
X015918Y020901D02*
X016928Y020901D01*
X017078Y020823D02*
X015918Y020823D01*
X015918Y020744D02*
X017078Y020744D01*
X017078Y020666D02*
X015918Y020666D01*
X015918Y020587D02*
X017092Y020587D01*
X017170Y020509D02*
X015918Y020509D01*
X015918Y020430D02*
X017249Y020430D01*
X017627Y020430D02*
X020295Y020430D01*
X020210Y020509D02*
X017706Y020509D01*
X015918Y020352D02*
X020380Y020352D01*
X020466Y020273D02*
X015918Y020273D01*
X015918Y020195D02*
X020551Y020195D01*
X020578Y020116D02*
X015918Y020116D01*
X015918Y020038D02*
X020578Y020038D01*
X020620Y019959D02*
X015918Y019959D01*
X015918Y019881D02*
X020698Y019881D01*
X020938Y019800D02*
X020638Y019500D01*
X020900Y019253D02*
X021418Y019253D01*
X021418Y019331D02*
X020978Y019331D01*
X020998Y019410D02*
X021418Y019410D01*
X021418Y019488D02*
X020998Y019488D01*
X021016Y019567D02*
X021418Y019567D01*
X021418Y019645D02*
X021094Y019645D01*
X021158Y019724D02*
X021418Y019724D01*
X021418Y019802D02*
X021158Y019802D01*
X021178Y019881D02*
X021418Y019881D01*
X021418Y019959D02*
X021256Y019959D01*
X021298Y020038D02*
X021418Y020038D01*
X021418Y020116D02*
X021298Y020116D01*
X021298Y020195D02*
X021418Y020195D01*
X021418Y020273D02*
X021298Y020273D01*
X021249Y020352D02*
X021418Y020352D01*
X021418Y020430D02*
X021327Y020430D01*
X021398Y020509D02*
X021418Y020509D01*
X021418Y020587D02*
X021398Y020587D01*
X021398Y020666D02*
X021418Y020666D01*
X021418Y020744D02*
X021398Y020744D01*
X021418Y020823D02*
X021374Y020823D01*
X021418Y020901D02*
X021296Y020901D01*
X021217Y020980D02*
X021418Y020980D01*
X021435Y021058D02*
X020955Y021058D01*
X020877Y021137D02*
X021362Y021137D01*
X021284Y021215D02*
X020798Y021215D01*
X020720Y021294D02*
X021248Y021294D01*
X021248Y021372D02*
X020641Y021372D01*
X020938Y020150D02*
X020938Y019800D01*
X020431Y019802D02*
X015918Y019802D01*
X015918Y019724D02*
X020352Y019724D01*
X020278Y019645D02*
X015918Y019645D01*
X015918Y019567D02*
X020278Y019567D01*
X020278Y019488D02*
X015918Y019488D01*
X015918Y019410D02*
X020278Y019410D01*
X020298Y019331D02*
X015918Y019331D01*
X015918Y019253D02*
X020376Y019253D01*
X020455Y019174D02*
X015918Y019174D01*
X015918Y019096D02*
X021418Y019096D01*
X021418Y019174D02*
X020821Y019174D01*
X021365Y018939D02*
X015918Y018939D01*
X015918Y019017D02*
X021418Y019017D01*
X021287Y018860D02*
X015918Y018860D01*
X015918Y018782D02*
X021208Y018782D01*
X021130Y018703D02*
X015918Y018703D01*
X015918Y018625D02*
X021051Y018625D01*
X020973Y018546D02*
X015918Y018546D01*
X015918Y018468D02*
X020894Y018468D01*
X020816Y018389D02*
X015918Y018389D01*
X015918Y018311D02*
X020737Y018311D01*
X020659Y018232D02*
X015918Y018232D01*
X015918Y018154D02*
X020580Y018154D01*
X020502Y018075D02*
X015971Y018075D01*
X016049Y017997D02*
X020468Y017997D01*
X019958Y016662D02*
X023018Y016662D01*
X023438Y016320D02*
X023438Y021150D01*
X023338Y021250D01*
X023338Y021750D01*
X023188Y021900D01*
X023188Y022050D01*
X023738Y022100D02*
X023888Y022250D01*
X023888Y022750D01*
X024588Y022100D02*
X024788Y021900D01*
X024788Y021650D01*
X024638Y021500D01*
X024638Y016700D01*
X025838Y015500D01*
X025838Y012050D01*
X029238Y008650D01*
X029538Y008650D01*
X029888Y008300D01*
X030288Y008300D01*
X030588Y008250D02*
X032588Y008250D01*
X033838Y008350D02*
X031288Y010900D01*
X027888Y010900D01*
X026438Y012350D01*
X026438Y015650D01*
X025238Y016850D01*
X025238Y021350D01*
X025388Y021500D01*
X025388Y022500D01*
X025488Y022600D01*
X025488Y022850D01*
X025788Y023000D02*
X025788Y022650D01*
X025588Y022450D01*
X025588Y021450D01*
X025438Y021300D01*
X025438Y016900D01*
X026638Y015700D01*
X026638Y012450D01*
X027938Y011150D01*
X031338Y011150D01*
X033888Y008600D01*
X036338Y008600D01*
X037038Y007900D01*
X037038Y007300D01*
X038038Y007300D02*
X038038Y007900D01*
X037888Y008050D01*
X037238Y008050D01*
X036488Y008800D01*
X033988Y008800D01*
X031388Y011400D01*
X027988Y011400D01*
X026838Y012550D01*
X026838Y015750D01*
X025638Y016950D01*
X025638Y021250D01*
X025788Y021400D01*
X025788Y022400D01*
X025988Y022600D01*
X025988Y023350D01*
X026188Y023050D02*
X026338Y023200D01*
X026338Y023700D01*
X026091Y023963D02*
X025884Y023963D01*
X025806Y024041D02*
X026170Y024041D01*
X026013Y023884D02*
X025963Y023884D01*
X025638Y023700D02*
X025638Y023200D01*
X025788Y023000D01*
X026188Y023050D02*
X026188Y022550D01*
X025988Y022350D01*
X025988Y021350D01*
X025838Y021200D01*
X025838Y017000D01*
X027038Y015800D01*
X027038Y012650D01*
X028038Y011650D01*
X031488Y011650D01*
X034138Y009000D01*
X036638Y009000D01*
X037338Y008300D01*
X038588Y008300D01*
X039038Y007850D01*
X039038Y007300D01*
X040038Y007300D02*
X040038Y007900D01*
X039388Y008550D01*
X037438Y008550D01*
X036788Y009200D01*
X034288Y009200D01*
X031588Y011900D01*
X028088Y011900D01*
X027238Y012750D01*
X027238Y015850D01*
X026038Y017050D01*
X026038Y021150D01*
X026188Y021300D01*
X026188Y022250D01*
X026538Y022600D01*
X026538Y022850D01*
X026538Y022150D02*
X026388Y022000D01*
X026388Y021250D01*
X026238Y021100D01*
X026238Y017100D01*
X027438Y015900D01*
X027438Y012850D01*
X028138Y012150D01*
X031688Y012150D01*
X034438Y009400D01*
X036938Y009400D01*
X037538Y008800D01*
X040088Y008800D01*
X041038Y007850D01*
X041038Y007300D01*
X040938Y008450D02*
X043188Y008450D01*
X043638Y008900D01*
X043638Y010450D01*
X043288Y010800D01*
X042538Y010800D01*
X042038Y011300D01*
X042379Y011638D02*
X042697Y011638D01*
X042619Y011560D02*
X042457Y011560D01*
X042518Y011481D02*
X042558Y011481D01*
X042558Y011403D02*
X042518Y011403D01*
X042518Y011324D02*
X042558Y011324D01*
X042558Y011246D02*
X042518Y011246D01*
X042518Y011167D02*
X042558Y011167D01*
X042561Y011089D02*
X042571Y011089D01*
X042252Y010775D02*
X042242Y010775D01*
X042237Y010780D02*
X041839Y010780D01*
X041558Y010499D01*
X041558Y010101D01*
X041839Y009820D01*
X042237Y009820D01*
X042518Y010101D01*
X042518Y010499D01*
X042237Y010780D01*
X042321Y010696D02*
X042331Y010696D01*
X042399Y010618D02*
X042409Y010618D01*
X042478Y010539D02*
X042598Y010539D01*
X042558Y010461D02*
X042518Y010461D01*
X042518Y010382D02*
X042558Y010382D01*
X042558Y010304D02*
X042518Y010304D01*
X042518Y010225D02*
X042558Y010225D01*
X042558Y010147D02*
X042518Y010147D01*
X042485Y010068D02*
X042591Y010068D01*
X042670Y009990D02*
X042406Y009990D01*
X042328Y009911D02*
X042748Y009911D01*
X042827Y009833D02*
X042249Y009833D01*
X042220Y009740D02*
X042078Y009740D01*
X042078Y009340D01*
X042478Y009340D01*
X042478Y009482D01*
X042220Y009740D01*
X042285Y009676D02*
X042791Y009676D01*
X042713Y009597D02*
X042363Y009597D01*
X042442Y009519D02*
X042634Y009519D01*
X042598Y009440D02*
X042478Y009440D01*
X042478Y009362D02*
X042598Y009362D01*
X042598Y009260D02*
X042598Y009118D01*
X042856Y008860D01*
X042998Y008860D01*
X042998Y009260D01*
X042598Y009260D01*
X042598Y009205D02*
X042478Y009205D01*
X042478Y009260D02*
X042078Y009260D01*
X042078Y009340D01*
X041998Y009340D01*
X041998Y009740D01*
X041856Y009740D01*
X041598Y009482D01*
X041598Y009340D01*
X041998Y009340D01*
X041998Y009260D01*
X042078Y009260D01*
X042078Y008860D01*
X042220Y008860D01*
X042478Y009118D01*
X042478Y009260D01*
X042478Y009126D02*
X042598Y009126D01*
X042668Y009048D02*
X042408Y009048D01*
X042329Y008969D02*
X042747Y008969D01*
X042825Y008891D02*
X042251Y008891D01*
X042078Y008891D02*
X041998Y008891D01*
X041998Y008860D02*
X041856Y008860D01*
X041598Y009118D01*
X041598Y009260D01*
X041998Y009260D01*
X041998Y008860D01*
X041998Y008969D02*
X042078Y008969D01*
X042078Y009048D02*
X041998Y009048D01*
X041998Y009126D02*
X042078Y009126D01*
X042078Y009205D02*
X041998Y009205D01*
X041998Y009283D02*
X037766Y009283D01*
X037688Y009362D02*
X041598Y009362D01*
X041598Y009440D02*
X037609Y009440D01*
X037531Y009519D02*
X041634Y009519D01*
X041713Y009597D02*
X037452Y009597D01*
X037374Y009676D02*
X041791Y009676D01*
X041827Y009833D02*
X037298Y009833D01*
X037286Y009911D02*
X041748Y009911D01*
X041670Y009990D02*
X037207Y009990D01*
X037145Y010068D02*
X041591Y010068D01*
X041558Y010147D02*
X037067Y010147D01*
X036988Y010225D02*
X041558Y010225D01*
X041558Y010304D02*
X036910Y010304D01*
X036831Y010382D02*
X041558Y010382D01*
X041558Y010461D02*
X035236Y010461D01*
X035248Y010382D02*
X035645Y010382D01*
X035566Y010304D02*
X035248Y010304D01*
X035248Y010225D02*
X035488Y010225D01*
X035409Y010147D02*
X035244Y010147D01*
X035158Y010539D02*
X041598Y010539D01*
X041677Y010618D02*
X035118Y010618D01*
X035118Y010696D02*
X041755Y010696D01*
X041834Y010775D02*
X035120Y010775D01*
X035110Y010853D02*
X041806Y010853D01*
X041728Y010932D02*
X035034Y010932D01*
X034964Y011010D02*
X041649Y011010D01*
X041571Y011089D02*
X034895Y011089D01*
X034825Y011167D02*
X041558Y011167D01*
X041558Y011246D02*
X034755Y011246D01*
X034696Y011324D02*
X041558Y011324D01*
X041558Y011403D02*
X034625Y011403D01*
X034546Y011481D02*
X041558Y011481D01*
X041619Y011560D02*
X034468Y011560D01*
X034389Y011638D02*
X041697Y011638D01*
X041776Y011717D02*
X034311Y011717D01*
X034232Y011795D02*
X044548Y011795D01*
X044548Y011717D02*
X043300Y011717D01*
X043379Y011638D02*
X044548Y011638D01*
X044548Y011560D02*
X043457Y011560D01*
X043518Y011481D02*
X044548Y011481D01*
X044548Y011403D02*
X043518Y011403D01*
X043518Y011324D02*
X044548Y011324D01*
X044548Y011246D02*
X043518Y011246D01*
X043518Y011167D02*
X044548Y011167D01*
X044548Y011089D02*
X043505Y011089D01*
X043427Y011010D02*
X044548Y011010D01*
X044548Y010932D02*
X043468Y010932D01*
X043546Y010853D02*
X044548Y010853D01*
X044548Y010775D02*
X043625Y010775D01*
X043703Y010696D02*
X044548Y010696D01*
X044548Y010618D02*
X043782Y010618D01*
X043858Y010539D02*
X044548Y010539D01*
X044548Y010461D02*
X043858Y010461D01*
X043858Y010382D02*
X044548Y010382D01*
X044548Y010304D02*
X043858Y010304D01*
X043858Y010225D02*
X044548Y010225D01*
X044548Y010147D02*
X043858Y010147D01*
X043858Y010068D02*
X044548Y010068D01*
X044548Y009990D02*
X043858Y009990D01*
X043858Y009911D02*
X044548Y009911D01*
X044548Y009833D02*
X043858Y009833D01*
X043858Y009754D02*
X044548Y009754D01*
X044548Y009676D02*
X043858Y009676D01*
X043858Y009597D02*
X044548Y009597D01*
X044548Y009519D02*
X043858Y009519D01*
X043858Y009440D02*
X044548Y009440D01*
X044548Y009362D02*
X043858Y009362D01*
X043858Y009283D02*
X044548Y009283D01*
X044548Y009205D02*
X043858Y009205D01*
X043858Y009126D02*
X044548Y009126D01*
X044548Y009048D02*
X043858Y009048D01*
X043858Y008969D02*
X044548Y008969D01*
X044548Y008891D02*
X043858Y008891D01*
X043858Y008812D02*
X044548Y008812D01*
X044548Y008734D02*
X043783Y008734D01*
X043704Y008655D02*
X044548Y008655D01*
X044548Y008577D02*
X043626Y008577D01*
X043547Y008498D02*
X044548Y008498D01*
X044548Y008420D02*
X043469Y008420D01*
X043390Y008341D02*
X044548Y008341D01*
X044548Y008263D02*
X043511Y008263D01*
X043647Y008184D02*
X044548Y008184D01*
X044548Y008106D02*
X043745Y008106D01*
X043824Y008027D02*
X044548Y008027D01*
X044493Y007949D02*
X043899Y007949D01*
X043944Y007870D02*
X044415Y007870D01*
X044336Y007792D02*
X043990Y007792D01*
X044035Y007713D02*
X044258Y007713D01*
X044179Y007635D02*
X044056Y007635D01*
X044077Y007556D02*
X044101Y007556D01*
X043160Y008734D02*
X040966Y008734D01*
X040887Y008812D02*
X043239Y008812D01*
X043251Y008891D02*
X043317Y008891D01*
X043329Y008969D02*
X043396Y008969D01*
X043408Y009048D02*
X043418Y009048D01*
X043078Y009048D02*
X042998Y009048D01*
X042998Y009126D02*
X043078Y009126D01*
X043078Y009205D02*
X042998Y009205D01*
X042998Y009283D02*
X042078Y009283D01*
X042078Y009362D02*
X041998Y009362D01*
X041998Y009440D02*
X042078Y009440D01*
X042078Y009519D02*
X041998Y009519D01*
X041998Y009597D02*
X042078Y009597D01*
X042078Y009676D02*
X041998Y009676D01*
X041598Y009205D02*
X040495Y009205D01*
X040573Y009126D02*
X041598Y009126D01*
X041668Y009048D02*
X040652Y009048D01*
X040730Y008969D02*
X041747Y008969D01*
X041825Y008891D02*
X040809Y008891D01*
X040938Y008450D02*
X040338Y009050D01*
X037688Y009050D01*
X036988Y009750D01*
X036938Y009750D01*
X037298Y009754D02*
X043418Y009754D01*
X043418Y009676D02*
X043285Y009676D01*
X043363Y009597D02*
X043418Y009597D01*
X043418Y009833D02*
X043249Y009833D01*
X043328Y009911D02*
X043418Y009911D01*
X043406Y009990D02*
X043418Y009990D01*
X043078Y009676D02*
X042998Y009676D01*
X042998Y009597D02*
X043078Y009597D01*
X043078Y009519D02*
X042998Y009519D01*
X042998Y009440D02*
X043078Y009440D01*
X043078Y009362D02*
X042998Y009362D01*
X042998Y008969D02*
X043078Y008969D01*
X043078Y008891D02*
X042998Y008891D01*
X042776Y011717D02*
X042300Y011717D01*
X042237Y011820D02*
X041839Y011820D01*
X041558Y012101D01*
X041558Y012499D01*
X041839Y012780D01*
X042237Y012780D01*
X042518Y012499D01*
X042518Y012101D01*
X042237Y011820D01*
X042290Y011874D02*
X042786Y011874D01*
X042839Y011820D02*
X043237Y011820D01*
X043518Y012101D01*
X043518Y012499D01*
X043237Y012780D01*
X042839Y012780D01*
X042558Y012499D01*
X042558Y012101D01*
X042839Y011820D01*
X042707Y011952D02*
X042369Y011952D01*
X042447Y012031D02*
X042629Y012031D01*
X042558Y012109D02*
X042518Y012109D01*
X042518Y012188D02*
X042558Y012188D01*
X042558Y012266D02*
X042518Y012266D01*
X042518Y012345D02*
X042558Y012345D01*
X042558Y012423D02*
X042518Y012423D01*
X042515Y012502D02*
X042561Y012502D01*
X042639Y012580D02*
X042437Y012580D01*
X042358Y012659D02*
X042718Y012659D01*
X042796Y012737D02*
X042280Y012737D01*
X042237Y012820D02*
X042518Y013101D01*
X042518Y013499D01*
X042237Y013780D01*
X041839Y013780D01*
X041558Y013499D01*
X041558Y013101D01*
X041839Y012820D01*
X042237Y012820D01*
X042311Y012894D02*
X042765Y012894D01*
X042839Y012820D02*
X042558Y013101D01*
X042558Y013499D01*
X042839Y013780D01*
X043237Y013780D01*
X043518Y013499D01*
X043518Y013101D01*
X043237Y012820D01*
X042839Y012820D01*
X042687Y012973D02*
X042389Y012973D01*
X042468Y013051D02*
X042608Y013051D01*
X042558Y013130D02*
X042518Y013130D01*
X042518Y013208D02*
X042558Y013208D01*
X042558Y013287D02*
X042518Y013287D01*
X042518Y013365D02*
X042558Y013365D01*
X042558Y013444D02*
X042518Y013444D01*
X042495Y013522D02*
X042581Y013522D01*
X042660Y013601D02*
X042416Y013601D01*
X042338Y013679D02*
X042738Y013679D01*
X042817Y013758D02*
X042259Y013758D01*
X042237Y013820D02*
X042518Y014101D01*
X042518Y014499D01*
X042237Y014780D01*
X041839Y014780D01*
X041558Y014499D01*
X041558Y014101D01*
X041839Y013820D01*
X042237Y013820D01*
X042253Y013836D02*
X042823Y013836D01*
X042839Y013820D02*
X043237Y013820D01*
X043518Y014101D01*
X043518Y014499D01*
X043237Y014780D01*
X042839Y014780D01*
X042558Y014499D01*
X042558Y014101D01*
X042839Y013820D01*
X042745Y013915D02*
X042331Y013915D01*
X042410Y013993D02*
X042666Y013993D01*
X042588Y014072D02*
X042488Y014072D01*
X042518Y014150D02*
X042558Y014150D01*
X042558Y014229D02*
X042518Y014229D01*
X042518Y014307D02*
X042558Y014307D01*
X042558Y014386D02*
X042518Y014386D01*
X042518Y014464D02*
X042558Y014464D01*
X042602Y014543D02*
X042474Y014543D01*
X042396Y014621D02*
X042680Y014621D01*
X042759Y014700D02*
X042317Y014700D01*
X042239Y014778D02*
X042837Y014778D01*
X042839Y014820D02*
X043237Y014820D01*
X043518Y015101D01*
X043518Y015499D01*
X043237Y015780D01*
X042839Y015780D01*
X042558Y015499D01*
X042558Y015101D01*
X042839Y014820D01*
X042803Y014857D02*
X042273Y014857D01*
X042237Y014820D02*
X042518Y015101D01*
X042518Y015499D01*
X042237Y015780D01*
X041839Y015780D01*
X041558Y015499D01*
X041558Y015101D01*
X041839Y014820D01*
X042237Y014820D01*
X042352Y014935D02*
X042724Y014935D01*
X042646Y015014D02*
X042430Y015014D01*
X042509Y015092D02*
X042567Y015092D01*
X042558Y015171D02*
X042518Y015171D01*
X042518Y015249D02*
X042558Y015249D01*
X042558Y015328D02*
X042518Y015328D01*
X042518Y015406D02*
X042558Y015406D01*
X042558Y015485D02*
X042518Y015485D01*
X042454Y015563D02*
X042622Y015563D01*
X042701Y015642D02*
X042375Y015642D01*
X042297Y015720D02*
X042779Y015720D01*
X042839Y015820D02*
X043237Y015820D01*
X043518Y016101D01*
X043518Y016499D01*
X043237Y016780D01*
X042839Y016780D01*
X042558Y016499D01*
X042558Y016101D01*
X042839Y015820D01*
X042782Y015877D02*
X042294Y015877D01*
X042237Y015820D02*
X042518Y016101D01*
X042518Y016499D01*
X042237Y016780D01*
X041839Y016780D01*
X041558Y016499D01*
X041558Y016101D01*
X041839Y015820D01*
X042237Y015820D01*
X042372Y015956D02*
X042704Y015956D01*
X042625Y016034D02*
X042451Y016034D01*
X042518Y016113D02*
X042558Y016113D01*
X042558Y016191D02*
X042518Y016191D01*
X042518Y016270D02*
X042558Y016270D01*
X042558Y016348D02*
X042518Y016348D01*
X042518Y016427D02*
X042558Y016427D01*
X042564Y016505D02*
X042512Y016505D01*
X042433Y016584D02*
X042643Y016584D01*
X042721Y016662D02*
X042355Y016662D01*
X042276Y016741D02*
X042800Y016741D01*
X042839Y016820D02*
X043237Y016820D01*
X043518Y017101D01*
X043518Y017499D01*
X043237Y017780D01*
X042839Y017780D01*
X042558Y017499D01*
X042558Y017101D01*
X042839Y016820D01*
X042762Y016898D02*
X042314Y016898D01*
X042237Y016820D02*
X042518Y017101D01*
X042518Y017499D01*
X042237Y017780D01*
X041839Y017780D01*
X041558Y017499D01*
X041558Y017101D01*
X041839Y016820D01*
X042237Y016820D01*
X042393Y016976D02*
X042683Y016976D01*
X042605Y017055D02*
X042471Y017055D01*
X042518Y017133D02*
X042558Y017133D01*
X042558Y017212D02*
X042518Y017212D01*
X042518Y017290D02*
X042558Y017290D01*
X042558Y017369D02*
X042518Y017369D01*
X042518Y017447D02*
X042558Y017447D01*
X042585Y017526D02*
X042491Y017526D01*
X042413Y017604D02*
X042663Y017604D01*
X042742Y017683D02*
X042334Y017683D01*
X042256Y017761D02*
X042820Y017761D01*
X042839Y017820D02*
X043237Y017820D01*
X043518Y018101D01*
X043518Y018499D01*
X043237Y018780D01*
X042839Y018780D01*
X042558Y018499D01*
X042558Y018101D01*
X042839Y017820D01*
X042820Y017840D02*
X042256Y017840D01*
X042237Y017820D02*
X042518Y018101D01*
X042518Y018499D01*
X042237Y018780D01*
X041839Y018780D01*
X041558Y018499D01*
X041558Y018101D01*
X041839Y017820D01*
X042237Y017820D01*
X042335Y017918D02*
X042741Y017918D01*
X042663Y017997D02*
X042413Y017997D01*
X042492Y018075D02*
X042584Y018075D01*
X042558Y018154D02*
X042518Y018154D01*
X042518Y018232D02*
X042558Y018232D01*
X042558Y018311D02*
X042518Y018311D01*
X042518Y018389D02*
X042558Y018389D01*
X042558Y018468D02*
X042518Y018468D01*
X042471Y018546D02*
X042605Y018546D01*
X042684Y018625D02*
X042392Y018625D01*
X042314Y018703D02*
X042762Y018703D01*
X042839Y018820D02*
X043237Y018820D01*
X043518Y019101D01*
X043518Y019499D01*
X043237Y019780D01*
X042839Y019780D01*
X042558Y019499D01*
X042558Y019101D01*
X042839Y018820D01*
X042799Y018860D02*
X042277Y018860D01*
X042237Y018820D02*
X042518Y019101D01*
X042518Y019499D01*
X042237Y019780D01*
X041839Y019780D01*
X041558Y019499D01*
X041558Y019101D01*
X041839Y018820D01*
X042237Y018820D01*
X042355Y018939D02*
X042721Y018939D01*
X042642Y019017D02*
X042434Y019017D01*
X042512Y019096D02*
X042564Y019096D01*
X042558Y019174D02*
X042518Y019174D01*
X042518Y019253D02*
X042558Y019253D01*
X042558Y019331D02*
X042518Y019331D01*
X042518Y019410D02*
X042558Y019410D01*
X042558Y019488D02*
X042518Y019488D01*
X042450Y019567D02*
X042626Y019567D01*
X042704Y019645D02*
X042372Y019645D01*
X042293Y019724D02*
X042783Y019724D01*
X042839Y019820D02*
X043237Y019820D01*
X043518Y020101D01*
X043518Y020499D01*
X043237Y020780D01*
X042839Y020780D01*
X042558Y020499D01*
X042558Y020101D01*
X042839Y019820D01*
X042779Y019881D02*
X042297Y019881D01*
X042237Y019820D02*
X042518Y020101D01*
X042518Y020499D01*
X042237Y020780D01*
X041839Y020780D01*
X041558Y020499D01*
X041558Y020101D01*
X041839Y019820D01*
X042237Y019820D01*
X042376Y019959D02*
X042700Y019959D01*
X042622Y020038D02*
X042454Y020038D01*
X042518Y020116D02*
X042558Y020116D01*
X042558Y020195D02*
X042518Y020195D01*
X042518Y020273D02*
X042558Y020273D01*
X042558Y020352D02*
X042518Y020352D01*
X042518Y020430D02*
X042558Y020430D01*
X042568Y020509D02*
X042508Y020509D01*
X042430Y020587D02*
X042646Y020587D01*
X042725Y020666D02*
X042351Y020666D01*
X042273Y020744D02*
X042803Y020744D01*
X042839Y020820D02*
X043237Y020820D01*
X043518Y021101D01*
X043518Y021499D01*
X043237Y021780D01*
X042839Y021780D01*
X042558Y021499D01*
X042558Y021101D01*
X042839Y020820D01*
X042837Y020823D02*
X042239Y020823D01*
X042237Y020820D02*
X042518Y021101D01*
X042518Y021499D01*
X042237Y021780D01*
X041839Y021780D01*
X041558Y021499D01*
X041558Y021101D01*
X041839Y020820D01*
X042237Y020820D01*
X042318Y020901D02*
X042758Y020901D01*
X042680Y020980D02*
X042396Y020980D01*
X042475Y021058D02*
X042601Y021058D01*
X042558Y021137D02*
X042518Y021137D01*
X042518Y021215D02*
X042558Y021215D01*
X042558Y021294D02*
X042518Y021294D01*
X042518Y021372D02*
X042558Y021372D01*
X042558Y021451D02*
X042518Y021451D01*
X042488Y021529D02*
X042588Y021529D01*
X042667Y021608D02*
X042409Y021608D01*
X042331Y021686D02*
X042745Y021686D01*
X042824Y021765D02*
X042252Y021765D01*
X042237Y021820D02*
X042518Y022101D01*
X042518Y022499D01*
X042237Y022780D01*
X041839Y022780D01*
X041558Y022499D01*
X041558Y022101D01*
X041839Y021820D01*
X042237Y021820D01*
X042260Y021843D02*
X042816Y021843D01*
X042839Y021820D02*
X043237Y021820D01*
X043518Y022101D01*
X043518Y022499D01*
X043237Y022780D01*
X042839Y022780D01*
X042558Y022499D01*
X042558Y022101D01*
X042839Y021820D01*
X042738Y021922D02*
X042338Y021922D01*
X042417Y022000D02*
X042659Y022000D01*
X042581Y022079D02*
X042495Y022079D01*
X042518Y022157D02*
X042558Y022157D01*
X042558Y022236D02*
X042518Y022236D01*
X042518Y022314D02*
X042558Y022314D01*
X042558Y022393D02*
X042518Y022393D01*
X042518Y022471D02*
X042558Y022471D01*
X042609Y022550D02*
X042467Y022550D01*
X042389Y022628D02*
X042687Y022628D01*
X042766Y022707D02*
X042310Y022707D01*
X042237Y022820D02*
X042518Y023101D01*
X042518Y023499D01*
X042237Y023780D01*
X041839Y023780D01*
X041558Y023499D01*
X041558Y023101D01*
X041839Y022820D01*
X042237Y022820D01*
X042280Y022864D02*
X042796Y022864D01*
X042839Y022820D02*
X043237Y022820D01*
X043518Y023101D01*
X043518Y023499D01*
X043237Y023780D01*
X042839Y023780D01*
X042558Y023499D01*
X042558Y023101D01*
X042839Y022820D01*
X042717Y022942D02*
X042359Y022942D01*
X042437Y023021D02*
X042639Y023021D01*
X042560Y023099D02*
X042516Y023099D01*
X042518Y023178D02*
X042558Y023178D01*
X042558Y023256D02*
X042518Y023256D01*
X042518Y023335D02*
X042558Y023335D01*
X042558Y023413D02*
X042518Y023413D01*
X042518Y023492D02*
X042558Y023492D01*
X042629Y023570D02*
X042447Y023570D01*
X042368Y023649D02*
X042708Y023649D01*
X042786Y023727D02*
X042290Y023727D01*
X042237Y023820D02*
X041839Y023820D01*
X041558Y024101D01*
X041558Y024499D01*
X041839Y024780D01*
X042237Y024780D01*
X042518Y024499D01*
X042518Y024101D01*
X042237Y023820D01*
X042301Y023884D02*
X042775Y023884D01*
X042839Y023820D02*
X043237Y023820D01*
X043518Y024101D01*
X043518Y024499D01*
X043237Y024780D01*
X042839Y024780D01*
X042558Y024499D01*
X042558Y024101D01*
X042839Y023820D01*
X042697Y023963D02*
X042379Y023963D01*
X042458Y024041D02*
X042618Y024041D01*
X042558Y024120D02*
X042518Y024120D01*
X042518Y024198D02*
X042558Y024198D01*
X042558Y024277D02*
X042518Y024277D01*
X042518Y024355D02*
X042558Y024355D01*
X042558Y024434D02*
X042518Y024434D01*
X042505Y024512D02*
X042571Y024512D01*
X042650Y024591D02*
X042426Y024591D01*
X042348Y024669D02*
X042728Y024669D01*
X042807Y024748D02*
X042269Y024748D01*
X042243Y024826D02*
X042833Y024826D01*
X042839Y024820D02*
X043237Y024820D01*
X043518Y025101D01*
X043518Y025499D01*
X043237Y025780D01*
X042839Y025780D01*
X042558Y025499D01*
X042558Y025101D01*
X042839Y024820D01*
X042755Y024905D02*
X042321Y024905D01*
X042400Y024983D02*
X042676Y024983D01*
X042598Y025062D02*
X042478Y025062D01*
X042518Y025140D02*
X042558Y025140D01*
X042558Y025219D02*
X042518Y025219D01*
X042518Y025297D02*
X042558Y025297D01*
X042558Y025376D02*
X042518Y025376D01*
X042518Y025454D02*
X042558Y025454D01*
X042592Y025533D02*
X042484Y025533D01*
X042406Y025611D02*
X042670Y025611D01*
X042749Y025690D02*
X042327Y025690D01*
X042249Y025768D02*
X042827Y025768D01*
X042813Y025847D02*
X042263Y025847D01*
X042342Y025925D02*
X042734Y025925D01*
X042656Y026004D02*
X042420Y026004D01*
X042499Y026082D02*
X042577Y026082D01*
X042558Y026161D02*
X042518Y026161D01*
X042518Y026239D02*
X042558Y026239D01*
X042558Y026318D02*
X042518Y026318D01*
X042518Y026396D02*
X042558Y026396D01*
X042558Y026475D02*
X042518Y026475D01*
X042464Y026553D02*
X042612Y026553D01*
X042691Y026632D02*
X042385Y026632D01*
X042307Y026710D02*
X042769Y026710D01*
X042856Y026789D02*
X041491Y026789D01*
X041536Y026710D02*
X041769Y026710D01*
X041691Y026632D02*
X041557Y026632D01*
X041578Y026553D02*
X041612Y026553D01*
X043263Y025847D02*
X043548Y025847D01*
X043548Y025925D02*
X043342Y025925D01*
X043420Y026004D02*
X043548Y026004D01*
X043548Y026082D02*
X043499Y026082D01*
X043548Y025768D02*
X043249Y025768D01*
X043327Y025690D02*
X043548Y025690D01*
X043548Y025611D02*
X043406Y025611D01*
X043484Y025533D02*
X043548Y025533D01*
X043548Y025454D02*
X043518Y025454D01*
X043518Y025376D02*
X043548Y025376D01*
X043548Y025297D02*
X043518Y025297D01*
X043518Y025219D02*
X043548Y025219D01*
X043548Y025140D02*
X043518Y025140D01*
X043548Y025062D02*
X043478Y025062D01*
X043548Y024983D02*
X043400Y024983D01*
X043321Y024905D02*
X043548Y024905D01*
X043548Y024826D02*
X043243Y024826D01*
X043269Y024748D02*
X043548Y024748D01*
X043548Y024669D02*
X043348Y024669D01*
X043426Y024591D02*
X043548Y024591D01*
X043548Y024512D02*
X043505Y024512D01*
X043518Y024434D02*
X043548Y024434D01*
X043548Y024355D02*
X043518Y024355D01*
X043518Y024277D02*
X043548Y024277D01*
X043548Y024198D02*
X043518Y024198D01*
X043518Y024120D02*
X043548Y024120D01*
X043548Y024041D02*
X043458Y024041D01*
X043379Y023963D02*
X043548Y023963D01*
X043548Y023884D02*
X043301Y023884D01*
X043290Y023727D02*
X043548Y023727D01*
X043548Y023649D02*
X043368Y023649D01*
X043447Y023570D02*
X043548Y023570D01*
X043548Y023492D02*
X043518Y023492D01*
X043518Y023413D02*
X043548Y023413D01*
X043548Y023335D02*
X043518Y023335D01*
X043518Y023256D02*
X043548Y023256D01*
X043548Y023178D02*
X043518Y023178D01*
X043516Y023099D02*
X043548Y023099D01*
X043548Y023021D02*
X043437Y023021D01*
X043359Y022942D02*
X043548Y022942D01*
X043548Y022864D02*
X043280Y022864D01*
X043310Y022707D02*
X043548Y022707D01*
X043548Y022785D02*
X039581Y022785D01*
X039503Y022707D02*
X041766Y022707D01*
X041687Y022628D02*
X039424Y022628D01*
X039346Y022550D02*
X041609Y022550D01*
X041558Y022471D02*
X039267Y022471D01*
X039189Y022393D02*
X041558Y022393D01*
X041558Y022314D02*
X039110Y022314D01*
X039032Y022236D02*
X041558Y022236D01*
X041558Y022157D02*
X038953Y022157D01*
X038875Y022079D02*
X041581Y022079D01*
X041659Y022000D02*
X038796Y022000D01*
X038718Y021922D02*
X041738Y021922D01*
X041816Y021843D02*
X038639Y021843D01*
X038561Y021765D02*
X041824Y021765D01*
X041745Y021686D02*
X038482Y021686D01*
X038404Y021608D02*
X041667Y021608D01*
X041588Y021529D02*
X038325Y021529D01*
X038247Y021451D02*
X041558Y021451D01*
X041558Y021372D02*
X038168Y021372D01*
X038030Y021294D02*
X041558Y021294D01*
X041558Y021215D02*
X036364Y021215D01*
X036286Y021137D02*
X041558Y021137D01*
X041601Y021058D02*
X036207Y021058D01*
X036129Y020980D02*
X041680Y020980D01*
X041758Y020901D02*
X036050Y020901D01*
X035972Y020823D02*
X041837Y020823D01*
X041803Y020744D02*
X035893Y020744D01*
X035815Y020666D02*
X041725Y020666D01*
X041646Y020587D02*
X035736Y020587D01*
X035658Y020509D02*
X041568Y020509D01*
X041558Y020430D02*
X035579Y020430D01*
X035501Y020352D02*
X041558Y020352D01*
X041558Y020273D02*
X035422Y020273D01*
X035344Y020195D02*
X041558Y020195D01*
X041558Y020116D02*
X035265Y020116D01*
X035187Y020038D02*
X041622Y020038D01*
X041700Y019959D02*
X035108Y019959D01*
X035030Y019881D02*
X041779Y019881D01*
X041783Y019724D02*
X034873Y019724D01*
X034858Y019645D02*
X041704Y019645D01*
X041626Y019567D02*
X034858Y019567D01*
X034858Y019488D02*
X041558Y019488D01*
X041558Y019410D02*
X034858Y019410D01*
X034858Y019331D02*
X041558Y019331D01*
X041558Y019253D02*
X036744Y019253D01*
X036687Y019310D02*
X036389Y019310D01*
X036178Y019099D01*
X036178Y018801D01*
X036298Y018681D01*
X036298Y017319D01*
X036178Y017199D01*
X036178Y016901D01*
X036389Y016690D01*
X036687Y016690D01*
X036898Y016901D01*
X036898Y017199D01*
X036778Y017319D01*
X036778Y018681D01*
X036898Y018801D01*
X036898Y019099D01*
X036687Y019310D01*
X036823Y019174D02*
X041558Y019174D01*
X041564Y019096D02*
X036898Y019096D01*
X036898Y019017D02*
X041642Y019017D01*
X041721Y018939D02*
X036898Y018939D01*
X036898Y018860D02*
X041799Y018860D01*
X041762Y018703D02*
X036800Y018703D01*
X036778Y018625D02*
X041684Y018625D01*
X041605Y018546D02*
X036778Y018546D01*
X036778Y018468D02*
X041558Y018468D01*
X041558Y018389D02*
X036778Y018389D01*
X036778Y018311D02*
X041558Y018311D01*
X041558Y018232D02*
X036778Y018232D01*
X036778Y018154D02*
X041558Y018154D01*
X041584Y018075D02*
X036778Y018075D01*
X036778Y017997D02*
X041663Y017997D01*
X041741Y017918D02*
X036778Y017918D01*
X036778Y017840D02*
X041820Y017840D01*
X041820Y017761D02*
X036778Y017761D01*
X036778Y017683D02*
X041742Y017683D01*
X041663Y017604D02*
X036778Y017604D01*
X036778Y017526D02*
X041585Y017526D01*
X041558Y017447D02*
X036778Y017447D01*
X036778Y017369D02*
X041558Y017369D01*
X041558Y017290D02*
X036807Y017290D01*
X036885Y017212D02*
X041558Y017212D01*
X041558Y017133D02*
X036898Y017133D01*
X036898Y017055D02*
X041605Y017055D01*
X041683Y016976D02*
X036898Y016976D01*
X036895Y016898D02*
X041762Y016898D01*
X041800Y016741D02*
X036738Y016741D01*
X036816Y016819D02*
X044548Y016819D01*
X044548Y016741D02*
X043276Y016741D01*
X043355Y016662D02*
X044548Y016662D01*
X044548Y016584D02*
X043433Y016584D01*
X043512Y016505D02*
X044548Y016505D01*
X044548Y016427D02*
X043518Y016427D01*
X043518Y016348D02*
X044548Y016348D01*
X044548Y016270D02*
X043518Y016270D01*
X043518Y016191D02*
X044548Y016191D01*
X044548Y016113D02*
X043518Y016113D01*
X043451Y016034D02*
X044548Y016034D01*
X044548Y015956D02*
X043372Y015956D01*
X043294Y015877D02*
X044548Y015877D01*
X044548Y015799D02*
X034858Y015799D01*
X034858Y015877D02*
X041782Y015877D01*
X041704Y015956D02*
X034858Y015956D01*
X034858Y016034D02*
X041625Y016034D01*
X041558Y016113D02*
X034858Y016113D01*
X034858Y016191D02*
X041558Y016191D01*
X041558Y016270D02*
X034858Y016270D01*
X034858Y016348D02*
X041558Y016348D01*
X041558Y016427D02*
X034858Y016427D01*
X034858Y016505D02*
X041564Y016505D01*
X041643Y016584D02*
X034858Y016584D01*
X034858Y016662D02*
X041721Y016662D01*
X043314Y016898D02*
X044548Y016898D01*
X044548Y016976D02*
X043393Y016976D01*
X043471Y017055D02*
X044548Y017055D01*
X044548Y017133D02*
X043518Y017133D01*
X043518Y017212D02*
X044548Y017212D01*
X044548Y017290D02*
X043518Y017290D01*
X043518Y017369D02*
X044548Y017369D01*
X044548Y017447D02*
X043518Y017447D01*
X043491Y017526D02*
X044548Y017526D01*
X044548Y017604D02*
X043413Y017604D01*
X043334Y017683D02*
X044548Y017683D01*
X044548Y017761D02*
X043256Y017761D01*
X043256Y017840D02*
X044548Y017840D01*
X044548Y017918D02*
X043335Y017918D01*
X043413Y017997D02*
X044548Y017997D01*
X044548Y018075D02*
X043492Y018075D01*
X043518Y018154D02*
X044548Y018154D01*
X044548Y018232D02*
X043518Y018232D01*
X043518Y018311D02*
X044548Y018311D01*
X044548Y018389D02*
X043518Y018389D01*
X043518Y018468D02*
X044548Y018468D01*
X044548Y018546D02*
X043471Y018546D01*
X043392Y018625D02*
X044548Y018625D01*
X044548Y018703D02*
X043314Y018703D01*
X043277Y018860D02*
X044548Y018860D01*
X044548Y018782D02*
X036879Y018782D01*
X036298Y018625D02*
X034858Y018625D01*
X034858Y018703D02*
X036276Y018703D01*
X036197Y018782D02*
X034858Y018782D01*
X034858Y018860D02*
X036178Y018860D01*
X036178Y018939D02*
X034858Y018939D01*
X034858Y019017D02*
X036178Y019017D01*
X036178Y019096D02*
X034858Y019096D01*
X034858Y019174D02*
X036253Y019174D01*
X036331Y019253D02*
X034858Y019253D01*
X034951Y019802D02*
X044548Y019802D01*
X044548Y019724D02*
X043293Y019724D01*
X043372Y019645D02*
X044548Y019645D01*
X044548Y019567D02*
X043450Y019567D01*
X043518Y019488D02*
X044548Y019488D01*
X044548Y019410D02*
X043518Y019410D01*
X043518Y019331D02*
X044548Y019331D01*
X044548Y019253D02*
X043518Y019253D01*
X043518Y019174D02*
X044548Y019174D01*
X044548Y019096D02*
X043512Y019096D01*
X043434Y019017D02*
X044548Y019017D01*
X044548Y018939D02*
X043355Y018939D01*
X043297Y019881D02*
X044548Y019881D01*
X044548Y019959D02*
X043376Y019959D01*
X043454Y020038D02*
X044548Y020038D01*
X044548Y020116D02*
X043518Y020116D01*
X043518Y020195D02*
X044548Y020195D01*
X044548Y020273D02*
X043518Y020273D01*
X043518Y020352D02*
X044548Y020352D01*
X044548Y020430D02*
X043518Y020430D01*
X043508Y020509D02*
X044548Y020509D01*
X044548Y020587D02*
X043430Y020587D01*
X043351Y020666D02*
X044548Y020666D01*
X044548Y020744D02*
X043273Y020744D01*
X043239Y020823D02*
X044548Y020823D01*
X044548Y020901D02*
X043318Y020901D01*
X043396Y020980D02*
X044548Y020980D01*
X044548Y021058D02*
X043475Y021058D01*
X043518Y021137D02*
X044508Y021137D01*
X044430Y021215D02*
X043518Y021215D01*
X043518Y021294D02*
X044351Y021294D01*
X044273Y021372D02*
X043518Y021372D01*
X043518Y021451D02*
X044194Y021451D01*
X044116Y021529D02*
X043488Y021529D01*
X043409Y021608D02*
X044037Y021608D01*
X043959Y021686D02*
X043331Y021686D01*
X043252Y021765D02*
X043880Y021765D01*
X043802Y021843D02*
X043260Y021843D01*
X043338Y021922D02*
X043723Y021922D01*
X043760Y021885D02*
X043760Y021885D01*
X043645Y022000D02*
X043417Y022000D01*
X043495Y022079D02*
X043599Y022079D01*
X043567Y022157D02*
X043518Y022157D01*
X043518Y022236D02*
X043548Y022236D01*
X043548Y022314D02*
X043518Y022314D01*
X043518Y022393D02*
X043548Y022393D01*
X043548Y022471D02*
X043518Y022471D01*
X043548Y022550D02*
X043467Y022550D01*
X043389Y022628D02*
X043548Y022628D01*
X041796Y022864D02*
X039660Y022864D01*
X039738Y022942D02*
X041717Y022942D01*
X041639Y023021D02*
X039808Y023021D01*
X039841Y023099D02*
X041560Y023099D01*
X041558Y023178D02*
X039868Y023178D01*
X039868Y023256D02*
X041558Y023256D01*
X041558Y023335D02*
X039868Y023335D01*
X039868Y023413D02*
X041558Y023413D01*
X041558Y023492D02*
X039868Y023492D01*
X039869Y023570D02*
X041629Y023570D01*
X041708Y023649D02*
X039949Y023649D01*
X040029Y023727D02*
X041786Y023727D01*
X041775Y023884D02*
X040189Y023884D01*
X040269Y023963D02*
X041697Y023963D01*
X041618Y024041D02*
X040349Y024041D01*
X040429Y024120D02*
X041558Y024120D01*
X041558Y024198D02*
X040509Y024198D01*
X040589Y024277D02*
X041558Y024277D01*
X041558Y024355D02*
X040669Y024355D01*
X040749Y024434D02*
X041558Y024434D01*
X041571Y024512D02*
X040829Y024512D01*
X040909Y024591D02*
X041650Y024591D01*
X041728Y024669D02*
X040989Y024669D01*
X041069Y024748D02*
X041807Y024748D01*
X041833Y024826D02*
X041149Y024826D01*
X041229Y024905D02*
X041755Y024905D01*
X041676Y024983D02*
X041309Y024983D01*
X041389Y025062D02*
X041598Y025062D01*
X041558Y025140D02*
X041469Y025140D01*
X041549Y025219D02*
X041558Y025219D01*
X040321Y025219D02*
X038768Y025219D01*
X038846Y025297D02*
X040147Y025297D01*
X039999Y025376D02*
X039175Y025376D01*
X039253Y025454D02*
X039871Y025454D01*
X039792Y025533D02*
X039258Y025533D01*
X039328Y025611D02*
X039714Y025611D01*
X039655Y025690D02*
X039406Y025690D01*
X039461Y025768D02*
X039610Y025768D01*
X039564Y025847D02*
X039494Y025847D01*
X039518Y025925D02*
X039531Y025925D01*
X039038Y025550D02*
X038788Y025550D01*
X038038Y024800D01*
X038038Y023300D01*
X037088Y022350D01*
X037088Y021700D01*
X036538Y021700D01*
X034638Y019800D01*
X034638Y013000D01*
X034688Y012950D01*
X034939Y013208D02*
X041558Y013208D01*
X041558Y013130D02*
X035017Y013130D01*
X035048Y013051D02*
X041608Y013051D01*
X041687Y012973D02*
X035048Y012973D01*
X035048Y012894D02*
X041765Y012894D01*
X041796Y012737D02*
X034984Y012737D01*
X035048Y012816D02*
X044548Y012816D01*
X044548Y012894D02*
X043311Y012894D01*
X043389Y012973D02*
X044548Y012973D01*
X044548Y013051D02*
X043468Y013051D01*
X043518Y013130D02*
X044548Y013130D01*
X044548Y013208D02*
X043518Y013208D01*
X043518Y013287D02*
X044548Y013287D01*
X044548Y013365D02*
X043518Y013365D01*
X043518Y013444D02*
X044548Y013444D01*
X044548Y013522D02*
X043495Y013522D01*
X043416Y013601D02*
X044548Y013601D01*
X044548Y013679D02*
X043338Y013679D01*
X043259Y013758D02*
X044548Y013758D01*
X044548Y013836D02*
X043253Y013836D01*
X043331Y013915D02*
X044548Y013915D01*
X044548Y013993D02*
X043410Y013993D01*
X043488Y014072D02*
X044548Y014072D01*
X044548Y014150D02*
X043518Y014150D01*
X043518Y014229D02*
X044548Y014229D01*
X044548Y014307D02*
X043518Y014307D01*
X043518Y014386D02*
X044548Y014386D01*
X044548Y014464D02*
X043518Y014464D01*
X043474Y014543D02*
X044548Y014543D01*
X044548Y014621D02*
X043396Y014621D01*
X043317Y014700D02*
X044548Y014700D01*
X044548Y014778D02*
X043239Y014778D01*
X043273Y014857D02*
X044548Y014857D01*
X044548Y014935D02*
X043352Y014935D01*
X043430Y015014D02*
X044548Y015014D01*
X044548Y015092D02*
X043509Y015092D01*
X043518Y015171D02*
X044548Y015171D01*
X044548Y015249D02*
X043518Y015249D01*
X043518Y015328D02*
X044548Y015328D01*
X044548Y015406D02*
X043518Y015406D01*
X043518Y015485D02*
X044548Y015485D01*
X044548Y015563D02*
X043454Y015563D01*
X043375Y015642D02*
X044548Y015642D01*
X044548Y015720D02*
X043297Y015720D01*
X041779Y015720D02*
X034858Y015720D01*
X034858Y015642D02*
X041701Y015642D01*
X041622Y015563D02*
X034858Y015563D01*
X034858Y015485D02*
X041558Y015485D01*
X041558Y015406D02*
X034858Y015406D01*
X034858Y015328D02*
X041558Y015328D01*
X041558Y015249D02*
X034858Y015249D01*
X034858Y015171D02*
X041558Y015171D01*
X041567Y015092D02*
X034858Y015092D01*
X034858Y015014D02*
X041646Y015014D01*
X041724Y014935D02*
X034858Y014935D01*
X034858Y014857D02*
X041803Y014857D01*
X041837Y014778D02*
X034858Y014778D01*
X034858Y014700D02*
X041759Y014700D01*
X041680Y014621D02*
X034858Y014621D01*
X034858Y014543D02*
X041602Y014543D01*
X041558Y014464D02*
X034858Y014464D01*
X034858Y014386D02*
X041558Y014386D01*
X041558Y014307D02*
X034858Y014307D01*
X034858Y014229D02*
X041558Y014229D01*
X041558Y014150D02*
X034858Y014150D01*
X034858Y014072D02*
X041588Y014072D01*
X041666Y013993D02*
X034858Y013993D01*
X034858Y013915D02*
X041745Y013915D01*
X041823Y013836D02*
X034858Y013836D01*
X034858Y013758D02*
X041817Y013758D01*
X041738Y013679D02*
X034858Y013679D01*
X034858Y013601D02*
X041660Y013601D01*
X041581Y013522D02*
X034858Y013522D01*
X034858Y013444D02*
X041558Y013444D01*
X041558Y013365D02*
X034858Y013365D01*
X034860Y013287D02*
X041558Y013287D01*
X041718Y012659D02*
X034906Y012659D01*
X034470Y012659D02*
X033369Y012659D01*
X033290Y012737D02*
X034392Y012737D01*
X034328Y012816D02*
X033212Y012816D01*
X033133Y012894D02*
X034035Y012894D01*
X033956Y012973D02*
X033055Y012973D01*
X032976Y013051D02*
X033428Y013051D01*
X033349Y013130D02*
X032898Y013130D01*
X032819Y013208D02*
X033278Y013208D01*
X033278Y013287D02*
X032741Y013287D01*
X033128Y013601D02*
X031434Y013601D01*
X031356Y013679D02*
X033069Y013679D01*
X033037Y013758D02*
X031277Y013758D01*
X031199Y013836D02*
X033028Y013836D01*
X033028Y013915D02*
X031120Y013915D01*
X031118Y013993D02*
X033057Y013993D01*
X033100Y014072D02*
X031118Y014072D01*
X031118Y014150D02*
X033179Y014150D01*
X033388Y013850D02*
X033638Y013850D01*
X034038Y014200D01*
X034038Y021050D01*
X036038Y023050D01*
X036038Y026300D01*
X037038Y026300D02*
X037038Y023100D01*
X034238Y020300D01*
X034238Y014000D01*
X033638Y013350D01*
X033278Y013365D02*
X031670Y013365D01*
X031591Y013444D02*
X033278Y013444D01*
X033239Y013522D02*
X031513Y013522D01*
X031118Y014229D02*
X033736Y014229D01*
X033818Y014307D02*
X031118Y014307D01*
X031118Y014386D02*
X033818Y014386D01*
X033818Y014464D02*
X031118Y014464D01*
X031118Y014543D02*
X033818Y014543D01*
X033818Y014621D02*
X031118Y014621D01*
X031118Y014700D02*
X033818Y014700D01*
X033818Y014778D02*
X031118Y014778D01*
X031118Y014857D02*
X033818Y014857D01*
X033818Y014935D02*
X031118Y014935D01*
X031118Y015014D02*
X033818Y015014D01*
X033818Y015092D02*
X031118Y015092D01*
X031118Y015171D02*
X033818Y015171D01*
X033818Y015249D02*
X031118Y015249D01*
X031141Y015328D02*
X033818Y015328D01*
X033818Y015406D02*
X031219Y015406D01*
X031298Y015485D02*
X033818Y015485D01*
X033818Y015563D02*
X031376Y015563D01*
X031455Y015642D02*
X033818Y015642D01*
X033818Y015720D02*
X031533Y015720D01*
X031612Y015799D02*
X033818Y015799D01*
X033818Y015877D02*
X031690Y015877D01*
X031768Y015956D02*
X033818Y015956D01*
X033818Y016034D02*
X031768Y016034D01*
X031768Y016113D02*
X033818Y016113D01*
X033818Y016191D02*
X031768Y016191D01*
X031768Y016270D02*
X033818Y016270D01*
X033818Y016348D02*
X031768Y016348D01*
X031768Y016427D02*
X033818Y016427D01*
X033818Y016505D02*
X031768Y016505D01*
X031768Y016584D02*
X033818Y016584D01*
X033818Y016662D02*
X031768Y016662D01*
X031768Y016741D02*
X033818Y016741D01*
X033818Y016819D02*
X031768Y016819D01*
X031768Y016898D02*
X033818Y016898D01*
X033818Y016976D02*
X031768Y016976D01*
X031759Y017055D02*
X033818Y017055D01*
X033818Y017133D02*
X031680Y017133D01*
X031587Y017212D02*
X033818Y017212D01*
X033818Y017290D02*
X031568Y017290D01*
X031568Y017369D02*
X033818Y017369D01*
X033818Y017447D02*
X031568Y017447D01*
X031541Y017526D02*
X033818Y017526D01*
X033818Y017604D02*
X031463Y017604D01*
X031384Y017683D02*
X033818Y017683D01*
X033818Y017761D02*
X031306Y017761D01*
X031306Y017840D02*
X033818Y017840D01*
X033818Y017918D02*
X031385Y017918D01*
X031463Y017997D02*
X033818Y017997D01*
X033818Y018075D02*
X031542Y018075D01*
X031568Y018154D02*
X033818Y018154D01*
X033818Y018232D02*
X031568Y018232D01*
X031568Y018311D02*
X033818Y018311D01*
X033818Y018389D02*
X031568Y018389D01*
X031568Y018468D02*
X033818Y018468D01*
X033818Y018546D02*
X031521Y018546D01*
X031442Y018625D02*
X033818Y018625D01*
X033818Y018703D02*
X031364Y018703D01*
X031263Y019253D02*
X033818Y019253D01*
X033818Y019331D02*
X031499Y019331D01*
X031635Y019410D02*
X033818Y019410D01*
X033818Y019488D02*
X031739Y019488D01*
X031818Y019567D02*
X033818Y019567D01*
X033818Y019645D02*
X031895Y019645D01*
X031941Y019724D02*
X033818Y019724D01*
X033818Y019802D02*
X031986Y019802D01*
X032031Y019881D02*
X033818Y019881D01*
X033818Y019959D02*
X032054Y019959D01*
X032075Y020038D02*
X033818Y020038D01*
X033818Y020116D02*
X032096Y020116D01*
X032108Y020195D02*
X033818Y020195D01*
X033818Y020273D02*
X032108Y020273D01*
X032108Y020352D02*
X033818Y020352D01*
X033818Y020430D02*
X032108Y020430D01*
X032090Y020509D02*
X033818Y020509D01*
X033818Y020587D02*
X032069Y020587D01*
X032048Y020666D02*
X033818Y020666D01*
X033818Y020744D02*
X032017Y020744D01*
X031972Y020823D02*
X033818Y020823D01*
X033818Y020901D02*
X031926Y020901D01*
X031871Y020980D02*
X033818Y020980D01*
X033818Y021058D02*
X031793Y021058D01*
X031714Y021137D02*
X033818Y021137D01*
X033892Y021215D02*
X031593Y021215D01*
X031457Y021294D02*
X033970Y021294D01*
X034944Y021506D02*
X036588Y023150D01*
X036588Y024700D01*
X037538Y025300D02*
X037538Y023150D01*
X036038Y021650D01*
X034438Y020050D01*
X034438Y013900D01*
X034188Y013650D01*
X034188Y013250D01*
X033878Y013051D02*
X033848Y013051D01*
X033447Y012580D02*
X041639Y012580D01*
X041561Y012502D02*
X033526Y012502D01*
X033604Y012423D02*
X041558Y012423D01*
X041558Y012345D02*
X033683Y012345D01*
X033761Y012266D02*
X041558Y012266D01*
X041558Y012188D02*
X033840Y012188D01*
X033918Y012109D02*
X041558Y012109D01*
X041629Y012031D02*
X033997Y012031D01*
X034075Y011952D02*
X041707Y011952D01*
X041786Y011874D02*
X034154Y011874D01*
X030890Y012423D02*
X028176Y012423D01*
X028098Y012502D02*
X030811Y012502D01*
X030733Y012580D02*
X028019Y012580D01*
X027941Y012659D02*
X030654Y012659D01*
X030576Y012737D02*
X027862Y012737D01*
X027784Y012816D02*
X030497Y012816D01*
X030419Y012894D02*
X027705Y012894D01*
X027658Y012973D02*
X030340Y012973D01*
X030262Y013051D02*
X027658Y013051D01*
X027658Y013130D02*
X030183Y013130D01*
X030108Y013208D02*
X027658Y013208D01*
X028288Y013650D02*
X028288Y014750D01*
X028638Y014550D02*
X028638Y017550D01*
X028788Y017750D01*
X028418Y017447D02*
X028353Y017447D01*
X028418Y017369D02*
X028274Y017369D01*
X028196Y017290D02*
X028418Y017290D01*
X028418Y017212D02*
X028117Y017212D01*
X028039Y017133D02*
X028418Y017133D01*
X028418Y017055D02*
X027960Y017055D01*
X027882Y016976D02*
X028418Y016976D01*
X028418Y016898D02*
X027848Y016898D01*
X027848Y016819D02*
X028418Y016819D01*
X028418Y016741D02*
X027848Y016741D01*
X027848Y016662D02*
X028418Y016662D01*
X028418Y016584D02*
X027781Y016584D01*
X027702Y016505D02*
X028418Y016505D01*
X027853Y017683D02*
X027180Y017683D01*
X027258Y017761D02*
X027931Y017761D01*
X028010Y017840D02*
X027337Y017840D01*
X027348Y017918D02*
X028088Y017918D01*
X030888Y016821D02*
X030889Y016820D01*
X031287Y016820D01*
X031308Y016841D01*
X031308Y016702D01*
X031270Y016740D01*
X031128Y016740D01*
X031128Y016340D01*
X031048Y016340D01*
X031048Y016740D01*
X030906Y016740D01*
X030888Y016722D01*
X030888Y016821D01*
X030888Y016819D02*
X031308Y016819D01*
X031308Y016741D02*
X030888Y016741D01*
X031048Y016662D02*
X031128Y016662D01*
X031128Y016584D02*
X031048Y016584D01*
X031048Y016505D02*
X031128Y016505D01*
X031128Y016427D02*
X031048Y016427D01*
X031048Y016348D02*
X031128Y016348D01*
X031538Y016950D02*
X031188Y017300D01*
X031088Y017300D01*
X034858Y017290D02*
X036269Y017290D01*
X036298Y017369D02*
X034858Y017369D01*
X034858Y017447D02*
X036298Y017447D01*
X036298Y017526D02*
X034858Y017526D01*
X034858Y017604D02*
X036298Y017604D01*
X036298Y017683D02*
X034858Y017683D01*
X034858Y017761D02*
X036298Y017761D01*
X036298Y017840D02*
X034858Y017840D01*
X034858Y017918D02*
X036298Y017918D01*
X036298Y017997D02*
X034858Y017997D01*
X034858Y018075D02*
X036298Y018075D01*
X036298Y018154D02*
X034858Y018154D01*
X034858Y018232D02*
X036298Y018232D01*
X036298Y018311D02*
X034858Y018311D01*
X034858Y018389D02*
X036298Y018389D01*
X036298Y018468D02*
X034858Y018468D01*
X034858Y018546D02*
X036298Y018546D01*
X036190Y017212D02*
X034858Y017212D01*
X034858Y017133D02*
X036178Y017133D01*
X036178Y017055D02*
X034858Y017055D01*
X034858Y016976D02*
X036178Y016976D01*
X036181Y016898D02*
X034858Y016898D01*
X034858Y016819D02*
X036260Y016819D01*
X036338Y016741D02*
X034858Y016741D01*
X033647Y014150D02*
X033597Y014150D01*
X029188Y014300D02*
X028888Y014000D01*
X028638Y014000D01*
X029188Y014300D02*
X029188Y014950D01*
X028988Y015150D01*
X028638Y014550D02*
X028738Y014450D01*
X028888Y014450D01*
X025638Y015450D02*
X025638Y012000D01*
X023559Y010068D02*
X023289Y010068D01*
X023388Y009990D02*
X023637Y009990D01*
X023636Y009911D02*
X023716Y009911D01*
X023714Y009833D02*
X023794Y009833D01*
X023793Y009754D02*
X023873Y009754D01*
X023845Y009676D02*
X023951Y009676D01*
X023978Y009597D02*
X023845Y009597D01*
X023845Y009519D02*
X024010Y009519D01*
X024089Y009440D02*
X023845Y009440D01*
X023802Y009362D02*
X024167Y009362D01*
X024238Y009700D02*
X024338Y009700D01*
X023497Y010130D02*
X023497Y010130D01*
X023101Y009597D02*
X022699Y009597D01*
X022777Y009519D02*
X023125Y009519D01*
X023125Y009440D02*
X022856Y009440D01*
X022934Y009362D02*
X023167Y009362D01*
X023246Y009283D02*
X023013Y009283D01*
X023091Y009205D02*
X023324Y009205D01*
X022425Y008655D02*
X019434Y008655D01*
X019569Y008577D02*
X022503Y008577D01*
X022582Y008498D02*
X019648Y008498D01*
X019726Y008420D02*
X022608Y008420D01*
X022608Y008341D02*
X019805Y008341D01*
X019883Y008263D02*
X022608Y008263D01*
X022608Y008184D02*
X019962Y008184D01*
X020040Y008106D02*
X022608Y008106D01*
X022608Y008027D02*
X022148Y008027D01*
X022078Y008027D02*
X021998Y008027D01*
X021928Y008027D02*
X021148Y008027D01*
X021078Y008027D02*
X020998Y008027D01*
X020928Y008027D02*
X020261Y008027D01*
X020368Y007949D02*
X020769Y007949D01*
X020690Y007870D02*
X020446Y007870D01*
X020478Y007792D02*
X020642Y007792D01*
X020612Y007713D02*
X020511Y007713D01*
X020518Y007635D02*
X020598Y007635D01*
X020598Y007556D02*
X020518Y007556D01*
X020518Y007478D02*
X020598Y007478D01*
X020598Y007399D02*
X020518Y007399D01*
X020518Y007321D02*
X020998Y007321D01*
X020998Y007399D02*
X021078Y007399D01*
X021078Y007321D02*
X021998Y007321D01*
X021998Y007399D02*
X022078Y007399D01*
X022078Y007321D02*
X022558Y007321D01*
X022558Y007399D02*
X022478Y007399D01*
X022478Y007478D02*
X022558Y007478D01*
X022558Y007556D02*
X022478Y007556D01*
X022478Y007635D02*
X022558Y007635D01*
X022565Y007713D02*
X022464Y007713D01*
X022434Y007792D02*
X022598Y007792D01*
X022608Y007870D02*
X022386Y007870D01*
X022307Y007949D02*
X022608Y007949D01*
X022078Y007949D02*
X021998Y007949D01*
X021998Y007870D02*
X022078Y007870D01*
X022078Y007792D02*
X021998Y007792D01*
X021998Y007713D02*
X022078Y007713D01*
X022078Y007635D02*
X021998Y007635D01*
X021998Y007556D02*
X022078Y007556D01*
X022078Y007478D02*
X021998Y007478D01*
X021598Y007478D02*
X021478Y007478D01*
X021478Y007556D02*
X021598Y007556D01*
X021598Y007635D02*
X021478Y007635D01*
X021464Y007713D02*
X021612Y007713D01*
X021642Y007792D02*
X021434Y007792D01*
X021386Y007870D02*
X021690Y007870D01*
X021769Y007949D02*
X021307Y007949D01*
X021078Y007949D02*
X020998Y007949D01*
X020998Y007870D02*
X021078Y007870D01*
X021078Y007792D02*
X020998Y007792D01*
X020998Y007713D02*
X021078Y007713D01*
X021078Y007635D02*
X020998Y007635D01*
X020998Y007556D02*
X021078Y007556D01*
X021078Y007478D02*
X020998Y007478D01*
X020598Y007242D02*
X020518Y007242D01*
X020518Y007164D02*
X020598Y007164D01*
X020598Y007085D02*
X020518Y007085D01*
X020518Y007007D02*
X020598Y007007D01*
X020604Y006928D02*
X020518Y006928D01*
X020495Y006850D02*
X020624Y006850D01*
X021452Y006850D02*
X021624Y006850D01*
X021604Y006928D02*
X021472Y006928D01*
X021478Y007007D02*
X021598Y007007D01*
X021598Y007085D02*
X021478Y007085D01*
X021478Y007164D02*
X021598Y007164D01*
X021598Y007242D02*
X021478Y007242D01*
X021478Y007399D02*
X021598Y007399D01*
X022478Y007242D02*
X022558Y007242D01*
X022558Y007164D02*
X022478Y007164D01*
X022478Y007085D02*
X022558Y007085D01*
X022558Y007007D02*
X022478Y007007D01*
X022472Y006928D02*
X022558Y006928D01*
X022581Y006850D02*
X022452Y006850D01*
X023495Y006850D02*
X024581Y006850D01*
X024558Y006928D02*
X023518Y006928D01*
X023518Y007007D02*
X024558Y007007D01*
X024558Y007085D02*
X023518Y007085D01*
X023518Y007164D02*
X024558Y007164D01*
X024558Y007242D02*
X023518Y007242D01*
X029038Y007260D02*
X029038Y007300D01*
X033838Y008350D02*
X035688Y008350D01*
X036038Y008000D01*
X036038Y007300D01*
X043290Y011874D02*
X044548Y011874D01*
X044548Y011952D02*
X043369Y011952D01*
X043447Y012031D02*
X044548Y012031D01*
X044548Y012109D02*
X043518Y012109D01*
X043518Y012188D02*
X044548Y012188D01*
X044548Y012266D02*
X043518Y012266D01*
X043518Y012345D02*
X044548Y012345D01*
X044548Y012423D02*
X043518Y012423D01*
X043515Y012502D02*
X044548Y012502D01*
X044548Y012580D02*
X043437Y012580D01*
X043358Y012659D02*
X044548Y012659D01*
X044548Y012737D02*
X043280Y012737D01*
X037746Y021294D02*
X036443Y021294D01*
X036521Y021372D02*
X036907Y021372D01*
X036828Y021451D02*
X036600Y021451D01*
X037269Y021372D02*
X037608Y021372D01*
X037529Y021451D02*
X037348Y021451D01*
X037426Y021529D02*
X037493Y021529D01*
X037461Y021608D02*
X037448Y021608D01*
X037448Y021686D02*
X037458Y021686D01*
X037448Y021765D02*
X037458Y021765D01*
X037448Y021843D02*
X037482Y021843D01*
X037514Y021922D02*
X037375Y021922D01*
X037308Y022000D02*
X037580Y022000D01*
X037658Y022079D02*
X037308Y022079D01*
X037308Y022157D02*
X037737Y022157D01*
X037815Y022236D02*
X037308Y022236D01*
X037363Y022314D02*
X037894Y022314D01*
X037972Y022393D02*
X037442Y022393D01*
X037520Y022471D02*
X038051Y022471D01*
X038129Y022550D02*
X037599Y022550D01*
X037677Y022628D02*
X038208Y022628D01*
X038286Y022707D02*
X037756Y022707D01*
X037834Y022785D02*
X038365Y022785D01*
X038443Y022864D02*
X037913Y022864D01*
X037991Y022942D02*
X038522Y022942D01*
X038600Y023021D02*
X038070Y023021D01*
X038148Y023099D02*
X038679Y023099D01*
X038757Y023178D02*
X038227Y023178D01*
X038258Y023256D02*
X038836Y023256D01*
X038914Y023335D02*
X038258Y023335D01*
X038258Y023413D02*
X038993Y023413D01*
X039008Y023492D02*
X038258Y023492D01*
X038258Y023570D02*
X039008Y023570D01*
X039008Y023649D02*
X038258Y023649D01*
X038258Y023727D02*
X039008Y023727D01*
X039008Y023806D02*
X038258Y023806D01*
X038258Y023884D02*
X039028Y023884D01*
X039061Y023963D02*
X038258Y023963D01*
X038258Y024041D02*
X039121Y024041D01*
X039201Y024120D02*
X038258Y024120D01*
X038258Y024198D02*
X039281Y024198D01*
X039361Y024277D02*
X038258Y024277D01*
X038258Y024355D02*
X039441Y024355D01*
X039521Y024434D02*
X038258Y024434D01*
X038258Y024512D02*
X039601Y024512D01*
X039681Y024591D02*
X038258Y024591D01*
X038258Y024669D02*
X039761Y024669D01*
X039841Y024748D02*
X038297Y024748D01*
X038375Y024826D02*
X039921Y024826D01*
X040001Y024905D02*
X038454Y024905D01*
X038532Y024983D02*
X040081Y024983D01*
X040161Y025062D02*
X038611Y025062D01*
X038689Y025140D02*
X040241Y025140D01*
X039038Y025550D02*
X039038Y026300D01*
X038038Y026300D02*
X038038Y025800D01*
X037538Y025300D01*
X040109Y023806D02*
X043548Y023806D01*
X034038Y025800D02*
X033838Y025550D01*
X034038Y025800D02*
X034038Y026300D01*
X031558Y026318D02*
X030518Y026318D01*
X030518Y026396D02*
X031558Y026396D01*
X031558Y026475D02*
X030518Y026475D01*
X030518Y026553D02*
X031558Y026553D01*
X031558Y026632D02*
X030518Y026632D01*
X030518Y026695D02*
X030518Y026120D01*
X031558Y026120D01*
X031558Y026695D01*
X031605Y026810D01*
X030470Y026810D01*
X030518Y026695D01*
X030512Y026710D02*
X031564Y026710D01*
X031596Y026789D02*
X030479Y026789D01*
X030518Y026239D02*
X031558Y026239D01*
X031558Y026161D02*
X030518Y026161D01*
X026038Y026300D02*
X026038Y025450D01*
X025738Y025150D01*
X025288Y025150D01*
X024988Y024850D01*
X022912Y025533D02*
X021564Y025533D01*
X021312Y025533D02*
X020564Y025533D01*
X020728Y025611D02*
X021148Y025611D01*
X021070Y025690D02*
X020806Y025690D01*
X020861Y025768D02*
X021014Y025768D01*
X020982Y025847D02*
X020894Y025847D01*
X020918Y025925D02*
X020958Y025925D01*
X020958Y026004D02*
X020918Y026004D01*
X020918Y026082D02*
X020958Y026082D01*
X020958Y026161D02*
X020918Y026161D01*
X020918Y026239D02*
X020958Y026239D01*
X020958Y026318D02*
X020918Y026318D01*
X020918Y026396D02*
X020958Y026396D01*
X020958Y026475D02*
X020918Y026475D01*
X020918Y026553D02*
X020958Y026553D01*
X020958Y026632D02*
X020918Y026632D01*
X020912Y026710D02*
X020964Y026710D01*
X020996Y026789D02*
X020879Y026789D01*
X019996Y026789D02*
X019879Y026789D01*
X019912Y026710D02*
X019964Y026710D01*
X019958Y026632D02*
X019918Y026632D01*
X019918Y026553D02*
X019958Y026553D01*
X019958Y026475D02*
X019918Y026475D01*
X019918Y026396D02*
X019958Y026396D01*
X019958Y026318D02*
X019918Y026318D01*
X019918Y026239D02*
X019958Y026239D01*
X019958Y026161D02*
X019918Y026161D01*
X019918Y026082D02*
X019958Y026082D01*
X019958Y026004D02*
X019918Y026004D01*
X019918Y025925D02*
X019958Y025925D01*
X019982Y025847D02*
X019894Y025847D01*
X019861Y025768D02*
X020014Y025768D01*
X020070Y025690D02*
X019806Y025690D01*
X019728Y025611D02*
X020148Y025611D01*
X020312Y025533D02*
X019564Y025533D01*
X019312Y025533D02*
X018564Y025533D01*
X018728Y025611D02*
X019148Y025611D01*
X019070Y025690D02*
X018806Y025690D01*
X018861Y025768D02*
X019014Y025768D01*
X018982Y025847D02*
X018894Y025847D01*
X018918Y025925D02*
X018958Y025925D01*
X018958Y026004D02*
X018918Y026004D01*
X018918Y026082D02*
X018958Y026082D01*
X018958Y026161D02*
X018918Y026161D01*
X018918Y026239D02*
X018958Y026239D01*
X018958Y026318D02*
X018918Y026318D01*
X018918Y026396D02*
X018958Y026396D01*
X018958Y026475D02*
X018918Y026475D01*
X018918Y026553D02*
X018958Y026553D01*
X018958Y026632D02*
X018918Y026632D01*
X018912Y026710D02*
X018964Y026710D01*
X018996Y026789D02*
X018879Y026789D01*
X017996Y026789D02*
X017879Y026789D01*
X017912Y026710D02*
X017964Y026710D01*
X017958Y026632D02*
X017918Y026632D01*
X017918Y026553D02*
X017958Y026553D01*
X017958Y026475D02*
X017918Y026475D01*
X017918Y026396D02*
X017958Y026396D01*
X017958Y026318D02*
X017918Y026318D01*
X017918Y026239D02*
X017958Y026239D01*
X017958Y026161D02*
X017918Y026161D01*
X017918Y026082D02*
X017958Y026082D01*
X017958Y026004D02*
X017918Y026004D01*
X017918Y025925D02*
X017958Y025925D01*
X017982Y025847D02*
X017894Y025847D01*
X017861Y025768D02*
X018014Y025768D01*
X018070Y025690D02*
X017806Y025690D01*
X017728Y025611D02*
X018148Y025611D01*
X018312Y025533D02*
X017564Y025533D01*
X017312Y025533D02*
X016596Y025533D01*
X016728Y025611D02*
X017148Y025611D01*
X017070Y025690D02*
X016806Y025690D01*
X016861Y025768D02*
X017014Y025768D01*
X016982Y025847D02*
X016894Y025847D01*
X016918Y025925D02*
X016958Y025925D01*
X016958Y026004D02*
X016918Y026004D01*
X016918Y026082D02*
X016958Y026082D01*
X016958Y026161D02*
X016918Y026161D01*
X016918Y026239D02*
X016958Y026239D01*
X016958Y026318D02*
X016918Y026318D01*
X016918Y026396D02*
X016958Y026396D01*
X016958Y026475D02*
X016918Y026475D01*
X016918Y026553D02*
X016958Y026553D01*
X016958Y026632D02*
X016918Y026632D01*
X016912Y026710D02*
X016964Y026710D01*
X016996Y026789D02*
X016879Y026789D01*
X015996Y026789D02*
X015836Y026789D01*
X015865Y026710D02*
X015964Y026710D01*
X015958Y026632D02*
X015878Y026632D01*
X015878Y026553D02*
X015958Y026553D01*
X015958Y026475D02*
X015878Y026475D01*
X015878Y026396D02*
X015958Y026396D01*
X015958Y026318D02*
X015478Y026318D01*
X015478Y026260D02*
X015878Y026260D01*
X015878Y025965D01*
X015867Y025897D01*
X015846Y025831D01*
X015814Y025769D01*
X015774Y025713D01*
X015725Y025664D01*
X015669Y025624D01*
X015607Y025592D01*
X015541Y025571D01*
X015478Y025561D01*
X015478Y026260D01*
X015478Y026239D02*
X015398Y026239D01*
X015398Y026260D02*
X015398Y025561D01*
X015335Y025571D01*
X015269Y025592D01*
X015207Y025624D01*
X015151Y025664D01*
X015102Y025713D01*
X015062Y025769D01*
X015030Y025831D01*
X015009Y025897D01*
X014998Y025965D01*
X014998Y026260D01*
X015398Y026260D01*
X015398Y026318D02*
X014918Y026318D01*
X014918Y026396D02*
X014998Y026396D01*
X014998Y026475D02*
X014918Y026475D01*
X014918Y026553D02*
X014998Y026553D01*
X014998Y026632D02*
X014918Y026632D01*
X014912Y026710D02*
X015011Y026710D01*
X015040Y026789D02*
X014879Y026789D01*
X013996Y026789D02*
X011991Y026789D01*
X012036Y026710D02*
X013964Y026710D01*
X013958Y026632D02*
X012057Y026632D01*
X012078Y026553D02*
X013958Y026553D01*
X013958Y026475D02*
X012099Y026475D01*
X012108Y026396D02*
X013958Y026396D01*
X013958Y026318D02*
X012108Y026318D01*
X012108Y026239D02*
X013958Y026239D01*
X013958Y026161D02*
X012108Y026161D01*
X012087Y026082D02*
X013958Y026082D01*
X013958Y026004D02*
X012066Y026004D01*
X012045Y025925D02*
X013958Y025925D01*
X013982Y025847D02*
X012012Y025847D01*
X011966Y025768D02*
X014014Y025768D01*
X014070Y025690D02*
X011921Y025690D01*
X011862Y025611D02*
X014148Y025611D01*
X014312Y025533D02*
X011784Y025533D01*
X011705Y025454D02*
X012013Y025454D01*
X011935Y025376D02*
X011577Y025376D01*
X011620Y025297D02*
X011856Y025297D01*
X011778Y025219D02*
X011698Y025219D01*
X011718Y025140D02*
X011758Y025140D01*
X011758Y025062D02*
X011718Y025062D01*
X011718Y024983D02*
X011758Y024983D01*
X011758Y024905D02*
X011718Y024905D01*
X011718Y024826D02*
X011758Y024826D01*
X011812Y024748D02*
X011664Y024748D01*
X011586Y024669D02*
X011890Y024669D01*
X011969Y024591D02*
X011507Y024591D01*
X011427Y024434D02*
X011993Y024434D01*
X011914Y024355D02*
X011505Y024355D01*
X011584Y024277D02*
X011836Y024277D01*
X011758Y024198D02*
X011662Y024198D01*
X011678Y024120D02*
X011758Y024120D01*
X011758Y024041D02*
X011678Y024041D01*
X011278Y024120D02*
X011198Y024120D01*
X011198Y024198D02*
X011278Y024198D01*
X011278Y024277D02*
X011198Y024277D01*
X011198Y024355D02*
X011278Y024355D01*
X011278Y024434D02*
X011198Y024434D01*
X010969Y024591D02*
X005528Y024591D01*
X005528Y024669D02*
X010890Y024669D01*
X010812Y024748D02*
X005528Y024748D01*
X005528Y024826D02*
X010758Y024826D01*
X010758Y024905D02*
X005528Y024905D01*
X005528Y024983D02*
X010758Y024983D01*
X010758Y025062D02*
X005528Y025062D01*
X005528Y025140D02*
X010758Y025140D01*
X010778Y025219D02*
X005528Y025219D01*
X005528Y025297D02*
X010647Y025297D01*
X010499Y025376D02*
X005528Y025376D01*
X005528Y025454D02*
X010371Y025454D01*
X010292Y025533D02*
X005528Y025533D01*
X005528Y025611D02*
X010214Y025611D01*
X010155Y025690D02*
X005528Y025690D01*
X005528Y025768D02*
X010110Y025768D01*
X010064Y025847D02*
X005528Y025847D01*
X005528Y025925D02*
X010031Y025925D01*
X010010Y026004D02*
X005528Y026004D01*
X005528Y026082D02*
X009989Y026082D01*
X009968Y026161D02*
X005528Y026161D01*
X005528Y026239D02*
X009968Y026239D01*
X009968Y026318D02*
X005528Y026318D01*
X005528Y026396D02*
X009968Y026396D01*
X009977Y026475D02*
X005528Y026475D01*
X005528Y026553D02*
X009998Y026553D01*
X010019Y026632D02*
X005528Y026632D01*
X005528Y026710D02*
X010040Y026710D01*
X010085Y026789D02*
X005528Y026789D01*
X009288Y023884D02*
X010798Y023884D01*
X010810Y023806D02*
X009288Y023806D01*
X009288Y023727D02*
X010889Y023727D01*
X010828Y023649D02*
X009288Y023649D01*
X009288Y023570D02*
X010740Y023570D01*
X010646Y023492D02*
X009288Y023492D01*
X009288Y023413D02*
X010543Y023413D01*
X010458Y023335D02*
X009288Y023335D01*
X009288Y023256D02*
X010386Y023256D01*
X010307Y023178D02*
X009288Y023178D01*
X009288Y023099D02*
X010229Y023099D01*
X010150Y023021D02*
X009288Y023021D01*
X009288Y022942D02*
X010072Y022942D01*
X013507Y024591D02*
X015308Y024591D01*
X015308Y024669D02*
X013586Y024669D01*
X013664Y024748D02*
X015308Y024748D01*
X015308Y024826D02*
X013718Y024826D01*
X013718Y024905D02*
X015317Y024905D01*
X015396Y024983D02*
X013718Y024983D01*
X013718Y025062D02*
X015474Y025062D01*
X015478Y025611D02*
X015398Y025611D01*
X015398Y025690D02*
X015478Y025690D01*
X015478Y025768D02*
X015398Y025768D01*
X015398Y025847D02*
X015478Y025847D01*
X015478Y025925D02*
X015398Y025925D01*
X015398Y026004D02*
X015478Y026004D01*
X015478Y026082D02*
X015398Y026082D01*
X015398Y026161D02*
X015478Y026161D01*
X015878Y026161D02*
X015958Y026161D01*
X015958Y026239D02*
X015878Y026239D01*
X015878Y026082D02*
X015958Y026082D01*
X015958Y026004D02*
X015878Y026004D01*
X015872Y025925D02*
X015958Y025925D01*
X015982Y025847D02*
X015851Y025847D01*
X015813Y025768D02*
X016014Y025768D01*
X016070Y025690D02*
X015750Y025690D01*
X015644Y025611D02*
X016024Y025611D01*
X015945Y025533D02*
X014564Y025533D01*
X014728Y025611D02*
X015232Y025611D01*
X015126Y025690D02*
X014806Y025690D01*
X014861Y025768D02*
X015063Y025768D01*
X015025Y025847D02*
X014894Y025847D01*
X014918Y025925D02*
X015004Y025925D01*
X014998Y026004D02*
X014918Y026004D01*
X014918Y026082D02*
X014998Y026082D01*
X014998Y026161D02*
X014918Y026161D01*
X014918Y026239D02*
X014998Y026239D01*
X022938Y021600D02*
X022938Y021400D01*
X023238Y021100D01*
X023238Y016250D01*
X024438Y016650D02*
X025638Y015450D01*
X024438Y016650D02*
X024438Y021800D01*
D26*
X033388Y013850D03*
M02*
