G75*
G70*
%OFA0B0*%
%FSLAX24Y24*%
%IPPOS*%
%LPD*%
%AMOC8*
5,1,8,0,0,1.08239X$1,22.5*
%
%ADD10C,0.1300*%
%ADD11OC8,0.0640*%
%ADD12C,0.0640*%
%ADD13C,0.0059*%
%ADD14C,0.0051*%
%ADD15C,0.0098*%
%ADD16OC8,0.1940*%
%ADD17C,0.0860*%
%ADD18C,0.0440*%
%ADD19C,0.0217*%
%ADD20C,0.0043*%
%ADD21C,0.0052*%
%ADD22C,0.0091*%
%ADD23C,0.0315*%
%ADD24C,0.0052*%
%ADD25OC8,0.0614*%
%ADD26C,0.1306*%
%ADD27C,0.0079*%
%ADD28C,0.0045*%
%ADD29C,0.0047*%
%ADD30C,0.0050*%
%ADD31R,0.0060X0.0720*%
%ADD32C,0.0197*%
%ADD33C,0.0040*%
%ADD34C,0.0047*%
%ADD35C,0.0047*%
%ADD36C,0.0089*%
%ADD37C,0.0480*%
%ADD38C,0.0046*%
%ADD39OC8,0.0400*%
%ADD40C,0.0400*%
D10*
X010538Y007300D03*
X031038Y009300D03*
X043038Y007300D03*
X031038Y020300D03*
X040538Y026300D03*
X011038Y026300D03*
D11*
X011238Y025000D03*
X012238Y025000D03*
X013238Y025000D03*
X013238Y024000D03*
X012238Y024000D03*
X011238Y024000D03*
X030088Y018300D03*
X031088Y018300D03*
X031088Y017300D03*
X030088Y017300D03*
X030088Y016300D03*
X031088Y016300D03*
X042038Y016300D03*
X043038Y016300D03*
X043038Y015300D03*
X042038Y015300D03*
X042038Y014300D03*
X043038Y014300D03*
X043038Y013300D03*
X042038Y013300D03*
X042038Y012300D03*
X043038Y012300D03*
X043038Y011300D03*
X042038Y011300D03*
X042038Y010300D03*
X043038Y010300D03*
X043038Y009300D03*
X042038Y009300D03*
X042038Y017300D03*
X043038Y017300D03*
X043038Y018300D03*
X042038Y018300D03*
X042038Y019300D03*
X043038Y019300D03*
X043038Y020300D03*
X042038Y020300D03*
X042038Y021300D03*
X043038Y021300D03*
X043038Y022300D03*
X042038Y022300D03*
X042038Y023300D03*
X043038Y023300D03*
X043038Y024300D03*
X042038Y024300D03*
X042038Y025300D03*
X043038Y025300D03*
X043038Y026300D03*
X042038Y026300D03*
D12*
X039038Y026600D02*
X039038Y026000D01*
X038038Y026000D02*
X038038Y026600D01*
X037038Y026600D02*
X037038Y026000D01*
X036038Y026000D02*
X036038Y026600D01*
X035038Y026600D02*
X035038Y026000D01*
X034038Y026000D02*
X034038Y026600D01*
X033038Y026600D02*
X033038Y026000D01*
X032038Y026000D02*
X032038Y026600D01*
X030038Y026600D02*
X030038Y026000D01*
X029038Y026000D02*
X029038Y026600D01*
X028038Y026600D02*
X028038Y026000D01*
X027038Y026000D02*
X027038Y026600D01*
X026038Y026600D02*
X026038Y026000D01*
X025038Y026000D02*
X025038Y026600D01*
X024038Y026600D02*
X024038Y026000D01*
X023038Y026000D02*
X023038Y026600D01*
X021438Y026600D02*
X021438Y026000D01*
X020438Y026000D02*
X020438Y026600D01*
X019438Y026600D02*
X019438Y026000D01*
X018438Y026000D02*
X018438Y026600D01*
X017438Y026600D02*
X017438Y026000D01*
X016438Y026000D02*
X016438Y026600D01*
X015438Y026600D02*
X015438Y026000D01*
X014438Y026000D02*
X014438Y026600D01*
X018038Y007600D02*
X018038Y007000D01*
X019038Y007000D02*
X019038Y007600D01*
X020038Y007600D02*
X020038Y007000D01*
X021038Y007000D02*
X021038Y007600D01*
X022038Y007600D02*
X022038Y007000D01*
X023038Y007000D02*
X023038Y007600D01*
X025038Y007600D02*
X025038Y007000D01*
X026038Y007000D02*
X026038Y007600D01*
X027038Y007600D02*
X027038Y007000D01*
X028038Y007000D02*
X028038Y007600D01*
X029038Y007600D02*
X029038Y007000D01*
X030038Y007000D02*
X030038Y007600D01*
X031038Y007600D02*
X031038Y007000D01*
X032038Y007000D02*
X032038Y007600D01*
X034038Y007600D02*
X034038Y007000D01*
X035038Y007000D02*
X035038Y007600D01*
X036038Y007600D02*
X036038Y007000D01*
X037038Y007000D02*
X037038Y007600D01*
X038038Y007600D02*
X038038Y007000D01*
X039038Y007000D02*
X039038Y007600D01*
X040038Y007600D02*
X040038Y007000D01*
X041038Y007000D02*
X041038Y007600D01*
D13*
X016304Y008186D02*
X016304Y007024D01*
X015772Y007024D01*
X015772Y008186D01*
X016304Y008186D01*
X016304Y007082D02*
X015772Y007082D01*
X015772Y007140D02*
X016304Y007140D01*
X016304Y007198D02*
X015772Y007198D01*
X015772Y007256D02*
X016304Y007256D01*
X016304Y007314D02*
X015772Y007314D01*
X015772Y007372D02*
X016304Y007372D01*
X016304Y007430D02*
X015772Y007430D01*
X015772Y007488D02*
X016304Y007488D01*
X016304Y007546D02*
X015772Y007546D01*
X015772Y007604D02*
X016304Y007604D01*
X016304Y007662D02*
X015772Y007662D01*
X015772Y007720D02*
X016304Y007720D01*
X016304Y007778D02*
X015772Y007778D01*
X015772Y007836D02*
X016304Y007836D01*
X016304Y007894D02*
X015772Y007894D01*
X015772Y007952D02*
X016304Y007952D01*
X016304Y008010D02*
X015772Y008010D01*
X015772Y008068D02*
X016304Y008068D01*
X016304Y008126D02*
X015772Y008126D01*
X015772Y008184D02*
X016304Y008184D01*
X016304Y008914D02*
X016304Y010076D01*
X016304Y008914D02*
X015772Y008914D01*
X015772Y010076D01*
X016304Y010076D01*
X016304Y008972D02*
X015772Y008972D01*
X015772Y009030D02*
X016304Y009030D01*
X016304Y009088D02*
X015772Y009088D01*
X015772Y009146D02*
X016304Y009146D01*
X016304Y009204D02*
X015772Y009204D01*
X015772Y009262D02*
X016304Y009262D01*
X016304Y009320D02*
X015772Y009320D01*
X015772Y009378D02*
X016304Y009378D01*
X016304Y009436D02*
X015772Y009436D01*
X015772Y009494D02*
X016304Y009494D01*
X016304Y009552D02*
X015772Y009552D01*
X015772Y009610D02*
X016304Y009610D01*
X016304Y009668D02*
X015772Y009668D01*
X015772Y009726D02*
X016304Y009726D01*
X016304Y009784D02*
X015772Y009784D01*
X015772Y009842D02*
X016304Y009842D01*
X016304Y009900D02*
X015772Y009900D01*
X015772Y009958D02*
X016304Y009958D01*
X016304Y010016D02*
X015772Y010016D01*
X015772Y010074D02*
X016304Y010074D01*
X013304Y010076D02*
X013304Y008914D01*
X012772Y008914D01*
X012772Y010076D01*
X013304Y010076D01*
X013304Y008972D02*
X012772Y008972D01*
X012772Y009030D02*
X013304Y009030D01*
X013304Y009088D02*
X012772Y009088D01*
X012772Y009146D02*
X013304Y009146D01*
X013304Y009204D02*
X012772Y009204D01*
X012772Y009262D02*
X013304Y009262D01*
X013304Y009320D02*
X012772Y009320D01*
X012772Y009378D02*
X013304Y009378D01*
X013304Y009436D02*
X012772Y009436D01*
X012772Y009494D02*
X013304Y009494D01*
X013304Y009552D02*
X012772Y009552D01*
X012772Y009610D02*
X013304Y009610D01*
X013304Y009668D02*
X012772Y009668D01*
X012772Y009726D02*
X013304Y009726D01*
X013304Y009784D02*
X012772Y009784D01*
X012772Y009842D02*
X013304Y009842D01*
X013304Y009900D02*
X012772Y009900D01*
X012772Y009958D02*
X013304Y009958D01*
X013304Y010016D02*
X012772Y010016D01*
X012772Y010074D02*
X013304Y010074D01*
X013304Y008186D02*
X013304Y007024D01*
X012772Y007024D01*
X012772Y008186D01*
X013304Y008186D01*
X013304Y007082D02*
X012772Y007082D01*
X012772Y007140D02*
X013304Y007140D01*
X013304Y007198D02*
X012772Y007198D01*
X012772Y007256D02*
X013304Y007256D01*
X013304Y007314D02*
X012772Y007314D01*
X012772Y007372D02*
X013304Y007372D01*
X013304Y007430D02*
X012772Y007430D01*
X012772Y007488D02*
X013304Y007488D01*
X013304Y007546D02*
X012772Y007546D01*
X012772Y007604D02*
X013304Y007604D01*
X013304Y007662D02*
X012772Y007662D01*
X012772Y007720D02*
X013304Y007720D01*
X013304Y007778D02*
X012772Y007778D01*
X012772Y007836D02*
X013304Y007836D01*
X013304Y007894D02*
X012772Y007894D01*
X012772Y007952D02*
X013304Y007952D01*
X013304Y008010D02*
X012772Y008010D01*
X012772Y008068D02*
X013304Y008068D01*
X013304Y008126D02*
X012772Y008126D01*
X012772Y008184D02*
X013304Y008184D01*
D14*
X015856Y019569D02*
X015856Y020031D01*
X015856Y019569D02*
X015394Y019569D01*
X015394Y020031D01*
X015856Y020031D01*
X015856Y019619D02*
X015394Y019619D01*
X015394Y019669D02*
X015856Y019669D01*
X015856Y019719D02*
X015394Y019719D01*
X015394Y019769D02*
X015856Y019769D01*
X015856Y019819D02*
X015394Y019819D01*
X015394Y019869D02*
X015856Y019869D01*
X015856Y019919D02*
X015394Y019919D01*
X015394Y019969D02*
X015856Y019969D01*
X015856Y020019D02*
X015394Y020019D01*
X016682Y020031D02*
X016682Y019569D01*
X016220Y019569D01*
X016220Y020031D01*
X016682Y020031D01*
X016682Y019619D02*
X016220Y019619D01*
X016220Y019669D02*
X016682Y019669D01*
X016682Y019719D02*
X016220Y019719D01*
X016220Y019769D02*
X016682Y019769D01*
X016682Y019819D02*
X016220Y019819D01*
X016220Y019869D02*
X016682Y019869D01*
X016682Y019919D02*
X016220Y019919D01*
X016220Y019969D02*
X016682Y019969D01*
X016682Y020019D02*
X016220Y020019D01*
X016682Y020569D02*
X016682Y021031D01*
X016682Y020569D02*
X016220Y020569D01*
X016220Y021031D01*
X016682Y021031D01*
X016682Y020619D02*
X016220Y020619D01*
X016220Y020669D02*
X016682Y020669D01*
X016682Y020719D02*
X016220Y020719D01*
X016220Y020769D02*
X016682Y020769D01*
X016682Y020819D02*
X016220Y020819D01*
X016220Y020869D02*
X016682Y020869D01*
X016682Y020919D02*
X016220Y020919D01*
X016220Y020969D02*
X016682Y020969D01*
X016682Y021019D02*
X016220Y021019D01*
X015856Y021031D02*
X015856Y020569D01*
X015394Y020569D01*
X015394Y021031D01*
X015856Y021031D01*
X015856Y020619D02*
X015394Y020619D01*
X015394Y020669D02*
X015856Y020669D01*
X015856Y020719D02*
X015394Y020719D01*
X015394Y020769D02*
X015856Y020769D01*
X015856Y020819D02*
X015394Y020819D01*
X015394Y020869D02*
X015856Y020869D01*
X015856Y020919D02*
X015394Y020919D01*
X015394Y020969D02*
X015856Y020969D01*
X015856Y021019D02*
X015394Y021019D01*
X015856Y022569D02*
X015856Y023031D01*
X015856Y022569D02*
X015394Y022569D01*
X015394Y023031D01*
X015856Y023031D01*
X015856Y022619D02*
X015394Y022619D01*
X015394Y022669D02*
X015856Y022669D01*
X015856Y022719D02*
X015394Y022719D01*
X015394Y022769D02*
X015856Y022769D01*
X015856Y022819D02*
X015394Y022819D01*
X015394Y022869D02*
X015856Y022869D01*
X015856Y022919D02*
X015394Y022919D01*
X015394Y022969D02*
X015856Y022969D01*
X015856Y023019D02*
X015394Y023019D01*
X016682Y023031D02*
X016682Y022569D01*
X016220Y022569D01*
X016220Y023031D01*
X016682Y023031D01*
X016682Y022619D02*
X016220Y022619D01*
X016220Y022669D02*
X016682Y022669D01*
X016682Y022719D02*
X016220Y022719D01*
X016220Y022769D02*
X016682Y022769D01*
X016682Y022819D02*
X016220Y022819D01*
X016220Y022869D02*
X016682Y022869D01*
X016682Y022919D02*
X016220Y022919D01*
X016220Y022969D02*
X016682Y022969D01*
X016682Y023019D02*
X016220Y023019D01*
X034856Y021031D02*
X034856Y020569D01*
X034394Y020569D01*
X034394Y021031D01*
X034856Y021031D01*
X034856Y020619D02*
X034394Y020619D01*
X034394Y020669D02*
X034856Y020669D01*
X034856Y020719D02*
X034394Y020719D01*
X034394Y020769D02*
X034856Y020769D01*
X034856Y020819D02*
X034394Y020819D01*
X034394Y020869D02*
X034856Y020869D01*
X034856Y020919D02*
X034394Y020919D01*
X034394Y020969D02*
X034856Y020969D01*
X034856Y021019D02*
X034394Y021019D01*
X035682Y021031D02*
X035682Y020569D01*
X035220Y020569D01*
X035220Y021031D01*
X035682Y021031D01*
X035682Y020619D02*
X035220Y020619D01*
X035220Y020669D02*
X035682Y020669D01*
X035682Y020719D02*
X035220Y020719D01*
X035220Y020769D02*
X035682Y020769D01*
X035682Y020819D02*
X035220Y020819D01*
X035220Y020869D02*
X035682Y020869D01*
X035682Y020919D02*
X035220Y020919D01*
X035220Y020969D02*
X035682Y020969D01*
X035682Y021019D02*
X035220Y021019D01*
D15*
X013597Y011493D02*
X012711Y011493D01*
X013597Y011493D02*
X013597Y010607D01*
X012711Y010607D01*
X012711Y011493D01*
X012711Y010704D02*
X013597Y010704D01*
X013597Y010801D02*
X012711Y010801D01*
X012711Y010898D02*
X013597Y010898D01*
X013597Y010995D02*
X012711Y010995D01*
X012711Y011092D02*
X013597Y011092D01*
X013597Y011189D02*
X012711Y011189D01*
X012711Y011286D02*
X013597Y011286D01*
X013597Y011383D02*
X012711Y011383D01*
X012711Y011480D02*
X013597Y011480D01*
X011865Y011493D02*
X010979Y011493D01*
X011865Y011493D02*
X011865Y010607D01*
X010979Y010607D01*
X010979Y011493D01*
X010979Y010704D02*
X011865Y010704D01*
X011865Y010801D02*
X010979Y010801D01*
X010979Y010898D02*
X011865Y010898D01*
X011865Y010995D02*
X010979Y010995D01*
X010979Y011092D02*
X011865Y011092D01*
X011865Y011189D02*
X010979Y011189D01*
X010979Y011286D02*
X011865Y011286D01*
X011865Y011383D02*
X010979Y011383D01*
X010979Y011480D02*
X011865Y011480D01*
D16*
X009638Y009570D03*
X007278Y009570D03*
X008458Y007600D03*
D17*
X005891Y007250D02*
X005893Y007277D01*
X005899Y007304D01*
X005908Y007330D01*
X005921Y007354D01*
X005937Y007377D01*
X005956Y007396D01*
X005978Y007413D01*
X006002Y007427D01*
X006027Y007437D01*
X006054Y007444D01*
X006081Y007447D01*
X006109Y007446D01*
X006136Y007441D01*
X006162Y007433D01*
X006186Y007421D01*
X006209Y007405D01*
X006230Y007387D01*
X006247Y007366D01*
X006262Y007342D01*
X006273Y007317D01*
X006281Y007291D01*
X006285Y007264D01*
X006285Y007236D01*
X006281Y007209D01*
X006273Y007183D01*
X006262Y007158D01*
X006247Y007134D01*
X006230Y007113D01*
X006209Y007095D01*
X006187Y007079D01*
X006162Y007067D01*
X006136Y007059D01*
X006109Y007054D01*
X006081Y007053D01*
X006054Y007056D01*
X006027Y007063D01*
X006002Y007073D01*
X005978Y007087D01*
X005956Y007104D01*
X005937Y007123D01*
X005921Y007146D01*
X005908Y007170D01*
X005899Y007196D01*
X005893Y007223D01*
X005891Y007250D01*
X024841Y017460D02*
X024843Y017487D01*
X024849Y017514D01*
X024858Y017540D01*
X024871Y017564D01*
X024887Y017587D01*
X024906Y017606D01*
X024928Y017623D01*
X024952Y017637D01*
X024977Y017647D01*
X025004Y017654D01*
X025031Y017657D01*
X025059Y017656D01*
X025086Y017651D01*
X025112Y017643D01*
X025136Y017631D01*
X025159Y017615D01*
X025180Y017597D01*
X025197Y017576D01*
X025212Y017552D01*
X025223Y017527D01*
X025231Y017501D01*
X025235Y017474D01*
X025235Y017446D01*
X025231Y017419D01*
X025223Y017393D01*
X025212Y017368D01*
X025197Y017344D01*
X025180Y017323D01*
X025159Y017305D01*
X025137Y017289D01*
X025112Y017277D01*
X025086Y017269D01*
X025059Y017264D01*
X025031Y017263D01*
X025004Y017266D01*
X024977Y017273D01*
X024952Y017283D01*
X024928Y017297D01*
X024906Y017314D01*
X024887Y017333D01*
X024871Y017356D01*
X024858Y017380D01*
X024849Y017406D01*
X024843Y017433D01*
X024841Y017460D01*
X032731Y021336D02*
X032733Y021363D01*
X032739Y021390D01*
X032748Y021416D01*
X032761Y021440D01*
X032777Y021463D01*
X032796Y021482D01*
X032818Y021499D01*
X032842Y021513D01*
X032867Y021523D01*
X032894Y021530D01*
X032921Y021533D01*
X032949Y021532D01*
X032976Y021527D01*
X033002Y021519D01*
X033026Y021507D01*
X033049Y021491D01*
X033070Y021473D01*
X033087Y021452D01*
X033102Y021428D01*
X033113Y021403D01*
X033121Y021377D01*
X033125Y021350D01*
X033125Y021322D01*
X033121Y021295D01*
X033113Y021269D01*
X033102Y021244D01*
X033087Y021220D01*
X033070Y021199D01*
X033049Y021181D01*
X033027Y021165D01*
X033002Y021153D01*
X032976Y021145D01*
X032949Y021140D01*
X032921Y021139D01*
X032894Y021142D01*
X032867Y021149D01*
X032842Y021159D01*
X032818Y021173D01*
X032796Y021190D01*
X032777Y021209D01*
X032761Y021232D01*
X032748Y021256D01*
X032739Y021282D01*
X032733Y021309D01*
X032731Y021336D01*
X012641Y026300D02*
X012643Y026327D01*
X012649Y026354D01*
X012658Y026380D01*
X012671Y026404D01*
X012687Y026427D01*
X012706Y026446D01*
X012728Y026463D01*
X012752Y026477D01*
X012777Y026487D01*
X012804Y026494D01*
X012831Y026497D01*
X012859Y026496D01*
X012886Y026491D01*
X012912Y026483D01*
X012936Y026471D01*
X012959Y026455D01*
X012980Y026437D01*
X012997Y026416D01*
X013012Y026392D01*
X013023Y026367D01*
X013031Y026341D01*
X013035Y026314D01*
X013035Y026286D01*
X013031Y026259D01*
X013023Y026233D01*
X013012Y026208D01*
X012997Y026184D01*
X012980Y026163D01*
X012959Y026145D01*
X012937Y026129D01*
X012912Y026117D01*
X012886Y026109D01*
X012859Y026104D01*
X012831Y026103D01*
X012804Y026106D01*
X012777Y026113D01*
X012752Y026123D01*
X012728Y026137D01*
X012706Y026154D01*
X012687Y026173D01*
X012671Y026196D01*
X012658Y026220D01*
X012649Y026246D01*
X012643Y026273D01*
X012641Y026300D01*
D18*
X006088Y007250D03*
X025038Y017460D03*
X032928Y021336D03*
X012838Y026300D03*
D19*
X007936Y014275D02*
X007936Y012325D01*
X005672Y012325D01*
X005672Y014275D01*
X007936Y014275D01*
X007936Y012541D02*
X005672Y012541D01*
X005672Y012757D02*
X007936Y012757D01*
X007936Y012973D02*
X005672Y012973D01*
X005672Y013189D02*
X007936Y013189D01*
X007936Y013405D02*
X005672Y013405D01*
X005672Y013621D02*
X007936Y013621D01*
X007936Y013837D02*
X005672Y013837D01*
X005672Y014053D02*
X007936Y014053D01*
X007936Y014269D02*
X005672Y014269D01*
D20*
X009992Y014394D02*
X009992Y014002D01*
X009364Y014002D01*
X009364Y014394D01*
X009992Y014394D01*
X009992Y014044D02*
X009364Y014044D01*
X009364Y014086D02*
X009992Y014086D01*
X009992Y014128D02*
X009364Y014128D01*
X009364Y014170D02*
X009992Y014170D01*
X009992Y014212D02*
X009364Y014212D01*
X009364Y014254D02*
X009992Y014254D01*
X009992Y014296D02*
X009364Y014296D01*
X009364Y014338D02*
X009992Y014338D01*
X009992Y014380D02*
X009364Y014380D01*
X010488Y016104D02*
X010918Y016104D01*
X010488Y016104D02*
X010488Y016496D01*
X010918Y016496D01*
X010918Y016104D01*
X010918Y016146D02*
X010488Y016146D01*
X010488Y016188D02*
X010918Y016188D01*
X010918Y016230D02*
X010488Y016230D01*
X010488Y016272D02*
X010918Y016272D01*
X010918Y016314D02*
X010488Y016314D01*
X010488Y016356D02*
X010918Y016356D01*
X010918Y016398D02*
X010488Y016398D01*
X010488Y016440D02*
X010918Y016440D01*
X010918Y016482D02*
X010488Y016482D01*
X011158Y016104D02*
X011588Y016104D01*
X011158Y016104D02*
X011158Y016496D01*
X011588Y016496D01*
X011588Y016104D01*
X011588Y016146D02*
X011158Y016146D01*
X011158Y016188D02*
X011588Y016188D01*
X011588Y016230D02*
X011158Y016230D01*
X011158Y016272D02*
X011588Y016272D01*
X011588Y016314D02*
X011158Y016314D01*
X011158Y016356D02*
X011588Y016356D01*
X011588Y016398D02*
X011158Y016398D01*
X011158Y016440D02*
X011588Y016440D01*
X011588Y016482D02*
X011158Y016482D01*
X012988Y016104D02*
X013418Y016104D01*
X012988Y016104D02*
X012988Y016496D01*
X013418Y016496D01*
X013418Y016104D01*
X013418Y016146D02*
X012988Y016146D01*
X012988Y016188D02*
X013418Y016188D01*
X013418Y016230D02*
X012988Y016230D01*
X012988Y016272D02*
X013418Y016272D01*
X013418Y016314D02*
X012988Y016314D01*
X012988Y016356D02*
X013418Y016356D01*
X013418Y016398D02*
X012988Y016398D01*
X012988Y016440D02*
X013418Y016440D01*
X013418Y016482D02*
X012988Y016482D01*
X013658Y016104D02*
X014088Y016104D01*
X013658Y016104D02*
X013658Y016496D01*
X014088Y016496D01*
X014088Y016104D01*
X014088Y016146D02*
X013658Y016146D01*
X013658Y016188D02*
X014088Y016188D01*
X014088Y016230D02*
X013658Y016230D01*
X013658Y016272D02*
X014088Y016272D01*
X014088Y016314D02*
X013658Y016314D01*
X013658Y016356D02*
X014088Y016356D01*
X014088Y016398D02*
X013658Y016398D01*
X013658Y016440D02*
X014088Y016440D01*
X014088Y016482D02*
X013658Y016482D01*
X010378Y020104D02*
X009986Y020104D01*
X009986Y020496D01*
X010378Y020496D01*
X010378Y020104D01*
X010378Y020146D02*
X009986Y020146D01*
X009986Y020188D02*
X010378Y020188D01*
X010378Y020230D02*
X009986Y020230D01*
X009986Y020272D02*
X010378Y020272D01*
X010378Y020314D02*
X009986Y020314D01*
X009986Y020356D02*
X010378Y020356D01*
X010378Y020398D02*
X009986Y020398D01*
X009986Y020440D02*
X010378Y020440D01*
X010378Y020482D02*
X009986Y020482D01*
X009590Y020104D02*
X009198Y020104D01*
X009198Y020496D01*
X009590Y020496D01*
X009590Y020104D01*
X009590Y020146D02*
X009198Y020146D01*
X009198Y020188D02*
X009590Y020188D01*
X009590Y020230D02*
X009198Y020230D01*
X009198Y020272D02*
X009590Y020272D01*
X009590Y020314D02*
X009198Y020314D01*
X009198Y020356D02*
X009590Y020356D01*
X009590Y020398D02*
X009198Y020398D01*
X009198Y020440D02*
X009590Y020440D01*
X009590Y020482D02*
X009198Y020482D01*
X009198Y022104D02*
X009590Y022104D01*
X009198Y022104D02*
X009198Y022496D01*
X009590Y022496D01*
X009590Y022104D01*
X009590Y022146D02*
X009198Y022146D01*
X009198Y022188D02*
X009590Y022188D01*
X009590Y022230D02*
X009198Y022230D01*
X009198Y022272D02*
X009590Y022272D01*
X009590Y022314D02*
X009198Y022314D01*
X009198Y022356D02*
X009590Y022356D01*
X009590Y022398D02*
X009198Y022398D01*
X009198Y022440D02*
X009590Y022440D01*
X009590Y022482D02*
X009198Y022482D01*
X009986Y022104D02*
X010378Y022104D01*
X009986Y022104D02*
X009986Y022496D01*
X010378Y022496D01*
X010378Y022104D01*
X010378Y022146D02*
X009986Y022146D01*
X009986Y022188D02*
X010378Y022188D01*
X010378Y022230D02*
X009986Y022230D01*
X009986Y022272D02*
X010378Y022272D01*
X010378Y022314D02*
X009986Y022314D01*
X009986Y022356D02*
X010378Y022356D01*
X010378Y022398D02*
X009986Y022398D01*
X009986Y022440D02*
X010378Y022440D01*
X010378Y022482D02*
X009986Y022482D01*
X008956Y024296D02*
X008486Y024296D01*
X008956Y024296D02*
X008956Y023904D01*
X008486Y023904D01*
X008486Y024296D01*
X008486Y023946D02*
X008956Y023946D01*
X008956Y023988D02*
X008486Y023988D01*
X008486Y024030D02*
X008956Y024030D01*
X008956Y024072D02*
X008486Y024072D01*
X008486Y024114D02*
X008956Y024114D01*
X008956Y024156D02*
X008486Y024156D01*
X008486Y024198D02*
X008956Y024198D01*
X008956Y024240D02*
X008486Y024240D01*
X008486Y024282D02*
X008956Y024282D01*
X008090Y024296D02*
X007620Y024296D01*
X008090Y024296D02*
X008090Y023904D01*
X007620Y023904D01*
X007620Y024296D01*
X007620Y023946D02*
X008090Y023946D01*
X008090Y023988D02*
X007620Y023988D01*
X007620Y024030D02*
X008090Y024030D01*
X008090Y024072D02*
X007620Y024072D01*
X007620Y024114D02*
X008090Y024114D01*
X008090Y024156D02*
X007620Y024156D01*
X007620Y024198D02*
X008090Y024198D01*
X008090Y024240D02*
X007620Y024240D01*
X007620Y024282D02*
X008090Y024282D01*
X009992Y012598D02*
X009992Y012206D01*
X009364Y012206D01*
X009364Y012598D01*
X009992Y012598D01*
X009992Y012248D02*
X009364Y012248D01*
X009364Y012290D02*
X009992Y012290D01*
X009992Y012332D02*
X009364Y012332D01*
X009364Y012374D02*
X009992Y012374D01*
X009992Y012416D02*
X009364Y012416D01*
X009364Y012458D02*
X009992Y012458D01*
X009992Y012500D02*
X009364Y012500D01*
X009364Y012542D02*
X009992Y012542D01*
X009992Y012584D02*
X009364Y012584D01*
D21*
X010092Y012624D02*
X010092Y012156D01*
X009224Y012156D01*
X009224Y012624D01*
X010092Y012624D01*
X010092Y012207D02*
X009224Y012207D01*
X009224Y012258D02*
X010092Y012258D01*
X010092Y012309D02*
X009224Y012309D01*
X009224Y012360D02*
X010092Y012360D01*
X010092Y012411D02*
X009224Y012411D01*
X009224Y012462D02*
X010092Y012462D01*
X010092Y012513D02*
X009224Y012513D01*
X009224Y012564D02*
X010092Y012564D01*
X010092Y012615D02*
X009224Y012615D01*
X010092Y013066D02*
X010092Y013534D01*
X010092Y013066D02*
X009224Y013066D01*
X009224Y013534D01*
X010092Y013534D01*
X010092Y013117D02*
X009224Y013117D01*
X009224Y013168D02*
X010092Y013168D01*
X010092Y013219D02*
X009224Y013219D01*
X009224Y013270D02*
X010092Y013270D01*
X010092Y013321D02*
X009224Y013321D01*
X009224Y013372D02*
X010092Y013372D01*
X010092Y013423D02*
X009224Y013423D01*
X009224Y013474D02*
X010092Y013474D01*
X010092Y013525D02*
X009224Y013525D01*
X010092Y013976D02*
X010092Y014444D01*
X010092Y013976D02*
X009224Y013976D01*
X009224Y014444D01*
X010092Y014444D01*
X010092Y014027D02*
X009224Y014027D01*
X009224Y014078D02*
X010092Y014078D01*
X010092Y014129D02*
X009224Y014129D01*
X009224Y014180D02*
X010092Y014180D01*
X010092Y014231D02*
X009224Y014231D01*
X009224Y014282D02*
X010092Y014282D01*
X010092Y014333D02*
X009224Y014333D01*
X009224Y014384D02*
X010092Y014384D01*
X010092Y014435D02*
X009224Y014435D01*
D22*
X007626Y013983D02*
X007626Y012617D01*
X006810Y012617D01*
X006810Y013983D01*
X007626Y013983D01*
X007626Y012707D02*
X006810Y012707D01*
X006810Y012797D02*
X007626Y012797D01*
X007626Y012887D02*
X006810Y012887D01*
X006810Y012977D02*
X007626Y012977D01*
X007626Y013067D02*
X006810Y013067D01*
X006810Y013157D02*
X007626Y013157D01*
X007626Y013247D02*
X006810Y013247D01*
X006810Y013337D02*
X007626Y013337D01*
X007626Y013427D02*
X006810Y013427D01*
X006810Y013517D02*
X007626Y013517D01*
X007626Y013607D02*
X006810Y013607D01*
X006810Y013697D02*
X007626Y013697D01*
X007626Y013787D02*
X006810Y013787D01*
X006810Y013877D02*
X007626Y013877D01*
X007626Y013967D02*
X006810Y013967D01*
D23*
X010728Y013379D02*
X010728Y013221D01*
X010648Y013221D01*
X010648Y013379D01*
X010728Y013379D01*
X011428Y013379D02*
X011428Y013221D01*
X011348Y013221D01*
X011348Y013379D01*
X011428Y013379D01*
X013148Y013379D02*
X013148Y013221D01*
X013148Y013379D02*
X013228Y013379D01*
X013228Y013221D01*
X013148Y013221D01*
X013848Y013221D02*
X013848Y013379D01*
X013928Y013379D01*
X013928Y013221D01*
X013848Y013221D01*
X015728Y013221D02*
X015728Y013379D01*
X015728Y013221D02*
X015648Y013221D01*
X015648Y013379D01*
X015728Y013379D01*
X016428Y013379D02*
X016428Y013221D01*
X016348Y013221D01*
X016348Y013379D01*
X016428Y013379D01*
X016428Y014721D02*
X016428Y014879D01*
X016428Y014721D02*
X016348Y014721D01*
X016348Y014879D01*
X016428Y014879D01*
X015728Y014879D02*
X015728Y014721D01*
X015648Y014721D01*
X015648Y014879D01*
X015728Y014879D01*
X013928Y016971D02*
X013928Y017129D01*
X013928Y016971D02*
X013848Y016971D01*
X013848Y017129D01*
X013928Y017129D01*
X013228Y017129D02*
X013228Y016971D01*
X013148Y016971D01*
X013148Y017129D01*
X013228Y017129D01*
X012678Y016971D02*
X012598Y016971D01*
X012598Y017129D01*
X012678Y017129D01*
X012678Y016971D01*
X011978Y016971D02*
X011898Y016971D01*
X011898Y017129D01*
X011978Y017129D01*
X011978Y016971D01*
X011348Y016971D02*
X011348Y017129D01*
X011428Y017129D01*
X011428Y016971D01*
X011348Y016971D01*
X010648Y016971D02*
X010648Y017129D01*
X010728Y017129D01*
X010728Y016971D01*
X010648Y016971D01*
X010648Y019629D02*
X010728Y019629D01*
X010728Y019471D01*
X010648Y019471D01*
X010648Y019629D01*
X011348Y019629D02*
X011428Y019629D01*
X011428Y019471D01*
X011348Y019471D01*
X011348Y019629D01*
X013228Y019629D02*
X013228Y019471D01*
X013148Y019471D01*
X013148Y019629D01*
X013228Y019629D01*
X013928Y019629D02*
X013928Y019471D01*
X013848Y019471D01*
X013848Y019629D01*
X013928Y019629D01*
X020414Y018355D02*
X020414Y018197D01*
X020414Y018355D02*
X020494Y018355D01*
X020494Y018197D01*
X020414Y018197D01*
X021114Y018197D02*
X021114Y018355D01*
X021194Y018355D01*
X021194Y018197D01*
X021114Y018197D01*
X027928Y021721D02*
X027928Y021879D01*
X027928Y021721D02*
X027848Y021721D01*
X027848Y021879D01*
X027928Y021879D01*
X028628Y021879D02*
X028628Y021721D01*
X028548Y021721D01*
X028548Y021879D01*
X028628Y021879D01*
X016428Y023721D02*
X016428Y023879D01*
X016428Y023721D02*
X016348Y023721D01*
X016348Y023879D01*
X016428Y023879D01*
X015728Y023879D02*
X015728Y023721D01*
X015648Y023721D01*
X015648Y023879D01*
X015728Y023879D01*
X010098Y023629D02*
X010098Y023471D01*
X010098Y023629D02*
X010178Y023629D01*
X010178Y023471D01*
X010098Y023471D01*
X009398Y023471D02*
X009398Y023629D01*
X009478Y023629D01*
X009478Y023471D01*
X009398Y023471D01*
X020709Y013610D02*
X020867Y013610D01*
X020709Y013610D02*
X020709Y013690D01*
X020867Y013690D01*
X020867Y013610D01*
X020867Y012910D02*
X020709Y012910D01*
X020709Y012990D01*
X020867Y012990D01*
X020867Y012910D01*
X020867Y012440D02*
X020867Y012360D01*
X020709Y012360D01*
X020709Y012440D01*
X020867Y012440D01*
X021459Y012440D02*
X021459Y012360D01*
X021459Y012440D02*
X021617Y012440D01*
X021617Y012360D01*
X021459Y012360D01*
X021459Y011740D02*
X021459Y011660D01*
X021459Y011740D02*
X021617Y011740D01*
X021617Y011660D01*
X021459Y011660D01*
X020867Y011660D02*
X020867Y011740D01*
X020867Y011660D02*
X020709Y011660D01*
X020709Y011740D01*
X020867Y011740D01*
X020867Y011190D02*
X020709Y011190D01*
X020867Y011190D02*
X020867Y011110D01*
X020709Y011110D01*
X020709Y011190D01*
X020709Y010490D02*
X020867Y010490D01*
X020867Y010410D01*
X020709Y010410D01*
X020709Y010490D01*
X020628Y009179D02*
X020628Y009021D01*
X020548Y009021D01*
X020548Y009179D01*
X020628Y009179D01*
X019928Y009179D02*
X019928Y009021D01*
X019848Y009021D01*
X019848Y009179D01*
X019928Y009179D01*
X016348Y011471D02*
X016348Y011629D01*
X016428Y011629D01*
X016428Y011471D01*
X016348Y011471D01*
X015648Y011471D02*
X015648Y011629D01*
X015728Y011629D01*
X015728Y011471D01*
X015648Y011471D01*
D24*
X021599Y015035D02*
X022177Y015035D01*
X021599Y015035D02*
X021599Y015161D01*
X022177Y015161D01*
X022177Y015035D01*
X022177Y015086D02*
X021599Y015086D01*
X021599Y015137D02*
X022177Y015137D01*
X022177Y015232D02*
X021599Y015232D01*
X021599Y015358D01*
X022177Y015358D01*
X022177Y015232D01*
X022177Y015283D02*
X021599Y015283D01*
X021599Y015334D02*
X022177Y015334D01*
X022177Y015428D02*
X021599Y015428D01*
X021599Y015554D01*
X022177Y015554D01*
X022177Y015428D01*
X022177Y015479D02*
X021599Y015479D01*
X021599Y015530D02*
X022177Y015530D01*
X022177Y015625D02*
X021599Y015625D01*
X021599Y015751D01*
X022177Y015751D01*
X022177Y015625D01*
X022177Y015676D02*
X021599Y015676D01*
X021599Y015727D02*
X022177Y015727D01*
X022177Y015822D02*
X021599Y015822D01*
X021599Y015948D01*
X022177Y015948D01*
X022177Y015822D01*
X022177Y015873D02*
X021599Y015873D01*
X021599Y015924D02*
X022177Y015924D01*
X022177Y016019D02*
X021599Y016019D01*
X021599Y016145D01*
X022177Y016145D01*
X022177Y016019D01*
X022177Y016070D02*
X021599Y016070D01*
X021599Y016121D02*
X022177Y016121D01*
X022177Y016216D02*
X021599Y016216D01*
X021599Y016342D01*
X022177Y016342D01*
X022177Y016216D01*
X022177Y016267D02*
X021599Y016267D01*
X021599Y016318D02*
X022177Y016318D01*
X022177Y016413D02*
X021599Y016413D01*
X021599Y016539D01*
X022177Y016539D01*
X022177Y016413D01*
X022177Y016464D02*
X021599Y016464D01*
X021599Y016515D02*
X022177Y016515D01*
X022177Y016610D02*
X021599Y016610D01*
X021599Y016736D01*
X022177Y016736D01*
X022177Y016610D01*
X022177Y016661D02*
X021599Y016661D01*
X021599Y016712D02*
X022177Y016712D01*
X022177Y016806D02*
X021599Y016806D01*
X021599Y016932D01*
X022177Y016932D01*
X022177Y016806D01*
X022177Y016857D02*
X021599Y016857D01*
X021599Y016908D02*
X022177Y016908D01*
X022177Y017003D02*
X021599Y017003D01*
X021599Y017129D01*
X022177Y017129D01*
X022177Y017003D01*
X022177Y017054D02*
X021599Y017054D01*
X021599Y017105D02*
X022177Y017105D01*
X022177Y017200D02*
X021599Y017200D01*
X021599Y017326D01*
X022177Y017326D01*
X022177Y017200D01*
X022177Y017251D02*
X021599Y017251D01*
X021599Y017302D02*
X022177Y017302D01*
X022177Y017397D02*
X021599Y017397D01*
X021599Y017523D01*
X022177Y017523D01*
X022177Y017397D01*
X022177Y017448D02*
X021599Y017448D01*
X021599Y017499D02*
X022177Y017499D01*
X022177Y017594D02*
X021599Y017594D01*
X021599Y017720D01*
X022177Y017720D01*
X022177Y017594D01*
X022177Y017645D02*
X021599Y017645D01*
X021599Y017696D02*
X022177Y017696D01*
X022177Y017791D02*
X021599Y017791D01*
X021599Y017917D01*
X022177Y017917D01*
X022177Y017791D01*
X022177Y017842D02*
X021599Y017842D01*
X021599Y017893D02*
X022177Y017893D01*
X022177Y017988D02*
X021599Y017988D01*
X021599Y018114D01*
X022177Y018114D01*
X022177Y017988D01*
X022177Y018039D02*
X021599Y018039D01*
X021599Y018090D02*
X022177Y018090D01*
X022177Y018184D02*
X021599Y018184D01*
X021599Y018310D01*
X022177Y018310D01*
X022177Y018184D01*
X022177Y018235D02*
X021599Y018235D01*
X021599Y018286D02*
X022177Y018286D01*
X022177Y018381D02*
X021599Y018381D01*
X021599Y018507D01*
X022177Y018507D01*
X022177Y018381D01*
X022177Y018432D02*
X021599Y018432D01*
X021599Y018483D02*
X022177Y018483D01*
X022177Y018578D02*
X021599Y018578D01*
X021599Y018704D01*
X022177Y018704D01*
X022177Y018578D01*
X022177Y018629D02*
X021599Y018629D01*
X021599Y018680D02*
X022177Y018680D01*
X022177Y018775D02*
X021599Y018775D01*
X021599Y018901D01*
X022177Y018901D01*
X022177Y018775D01*
X022177Y018826D02*
X021599Y018826D01*
X021599Y018877D02*
X022177Y018877D01*
X022177Y018972D02*
X021599Y018972D01*
X021599Y019098D01*
X022177Y019098D01*
X022177Y018972D01*
X022177Y019023D02*
X021599Y019023D01*
X021599Y019074D02*
X022177Y019074D01*
X022177Y019169D02*
X021599Y019169D01*
X021599Y019295D01*
X022177Y019295D01*
X022177Y019169D01*
X022177Y019220D02*
X021599Y019220D01*
X021599Y019271D02*
X022177Y019271D01*
X022177Y019366D02*
X021599Y019366D01*
X021599Y019492D01*
X022177Y019492D01*
X022177Y019366D01*
X022177Y019417D02*
X021599Y019417D01*
X021599Y019468D02*
X022177Y019468D01*
X022177Y019562D02*
X021599Y019562D01*
X021599Y019688D01*
X022177Y019688D01*
X022177Y019562D01*
X022177Y019613D02*
X021599Y019613D01*
X021599Y019664D02*
X022177Y019664D01*
X022177Y019759D02*
X021599Y019759D01*
X021599Y019885D01*
X022177Y019885D01*
X022177Y019759D01*
X022177Y019810D02*
X021599Y019810D01*
X021599Y019861D02*
X022177Y019861D01*
X022613Y020321D02*
X022739Y020321D01*
X022613Y020321D02*
X022613Y020899D01*
X022739Y020899D01*
X022739Y020321D01*
X022739Y020372D02*
X022613Y020372D01*
X022613Y020423D02*
X022739Y020423D01*
X022739Y020474D02*
X022613Y020474D01*
X022613Y020525D02*
X022739Y020525D01*
X022739Y020576D02*
X022613Y020576D01*
X022613Y020627D02*
X022739Y020627D01*
X022739Y020678D02*
X022613Y020678D01*
X022613Y020729D02*
X022739Y020729D01*
X022739Y020780D02*
X022613Y020780D01*
X022613Y020831D02*
X022739Y020831D01*
X022739Y020882D02*
X022613Y020882D01*
X022810Y020321D02*
X022936Y020321D01*
X022810Y020321D02*
X022810Y020899D01*
X022936Y020899D01*
X022936Y020321D01*
X022936Y020372D02*
X022810Y020372D01*
X022810Y020423D02*
X022936Y020423D01*
X022936Y020474D02*
X022810Y020474D01*
X022810Y020525D02*
X022936Y020525D01*
X022936Y020576D02*
X022810Y020576D01*
X022810Y020627D02*
X022936Y020627D01*
X022936Y020678D02*
X022810Y020678D01*
X022810Y020729D02*
X022936Y020729D01*
X022936Y020780D02*
X022810Y020780D01*
X022810Y020831D02*
X022936Y020831D01*
X022936Y020882D02*
X022810Y020882D01*
X023006Y020321D02*
X023132Y020321D01*
X023006Y020321D02*
X023006Y020899D01*
X023132Y020899D01*
X023132Y020321D01*
X023132Y020372D02*
X023006Y020372D01*
X023006Y020423D02*
X023132Y020423D01*
X023132Y020474D02*
X023006Y020474D01*
X023006Y020525D02*
X023132Y020525D01*
X023132Y020576D02*
X023006Y020576D01*
X023006Y020627D02*
X023132Y020627D01*
X023132Y020678D02*
X023006Y020678D01*
X023006Y020729D02*
X023132Y020729D01*
X023132Y020780D02*
X023006Y020780D01*
X023006Y020831D02*
X023132Y020831D01*
X023132Y020882D02*
X023006Y020882D01*
X023203Y020321D02*
X023329Y020321D01*
X023203Y020321D02*
X023203Y020899D01*
X023329Y020899D01*
X023329Y020321D01*
X023329Y020372D02*
X023203Y020372D01*
X023203Y020423D02*
X023329Y020423D01*
X023329Y020474D02*
X023203Y020474D01*
X023203Y020525D02*
X023329Y020525D01*
X023329Y020576D02*
X023203Y020576D01*
X023203Y020627D02*
X023329Y020627D01*
X023329Y020678D02*
X023203Y020678D01*
X023203Y020729D02*
X023329Y020729D01*
X023329Y020780D02*
X023203Y020780D01*
X023203Y020831D02*
X023329Y020831D01*
X023329Y020882D02*
X023203Y020882D01*
X023400Y020321D02*
X023526Y020321D01*
X023400Y020321D02*
X023400Y020899D01*
X023526Y020899D01*
X023526Y020321D01*
X023526Y020372D02*
X023400Y020372D01*
X023400Y020423D02*
X023526Y020423D01*
X023526Y020474D02*
X023400Y020474D01*
X023400Y020525D02*
X023526Y020525D01*
X023526Y020576D02*
X023400Y020576D01*
X023400Y020627D02*
X023526Y020627D01*
X023526Y020678D02*
X023400Y020678D01*
X023400Y020729D02*
X023526Y020729D01*
X023526Y020780D02*
X023400Y020780D01*
X023400Y020831D02*
X023526Y020831D01*
X023526Y020882D02*
X023400Y020882D01*
X023597Y020321D02*
X023723Y020321D01*
X023597Y020321D02*
X023597Y020899D01*
X023723Y020899D01*
X023723Y020321D01*
X023723Y020372D02*
X023597Y020372D01*
X023597Y020423D02*
X023723Y020423D01*
X023723Y020474D02*
X023597Y020474D01*
X023597Y020525D02*
X023723Y020525D01*
X023723Y020576D02*
X023597Y020576D01*
X023597Y020627D02*
X023723Y020627D01*
X023723Y020678D02*
X023597Y020678D01*
X023597Y020729D02*
X023723Y020729D01*
X023723Y020780D02*
X023597Y020780D01*
X023597Y020831D02*
X023723Y020831D01*
X023723Y020882D02*
X023597Y020882D01*
X023794Y020321D02*
X023920Y020321D01*
X023794Y020321D02*
X023794Y020899D01*
X023920Y020899D01*
X023920Y020321D01*
X023920Y020372D02*
X023794Y020372D01*
X023794Y020423D02*
X023920Y020423D01*
X023920Y020474D02*
X023794Y020474D01*
X023794Y020525D02*
X023920Y020525D01*
X023920Y020576D02*
X023794Y020576D01*
X023794Y020627D02*
X023920Y020627D01*
X023920Y020678D02*
X023794Y020678D01*
X023794Y020729D02*
X023920Y020729D01*
X023920Y020780D02*
X023794Y020780D01*
X023794Y020831D02*
X023920Y020831D01*
X023920Y020882D02*
X023794Y020882D01*
X023991Y020321D02*
X024117Y020321D01*
X023991Y020321D02*
X023991Y020899D01*
X024117Y020899D01*
X024117Y020321D01*
X024117Y020372D02*
X023991Y020372D01*
X023991Y020423D02*
X024117Y020423D01*
X024117Y020474D02*
X023991Y020474D01*
X023991Y020525D02*
X024117Y020525D01*
X024117Y020576D02*
X023991Y020576D01*
X023991Y020627D02*
X024117Y020627D01*
X024117Y020678D02*
X023991Y020678D01*
X023991Y020729D02*
X024117Y020729D01*
X024117Y020780D02*
X023991Y020780D01*
X023991Y020831D02*
X024117Y020831D01*
X024117Y020882D02*
X023991Y020882D01*
X024187Y020321D02*
X024313Y020321D01*
X024187Y020321D02*
X024187Y020899D01*
X024313Y020899D01*
X024313Y020321D01*
X024313Y020372D02*
X024187Y020372D01*
X024187Y020423D02*
X024313Y020423D01*
X024313Y020474D02*
X024187Y020474D01*
X024187Y020525D02*
X024313Y020525D01*
X024313Y020576D02*
X024187Y020576D01*
X024187Y020627D02*
X024313Y020627D01*
X024313Y020678D02*
X024187Y020678D01*
X024187Y020729D02*
X024313Y020729D01*
X024313Y020780D02*
X024187Y020780D01*
X024187Y020831D02*
X024313Y020831D01*
X024313Y020882D02*
X024187Y020882D01*
X024384Y020321D02*
X024510Y020321D01*
X024384Y020321D02*
X024384Y020899D01*
X024510Y020899D01*
X024510Y020321D01*
X024510Y020372D02*
X024384Y020372D01*
X024384Y020423D02*
X024510Y020423D01*
X024510Y020474D02*
X024384Y020474D01*
X024384Y020525D02*
X024510Y020525D01*
X024510Y020576D02*
X024384Y020576D01*
X024384Y020627D02*
X024510Y020627D01*
X024510Y020678D02*
X024384Y020678D01*
X024384Y020729D02*
X024510Y020729D01*
X024510Y020780D02*
X024384Y020780D01*
X024384Y020831D02*
X024510Y020831D01*
X024510Y020882D02*
X024384Y020882D01*
X024581Y020321D02*
X024707Y020321D01*
X024581Y020321D02*
X024581Y020899D01*
X024707Y020899D01*
X024707Y020321D01*
X024707Y020372D02*
X024581Y020372D01*
X024581Y020423D02*
X024707Y020423D01*
X024707Y020474D02*
X024581Y020474D01*
X024581Y020525D02*
X024707Y020525D01*
X024707Y020576D02*
X024581Y020576D01*
X024581Y020627D02*
X024707Y020627D01*
X024707Y020678D02*
X024581Y020678D01*
X024581Y020729D02*
X024707Y020729D01*
X024707Y020780D02*
X024581Y020780D01*
X024581Y020831D02*
X024707Y020831D01*
X024707Y020882D02*
X024581Y020882D01*
X024778Y020321D02*
X024904Y020321D01*
X024778Y020321D02*
X024778Y020899D01*
X024904Y020899D01*
X024904Y020321D01*
X024904Y020372D02*
X024778Y020372D01*
X024778Y020423D02*
X024904Y020423D01*
X024904Y020474D02*
X024778Y020474D01*
X024778Y020525D02*
X024904Y020525D01*
X024904Y020576D02*
X024778Y020576D01*
X024778Y020627D02*
X024904Y020627D01*
X024904Y020678D02*
X024778Y020678D01*
X024778Y020729D02*
X024904Y020729D01*
X024904Y020780D02*
X024778Y020780D01*
X024778Y020831D02*
X024904Y020831D01*
X024904Y020882D02*
X024778Y020882D01*
X024975Y020321D02*
X025101Y020321D01*
X024975Y020321D02*
X024975Y020899D01*
X025101Y020899D01*
X025101Y020321D01*
X025101Y020372D02*
X024975Y020372D01*
X024975Y020423D02*
X025101Y020423D01*
X025101Y020474D02*
X024975Y020474D01*
X024975Y020525D02*
X025101Y020525D01*
X025101Y020576D02*
X024975Y020576D01*
X024975Y020627D02*
X025101Y020627D01*
X025101Y020678D02*
X024975Y020678D01*
X024975Y020729D02*
X025101Y020729D01*
X025101Y020780D02*
X024975Y020780D01*
X024975Y020831D02*
X025101Y020831D01*
X025101Y020882D02*
X024975Y020882D01*
X025172Y020321D02*
X025298Y020321D01*
X025172Y020321D02*
X025172Y020899D01*
X025298Y020899D01*
X025298Y020321D01*
X025298Y020372D02*
X025172Y020372D01*
X025172Y020423D02*
X025298Y020423D01*
X025298Y020474D02*
X025172Y020474D01*
X025172Y020525D02*
X025298Y020525D01*
X025298Y020576D02*
X025172Y020576D01*
X025172Y020627D02*
X025298Y020627D01*
X025298Y020678D02*
X025172Y020678D01*
X025172Y020729D02*
X025298Y020729D01*
X025298Y020780D02*
X025172Y020780D01*
X025172Y020831D02*
X025298Y020831D01*
X025298Y020882D02*
X025172Y020882D01*
X025369Y020321D02*
X025495Y020321D01*
X025369Y020321D02*
X025369Y020899D01*
X025495Y020899D01*
X025495Y020321D01*
X025495Y020372D02*
X025369Y020372D01*
X025369Y020423D02*
X025495Y020423D01*
X025495Y020474D02*
X025369Y020474D01*
X025369Y020525D02*
X025495Y020525D01*
X025495Y020576D02*
X025369Y020576D01*
X025369Y020627D02*
X025495Y020627D01*
X025495Y020678D02*
X025369Y020678D01*
X025369Y020729D02*
X025495Y020729D01*
X025495Y020780D02*
X025369Y020780D01*
X025369Y020831D02*
X025495Y020831D01*
X025495Y020882D02*
X025369Y020882D01*
X025565Y020321D02*
X025691Y020321D01*
X025565Y020321D02*
X025565Y020899D01*
X025691Y020899D01*
X025691Y020321D01*
X025691Y020372D02*
X025565Y020372D01*
X025565Y020423D02*
X025691Y020423D01*
X025691Y020474D02*
X025565Y020474D01*
X025565Y020525D02*
X025691Y020525D01*
X025691Y020576D02*
X025565Y020576D01*
X025565Y020627D02*
X025691Y020627D01*
X025691Y020678D02*
X025565Y020678D01*
X025565Y020729D02*
X025691Y020729D01*
X025691Y020780D02*
X025565Y020780D01*
X025565Y020831D02*
X025691Y020831D01*
X025691Y020882D02*
X025565Y020882D01*
X025762Y020321D02*
X025888Y020321D01*
X025762Y020321D02*
X025762Y020899D01*
X025888Y020899D01*
X025888Y020321D01*
X025888Y020372D02*
X025762Y020372D01*
X025762Y020423D02*
X025888Y020423D01*
X025888Y020474D02*
X025762Y020474D01*
X025762Y020525D02*
X025888Y020525D01*
X025888Y020576D02*
X025762Y020576D01*
X025762Y020627D02*
X025888Y020627D01*
X025888Y020678D02*
X025762Y020678D01*
X025762Y020729D02*
X025888Y020729D01*
X025888Y020780D02*
X025762Y020780D01*
X025762Y020831D02*
X025888Y020831D01*
X025888Y020882D02*
X025762Y020882D01*
X025959Y020321D02*
X026085Y020321D01*
X025959Y020321D02*
X025959Y020899D01*
X026085Y020899D01*
X026085Y020321D01*
X026085Y020372D02*
X025959Y020372D01*
X025959Y020423D02*
X026085Y020423D01*
X026085Y020474D02*
X025959Y020474D01*
X025959Y020525D02*
X026085Y020525D01*
X026085Y020576D02*
X025959Y020576D01*
X025959Y020627D02*
X026085Y020627D01*
X026085Y020678D02*
X025959Y020678D01*
X025959Y020729D02*
X026085Y020729D01*
X026085Y020780D02*
X025959Y020780D01*
X025959Y020831D02*
X026085Y020831D01*
X026085Y020882D02*
X025959Y020882D01*
X026156Y020321D02*
X026282Y020321D01*
X026156Y020321D02*
X026156Y020899D01*
X026282Y020899D01*
X026282Y020321D01*
X026282Y020372D02*
X026156Y020372D01*
X026156Y020423D02*
X026282Y020423D01*
X026282Y020474D02*
X026156Y020474D01*
X026156Y020525D02*
X026282Y020525D01*
X026282Y020576D02*
X026156Y020576D01*
X026156Y020627D02*
X026282Y020627D01*
X026282Y020678D02*
X026156Y020678D01*
X026156Y020729D02*
X026282Y020729D01*
X026282Y020780D02*
X026156Y020780D01*
X026156Y020831D02*
X026282Y020831D01*
X026282Y020882D02*
X026156Y020882D01*
X026353Y020321D02*
X026479Y020321D01*
X026353Y020321D02*
X026353Y020899D01*
X026479Y020899D01*
X026479Y020321D01*
X026479Y020372D02*
X026353Y020372D01*
X026353Y020423D02*
X026479Y020423D01*
X026479Y020474D02*
X026353Y020474D01*
X026353Y020525D02*
X026479Y020525D01*
X026479Y020576D02*
X026353Y020576D01*
X026353Y020627D02*
X026479Y020627D01*
X026479Y020678D02*
X026353Y020678D01*
X026353Y020729D02*
X026479Y020729D01*
X026479Y020780D02*
X026353Y020780D01*
X026353Y020831D02*
X026479Y020831D01*
X026479Y020882D02*
X026353Y020882D01*
X026550Y020321D02*
X026676Y020321D01*
X026550Y020321D02*
X026550Y020899D01*
X026676Y020899D01*
X026676Y020321D01*
X026676Y020372D02*
X026550Y020372D01*
X026550Y020423D02*
X026676Y020423D01*
X026676Y020474D02*
X026550Y020474D01*
X026550Y020525D02*
X026676Y020525D01*
X026676Y020576D02*
X026550Y020576D01*
X026550Y020627D02*
X026676Y020627D01*
X026676Y020678D02*
X026550Y020678D01*
X026550Y020729D02*
X026676Y020729D01*
X026676Y020780D02*
X026550Y020780D01*
X026550Y020831D02*
X026676Y020831D01*
X026676Y020882D02*
X026550Y020882D01*
X026747Y020321D02*
X026873Y020321D01*
X026747Y020321D02*
X026747Y020899D01*
X026873Y020899D01*
X026873Y020321D01*
X026873Y020372D02*
X026747Y020372D01*
X026747Y020423D02*
X026873Y020423D01*
X026873Y020474D02*
X026747Y020474D01*
X026747Y020525D02*
X026873Y020525D01*
X026873Y020576D02*
X026747Y020576D01*
X026747Y020627D02*
X026873Y020627D01*
X026873Y020678D02*
X026747Y020678D01*
X026747Y020729D02*
X026873Y020729D01*
X026873Y020780D02*
X026747Y020780D01*
X026747Y020831D02*
X026873Y020831D01*
X026873Y020882D02*
X026747Y020882D01*
X026943Y020321D02*
X027069Y020321D01*
X026943Y020321D02*
X026943Y020899D01*
X027069Y020899D01*
X027069Y020321D01*
X027069Y020372D02*
X026943Y020372D01*
X026943Y020423D02*
X027069Y020423D01*
X027069Y020474D02*
X026943Y020474D01*
X026943Y020525D02*
X027069Y020525D01*
X027069Y020576D02*
X026943Y020576D01*
X026943Y020627D02*
X027069Y020627D01*
X027069Y020678D02*
X026943Y020678D01*
X026943Y020729D02*
X027069Y020729D01*
X027069Y020780D02*
X026943Y020780D01*
X026943Y020831D02*
X027069Y020831D01*
X027069Y020882D02*
X026943Y020882D01*
X027140Y020321D02*
X027266Y020321D01*
X027140Y020321D02*
X027140Y020899D01*
X027266Y020899D01*
X027266Y020321D01*
X027266Y020372D02*
X027140Y020372D01*
X027140Y020423D02*
X027266Y020423D01*
X027266Y020474D02*
X027140Y020474D01*
X027140Y020525D02*
X027266Y020525D01*
X027266Y020576D02*
X027140Y020576D01*
X027140Y020627D02*
X027266Y020627D01*
X027266Y020678D02*
X027140Y020678D01*
X027140Y020729D02*
X027266Y020729D01*
X027266Y020780D02*
X027140Y020780D01*
X027140Y020831D02*
X027266Y020831D01*
X027266Y020882D02*
X027140Y020882D01*
X027337Y020321D02*
X027463Y020321D01*
X027337Y020321D02*
X027337Y020899D01*
X027463Y020899D01*
X027463Y020321D01*
X027463Y020372D02*
X027337Y020372D01*
X027337Y020423D02*
X027463Y020423D01*
X027463Y020474D02*
X027337Y020474D01*
X027337Y020525D02*
X027463Y020525D01*
X027463Y020576D02*
X027337Y020576D01*
X027337Y020627D02*
X027463Y020627D01*
X027463Y020678D02*
X027337Y020678D01*
X027337Y020729D02*
X027463Y020729D01*
X027463Y020780D02*
X027337Y020780D01*
X027337Y020831D02*
X027463Y020831D01*
X027463Y020882D02*
X027337Y020882D01*
X027899Y019759D02*
X028477Y019759D01*
X027899Y019759D02*
X027899Y019885D01*
X028477Y019885D01*
X028477Y019759D01*
X028477Y019810D02*
X027899Y019810D01*
X027899Y019861D02*
X028477Y019861D01*
X028477Y019562D02*
X027899Y019562D01*
X027899Y019688D01*
X028477Y019688D01*
X028477Y019562D01*
X028477Y019613D02*
X027899Y019613D01*
X027899Y019664D02*
X028477Y019664D01*
X028477Y019366D02*
X027899Y019366D01*
X027899Y019492D01*
X028477Y019492D01*
X028477Y019366D01*
X028477Y019417D02*
X027899Y019417D01*
X027899Y019468D02*
X028477Y019468D01*
X028477Y019169D02*
X027899Y019169D01*
X027899Y019295D01*
X028477Y019295D01*
X028477Y019169D01*
X028477Y019220D02*
X027899Y019220D01*
X027899Y019271D02*
X028477Y019271D01*
X028477Y018972D02*
X027899Y018972D01*
X027899Y019098D01*
X028477Y019098D01*
X028477Y018972D01*
X028477Y019023D02*
X027899Y019023D01*
X027899Y019074D02*
X028477Y019074D01*
X028477Y018775D02*
X027899Y018775D01*
X027899Y018901D01*
X028477Y018901D01*
X028477Y018775D01*
X028477Y018826D02*
X027899Y018826D01*
X027899Y018877D02*
X028477Y018877D01*
X028477Y018578D02*
X027899Y018578D01*
X027899Y018704D01*
X028477Y018704D01*
X028477Y018578D01*
X028477Y018629D02*
X027899Y018629D01*
X027899Y018680D02*
X028477Y018680D01*
X028477Y018381D02*
X027899Y018381D01*
X027899Y018507D01*
X028477Y018507D01*
X028477Y018381D01*
X028477Y018432D02*
X027899Y018432D01*
X027899Y018483D02*
X028477Y018483D01*
X028477Y018184D02*
X027899Y018184D01*
X027899Y018310D01*
X028477Y018310D01*
X028477Y018184D01*
X028477Y018235D02*
X027899Y018235D01*
X027899Y018286D02*
X028477Y018286D01*
X028477Y017988D02*
X027899Y017988D01*
X027899Y018114D01*
X028477Y018114D01*
X028477Y017988D01*
X028477Y018039D02*
X027899Y018039D01*
X027899Y018090D02*
X028477Y018090D01*
X028477Y017791D02*
X027899Y017791D01*
X027899Y017917D01*
X028477Y017917D01*
X028477Y017791D01*
X028477Y017842D02*
X027899Y017842D01*
X027899Y017893D02*
X028477Y017893D01*
X028477Y017594D02*
X027899Y017594D01*
X027899Y017720D01*
X028477Y017720D01*
X028477Y017594D01*
X028477Y017645D02*
X027899Y017645D01*
X027899Y017696D02*
X028477Y017696D01*
X028477Y017397D02*
X027899Y017397D01*
X027899Y017523D01*
X028477Y017523D01*
X028477Y017397D01*
X028477Y017448D02*
X027899Y017448D01*
X027899Y017499D02*
X028477Y017499D01*
X028477Y017200D02*
X027899Y017200D01*
X027899Y017326D01*
X028477Y017326D01*
X028477Y017200D01*
X028477Y017251D02*
X027899Y017251D01*
X027899Y017302D02*
X028477Y017302D01*
X028477Y017003D02*
X027899Y017003D01*
X027899Y017129D01*
X028477Y017129D01*
X028477Y017003D01*
X028477Y017054D02*
X027899Y017054D01*
X027899Y017105D02*
X028477Y017105D01*
X028477Y016806D02*
X027899Y016806D01*
X027899Y016932D01*
X028477Y016932D01*
X028477Y016806D01*
X028477Y016857D02*
X027899Y016857D01*
X027899Y016908D02*
X028477Y016908D01*
X028477Y016610D02*
X027899Y016610D01*
X027899Y016736D01*
X028477Y016736D01*
X028477Y016610D01*
X028477Y016661D02*
X027899Y016661D01*
X027899Y016712D02*
X028477Y016712D01*
X028477Y016413D02*
X027899Y016413D01*
X027899Y016539D01*
X028477Y016539D01*
X028477Y016413D01*
X028477Y016464D02*
X027899Y016464D01*
X027899Y016515D02*
X028477Y016515D01*
X028477Y016216D02*
X027899Y016216D01*
X027899Y016342D01*
X028477Y016342D01*
X028477Y016216D01*
X028477Y016267D02*
X027899Y016267D01*
X027899Y016318D02*
X028477Y016318D01*
X028477Y016019D02*
X027899Y016019D01*
X027899Y016145D01*
X028477Y016145D01*
X028477Y016019D01*
X028477Y016070D02*
X027899Y016070D01*
X027899Y016121D02*
X028477Y016121D01*
X028477Y015822D02*
X027899Y015822D01*
X027899Y015948D01*
X028477Y015948D01*
X028477Y015822D01*
X028477Y015873D02*
X027899Y015873D01*
X027899Y015924D02*
X028477Y015924D01*
X028477Y015625D02*
X027899Y015625D01*
X027899Y015751D01*
X028477Y015751D01*
X028477Y015625D01*
X028477Y015676D02*
X027899Y015676D01*
X027899Y015727D02*
X028477Y015727D01*
X028477Y015428D02*
X027899Y015428D01*
X027899Y015554D01*
X028477Y015554D01*
X028477Y015428D01*
X028477Y015479D02*
X027899Y015479D01*
X027899Y015530D02*
X028477Y015530D01*
X028477Y015232D02*
X027899Y015232D01*
X027899Y015358D01*
X028477Y015358D01*
X028477Y015232D01*
X028477Y015283D02*
X027899Y015283D01*
X027899Y015334D02*
X028477Y015334D01*
X028477Y015035D02*
X027899Y015035D01*
X027899Y015161D01*
X028477Y015161D01*
X028477Y015035D01*
X028477Y015086D02*
X027899Y015086D01*
X027899Y015137D02*
X028477Y015137D01*
X027463Y014021D02*
X027337Y014021D01*
X027337Y014599D01*
X027463Y014599D01*
X027463Y014021D01*
X027463Y014072D02*
X027337Y014072D01*
X027337Y014123D02*
X027463Y014123D01*
X027463Y014174D02*
X027337Y014174D01*
X027337Y014225D02*
X027463Y014225D01*
X027463Y014276D02*
X027337Y014276D01*
X027337Y014327D02*
X027463Y014327D01*
X027463Y014378D02*
X027337Y014378D01*
X027337Y014429D02*
X027463Y014429D01*
X027463Y014480D02*
X027337Y014480D01*
X027337Y014531D02*
X027463Y014531D01*
X027463Y014582D02*
X027337Y014582D01*
X027266Y014021D02*
X027140Y014021D01*
X027140Y014599D01*
X027266Y014599D01*
X027266Y014021D01*
X027266Y014072D02*
X027140Y014072D01*
X027140Y014123D02*
X027266Y014123D01*
X027266Y014174D02*
X027140Y014174D01*
X027140Y014225D02*
X027266Y014225D01*
X027266Y014276D02*
X027140Y014276D01*
X027140Y014327D02*
X027266Y014327D01*
X027266Y014378D02*
X027140Y014378D01*
X027140Y014429D02*
X027266Y014429D01*
X027266Y014480D02*
X027140Y014480D01*
X027140Y014531D02*
X027266Y014531D01*
X027266Y014582D02*
X027140Y014582D01*
X027069Y014021D02*
X026943Y014021D01*
X026943Y014599D01*
X027069Y014599D01*
X027069Y014021D01*
X027069Y014072D02*
X026943Y014072D01*
X026943Y014123D02*
X027069Y014123D01*
X027069Y014174D02*
X026943Y014174D01*
X026943Y014225D02*
X027069Y014225D01*
X027069Y014276D02*
X026943Y014276D01*
X026943Y014327D02*
X027069Y014327D01*
X027069Y014378D02*
X026943Y014378D01*
X026943Y014429D02*
X027069Y014429D01*
X027069Y014480D02*
X026943Y014480D01*
X026943Y014531D02*
X027069Y014531D01*
X027069Y014582D02*
X026943Y014582D01*
X026873Y014021D02*
X026747Y014021D01*
X026747Y014599D01*
X026873Y014599D01*
X026873Y014021D01*
X026873Y014072D02*
X026747Y014072D01*
X026747Y014123D02*
X026873Y014123D01*
X026873Y014174D02*
X026747Y014174D01*
X026747Y014225D02*
X026873Y014225D01*
X026873Y014276D02*
X026747Y014276D01*
X026747Y014327D02*
X026873Y014327D01*
X026873Y014378D02*
X026747Y014378D01*
X026747Y014429D02*
X026873Y014429D01*
X026873Y014480D02*
X026747Y014480D01*
X026747Y014531D02*
X026873Y014531D01*
X026873Y014582D02*
X026747Y014582D01*
X026676Y014021D02*
X026550Y014021D01*
X026550Y014599D01*
X026676Y014599D01*
X026676Y014021D01*
X026676Y014072D02*
X026550Y014072D01*
X026550Y014123D02*
X026676Y014123D01*
X026676Y014174D02*
X026550Y014174D01*
X026550Y014225D02*
X026676Y014225D01*
X026676Y014276D02*
X026550Y014276D01*
X026550Y014327D02*
X026676Y014327D01*
X026676Y014378D02*
X026550Y014378D01*
X026550Y014429D02*
X026676Y014429D01*
X026676Y014480D02*
X026550Y014480D01*
X026550Y014531D02*
X026676Y014531D01*
X026676Y014582D02*
X026550Y014582D01*
X026479Y014021D02*
X026353Y014021D01*
X026353Y014599D01*
X026479Y014599D01*
X026479Y014021D01*
X026479Y014072D02*
X026353Y014072D01*
X026353Y014123D02*
X026479Y014123D01*
X026479Y014174D02*
X026353Y014174D01*
X026353Y014225D02*
X026479Y014225D01*
X026479Y014276D02*
X026353Y014276D01*
X026353Y014327D02*
X026479Y014327D01*
X026479Y014378D02*
X026353Y014378D01*
X026353Y014429D02*
X026479Y014429D01*
X026479Y014480D02*
X026353Y014480D01*
X026353Y014531D02*
X026479Y014531D01*
X026479Y014582D02*
X026353Y014582D01*
X026282Y014021D02*
X026156Y014021D01*
X026156Y014599D01*
X026282Y014599D01*
X026282Y014021D01*
X026282Y014072D02*
X026156Y014072D01*
X026156Y014123D02*
X026282Y014123D01*
X026282Y014174D02*
X026156Y014174D01*
X026156Y014225D02*
X026282Y014225D01*
X026282Y014276D02*
X026156Y014276D01*
X026156Y014327D02*
X026282Y014327D01*
X026282Y014378D02*
X026156Y014378D01*
X026156Y014429D02*
X026282Y014429D01*
X026282Y014480D02*
X026156Y014480D01*
X026156Y014531D02*
X026282Y014531D01*
X026282Y014582D02*
X026156Y014582D01*
X026085Y014021D02*
X025959Y014021D01*
X025959Y014599D01*
X026085Y014599D01*
X026085Y014021D01*
X026085Y014072D02*
X025959Y014072D01*
X025959Y014123D02*
X026085Y014123D01*
X026085Y014174D02*
X025959Y014174D01*
X025959Y014225D02*
X026085Y014225D01*
X026085Y014276D02*
X025959Y014276D01*
X025959Y014327D02*
X026085Y014327D01*
X026085Y014378D02*
X025959Y014378D01*
X025959Y014429D02*
X026085Y014429D01*
X026085Y014480D02*
X025959Y014480D01*
X025959Y014531D02*
X026085Y014531D01*
X026085Y014582D02*
X025959Y014582D01*
X025888Y014021D02*
X025762Y014021D01*
X025762Y014599D01*
X025888Y014599D01*
X025888Y014021D01*
X025888Y014072D02*
X025762Y014072D01*
X025762Y014123D02*
X025888Y014123D01*
X025888Y014174D02*
X025762Y014174D01*
X025762Y014225D02*
X025888Y014225D01*
X025888Y014276D02*
X025762Y014276D01*
X025762Y014327D02*
X025888Y014327D01*
X025888Y014378D02*
X025762Y014378D01*
X025762Y014429D02*
X025888Y014429D01*
X025888Y014480D02*
X025762Y014480D01*
X025762Y014531D02*
X025888Y014531D01*
X025888Y014582D02*
X025762Y014582D01*
X025691Y014021D02*
X025565Y014021D01*
X025565Y014599D01*
X025691Y014599D01*
X025691Y014021D01*
X025691Y014072D02*
X025565Y014072D01*
X025565Y014123D02*
X025691Y014123D01*
X025691Y014174D02*
X025565Y014174D01*
X025565Y014225D02*
X025691Y014225D01*
X025691Y014276D02*
X025565Y014276D01*
X025565Y014327D02*
X025691Y014327D01*
X025691Y014378D02*
X025565Y014378D01*
X025565Y014429D02*
X025691Y014429D01*
X025691Y014480D02*
X025565Y014480D01*
X025565Y014531D02*
X025691Y014531D01*
X025691Y014582D02*
X025565Y014582D01*
X025495Y014021D02*
X025369Y014021D01*
X025369Y014599D01*
X025495Y014599D01*
X025495Y014021D01*
X025495Y014072D02*
X025369Y014072D01*
X025369Y014123D02*
X025495Y014123D01*
X025495Y014174D02*
X025369Y014174D01*
X025369Y014225D02*
X025495Y014225D01*
X025495Y014276D02*
X025369Y014276D01*
X025369Y014327D02*
X025495Y014327D01*
X025495Y014378D02*
X025369Y014378D01*
X025369Y014429D02*
X025495Y014429D01*
X025495Y014480D02*
X025369Y014480D01*
X025369Y014531D02*
X025495Y014531D01*
X025495Y014582D02*
X025369Y014582D01*
X025298Y014021D02*
X025172Y014021D01*
X025172Y014599D01*
X025298Y014599D01*
X025298Y014021D01*
X025298Y014072D02*
X025172Y014072D01*
X025172Y014123D02*
X025298Y014123D01*
X025298Y014174D02*
X025172Y014174D01*
X025172Y014225D02*
X025298Y014225D01*
X025298Y014276D02*
X025172Y014276D01*
X025172Y014327D02*
X025298Y014327D01*
X025298Y014378D02*
X025172Y014378D01*
X025172Y014429D02*
X025298Y014429D01*
X025298Y014480D02*
X025172Y014480D01*
X025172Y014531D02*
X025298Y014531D01*
X025298Y014582D02*
X025172Y014582D01*
X025101Y014021D02*
X024975Y014021D01*
X024975Y014599D01*
X025101Y014599D01*
X025101Y014021D01*
X025101Y014072D02*
X024975Y014072D01*
X024975Y014123D02*
X025101Y014123D01*
X025101Y014174D02*
X024975Y014174D01*
X024975Y014225D02*
X025101Y014225D01*
X025101Y014276D02*
X024975Y014276D01*
X024975Y014327D02*
X025101Y014327D01*
X025101Y014378D02*
X024975Y014378D01*
X024975Y014429D02*
X025101Y014429D01*
X025101Y014480D02*
X024975Y014480D01*
X024975Y014531D02*
X025101Y014531D01*
X025101Y014582D02*
X024975Y014582D01*
X024904Y014021D02*
X024778Y014021D01*
X024778Y014599D01*
X024904Y014599D01*
X024904Y014021D01*
X024904Y014072D02*
X024778Y014072D01*
X024778Y014123D02*
X024904Y014123D01*
X024904Y014174D02*
X024778Y014174D01*
X024778Y014225D02*
X024904Y014225D01*
X024904Y014276D02*
X024778Y014276D01*
X024778Y014327D02*
X024904Y014327D01*
X024904Y014378D02*
X024778Y014378D01*
X024778Y014429D02*
X024904Y014429D01*
X024904Y014480D02*
X024778Y014480D01*
X024778Y014531D02*
X024904Y014531D01*
X024904Y014582D02*
X024778Y014582D01*
X024707Y014021D02*
X024581Y014021D01*
X024581Y014599D01*
X024707Y014599D01*
X024707Y014021D01*
X024707Y014072D02*
X024581Y014072D01*
X024581Y014123D02*
X024707Y014123D01*
X024707Y014174D02*
X024581Y014174D01*
X024581Y014225D02*
X024707Y014225D01*
X024707Y014276D02*
X024581Y014276D01*
X024581Y014327D02*
X024707Y014327D01*
X024707Y014378D02*
X024581Y014378D01*
X024581Y014429D02*
X024707Y014429D01*
X024707Y014480D02*
X024581Y014480D01*
X024581Y014531D02*
X024707Y014531D01*
X024707Y014582D02*
X024581Y014582D01*
X024510Y014021D02*
X024384Y014021D01*
X024384Y014599D01*
X024510Y014599D01*
X024510Y014021D01*
X024510Y014072D02*
X024384Y014072D01*
X024384Y014123D02*
X024510Y014123D01*
X024510Y014174D02*
X024384Y014174D01*
X024384Y014225D02*
X024510Y014225D01*
X024510Y014276D02*
X024384Y014276D01*
X024384Y014327D02*
X024510Y014327D01*
X024510Y014378D02*
X024384Y014378D01*
X024384Y014429D02*
X024510Y014429D01*
X024510Y014480D02*
X024384Y014480D01*
X024384Y014531D02*
X024510Y014531D01*
X024510Y014582D02*
X024384Y014582D01*
X024313Y014021D02*
X024187Y014021D01*
X024187Y014599D01*
X024313Y014599D01*
X024313Y014021D01*
X024313Y014072D02*
X024187Y014072D01*
X024187Y014123D02*
X024313Y014123D01*
X024313Y014174D02*
X024187Y014174D01*
X024187Y014225D02*
X024313Y014225D01*
X024313Y014276D02*
X024187Y014276D01*
X024187Y014327D02*
X024313Y014327D01*
X024313Y014378D02*
X024187Y014378D01*
X024187Y014429D02*
X024313Y014429D01*
X024313Y014480D02*
X024187Y014480D01*
X024187Y014531D02*
X024313Y014531D01*
X024313Y014582D02*
X024187Y014582D01*
X024117Y014021D02*
X023991Y014021D01*
X023991Y014599D01*
X024117Y014599D01*
X024117Y014021D01*
X024117Y014072D02*
X023991Y014072D01*
X023991Y014123D02*
X024117Y014123D01*
X024117Y014174D02*
X023991Y014174D01*
X023991Y014225D02*
X024117Y014225D01*
X024117Y014276D02*
X023991Y014276D01*
X023991Y014327D02*
X024117Y014327D01*
X024117Y014378D02*
X023991Y014378D01*
X023991Y014429D02*
X024117Y014429D01*
X024117Y014480D02*
X023991Y014480D01*
X023991Y014531D02*
X024117Y014531D01*
X024117Y014582D02*
X023991Y014582D01*
X023920Y014021D02*
X023794Y014021D01*
X023794Y014599D01*
X023920Y014599D01*
X023920Y014021D01*
X023920Y014072D02*
X023794Y014072D01*
X023794Y014123D02*
X023920Y014123D01*
X023920Y014174D02*
X023794Y014174D01*
X023794Y014225D02*
X023920Y014225D01*
X023920Y014276D02*
X023794Y014276D01*
X023794Y014327D02*
X023920Y014327D01*
X023920Y014378D02*
X023794Y014378D01*
X023794Y014429D02*
X023920Y014429D01*
X023920Y014480D02*
X023794Y014480D01*
X023794Y014531D02*
X023920Y014531D01*
X023920Y014582D02*
X023794Y014582D01*
X023723Y014021D02*
X023597Y014021D01*
X023597Y014599D01*
X023723Y014599D01*
X023723Y014021D01*
X023723Y014072D02*
X023597Y014072D01*
X023597Y014123D02*
X023723Y014123D01*
X023723Y014174D02*
X023597Y014174D01*
X023597Y014225D02*
X023723Y014225D01*
X023723Y014276D02*
X023597Y014276D01*
X023597Y014327D02*
X023723Y014327D01*
X023723Y014378D02*
X023597Y014378D01*
X023597Y014429D02*
X023723Y014429D01*
X023723Y014480D02*
X023597Y014480D01*
X023597Y014531D02*
X023723Y014531D01*
X023723Y014582D02*
X023597Y014582D01*
X023526Y014021D02*
X023400Y014021D01*
X023400Y014599D01*
X023526Y014599D01*
X023526Y014021D01*
X023526Y014072D02*
X023400Y014072D01*
X023400Y014123D02*
X023526Y014123D01*
X023526Y014174D02*
X023400Y014174D01*
X023400Y014225D02*
X023526Y014225D01*
X023526Y014276D02*
X023400Y014276D01*
X023400Y014327D02*
X023526Y014327D01*
X023526Y014378D02*
X023400Y014378D01*
X023400Y014429D02*
X023526Y014429D01*
X023526Y014480D02*
X023400Y014480D01*
X023400Y014531D02*
X023526Y014531D01*
X023526Y014582D02*
X023400Y014582D01*
X023329Y014021D02*
X023203Y014021D01*
X023203Y014599D01*
X023329Y014599D01*
X023329Y014021D01*
X023329Y014072D02*
X023203Y014072D01*
X023203Y014123D02*
X023329Y014123D01*
X023329Y014174D02*
X023203Y014174D01*
X023203Y014225D02*
X023329Y014225D01*
X023329Y014276D02*
X023203Y014276D01*
X023203Y014327D02*
X023329Y014327D01*
X023329Y014378D02*
X023203Y014378D01*
X023203Y014429D02*
X023329Y014429D01*
X023329Y014480D02*
X023203Y014480D01*
X023203Y014531D02*
X023329Y014531D01*
X023329Y014582D02*
X023203Y014582D01*
X023132Y014021D02*
X023006Y014021D01*
X023006Y014599D01*
X023132Y014599D01*
X023132Y014021D01*
X023132Y014072D02*
X023006Y014072D01*
X023006Y014123D02*
X023132Y014123D01*
X023132Y014174D02*
X023006Y014174D01*
X023006Y014225D02*
X023132Y014225D01*
X023132Y014276D02*
X023006Y014276D01*
X023006Y014327D02*
X023132Y014327D01*
X023132Y014378D02*
X023006Y014378D01*
X023006Y014429D02*
X023132Y014429D01*
X023132Y014480D02*
X023006Y014480D01*
X023006Y014531D02*
X023132Y014531D01*
X023132Y014582D02*
X023006Y014582D01*
X022936Y014021D02*
X022810Y014021D01*
X022810Y014599D01*
X022936Y014599D01*
X022936Y014021D01*
X022936Y014072D02*
X022810Y014072D01*
X022810Y014123D02*
X022936Y014123D01*
X022936Y014174D02*
X022810Y014174D01*
X022810Y014225D02*
X022936Y014225D01*
X022936Y014276D02*
X022810Y014276D01*
X022810Y014327D02*
X022936Y014327D01*
X022936Y014378D02*
X022810Y014378D01*
X022810Y014429D02*
X022936Y014429D01*
X022936Y014480D02*
X022810Y014480D01*
X022810Y014531D02*
X022936Y014531D01*
X022936Y014582D02*
X022810Y014582D01*
X022739Y014021D02*
X022613Y014021D01*
X022613Y014599D01*
X022739Y014599D01*
X022739Y014021D01*
X022739Y014072D02*
X022613Y014072D01*
X022613Y014123D02*
X022739Y014123D01*
X022739Y014174D02*
X022613Y014174D01*
X022613Y014225D02*
X022739Y014225D01*
X022739Y014276D02*
X022613Y014276D01*
X022613Y014327D02*
X022739Y014327D01*
X022739Y014378D02*
X022613Y014378D01*
X022613Y014429D02*
X022739Y014429D01*
X022739Y014480D02*
X022613Y014480D01*
X022613Y014531D02*
X022739Y014531D01*
X022739Y014582D02*
X022613Y014582D01*
D25*
X008392Y020808D03*
X007605Y020808D03*
X007605Y021792D03*
X008392Y021792D03*
D26*
X006538Y023662D03*
X006538Y018938D03*
D27*
X006375Y016950D02*
X005665Y016950D01*
X006375Y016950D02*
X006375Y015650D01*
X005665Y015650D01*
X005665Y016950D01*
X005665Y015728D02*
X006375Y015728D01*
X006375Y015806D02*
X005665Y015806D01*
X005665Y015884D02*
X006375Y015884D01*
X006375Y015962D02*
X005665Y015962D01*
X005665Y016040D02*
X006375Y016040D01*
X006375Y016118D02*
X005665Y016118D01*
X005665Y016196D02*
X006375Y016196D01*
X006375Y016274D02*
X005665Y016274D01*
X005665Y016352D02*
X006375Y016352D01*
X006375Y016430D02*
X005665Y016430D01*
X005665Y016508D02*
X006375Y016508D01*
X006375Y016586D02*
X005665Y016586D01*
X005665Y016664D02*
X006375Y016664D01*
X006375Y016742D02*
X005665Y016742D01*
X005665Y016820D02*
X006375Y016820D01*
X006375Y016898D02*
X005665Y016898D01*
X007201Y016950D02*
X007911Y016950D01*
X007911Y015650D01*
X007201Y015650D01*
X007201Y016950D01*
X007201Y015728D02*
X007911Y015728D01*
X007911Y015806D02*
X007201Y015806D01*
X007201Y015884D02*
X007911Y015884D01*
X007911Y015962D02*
X007201Y015962D01*
X007201Y016040D02*
X007911Y016040D01*
X007911Y016118D02*
X007201Y016118D01*
X007201Y016196D02*
X007911Y016196D01*
X007911Y016274D02*
X007201Y016274D01*
X007201Y016352D02*
X007911Y016352D01*
X007911Y016430D02*
X007201Y016430D01*
X007201Y016508D02*
X007911Y016508D01*
X007911Y016586D02*
X007201Y016586D01*
X007201Y016664D02*
X007911Y016664D01*
X007911Y016742D02*
X007201Y016742D01*
X007201Y016820D02*
X007911Y016820D01*
X007911Y016898D02*
X007201Y016898D01*
D28*
X008215Y016443D02*
X008215Y016137D01*
X008215Y016443D02*
X008561Y016443D01*
X008561Y016137D01*
X008215Y016137D01*
X008215Y016181D02*
X008561Y016181D01*
X008561Y016225D02*
X008215Y016225D01*
X008215Y016269D02*
X008561Y016269D01*
X008561Y016313D02*
X008215Y016313D01*
X008215Y016357D02*
X008561Y016357D01*
X008561Y016401D02*
X008215Y016401D01*
X009015Y016517D02*
X009015Y016823D01*
X009361Y016823D01*
X009361Y016517D01*
X009015Y016517D01*
X009015Y016561D02*
X009361Y016561D01*
X009361Y016605D02*
X009015Y016605D01*
X009015Y016649D02*
X009361Y016649D01*
X009361Y016693D02*
X009015Y016693D01*
X009015Y016737D02*
X009361Y016737D01*
X009361Y016781D02*
X009015Y016781D01*
X009015Y016063D02*
X009015Y015757D01*
X009015Y016063D02*
X009361Y016063D01*
X009361Y015757D01*
X009015Y015757D01*
X009015Y015801D02*
X009361Y015801D01*
X009361Y015845D02*
X009015Y015845D01*
X009015Y015889D02*
X009361Y015889D01*
X009361Y015933D02*
X009015Y015933D01*
X009015Y015977D02*
X009361Y015977D01*
X009361Y016021D02*
X009015Y016021D01*
D29*
X010784Y015665D02*
X010784Y015435D01*
X010784Y015665D02*
X011644Y015665D01*
X011644Y015435D01*
X010784Y015435D01*
X010784Y015481D02*
X011644Y015481D01*
X011644Y015527D02*
X010784Y015527D01*
X010784Y015573D02*
X011644Y015573D01*
X011644Y015619D02*
X010784Y015619D01*
X010784Y015665D02*
X011644Y015665D01*
X010784Y015165D02*
X010784Y014935D01*
X010784Y015165D02*
X011644Y015165D01*
X011644Y014935D01*
X010784Y014935D01*
X010784Y014981D02*
X011644Y014981D01*
X011644Y015027D02*
X010784Y015027D01*
X010784Y015073D02*
X011644Y015073D01*
X011644Y015119D02*
X010784Y015119D01*
X010784Y015165D02*
X011644Y015165D01*
X010784Y014665D02*
X010784Y014435D01*
X010784Y014665D02*
X011644Y014665D01*
X011644Y014435D01*
X010784Y014435D01*
X010784Y014481D02*
X011644Y014481D01*
X011644Y014527D02*
X010784Y014527D01*
X010784Y014573D02*
X011644Y014573D01*
X011644Y014619D02*
X010784Y014619D01*
X010784Y014665D02*
X011644Y014665D01*
X010784Y014165D02*
X010784Y013935D01*
X010784Y014165D02*
X011644Y014165D01*
X011644Y013935D01*
X010784Y013935D01*
X010784Y013981D02*
X011644Y013981D01*
X011644Y014027D02*
X010784Y014027D01*
X010784Y014073D02*
X011644Y014073D01*
X011644Y014119D02*
X010784Y014119D01*
X010784Y014165D02*
X011644Y014165D01*
X012832Y014165D02*
X012832Y013935D01*
X012832Y014165D02*
X013692Y014165D01*
X013692Y013935D01*
X012832Y013935D01*
X012832Y013981D02*
X013692Y013981D01*
X013692Y014027D02*
X012832Y014027D01*
X012832Y014073D02*
X013692Y014073D01*
X013692Y014119D02*
X012832Y014119D01*
X012832Y014165D02*
X013692Y014165D01*
X012832Y014435D02*
X012832Y014665D01*
X013692Y014665D01*
X013692Y014435D01*
X012832Y014435D01*
X012832Y014481D02*
X013692Y014481D01*
X013692Y014527D02*
X012832Y014527D01*
X012832Y014573D02*
X013692Y014573D01*
X013692Y014619D02*
X012832Y014619D01*
X012832Y014665D02*
X013692Y014665D01*
X012832Y014935D02*
X012832Y015165D01*
X013692Y015165D01*
X013692Y014935D01*
X012832Y014935D01*
X012832Y014981D02*
X013692Y014981D01*
X013692Y015027D02*
X012832Y015027D01*
X012832Y015073D02*
X013692Y015073D01*
X013692Y015119D02*
X012832Y015119D01*
X012832Y015165D02*
X013692Y015165D01*
X012832Y015435D02*
X012832Y015665D01*
X013692Y015665D01*
X013692Y015435D01*
X012832Y015435D01*
X012832Y015481D02*
X013692Y015481D01*
X013692Y015527D02*
X012832Y015527D01*
X012832Y015573D02*
X013692Y015573D01*
X013692Y015619D02*
X012832Y015619D01*
X012832Y015665D02*
X013692Y015665D01*
D30*
X015513Y011990D02*
X015963Y011990D01*
X015513Y011990D02*
X015513Y012610D01*
X015963Y012610D01*
X015963Y011990D01*
X015963Y012039D02*
X015513Y012039D01*
X015513Y012088D02*
X015963Y012088D01*
X015963Y012137D02*
X015513Y012137D01*
X015513Y012186D02*
X015963Y012186D01*
X015963Y012235D02*
X015513Y012235D01*
X015513Y012284D02*
X015963Y012284D01*
X015963Y012333D02*
X015513Y012333D01*
X015513Y012382D02*
X015963Y012382D01*
X015963Y012431D02*
X015513Y012431D01*
X015513Y012480D02*
X015963Y012480D01*
X015963Y012529D02*
X015513Y012529D01*
X015513Y012578D02*
X015963Y012578D01*
X016113Y011990D02*
X016563Y011990D01*
X016113Y011990D02*
X016113Y012610D01*
X016563Y012610D01*
X016563Y011990D01*
X016563Y012039D02*
X016113Y012039D01*
X016113Y012088D02*
X016563Y012088D01*
X016563Y012137D02*
X016113Y012137D01*
X016113Y012186D02*
X016563Y012186D01*
X016563Y012235D02*
X016113Y012235D01*
X016113Y012284D02*
X016563Y012284D01*
X016563Y012333D02*
X016113Y012333D01*
X016113Y012382D02*
X016563Y012382D01*
X016563Y012431D02*
X016113Y012431D01*
X016113Y012480D02*
X016563Y012480D01*
X016563Y012529D02*
X016113Y012529D01*
X016113Y012578D02*
X016563Y012578D01*
D31*
X016038Y012300D03*
D32*
X012760Y020778D02*
X011775Y020778D01*
X011716Y020837D01*
X011716Y021822D01*
X012760Y021822D01*
X012760Y020778D01*
X012760Y020951D02*
X011716Y020951D01*
X011716Y021147D02*
X012760Y021147D01*
X012760Y021342D02*
X011716Y021342D01*
X011716Y021537D02*
X012760Y021537D01*
X012760Y021733D02*
X011716Y021733D01*
D33*
X011431Y021753D02*
X011234Y021753D01*
X011234Y021831D01*
X011431Y021831D01*
X011431Y021753D01*
X011431Y021777D02*
X011234Y021777D01*
X011234Y021816D02*
X011431Y021816D01*
X011431Y021950D02*
X011234Y021950D01*
X011234Y022028D01*
X011411Y022028D01*
X011431Y022009D01*
X011431Y021950D01*
X011431Y021970D02*
X011234Y021970D01*
X011234Y022008D02*
X011431Y022008D01*
X011529Y022107D02*
X011588Y022107D01*
X011588Y022304D01*
X011510Y022304D01*
X011510Y022127D01*
X011529Y022107D01*
X011513Y022124D02*
X011588Y022124D01*
X011588Y022162D02*
X011510Y022162D01*
X011510Y022201D02*
X011588Y022201D01*
X011588Y022239D02*
X011510Y022239D01*
X011510Y022278D02*
X011588Y022278D01*
X011706Y022278D02*
X011785Y022278D01*
X011785Y022304D02*
X011706Y022304D01*
X011706Y022107D01*
X011785Y022107D01*
X011785Y022304D01*
X011785Y022239D02*
X011706Y022239D01*
X011706Y022201D02*
X011785Y022201D01*
X011785Y022162D02*
X011706Y022162D01*
X011706Y022124D02*
X011785Y022124D01*
X011903Y022124D02*
X011982Y022124D01*
X011982Y022107D02*
X011903Y022107D01*
X011903Y022304D01*
X011982Y022304D01*
X011982Y022107D01*
X011982Y022162D02*
X011903Y022162D01*
X011903Y022201D02*
X011982Y022201D01*
X011982Y022239D02*
X011903Y022239D01*
X011903Y022278D02*
X011982Y022278D01*
X012100Y022278D02*
X012179Y022278D01*
X012179Y022304D02*
X012100Y022304D01*
X012100Y022107D01*
X012179Y022107D01*
X012179Y022304D01*
X012179Y022239D02*
X012100Y022239D01*
X012100Y022201D02*
X012179Y022201D01*
X012179Y022162D02*
X012100Y022162D01*
X012100Y022124D02*
X012179Y022124D01*
X012297Y022124D02*
X012376Y022124D01*
X012376Y022107D02*
X012297Y022107D01*
X012297Y022304D01*
X012376Y022304D01*
X012376Y022107D01*
X012376Y022162D02*
X012297Y022162D01*
X012297Y022201D02*
X012376Y022201D01*
X012376Y022239D02*
X012297Y022239D01*
X012297Y022278D02*
X012376Y022278D01*
X012494Y022278D02*
X012573Y022278D01*
X012573Y022304D02*
X012494Y022304D01*
X012494Y022107D01*
X012573Y022107D01*
X012573Y022304D01*
X012573Y022239D02*
X012494Y022239D01*
X012494Y022201D02*
X012573Y022201D01*
X012573Y022162D02*
X012494Y022162D01*
X012494Y022124D02*
X012573Y022124D01*
X012691Y022124D02*
X012769Y022124D01*
X012769Y022107D02*
X012691Y022107D01*
X012691Y022304D01*
X012769Y022304D01*
X012769Y022107D01*
X012769Y022162D02*
X012691Y022162D01*
X012691Y022201D02*
X012769Y022201D01*
X012769Y022239D02*
X012691Y022239D01*
X012691Y022278D02*
X012769Y022278D01*
X012888Y022278D02*
X012966Y022278D01*
X012966Y022304D02*
X012888Y022304D01*
X012888Y022107D01*
X012947Y022107D01*
X012966Y022127D01*
X012966Y022304D01*
X012966Y022239D02*
X012888Y022239D01*
X012888Y022201D02*
X012966Y022201D01*
X012966Y022162D02*
X012888Y022162D01*
X012888Y022124D02*
X012963Y022124D01*
X013065Y022028D02*
X013045Y022009D01*
X013045Y021950D01*
X013242Y021950D01*
X013242Y022028D01*
X013065Y022028D01*
X013045Y022008D02*
X013242Y022008D01*
X013242Y021970D02*
X013045Y021970D01*
X013045Y021831D02*
X013242Y021831D01*
X013242Y021753D01*
X013045Y021753D01*
X013045Y021831D01*
X013045Y021816D02*
X013242Y021816D01*
X013242Y021777D02*
X013045Y021777D01*
X013045Y021635D02*
X013242Y021635D01*
X013242Y021556D01*
X013045Y021556D01*
X013045Y021635D01*
X013045Y021623D02*
X013242Y021623D01*
X013242Y021585D02*
X013045Y021585D01*
X013045Y021438D02*
X013242Y021438D01*
X013242Y021359D01*
X013045Y021359D01*
X013045Y021438D01*
X013045Y021431D02*
X013242Y021431D01*
X013242Y021392D02*
X013045Y021392D01*
X013045Y021241D02*
X013242Y021241D01*
X013242Y021162D01*
X013045Y021162D01*
X013045Y021241D01*
X013045Y021238D02*
X013242Y021238D01*
X013242Y021200D02*
X013045Y021200D01*
X013045Y021044D02*
X013242Y021044D01*
X013242Y020965D01*
X013045Y020965D01*
X013045Y021044D01*
X013045Y021007D02*
X013242Y021007D01*
X013242Y020969D02*
X013045Y020969D01*
X013045Y020847D02*
X013242Y020847D01*
X013242Y020769D01*
X013045Y020769D01*
X013045Y020847D01*
X013045Y020815D02*
X013242Y020815D01*
X013242Y020776D02*
X013045Y020776D01*
X013045Y020650D02*
X013242Y020650D01*
X013242Y020572D01*
X013065Y020572D01*
X013045Y020591D01*
X013045Y020650D01*
X013045Y020622D02*
X013242Y020622D01*
X013242Y020584D02*
X013053Y020584D01*
X012947Y020493D02*
X012888Y020493D01*
X012888Y020296D01*
X012966Y020296D01*
X012966Y020473D01*
X012947Y020493D01*
X012966Y020468D02*
X012888Y020468D01*
X012888Y020430D02*
X012966Y020430D01*
X012966Y020391D02*
X012888Y020391D01*
X012888Y020353D02*
X012966Y020353D01*
X012966Y020314D02*
X012888Y020314D01*
X012769Y020314D02*
X012691Y020314D01*
X012691Y020296D02*
X012769Y020296D01*
X012769Y020493D01*
X012691Y020493D01*
X012691Y020296D01*
X012691Y020353D02*
X012769Y020353D01*
X012769Y020391D02*
X012691Y020391D01*
X012691Y020430D02*
X012769Y020430D01*
X012769Y020468D02*
X012691Y020468D01*
X012573Y020468D02*
X012494Y020468D01*
X012494Y020493D02*
X012573Y020493D01*
X012573Y020296D01*
X012494Y020296D01*
X012494Y020493D01*
X012494Y020430D02*
X012573Y020430D01*
X012573Y020391D02*
X012494Y020391D01*
X012494Y020353D02*
X012573Y020353D01*
X012573Y020314D02*
X012494Y020314D01*
X012376Y020314D02*
X012297Y020314D01*
X012297Y020296D02*
X012376Y020296D01*
X012376Y020493D01*
X012297Y020493D01*
X012297Y020296D01*
X012297Y020353D02*
X012376Y020353D01*
X012376Y020391D02*
X012297Y020391D01*
X012297Y020430D02*
X012376Y020430D01*
X012376Y020468D02*
X012297Y020468D01*
X012179Y020468D02*
X012100Y020468D01*
X012100Y020493D02*
X012179Y020493D01*
X012179Y020296D01*
X012100Y020296D01*
X012100Y020493D01*
X012100Y020430D02*
X012179Y020430D01*
X012179Y020391D02*
X012100Y020391D01*
X012100Y020353D02*
X012179Y020353D01*
X012179Y020314D02*
X012100Y020314D01*
X011982Y020314D02*
X011903Y020314D01*
X011903Y020296D02*
X011982Y020296D01*
X011982Y020493D01*
X011903Y020493D01*
X011903Y020296D01*
X011903Y020353D02*
X011982Y020353D01*
X011982Y020391D02*
X011903Y020391D01*
X011903Y020430D02*
X011982Y020430D01*
X011982Y020468D02*
X011903Y020468D01*
X011785Y020468D02*
X011706Y020468D01*
X011706Y020493D02*
X011785Y020493D01*
X011785Y020296D01*
X011706Y020296D01*
X011706Y020493D01*
X011706Y020430D02*
X011785Y020430D01*
X011785Y020391D02*
X011706Y020391D01*
X011706Y020353D02*
X011785Y020353D01*
X011785Y020314D02*
X011706Y020314D01*
X011588Y020314D02*
X011510Y020314D01*
X011510Y020296D02*
X011588Y020296D01*
X011588Y020493D01*
X011529Y020493D01*
X011510Y020473D01*
X011510Y020296D01*
X011510Y020353D02*
X011588Y020353D01*
X011588Y020391D02*
X011510Y020391D01*
X011510Y020430D02*
X011588Y020430D01*
X011588Y020468D02*
X011510Y020468D01*
X011411Y020572D02*
X011431Y020591D01*
X011431Y020650D01*
X011234Y020650D01*
X011234Y020572D01*
X011411Y020572D01*
X011423Y020584D02*
X011234Y020584D01*
X011234Y020622D02*
X011431Y020622D01*
X011431Y020769D02*
X011234Y020769D01*
X011234Y020847D01*
X011431Y020847D01*
X011431Y020769D01*
X011431Y020776D02*
X011234Y020776D01*
X011234Y020815D02*
X011431Y020815D01*
X011431Y020965D02*
X011234Y020965D01*
X011234Y021044D01*
X011431Y021044D01*
X011431Y020965D01*
X011431Y020969D02*
X011234Y020969D01*
X011234Y021007D02*
X011431Y021007D01*
X011431Y021162D02*
X011234Y021162D01*
X011234Y021241D01*
X011431Y021241D01*
X011431Y021162D01*
X011431Y021200D02*
X011234Y021200D01*
X011234Y021238D02*
X011431Y021238D01*
X011431Y021359D02*
X011234Y021359D01*
X011234Y021438D01*
X011431Y021438D01*
X011431Y021359D01*
X011431Y021392D02*
X011234Y021392D01*
X011234Y021431D02*
X011431Y021431D01*
X011431Y021556D02*
X011234Y021556D01*
X011234Y021635D01*
X011431Y021635D01*
X011431Y021556D01*
X011431Y021585D02*
X011234Y021585D01*
X011234Y021623D02*
X011431Y021623D01*
D34*
X011709Y018690D02*
X011709Y017910D01*
X011709Y018690D02*
X011979Y018690D01*
X011979Y017910D01*
X011709Y017910D01*
X011709Y017956D02*
X011979Y017956D01*
X011979Y018002D02*
X011709Y018002D01*
X011709Y018048D02*
X011979Y018048D01*
X011979Y018094D02*
X011709Y018094D01*
X011709Y018140D02*
X011979Y018140D01*
X011979Y018186D02*
X011709Y018186D01*
X011709Y018232D02*
X011979Y018232D01*
X011979Y018278D02*
X011709Y018278D01*
X011709Y018324D02*
X011979Y018324D01*
X011979Y018370D02*
X011709Y018370D01*
X011709Y018416D02*
X011979Y018416D01*
X011979Y018462D02*
X011709Y018462D01*
X011709Y018508D02*
X011979Y018508D01*
X011979Y018554D02*
X011709Y018554D01*
X011709Y018600D02*
X011979Y018600D01*
X011979Y018646D02*
X011709Y018646D01*
X012103Y018690D02*
X012103Y017910D01*
X012103Y018690D02*
X012373Y018690D01*
X012373Y017910D01*
X012103Y017910D01*
X012103Y017956D02*
X012373Y017956D01*
X012373Y018002D02*
X012103Y018002D01*
X012103Y018048D02*
X012373Y018048D01*
X012373Y018094D02*
X012103Y018094D01*
X012103Y018140D02*
X012373Y018140D01*
X012373Y018186D02*
X012103Y018186D01*
X012103Y018232D02*
X012373Y018232D01*
X012373Y018278D02*
X012103Y018278D01*
X012103Y018324D02*
X012373Y018324D01*
X012373Y018370D02*
X012103Y018370D01*
X012103Y018416D02*
X012373Y018416D01*
X012373Y018462D02*
X012103Y018462D01*
X012103Y018508D02*
X012373Y018508D01*
X012373Y018554D02*
X012103Y018554D01*
X012103Y018600D02*
X012373Y018600D01*
X012373Y018646D02*
X012103Y018646D01*
X012497Y018690D02*
X012497Y017910D01*
X012497Y018690D02*
X012767Y018690D01*
X012767Y017910D01*
X012497Y017910D01*
X012497Y017956D02*
X012767Y017956D01*
X012767Y018002D02*
X012497Y018002D01*
X012497Y018048D02*
X012767Y018048D01*
X012767Y018094D02*
X012497Y018094D01*
X012497Y018140D02*
X012767Y018140D01*
X012767Y018186D02*
X012497Y018186D01*
X012497Y018232D02*
X012767Y018232D01*
X012767Y018278D02*
X012497Y018278D01*
X012497Y018324D02*
X012767Y018324D01*
X012767Y018370D02*
X012497Y018370D01*
X012497Y018416D02*
X012767Y018416D01*
X012767Y018462D02*
X012497Y018462D01*
X012497Y018508D02*
X012767Y018508D01*
X012767Y018554D02*
X012497Y018554D01*
X012497Y018600D02*
X012767Y018600D01*
X012767Y018646D02*
X012497Y018646D01*
X019148Y012309D02*
X019928Y012309D01*
X019148Y012309D02*
X019148Y012579D01*
X019928Y012579D01*
X019928Y012309D01*
X019928Y012355D02*
X019148Y012355D01*
X019148Y012401D02*
X019928Y012401D01*
X019928Y012447D02*
X019148Y012447D01*
X019148Y012493D02*
X019928Y012493D01*
X019928Y012539D02*
X019148Y012539D01*
X019148Y011915D02*
X019928Y011915D01*
X019148Y011915D02*
X019148Y012185D01*
X019928Y012185D01*
X019928Y011915D01*
X019928Y011961D02*
X019148Y011961D01*
X019148Y012007D02*
X019928Y012007D01*
X019928Y012053D02*
X019148Y012053D01*
X019148Y012099D02*
X019928Y012099D01*
X019928Y012145D02*
X019148Y012145D01*
X019148Y011521D02*
X019928Y011521D01*
X019148Y011521D02*
X019148Y011791D01*
X019928Y011791D01*
X019928Y011521D01*
X019928Y011567D02*
X019148Y011567D01*
X019148Y011613D02*
X019928Y011613D01*
X019928Y011659D02*
X019148Y011659D01*
X019148Y011705D02*
X019928Y011705D01*
X019928Y011751D02*
X019148Y011751D01*
D35*
X012679Y012233D02*
X012679Y012423D01*
X012679Y012233D02*
X012429Y012233D01*
X012429Y012423D01*
X012679Y012423D01*
X012679Y012279D02*
X012429Y012279D01*
X012429Y012325D02*
X012679Y012325D01*
X012679Y012371D02*
X012429Y012371D01*
X012429Y012417D02*
X012679Y012417D01*
X012679Y012548D02*
X012679Y012738D01*
X012679Y012548D02*
X012429Y012548D01*
X012429Y012738D01*
X012679Y012738D01*
X012679Y012594D02*
X012429Y012594D01*
X012429Y012640D02*
X012679Y012640D01*
X012679Y012686D02*
X012429Y012686D01*
X012429Y012732D02*
X012679Y012732D01*
X012679Y012862D02*
X012679Y013052D01*
X012679Y012862D02*
X012429Y012862D01*
X012429Y013052D01*
X012679Y013052D01*
X012679Y012908D02*
X012429Y012908D01*
X012429Y012954D02*
X012679Y012954D01*
X012679Y013000D02*
X012429Y013000D01*
X012429Y013046D02*
X012679Y013046D01*
X012679Y013177D02*
X012679Y013367D01*
X012679Y013177D02*
X012429Y013177D01*
X012429Y013367D01*
X012679Y013367D01*
X012679Y013223D02*
X012429Y013223D01*
X012429Y013269D02*
X012679Y013269D01*
X012679Y013315D02*
X012429Y013315D01*
X012429Y013361D02*
X012679Y013361D01*
X012147Y013367D02*
X012147Y013177D01*
X011897Y013177D01*
X011897Y013367D01*
X012147Y013367D01*
X012147Y013223D02*
X011897Y013223D01*
X011897Y013269D02*
X012147Y013269D01*
X012147Y013315D02*
X011897Y013315D01*
X011897Y013361D02*
X012147Y013361D01*
X012147Y013052D02*
X012147Y012862D01*
X011897Y012862D01*
X011897Y013052D01*
X012147Y013052D01*
X012147Y012908D02*
X011897Y012908D01*
X011897Y012954D02*
X012147Y012954D01*
X012147Y013000D02*
X011897Y013000D01*
X011897Y013046D02*
X012147Y013046D01*
X012147Y012738D02*
X012147Y012548D01*
X011897Y012548D01*
X011897Y012738D01*
X012147Y012738D01*
X012147Y012594D02*
X011897Y012594D01*
X011897Y012640D02*
X012147Y012640D01*
X012147Y012686D02*
X011897Y012686D01*
X011897Y012732D02*
X012147Y012732D01*
X012147Y012423D02*
X012147Y012233D01*
X011897Y012233D01*
X011897Y012423D01*
X012147Y012423D01*
X012147Y012279D02*
X011897Y012279D01*
X011897Y012325D02*
X012147Y012325D01*
X012147Y012371D02*
X011897Y012371D01*
X011897Y012417D02*
X012147Y012417D01*
X015897Y017983D02*
X015897Y018173D01*
X015897Y017983D02*
X015647Y017983D01*
X015647Y018173D01*
X015897Y018173D01*
X015897Y018029D02*
X015647Y018029D01*
X015647Y018075D02*
X015897Y018075D01*
X015897Y018121D02*
X015647Y018121D01*
X015647Y018167D02*
X015897Y018167D01*
X015897Y018298D02*
X015897Y018488D01*
X015897Y018298D02*
X015647Y018298D01*
X015647Y018488D01*
X015897Y018488D01*
X015897Y018344D02*
X015647Y018344D01*
X015647Y018390D02*
X015897Y018390D01*
X015897Y018436D02*
X015647Y018436D01*
X015647Y018482D02*
X015897Y018482D01*
X015897Y018612D02*
X015897Y018802D01*
X015897Y018612D02*
X015647Y018612D01*
X015647Y018802D01*
X015897Y018802D01*
X015897Y018658D02*
X015647Y018658D01*
X015647Y018704D02*
X015897Y018704D01*
X015897Y018750D02*
X015647Y018750D01*
X015647Y018796D02*
X015897Y018796D01*
X015897Y018927D02*
X015897Y019117D01*
X015897Y018927D02*
X015647Y018927D01*
X015647Y019117D01*
X015897Y019117D01*
X015897Y018973D02*
X015647Y018973D01*
X015647Y019019D02*
X015897Y019019D01*
X015897Y019065D02*
X015647Y019065D01*
X015647Y019111D02*
X015897Y019111D01*
X016429Y019117D02*
X016429Y018927D01*
X016179Y018927D01*
X016179Y019117D01*
X016429Y019117D01*
X016429Y018973D02*
X016179Y018973D01*
X016179Y019019D02*
X016429Y019019D01*
X016429Y019065D02*
X016179Y019065D01*
X016179Y019111D02*
X016429Y019111D01*
X016429Y018802D02*
X016429Y018612D01*
X016179Y018612D01*
X016179Y018802D01*
X016429Y018802D01*
X016429Y018658D02*
X016179Y018658D01*
X016179Y018704D02*
X016429Y018704D01*
X016429Y018750D02*
X016179Y018750D01*
X016179Y018796D02*
X016429Y018796D01*
X016429Y018488D02*
X016429Y018298D01*
X016179Y018298D01*
X016179Y018488D01*
X016429Y018488D01*
X016429Y018344D02*
X016179Y018344D01*
X016179Y018390D02*
X016429Y018390D01*
X016429Y018436D02*
X016179Y018436D01*
X016179Y018482D02*
X016429Y018482D01*
X016429Y018173D02*
X016429Y017983D01*
X016179Y017983D01*
X016179Y018173D01*
X016429Y018173D01*
X016429Y018029D02*
X016179Y018029D01*
X016179Y018075D02*
X016429Y018075D01*
X016429Y018121D02*
X016179Y018121D01*
X016179Y018167D02*
X016429Y018167D01*
X016179Y021233D02*
X016179Y021423D01*
X016429Y021423D01*
X016429Y021233D01*
X016179Y021233D01*
X016179Y021279D02*
X016429Y021279D01*
X016429Y021325D02*
X016179Y021325D01*
X016179Y021371D02*
X016429Y021371D01*
X016429Y021417D02*
X016179Y021417D01*
X016179Y021548D02*
X016179Y021738D01*
X016429Y021738D01*
X016429Y021548D01*
X016179Y021548D01*
X016179Y021594D02*
X016429Y021594D01*
X016429Y021640D02*
X016179Y021640D01*
X016179Y021686D02*
X016429Y021686D01*
X016429Y021732D02*
X016179Y021732D01*
X016179Y021862D02*
X016179Y022052D01*
X016429Y022052D01*
X016429Y021862D01*
X016179Y021862D01*
X016179Y021908D02*
X016429Y021908D01*
X016429Y021954D02*
X016179Y021954D01*
X016179Y022000D02*
X016429Y022000D01*
X016429Y022046D02*
X016179Y022046D01*
X016179Y022177D02*
X016179Y022367D01*
X016429Y022367D01*
X016429Y022177D01*
X016179Y022177D01*
X016179Y022223D02*
X016429Y022223D01*
X016429Y022269D02*
X016179Y022269D01*
X016179Y022315D02*
X016429Y022315D01*
X016429Y022361D02*
X016179Y022361D01*
X015647Y022367D02*
X015647Y022177D01*
X015647Y022367D02*
X015897Y022367D01*
X015897Y022177D01*
X015647Y022177D01*
X015647Y022223D02*
X015897Y022223D01*
X015897Y022269D02*
X015647Y022269D01*
X015647Y022315D02*
X015897Y022315D01*
X015897Y022361D02*
X015647Y022361D01*
X015647Y022052D02*
X015647Y021862D01*
X015647Y022052D02*
X015897Y022052D01*
X015897Y021862D01*
X015647Y021862D01*
X015647Y021908D02*
X015897Y021908D01*
X015897Y021954D02*
X015647Y021954D01*
X015647Y022000D02*
X015897Y022000D01*
X015897Y022046D02*
X015647Y022046D01*
X015647Y021738D02*
X015647Y021548D01*
X015647Y021738D02*
X015897Y021738D01*
X015897Y021548D01*
X015647Y021548D01*
X015647Y021594D02*
X015897Y021594D01*
X015897Y021640D02*
X015647Y021640D01*
X015647Y021686D02*
X015897Y021686D01*
X015897Y021732D02*
X015647Y021732D01*
X015647Y021423D02*
X015647Y021233D01*
X015647Y021423D02*
X015897Y021423D01*
X015897Y021233D01*
X015647Y021233D01*
X015647Y021279D02*
X015897Y021279D01*
X015897Y021325D02*
X015647Y021325D01*
X015647Y021371D02*
X015897Y021371D01*
X015897Y021417D02*
X015647Y021417D01*
X010179Y021362D02*
X010179Y021552D01*
X010179Y021362D02*
X009929Y021362D01*
X009929Y021552D01*
X010179Y021552D01*
X010179Y021408D02*
X009929Y021408D01*
X009929Y021454D02*
X010179Y021454D01*
X010179Y021500D02*
X009929Y021500D01*
X009929Y021546D02*
X010179Y021546D01*
X010179Y021677D02*
X010179Y021867D01*
X010179Y021677D02*
X009929Y021677D01*
X009929Y021867D01*
X010179Y021867D01*
X010179Y021723D02*
X009929Y021723D01*
X009929Y021769D02*
X010179Y021769D01*
X010179Y021815D02*
X009929Y021815D01*
X009929Y021861D02*
X010179Y021861D01*
X009647Y021867D02*
X009647Y021677D01*
X009397Y021677D01*
X009397Y021867D01*
X009647Y021867D01*
X009647Y021723D02*
X009397Y021723D01*
X009397Y021769D02*
X009647Y021769D01*
X009647Y021815D02*
X009397Y021815D01*
X009397Y021861D02*
X009647Y021861D01*
X009647Y021552D02*
X009647Y021362D01*
X009397Y021362D01*
X009397Y021552D01*
X009647Y021552D01*
X009647Y021408D02*
X009397Y021408D01*
X009397Y021454D02*
X009647Y021454D01*
X009647Y021500D02*
X009397Y021500D01*
X009397Y021546D02*
X009647Y021546D01*
X009647Y021238D02*
X009647Y021048D01*
X009397Y021048D01*
X009397Y021238D01*
X009647Y021238D01*
X009647Y021094D02*
X009397Y021094D01*
X009397Y021140D02*
X009647Y021140D01*
X009647Y021186D02*
X009397Y021186D01*
X009397Y021232D02*
X009647Y021232D01*
X010179Y021238D02*
X010179Y021048D01*
X009929Y021048D01*
X009929Y021238D01*
X010179Y021238D01*
X010179Y021094D02*
X009929Y021094D01*
X009929Y021140D02*
X010179Y021140D01*
X010179Y021186D02*
X009929Y021186D01*
X009929Y021232D02*
X010179Y021232D01*
X010179Y020923D02*
X010179Y020733D01*
X009929Y020733D01*
X009929Y020923D01*
X010179Y020923D01*
X010179Y020779D02*
X009929Y020779D01*
X009929Y020825D02*
X010179Y020825D01*
X010179Y020871D02*
X009929Y020871D01*
X009929Y020917D02*
X010179Y020917D01*
X009647Y020923D02*
X009647Y020733D01*
X009397Y020733D01*
X009397Y020923D01*
X009647Y020923D01*
X009647Y020779D02*
X009397Y020779D01*
X009397Y020825D02*
X009647Y020825D01*
X009647Y020871D02*
X009397Y020871D01*
X009397Y020917D02*
X009647Y020917D01*
X036397Y020862D02*
X036397Y021052D01*
X036647Y021052D01*
X036647Y020862D01*
X036397Y020862D01*
X036397Y020908D02*
X036647Y020908D01*
X036647Y020954D02*
X036397Y020954D01*
X036397Y021000D02*
X036647Y021000D01*
X036647Y021046D02*
X036397Y021046D01*
X036397Y021177D02*
X036397Y021367D01*
X036647Y021367D01*
X036647Y021177D01*
X036397Y021177D01*
X036397Y021223D02*
X036647Y021223D01*
X036647Y021269D02*
X036397Y021269D01*
X036397Y021315D02*
X036647Y021315D01*
X036647Y021361D02*
X036397Y021361D01*
X036929Y021367D02*
X036929Y021177D01*
X036929Y021367D02*
X037179Y021367D01*
X037179Y021177D01*
X036929Y021177D01*
X036929Y021223D02*
X037179Y021223D01*
X037179Y021269D02*
X036929Y021269D01*
X036929Y021315D02*
X037179Y021315D01*
X037179Y021361D02*
X036929Y021361D01*
X036929Y021052D02*
X036929Y020862D01*
X036929Y021052D02*
X037179Y021052D01*
X037179Y020862D01*
X036929Y020862D01*
X036929Y020908D02*
X037179Y020908D01*
X037179Y020954D02*
X036929Y020954D01*
X036929Y021000D02*
X037179Y021000D01*
X037179Y021046D02*
X036929Y021046D01*
X036929Y020738D02*
X036929Y020548D01*
X036929Y020738D02*
X037179Y020738D01*
X037179Y020548D01*
X036929Y020548D01*
X036929Y020594D02*
X037179Y020594D01*
X037179Y020640D02*
X036929Y020640D01*
X036929Y020686D02*
X037179Y020686D01*
X037179Y020732D02*
X036929Y020732D01*
X036397Y020738D02*
X036397Y020548D01*
X036397Y020738D02*
X036647Y020738D01*
X036647Y020548D01*
X036397Y020548D01*
X036397Y020594D02*
X036647Y020594D01*
X036647Y020640D02*
X036397Y020640D01*
X036397Y020686D02*
X036647Y020686D01*
X036647Y020732D02*
X036397Y020732D01*
X036397Y020423D02*
X036397Y020233D01*
X036397Y020423D02*
X036647Y020423D01*
X036647Y020233D01*
X036397Y020233D01*
X036397Y020279D02*
X036647Y020279D01*
X036647Y020325D02*
X036397Y020325D01*
X036397Y020371D02*
X036647Y020371D01*
X036647Y020417D02*
X036397Y020417D01*
X036929Y020423D02*
X036929Y020233D01*
X036929Y020423D02*
X037179Y020423D01*
X037179Y020233D01*
X036929Y020233D01*
X036929Y020279D02*
X037179Y020279D01*
X037179Y020325D02*
X036929Y020325D01*
X036929Y020371D02*
X037179Y020371D01*
X037179Y020417D02*
X036929Y020417D01*
D36*
X035375Y019245D02*
X035375Y018663D01*
X034873Y018663D01*
X034873Y019245D01*
X035375Y019245D01*
X035375Y018751D02*
X034873Y018751D01*
X034873Y018839D02*
X035375Y018839D01*
X035375Y018927D02*
X034873Y018927D01*
X034873Y019015D02*
X035375Y019015D01*
X035375Y019103D02*
X034873Y019103D01*
X034873Y019191D02*
X035375Y019191D01*
X033603Y019245D02*
X033603Y018663D01*
X033101Y018663D01*
X033101Y019245D01*
X033603Y019245D01*
X033603Y018751D02*
X033101Y018751D01*
X033101Y018839D02*
X033603Y018839D01*
X033603Y018927D02*
X033101Y018927D01*
X033101Y019015D02*
X033603Y019015D01*
X033603Y019103D02*
X033101Y019103D01*
X033101Y019191D02*
X033603Y019191D01*
X033603Y015937D02*
X033603Y015355D01*
X033101Y015355D01*
X033101Y015937D01*
X033603Y015937D01*
X033603Y015443D02*
X033101Y015443D01*
X033101Y015531D02*
X033603Y015531D01*
X033603Y015619D02*
X033101Y015619D01*
X033101Y015707D02*
X033603Y015707D01*
X033603Y015795D02*
X033101Y015795D01*
X033101Y015883D02*
X033603Y015883D01*
X034489Y015937D02*
X034489Y015355D01*
X033987Y015355D01*
X033987Y015937D01*
X034489Y015937D01*
X034489Y015443D02*
X033987Y015443D01*
X033987Y015531D02*
X034489Y015531D01*
X034489Y015619D02*
X033987Y015619D01*
X033987Y015707D02*
X034489Y015707D01*
X034489Y015795D02*
X033987Y015795D01*
X033987Y015883D02*
X034489Y015883D01*
X035375Y015937D02*
X035375Y015355D01*
X034873Y015355D01*
X034873Y015937D01*
X035375Y015937D01*
X035375Y015443D02*
X034873Y015443D01*
X034873Y015531D02*
X035375Y015531D01*
X035375Y015619D02*
X034873Y015619D01*
X034873Y015707D02*
X035375Y015707D01*
X035375Y015795D02*
X034873Y015795D01*
X034873Y015883D02*
X035375Y015883D01*
D37*
X019758Y013050D02*
X019318Y013050D01*
X019318Y011050D02*
X019758Y011050D01*
X013238Y018080D02*
X013238Y018520D01*
X011238Y018520D02*
X011238Y018080D01*
D38*
X015559Y016955D02*
X015769Y016955D01*
X015769Y016489D01*
X015559Y016489D01*
X015559Y016955D01*
X015559Y016534D02*
X015769Y016534D01*
X015769Y016579D02*
X015559Y016579D01*
X015559Y016624D02*
X015769Y016624D01*
X015769Y016669D02*
X015559Y016669D01*
X015559Y016714D02*
X015769Y016714D01*
X015769Y016759D02*
X015559Y016759D01*
X015559Y016804D02*
X015769Y016804D01*
X015769Y016849D02*
X015559Y016849D01*
X015559Y016894D02*
X015769Y016894D01*
X015769Y016939D02*
X015559Y016939D01*
X015933Y016955D02*
X016143Y016955D01*
X016143Y016489D01*
X015933Y016489D01*
X015933Y016955D01*
X015933Y016534D02*
X016143Y016534D01*
X016143Y016579D02*
X015933Y016579D01*
X015933Y016624D02*
X016143Y016624D01*
X016143Y016669D02*
X015933Y016669D01*
X015933Y016714D02*
X016143Y016714D01*
X016143Y016759D02*
X015933Y016759D01*
X015933Y016804D02*
X016143Y016804D01*
X016143Y016849D02*
X015933Y016849D01*
X015933Y016894D02*
X016143Y016894D01*
X016143Y016939D02*
X015933Y016939D01*
X016307Y016955D02*
X016517Y016955D01*
X016517Y016489D01*
X016307Y016489D01*
X016307Y016955D01*
X016307Y016534D02*
X016517Y016534D01*
X016517Y016579D02*
X016307Y016579D01*
X016307Y016624D02*
X016517Y016624D01*
X016517Y016669D02*
X016307Y016669D01*
X016307Y016714D02*
X016517Y016714D01*
X016517Y016759D02*
X016307Y016759D01*
X016307Y016804D02*
X016517Y016804D01*
X016517Y016849D02*
X016307Y016849D01*
X016307Y016894D02*
X016517Y016894D01*
X016517Y016939D02*
X016307Y016939D01*
X016307Y015931D02*
X016517Y015931D01*
X016517Y015465D01*
X016307Y015465D01*
X016307Y015931D01*
X016307Y015510D02*
X016517Y015510D01*
X016517Y015555D02*
X016307Y015555D01*
X016307Y015600D02*
X016517Y015600D01*
X016517Y015645D02*
X016307Y015645D01*
X016307Y015690D02*
X016517Y015690D01*
X016517Y015735D02*
X016307Y015735D01*
X016307Y015780D02*
X016517Y015780D01*
X016517Y015825D02*
X016307Y015825D01*
X016307Y015870D02*
X016517Y015870D01*
X016517Y015915D02*
X016307Y015915D01*
X015769Y015931D02*
X015559Y015931D01*
X015769Y015931D02*
X015769Y015465D01*
X015559Y015465D01*
X015559Y015931D01*
X015559Y015510D02*
X015769Y015510D01*
X015769Y015555D02*
X015559Y015555D01*
X015559Y015600D02*
X015769Y015600D01*
X015769Y015645D02*
X015559Y015645D01*
X015559Y015690D02*
X015769Y015690D01*
X015769Y015735D02*
X015559Y015735D01*
X015559Y015780D02*
X015769Y015780D01*
X015769Y015825D02*
X015559Y015825D01*
X015559Y015870D02*
X015769Y015870D01*
X015769Y015915D02*
X015559Y015915D01*
D39*
X015088Y015850D03*
X014488Y015200D03*
X012238Y014250D03*
X010238Y015000D03*
X008538Y014050D03*
X008288Y015050D03*
X007538Y015050D03*
X006788Y015050D03*
X006038Y015050D03*
X008538Y012550D03*
X008288Y011800D03*
X007538Y011800D03*
X006788Y011800D03*
X006038Y011800D03*
X010388Y011800D03*
X011538Y012300D03*
X014438Y012750D03*
X015188Y013450D03*
X017888Y012600D03*
X017738Y011900D03*
X015488Y010900D03*
X014738Y010900D03*
X017438Y010000D03*
X018688Y010300D03*
X016988Y008250D03*
X015188Y007650D03*
X014488Y009200D03*
X023485Y009553D03*
X024338Y009700D03*
X024988Y010286D03*
X024420Y010350D03*
X024488Y010850D03*
X024088Y008531D03*
X028288Y013650D03*
X028638Y014000D03*
X028888Y014450D03*
X028288Y014750D03*
X027888Y014350D03*
X028988Y015150D03*
X029841Y014174D03*
X032203Y014174D03*
X033638Y013350D03*
X034188Y013250D03*
X034688Y012950D03*
X035238Y013403D03*
X036488Y015700D03*
X036538Y017050D03*
X035738Y017200D03*
X033238Y016950D03*
X032738Y015700D03*
X028988Y017250D03*
X028788Y017750D03*
X028988Y018650D03*
X029898Y019740D03*
X027278Y019750D03*
X026988Y018850D03*
X026988Y018000D03*
X027038Y017300D03*
X027488Y016800D03*
X022838Y016300D03*
X022638Y017050D03*
X022788Y017600D03*
X022588Y018450D03*
X022838Y019450D03*
X020938Y020150D03*
X021038Y020650D03*
X021608Y021400D03*
X022238Y020750D03*
X022938Y021600D03*
X023188Y022050D03*
X023538Y022400D03*
X023888Y022750D03*
X024238Y023100D03*
X024588Y023450D03*
X024888Y022950D03*
X025238Y023300D03*
X025638Y023700D03*
X025988Y023350D03*
X026338Y023700D03*
X026538Y022850D03*
X026538Y022150D03*
X026788Y021600D03*
X027988Y022600D03*
X025488Y022850D03*
X024888Y022250D03*
X024438Y021800D03*
X022288Y022200D03*
X020638Y019500D03*
X017888Y019550D03*
X017438Y020750D03*
X017088Y021250D03*
X017188Y022350D03*
X014688Y023350D03*
X014338Y022650D03*
X012338Y022700D03*
X011713Y022675D03*
X013688Y021400D03*
X011838Y020950D03*
X011088Y020250D03*
X012638Y019900D03*
X011838Y019050D03*
X012238Y017650D03*
X012288Y016550D03*
X014538Y016750D03*
X016088Y017350D03*
X019888Y016000D03*
X020738Y015800D03*
X021138Y016200D03*
X022588Y015350D03*
X021088Y014650D03*
X020088Y014650D03*
X020688Y017650D03*
X021188Y017650D03*
X020138Y017806D03*
X009838Y017700D03*
X008538Y017800D03*
X008838Y023100D03*
X013732Y026300D03*
X016138Y024350D03*
X017038Y024700D03*
X024488Y024950D03*
X024988Y024850D03*
X028688Y024700D03*
X030738Y024950D03*
X031338Y024950D03*
X031082Y026550D03*
X035548Y025120D03*
X036588Y024700D03*
X037088Y021700D03*
X037888Y021700D03*
X039538Y021500D03*
X036038Y021650D03*
X034944Y021506D03*
X033578Y020360D03*
X032731Y018937D03*
X036538Y018950D03*
X044332Y018800D03*
X039588Y014550D03*
X044332Y012800D03*
X036938Y009750D03*
X035988Y009750D03*
X034888Y010300D03*
X034138Y010600D03*
D40*
X033388Y013850D03*
M02*
