%
M48
M72
T01C0.0160
T02C0.0240
T03C0.0374
T04C0.0400
T05C0.0866
T06C0.1260
T07C0.1300
%
T01
X15188Y7650
X16988Y8250
X14488Y9200
X17438Y10000
X18688Y10300
X17738Y11900
X17888Y12600
X15188Y13450
X14438Y12750
X12238Y14250
X10238Y15000
X8538Y14050
X8288Y15050
X7538Y15050
X6788Y15050
X6038Y15050
X8538Y12550
X8288Y11800
X7538Y11800
X6788Y11800
X6038Y11800
X10388Y11800
X11538Y12300
X14738Y10900
X15488Y10900
X20088Y14650
X21088Y14650
X22588Y15350
X22838Y16300
X22638Y17050
X22788Y17600
X22588Y18450
X22838Y19450
X20938Y20150
X21038Y20650
X21608Y21400
X22238Y20750
X22938Y21600
X23188Y22050
X23538Y22400
X23888Y22750
X24238Y23100
X24588Y23450
X24888Y22950
X25238Y23300
X25638Y23700
X25988Y23350
X26338Y23700
X26538Y22850
X26538Y22150
X26788Y21600
X27988Y22600
X25488Y22850
X24888Y22250
X24438Y21800
X22288Y22200
X20638Y19500
X17888Y19550
X17438Y20750
X17088Y21250
X17188Y22350
X14688Y23350
X14338Y22650
X12338Y22700
X11713Y22675
X13688Y21400
X11838Y20950
X11088Y20250
X12638Y19900
X11838Y19050
X12238Y17650
X12288Y16550
X14538Y16750
X15088Y15850
X14488Y15200
X16088Y17350
X19888Y16000
X20738Y15800
X21138Y16200
X21188Y17650
X20688Y17650
X20138Y17806
X26988Y18000
X27038Y17300
X27488Y16800
X28988Y17250
X28788Y17750
X28988Y18650
X29898Y19740
X27278Y19750
X26988Y18850
X32731Y18937
X33578Y20360
X34944Y21506
X36038Y21650
X37088Y21700
X37888Y21700
X39538Y21500
X36538Y18950
X35738Y17200
X36538Y17050
X36488Y15700
X39588Y14550
X35238Y13403
X34688Y12950
X34188Y13250
X33638Y13350
X33388Y13850
X32203Y14174
X29841Y14174
X28888Y14450
X28288Y14750
X27888Y14350
X28638Y14000
X28288Y13650
X28988Y15150
X32738Y15700
X33238Y16950
X44332Y18800
X44332Y12800
X36938Y9750
X35988Y9750
X34888Y10300
X34138Y10600
X24988Y10286
X24420Y10350
X24488Y10850
X24338Y9700
X23485Y9553
X24088Y8531
X9838Y17700
X8538Y17800
X8838Y23100
X13732Y26300
X16138Y24350
X17038Y24700
X24488Y24950
X24988Y24850
X28688Y24700
X30738Y24950
X31338Y24950
X31082Y26550
X35548Y25120
X36588Y24700
T02
X19538Y13050
X19538Y11050
X13238Y18300
X11238Y18300
T03
X8392Y20808
X7605Y20808
X7605Y21792
X8392Y21792
T04
X11238Y24000
X12238Y24000
X13238Y24000
X13238Y25000
X12238Y25000
X11238Y25000
X14438Y26300
X15438Y26300
X16438Y26300
X17438Y26300
X18438Y26300
X19438Y26300
X20438Y26300
X21438Y26300
X23038Y26300
X24038Y26300
X25038Y26300
X26038Y26300
X27038Y26300
X28038Y26300
X29038Y26300
X30038Y26300
X32038Y26300
X33038Y26300
X34038Y26300
X35038Y26300
X36038Y26300
X37038Y26300
X38038Y26300
X39038Y26300
X42038Y26300
X43038Y26300
X43038Y25300
X42038Y25300
X42038Y24300
X43038Y24300
X43038Y23300
X42038Y23300
X42038Y22300
X43038Y22300
X43038Y21300
X42038Y21300
X42038Y20300
X43038Y20300
X43038Y19300
X42038Y19300
X42038Y18300
X43038Y18300
X43038Y17300
X42038Y17300
X42038Y16300
X43038Y16300
X43038Y15300
X42038Y15300
X42038Y14300
X43038Y14300
X43038Y13300
X42038Y13300
X42038Y12300
X43038Y12300
X43038Y11300
X42038Y11300
X42038Y10300
X43038Y10300
X43038Y9300
X42038Y9300
X41038Y7300
X40038Y7300
X39038Y7300
X38038Y7300
X37038Y7300
X36038Y7300
X35038Y7300
X34038Y7300
X32038Y7300
X31038Y7300
X30038Y7300
X29038Y7300
X28038Y7300
X27038Y7300
X26038Y7300
X25038Y7300
X23038Y7300
X22038Y7300
X21038Y7300
X20038Y7300
X19038Y7300
X18038Y7300
X30088Y16300
X31088Y16300
X31088Y17300
X30088Y17300
X30088Y18300
X31088Y18300
T05
X6538Y18938
X6538Y23662
T06
X10538Y7300
X31038Y9300
X43038Y7300
X31038Y20300
X40538Y26300
X11038Y26300
T07
X9638Y9570
X7278Y9570
X8458Y7600
M30
