G75*
G70*
%OFA0B0*%
%FSLAX24Y24*%
%IPPOS*%
%LPD*%
%AMOC8*
5,1,8,0,0,1.08239X$1,22.5*
%
%ADD10C,0.1300*%
%ADD11OC8,0.0640*%
%ADD12C,0.0640*%
%ADD13OC8,0.1940*%
%ADD14OC8,0.0614*%
%ADD15C,0.1306*%
%ADD16C,0.0050*%
%ADD17R,0.0720X0.0060*%
%ADD18R,0.0060X0.0720*%
%ADD19C,0.0480*%
%ADD20OC8,0.0400*%
%ADD21C,0.0400*%
D10*
X010538Y007300D03*
X031038Y009300D03*
X043038Y007300D03*
X031038Y020300D03*
X040538Y026300D03*
X011038Y026300D03*
D11*
X011238Y025000D03*
X012238Y025000D03*
X013238Y025000D03*
X013238Y024000D03*
X012238Y024000D03*
X011238Y024000D03*
X030088Y018300D03*
X031088Y018300D03*
X031088Y017300D03*
X030088Y017300D03*
X030088Y016300D03*
X031088Y016300D03*
X042038Y016300D03*
X043038Y016300D03*
X043038Y015300D03*
X042038Y015300D03*
X042038Y014300D03*
X043038Y014300D03*
X043038Y013300D03*
X042038Y013300D03*
X042038Y012300D03*
X043038Y012300D03*
X043038Y011300D03*
X042038Y011300D03*
X042038Y010300D03*
X043038Y010300D03*
X043038Y009300D03*
X042038Y009300D03*
X042038Y017300D03*
X043038Y017300D03*
X043038Y018300D03*
X042038Y018300D03*
X042038Y019300D03*
X043038Y019300D03*
X043038Y020300D03*
X042038Y020300D03*
X042038Y021300D03*
X043038Y021300D03*
X043038Y022300D03*
X042038Y022300D03*
X042038Y023300D03*
X043038Y023300D03*
X043038Y024300D03*
X042038Y024300D03*
X042038Y025300D03*
X043038Y025300D03*
X043038Y026300D03*
X042038Y026300D03*
D12*
X039038Y026600D02*
X039038Y026000D01*
X038038Y026000D02*
X038038Y026600D01*
X037038Y026600D02*
X037038Y026000D01*
X036038Y026000D02*
X036038Y026600D01*
X035038Y026600D02*
X035038Y026000D01*
X034038Y026000D02*
X034038Y026600D01*
X033038Y026600D02*
X033038Y026000D01*
X032038Y026000D02*
X032038Y026600D01*
X030038Y026600D02*
X030038Y026000D01*
X029038Y026000D02*
X029038Y026600D01*
X028038Y026600D02*
X028038Y026000D01*
X027038Y026000D02*
X027038Y026600D01*
X026038Y026600D02*
X026038Y026000D01*
X025038Y026000D02*
X025038Y026600D01*
X024038Y026600D02*
X024038Y026000D01*
X023038Y026000D02*
X023038Y026600D01*
X021438Y026600D02*
X021438Y026000D01*
X020438Y026000D02*
X020438Y026600D01*
X019438Y026600D02*
X019438Y026000D01*
X018438Y026000D02*
X018438Y026600D01*
X017438Y026600D02*
X017438Y026000D01*
X016438Y026000D02*
X016438Y026600D01*
X015438Y026600D02*
X015438Y026000D01*
X014438Y026000D02*
X014438Y026600D01*
X018038Y007600D02*
X018038Y007000D01*
X019038Y007000D02*
X019038Y007600D01*
X020038Y007600D02*
X020038Y007000D01*
X021038Y007000D02*
X021038Y007600D01*
X022038Y007600D02*
X022038Y007000D01*
X023038Y007000D02*
X023038Y007600D01*
X025038Y007600D02*
X025038Y007000D01*
X026038Y007000D02*
X026038Y007600D01*
X027038Y007600D02*
X027038Y007000D01*
X028038Y007000D02*
X028038Y007600D01*
X029038Y007600D02*
X029038Y007000D01*
X030038Y007000D02*
X030038Y007600D01*
X031038Y007600D02*
X031038Y007000D01*
X032038Y007000D02*
X032038Y007600D01*
X034038Y007600D02*
X034038Y007000D01*
X035038Y007000D02*
X035038Y007600D01*
X036038Y007600D02*
X036038Y007000D01*
X037038Y007000D02*
X037038Y007600D01*
X038038Y007600D02*
X038038Y007000D01*
X039038Y007000D02*
X039038Y007600D01*
X040038Y007600D02*
X040038Y007000D01*
X041038Y007000D02*
X041038Y007600D01*
D13*
X009638Y009570D03*
X007278Y009570D03*
X008458Y007600D03*
D14*
X008392Y020808D03*
X007605Y020808D03*
X007605Y021792D03*
X008392Y021792D03*
D15*
X006538Y023662D03*
X006538Y018938D03*
D16*
X008763Y018990D02*
X009213Y018990D01*
X008763Y018990D02*
X008763Y019610D01*
X009213Y019610D01*
X009213Y018990D01*
X009213Y019039D02*
X008763Y019039D01*
X008763Y019088D02*
X009213Y019088D01*
X009213Y019137D02*
X008763Y019137D01*
X008763Y019186D02*
X009213Y019186D01*
X009213Y019235D02*
X008763Y019235D01*
X008763Y019284D02*
X009213Y019284D01*
X009213Y019333D02*
X008763Y019333D01*
X008763Y019382D02*
X009213Y019382D01*
X009213Y019431D02*
X008763Y019431D01*
X008763Y019480D02*
X009213Y019480D01*
X009213Y019529D02*
X008763Y019529D01*
X008763Y019578D02*
X009213Y019578D01*
X009363Y018990D02*
X009813Y018990D01*
X009363Y018990D02*
X009363Y019610D01*
X009813Y019610D01*
X009813Y018990D01*
X009813Y019039D02*
X009363Y019039D01*
X009363Y019088D02*
X009813Y019088D01*
X009813Y019137D02*
X009363Y019137D01*
X009363Y019186D02*
X009813Y019186D01*
X009813Y019235D02*
X009363Y019235D01*
X009363Y019284D02*
X009813Y019284D01*
X009813Y019333D02*
X009363Y019333D01*
X009363Y019382D02*
X009813Y019382D01*
X009813Y019431D02*
X009363Y019431D01*
X009363Y019480D02*
X009813Y019480D01*
X009813Y019529D02*
X009363Y019529D01*
X009363Y019578D02*
X009813Y019578D01*
X013648Y021875D02*
X013648Y022325D01*
X013648Y021875D02*
X013028Y021875D01*
X013028Y022325D01*
X013648Y022325D01*
X013648Y021924D02*
X013028Y021924D01*
X013028Y021973D02*
X013648Y021973D01*
X013648Y022022D02*
X013028Y022022D01*
X013028Y022071D02*
X013648Y022071D01*
X013648Y022120D02*
X013028Y022120D01*
X013028Y022169D02*
X013648Y022169D01*
X013648Y022218D02*
X013028Y022218D01*
X013028Y022267D02*
X013648Y022267D01*
X013648Y022316D02*
X013028Y022316D01*
X013648Y022475D02*
X013648Y022925D01*
X013648Y022475D02*
X013028Y022475D01*
X013028Y022925D01*
X013648Y022925D01*
X013648Y022524D02*
X013028Y022524D01*
X013028Y022573D02*
X013648Y022573D01*
X013648Y022622D02*
X013028Y022622D01*
X013028Y022671D02*
X013648Y022671D01*
X013648Y022720D02*
X013028Y022720D01*
X013028Y022769D02*
X013648Y022769D01*
X013648Y022818D02*
X013028Y022818D01*
X013028Y022867D02*
X013648Y022867D01*
X013648Y022916D02*
X013028Y022916D01*
D17*
X013338Y022400D03*
D18*
X009288Y019300D03*
D19*
X011238Y018520D02*
X011238Y018080D01*
X013238Y018080D02*
X013238Y018520D01*
X019318Y013050D02*
X019758Y013050D01*
X019758Y011050D02*
X019318Y011050D01*
D20*
X018688Y010300D03*
X017438Y010000D03*
X015488Y010900D03*
X014738Y010900D03*
X014488Y009200D03*
X016988Y008250D03*
X015188Y007650D03*
X017738Y011900D03*
X017888Y012600D03*
X015188Y013450D03*
X014438Y012750D03*
X012238Y014250D03*
X010238Y015000D03*
X008538Y014050D03*
X008288Y015050D03*
X007538Y015050D03*
X006788Y015050D03*
X006038Y015050D03*
X008538Y012550D03*
X008288Y011800D03*
X007538Y011800D03*
X006788Y011800D03*
X006038Y011800D03*
X010388Y011800D03*
X011538Y012300D03*
X014488Y015200D03*
X015088Y015850D03*
X014538Y016750D03*
X016088Y017350D03*
X012238Y017650D03*
X012288Y016550D03*
X009838Y017700D03*
X008538Y017800D03*
X011838Y019050D03*
X012638Y019900D03*
X011088Y020250D03*
X011838Y020950D03*
X013688Y021400D03*
X014338Y022650D03*
X014688Y023350D03*
X016138Y024350D03*
X017038Y024700D03*
X013732Y026300D03*
X008838Y023100D03*
X011713Y022675D03*
X012338Y022700D03*
X017188Y022350D03*
X017088Y021250D03*
X017438Y020750D03*
X017888Y019550D03*
X020638Y019500D03*
X020938Y020150D03*
X021038Y020650D03*
X021608Y021400D03*
X022238Y020750D03*
X022938Y021600D03*
X023188Y022050D03*
X023538Y022400D03*
X023888Y022750D03*
X024238Y023100D03*
X024588Y023450D03*
X024888Y022950D03*
X025238Y023300D03*
X025638Y023700D03*
X025988Y023350D03*
X026338Y023700D03*
X026538Y022850D03*
X026538Y022150D03*
X026788Y021600D03*
X027988Y022600D03*
X025488Y022850D03*
X024888Y022250D03*
X024438Y021800D03*
X022288Y022200D03*
X024988Y024850D03*
X024488Y024950D03*
X028688Y024700D03*
X030738Y024950D03*
X031338Y024950D03*
X031082Y026550D03*
X035548Y025120D03*
X036588Y024700D03*
X037088Y021700D03*
X037888Y021700D03*
X039538Y021500D03*
X036038Y021650D03*
X034944Y021506D03*
X033578Y020360D03*
X032731Y018937D03*
X029898Y019740D03*
X028988Y018650D03*
X028788Y017750D03*
X028988Y017250D03*
X027488Y016800D03*
X027038Y017300D03*
X026988Y018000D03*
X026988Y018850D03*
X027278Y019750D03*
X022838Y019450D03*
X022588Y018450D03*
X022788Y017600D03*
X022638Y017050D03*
X022838Y016300D03*
X022588Y015350D03*
X021088Y014650D03*
X020088Y014650D03*
X020738Y015800D03*
X021138Y016200D03*
X019888Y016000D03*
X020688Y017650D03*
X021188Y017650D03*
X020138Y017806D03*
X027888Y014350D03*
X028288Y014750D03*
X028888Y014450D03*
X028638Y014000D03*
X028288Y013650D03*
X029841Y014174D03*
X028988Y015150D03*
X032203Y014174D03*
X033638Y013350D03*
X034188Y013250D03*
X034688Y012950D03*
X035238Y013403D03*
X036488Y015700D03*
X036538Y017050D03*
X035738Y017200D03*
X033238Y016950D03*
X032738Y015700D03*
X036538Y018950D03*
X044332Y018800D03*
X039588Y014550D03*
X044332Y012800D03*
X036938Y009750D03*
X035988Y009750D03*
X034888Y010300D03*
X034138Y010600D03*
X024988Y010286D03*
X024420Y010350D03*
X024488Y010850D03*
X024338Y009700D03*
X023485Y009553D03*
X024088Y008531D03*
D21*
X033388Y013850D03*
M02*
