G75*
G70*
%OFA0B0*%
%FSLAX24Y24*%
%IPPOS*%
%LPD*%
%AMOC8*
5,1,8,0,0,1.08239X$1,22.5*
%
%ADD10C,0.0110*%
%ADD11OC8,0.0740*%
%ADD12C,0.0740*%
%ADD13C,0.1310*%
%ADD14C,0.0400*%
%ADD15C,0.0100*%
%ADD16C,0.0320*%
D10*
X002424Y008834D02*
X002424Y009228D01*
X002424Y009031D02*
X001834Y009031D01*
X002031Y009228D01*
X002424Y009479D02*
X002424Y009872D01*
X002424Y009675D02*
X001834Y009675D01*
X002031Y009872D01*
X002129Y010123D02*
X002129Y010517D01*
X001932Y010768D02*
X002326Y011161D01*
X002424Y011063D01*
X002424Y010866D01*
X002326Y010768D01*
X001932Y010768D01*
X001834Y010866D01*
X001834Y011063D01*
X001932Y011161D01*
X002326Y011161D01*
X002424Y011412D02*
X002424Y011806D01*
X002424Y011609D02*
X001834Y011609D01*
X002031Y011806D01*
X002129Y012057D02*
X002129Y012450D01*
X002031Y012701D02*
X002129Y012800D01*
X002129Y012997D01*
X002031Y013095D01*
X001932Y013095D01*
X001834Y012997D01*
X001834Y012800D01*
X001932Y012701D01*
X002031Y012701D01*
X002129Y012800D02*
X002227Y012701D01*
X002326Y012701D01*
X002424Y012800D01*
X002424Y012997D01*
X002326Y013095D01*
X002227Y013095D01*
X002129Y012997D01*
D11*
X026029Y012500D03*
X027029Y012500D03*
X027029Y011500D03*
X026029Y011500D03*
X026029Y010500D03*
X027029Y010500D03*
X037979Y010500D03*
X038979Y010500D03*
X038979Y009500D03*
X037979Y009500D03*
X037979Y008500D03*
X038979Y008500D03*
X038979Y007500D03*
X037979Y007500D03*
X037979Y006500D03*
X038979Y006500D03*
X038979Y005500D03*
X037979Y005500D03*
X037979Y004500D03*
X038979Y004500D03*
X038979Y011500D03*
X037979Y011500D03*
X037979Y012500D03*
X038979Y012500D03*
X038979Y013500D03*
X037979Y013500D03*
X037979Y014500D03*
X038979Y014500D03*
X038979Y015500D03*
X037979Y015500D03*
X037979Y016500D03*
X038979Y016500D03*
X038979Y017500D03*
X037979Y017500D03*
X037979Y018500D03*
X038979Y018500D03*
X038979Y019500D03*
X037979Y019500D03*
D12*
X037979Y020500D03*
X038979Y020500D03*
X034979Y020500D03*
X033979Y020500D03*
X032979Y020500D03*
X031979Y020500D03*
X030979Y020500D03*
X029979Y020500D03*
X028979Y020500D03*
X027979Y020500D03*
X025979Y020500D03*
X024979Y020500D03*
X023979Y020500D03*
X022979Y020500D03*
X021979Y020500D03*
X020979Y020500D03*
X019979Y020500D03*
X018979Y020500D03*
X017379Y020500D03*
X016379Y020500D03*
X015379Y020500D03*
X014379Y020500D03*
X013379Y020500D03*
X012379Y020500D03*
X011379Y020500D03*
X010379Y020500D03*
X005479Y005000D03*
X005479Y004000D03*
X013979Y001500D03*
X014979Y001500D03*
X015979Y001500D03*
X016979Y001500D03*
X017979Y001500D03*
X018979Y001500D03*
X020979Y001500D03*
X021979Y001500D03*
X022979Y001500D03*
X023979Y001500D03*
X024979Y001500D03*
X025979Y001500D03*
X026979Y001500D03*
X027979Y001500D03*
X029979Y001500D03*
X030979Y001500D03*
X031979Y001500D03*
X032979Y001500D03*
X033979Y001500D03*
X034979Y001500D03*
X035979Y001500D03*
X036979Y001500D03*
X037979Y003500D03*
X038979Y003500D03*
D13*
X004479Y008415D03*
X004479Y013585D03*
D14*
X005629Y014200D03*
X004929Y015500D03*
X007579Y013850D03*
X008529Y013900D03*
X009279Y013950D03*
X007529Y013250D03*
X006979Y012950D03*
X009329Y012150D03*
X011929Y013100D03*
X015179Y012150D03*
X015679Y011590D03*
X015629Y011050D03*
X017069Y010570D03*
X017029Y009750D03*
X017029Y009200D03*
X014979Y009450D03*
X014479Y009650D03*
X012329Y008050D03*
X013529Y007500D03*
X013599Y006650D03*
X015209Y007400D03*
X015229Y007950D03*
X016729Y006950D03*
X014469Y005350D03*
X013729Y005250D03*
X015479Y005200D03*
X017859Y004860D03*
X017979Y003500D03*
X017479Y003500D03*
X016979Y003500D03*
X016479Y003500D03*
X014539Y002510D03*
X013309Y003200D03*
X012929Y001430D03*
X011969Y001400D03*
X009229Y004250D03*
X008729Y004250D03*
X008729Y004750D03*
X009229Y004750D03*
X010549Y005200D03*
X010709Y006520D03*
X010329Y010000D03*
X016679Y014640D03*
X016689Y015270D03*
X016979Y016500D03*
X017479Y016500D03*
X017479Y017000D03*
X017709Y017500D03*
X018189Y017780D03*
X018629Y017500D03*
X019059Y017800D03*
X019479Y017500D03*
X019629Y017000D03*
X019979Y016600D03*
X020379Y017000D03*
X020729Y016600D03*
X021129Y017000D03*
X021479Y016600D03*
X021929Y017000D03*
X022529Y017000D03*
X023079Y017000D03*
X023729Y017000D03*
X023729Y018500D03*
X023079Y018500D03*
X021919Y018470D03*
X020929Y019020D03*
X015839Y019470D03*
X014789Y018420D03*
X012179Y015990D03*
X010279Y016400D03*
X009829Y015650D03*
X009129Y015650D03*
X008729Y016300D03*
X007929Y018150D03*
X008729Y019000D03*
X006579Y018550D03*
X005979Y020200D03*
X021629Y012200D03*
X021629Y011650D03*
X021559Y010960D03*
X021529Y010250D03*
X023979Y012000D03*
X024479Y012000D03*
X024959Y011710D03*
X024829Y010300D03*
X022659Y008110D03*
X025019Y007260D03*
X026029Y007250D03*
X030979Y007250D03*
X032479Y007000D03*
X032979Y006500D03*
X033479Y006500D03*
X033979Y006500D03*
X036179Y008950D03*
X034129Y013050D03*
X033479Y014650D03*
X035229Y014700D03*
X030209Y014010D03*
X028779Y014000D03*
X019469Y003230D03*
X004849Y003100D03*
X002489Y003090D03*
X001679Y003800D03*
D15*
X001189Y000710D02*
X001189Y021290D01*
X006796Y021290D01*
X006526Y021178D01*
X006301Y020953D01*
X006179Y020659D01*
X006179Y020518D01*
X006053Y020570D01*
X005906Y020570D01*
X005770Y020514D01*
X005666Y020410D01*
X005609Y020274D01*
X005609Y020126D01*
X005666Y019990D01*
X005770Y019886D01*
X005906Y019830D01*
X005959Y019830D01*
X005959Y014370D01*
X005943Y014410D01*
X005839Y014514D01*
X005703Y014570D01*
X005556Y014570D01*
X005420Y014514D01*
X005316Y014410D01*
X005259Y014274D01*
X005259Y014126D01*
X005299Y014030D01*
X005299Y013761D01*
X005179Y014052D01*
X004947Y014284D01*
X004643Y014410D01*
X004315Y014410D01*
X004012Y014284D01*
X003780Y014052D01*
X003654Y013749D01*
X003654Y013421D01*
X003780Y013118D01*
X004012Y012886D01*
X004315Y012760D01*
X004643Y012760D01*
X004947Y012886D01*
X005179Y013118D01*
X005299Y013409D01*
X005299Y009284D01*
X005350Y009163D01*
X007200Y007313D01*
X007292Y007220D01*
X007414Y007170D01*
X013359Y007170D01*
X013456Y007130D01*
X013603Y007130D01*
X013699Y007170D01*
X013843Y007170D01*
X015443Y005570D01*
X015406Y005570D01*
X015270Y005514D01*
X015176Y005420D01*
X014839Y005420D01*
X014839Y005424D01*
X014783Y005560D01*
X014679Y005664D01*
X014543Y005720D01*
X014396Y005720D01*
X014260Y005664D01*
X014156Y005560D01*
X014099Y005424D01*
X014099Y005276D01*
X014156Y005140D01*
X014260Y005036D01*
X014396Y004980D01*
X015176Y004980D01*
X015270Y004886D01*
X015406Y004830D01*
X015553Y004830D01*
X015649Y004870D01*
X015649Y001934D01*
X015522Y001806D01*
X015479Y001704D01*
X015437Y001806D01*
X015285Y001958D01*
X015087Y002040D01*
X014872Y002040D01*
X014786Y002004D01*
X013939Y002851D01*
X013939Y004937D01*
X014043Y005040D01*
X014099Y005176D01*
X014099Y005324D01*
X014043Y005460D01*
X013939Y005564D01*
X013803Y005620D01*
X013656Y005620D01*
X013520Y005564D01*
X013416Y005460D01*
X013359Y005324D01*
X013359Y005176D01*
X013416Y005040D01*
X013499Y004957D01*
X013499Y002669D01*
X013628Y002540D01*
X014158Y002011D01*
X014087Y002040D01*
X013872Y002040D01*
X013673Y001958D01*
X013522Y001806D01*
X013439Y001607D01*
X013439Y001393D01*
X013444Y001383D01*
X013283Y001543D01*
X013243Y001640D01*
X013139Y001744D01*
X013042Y001784D01*
X011069Y003757D01*
X011069Y005076D01*
X011019Y005197D01*
X010903Y005313D01*
X010863Y005410D01*
X010759Y005514D01*
X010623Y005570D01*
X010476Y005570D01*
X010340Y005514D01*
X010236Y005410D01*
X010179Y005274D01*
X010179Y005126D01*
X010236Y004990D01*
X010340Y004886D01*
X010409Y004858D01*
X010409Y003554D01*
X010460Y003433D01*
X010552Y003340D01*
X012576Y001317D01*
X012616Y001220D01*
X012720Y001116D01*
X012816Y001076D01*
X013183Y000710D01*
X006662Y000710D01*
X006932Y000822D01*
X007157Y001047D01*
X007279Y001341D01*
X007279Y001659D01*
X007227Y001786D01*
X007700Y001313D01*
X007792Y001220D01*
X007914Y001170D01*
X011676Y001170D01*
X011760Y001086D01*
X011896Y001030D01*
X012043Y001030D01*
X012179Y001086D01*
X012283Y001190D01*
X012339Y001326D01*
X012339Y001474D01*
X012283Y001610D01*
X012179Y001714D01*
X012082Y001754D01*
X012056Y001780D01*
X011935Y001830D01*
X008116Y001830D01*
X007166Y002780D01*
X007045Y002830D01*
X005914Y002830D01*
X005792Y002780D01*
X005700Y002687D01*
X004843Y001830D01*
X002116Y001830D01*
X002009Y001937D01*
X002009Y003630D01*
X002049Y003726D01*
X002049Y003874D01*
X001993Y004010D01*
X001889Y004114D01*
X001753Y004170D01*
X001606Y004170D01*
X001470Y004114D01*
X001366Y004010D01*
X001309Y003874D01*
X001309Y003726D01*
X001349Y003630D01*
X001349Y001866D01*
X001349Y001734D01*
X001400Y001613D01*
X001700Y001313D01*
X001792Y001220D01*
X001914Y001170D01*
X005045Y001170D01*
X005166Y001220D01*
X005732Y001786D01*
X005679Y001659D01*
X005679Y001341D01*
X005801Y001047D01*
X006026Y000822D01*
X006296Y000710D01*
X001189Y000710D01*
X001189Y000796D02*
X006090Y000796D01*
X005954Y000894D02*
X001189Y000894D01*
X001189Y000993D02*
X005856Y000993D01*
X005783Y001091D02*
X001189Y001091D01*
X001189Y001190D02*
X001867Y001190D01*
X001725Y001288D02*
X001189Y001288D01*
X001189Y001387D02*
X001626Y001387D01*
X001528Y001485D02*
X001189Y001485D01*
X001189Y001584D02*
X001429Y001584D01*
X001371Y001682D02*
X001189Y001682D01*
X001189Y001781D02*
X001349Y001781D01*
X001349Y001879D02*
X001189Y001879D01*
X001189Y001978D02*
X001349Y001978D01*
X001349Y002076D02*
X001189Y002076D01*
X001189Y002175D02*
X001349Y002175D01*
X001349Y002273D02*
X001189Y002273D01*
X001189Y002372D02*
X001349Y002372D01*
X001349Y002470D02*
X001189Y002470D01*
X001189Y002569D02*
X001349Y002569D01*
X001349Y002667D02*
X001189Y002667D01*
X001189Y002766D02*
X001349Y002766D01*
X001349Y002864D02*
X001189Y002864D01*
X001189Y002963D02*
X001349Y002963D01*
X001349Y003061D02*
X001189Y003061D01*
X001189Y003160D02*
X001349Y003160D01*
X001349Y003258D02*
X001189Y003258D01*
X001189Y003357D02*
X001349Y003357D01*
X001349Y003455D02*
X001189Y003455D01*
X001189Y003554D02*
X001349Y003554D01*
X001340Y003652D02*
X001189Y003652D01*
X001189Y003751D02*
X001309Y003751D01*
X001309Y003849D02*
X001189Y003849D01*
X001189Y003948D02*
X001340Y003948D01*
X001402Y004046D02*
X001189Y004046D01*
X001189Y004145D02*
X001544Y004145D01*
X001814Y004145D02*
X002029Y004145D01*
X001996Y004177D02*
X002156Y004017D01*
X002366Y003930D01*
X002593Y003930D01*
X002802Y004017D01*
X002963Y004177D01*
X003049Y004387D01*
X003049Y004613D01*
X002963Y004823D01*
X002802Y004983D01*
X002593Y005070D01*
X002366Y005070D01*
X002156Y004983D01*
X001996Y004823D01*
X001909Y004613D01*
X001909Y004387D01*
X001996Y004177D01*
X001969Y004243D02*
X001189Y004243D01*
X001189Y004342D02*
X001928Y004342D01*
X001909Y004440D02*
X001189Y004440D01*
X001189Y004539D02*
X001909Y004539D01*
X001919Y004637D02*
X001189Y004637D01*
X001189Y004736D02*
X001960Y004736D01*
X002007Y004834D02*
X001189Y004834D01*
X001189Y004933D02*
X002106Y004933D01*
X002272Y005031D02*
X001189Y005031D01*
X001189Y005130D02*
X004948Y005130D01*
X004939Y005107D02*
X004939Y004893D01*
X005022Y004694D01*
X005173Y004542D01*
X005302Y004489D01*
X005280Y004482D01*
X005207Y004445D01*
X005141Y004397D01*
X005083Y004339D01*
X005035Y004273D01*
X004997Y004200D01*
X004972Y004122D01*
X004961Y004050D01*
X005429Y004050D01*
X005429Y003950D01*
X004961Y003950D01*
X004972Y003878D01*
X004997Y003800D01*
X005035Y003727D01*
X005083Y003661D01*
X005141Y003603D01*
X005207Y003555D01*
X005280Y003518D01*
X005358Y003493D01*
X005429Y003481D01*
X005429Y003950D01*
X005529Y003950D01*
X005529Y003481D01*
X005601Y003493D01*
X005679Y003518D01*
X005752Y003555D01*
X005818Y003603D01*
X005876Y003661D01*
X005924Y003727D01*
X005961Y003800D01*
X005987Y003878D01*
X005998Y003950D01*
X005529Y003950D01*
X005529Y004050D01*
X005998Y004050D01*
X005987Y004122D01*
X005961Y004200D01*
X005924Y004273D01*
X005876Y004339D01*
X005818Y004397D01*
X005752Y004445D01*
X005679Y004482D01*
X005657Y004489D01*
X005785Y004542D01*
X005937Y004694D01*
X006019Y004893D01*
X006019Y005107D01*
X005937Y005306D01*
X005785Y005458D01*
X005587Y005540D01*
X005372Y005540D01*
X005173Y005458D01*
X005022Y005306D01*
X004939Y005107D01*
X004939Y005031D02*
X004487Y005031D01*
X004393Y005070D02*
X004166Y005070D01*
X003956Y004983D01*
X003796Y004823D01*
X003709Y004613D01*
X003709Y004387D01*
X003796Y004177D01*
X003956Y004017D01*
X004166Y003930D01*
X004393Y003930D01*
X004602Y004017D01*
X004763Y004177D01*
X004849Y004387D01*
X004849Y004613D01*
X004763Y004823D01*
X004602Y004983D01*
X004393Y005070D01*
X004653Y004933D02*
X004939Y004933D01*
X004964Y004834D02*
X004751Y004834D01*
X004799Y004736D02*
X005004Y004736D01*
X005079Y004637D02*
X004840Y004637D01*
X004849Y004539D02*
X005182Y004539D01*
X005200Y004440D02*
X004849Y004440D01*
X004831Y004342D02*
X005085Y004342D01*
X005020Y004243D02*
X004790Y004243D01*
X004730Y004145D02*
X004980Y004145D01*
X004961Y003948D02*
X004435Y003948D01*
X004631Y004046D02*
X005429Y004046D01*
X005429Y003948D02*
X005529Y003948D01*
X005529Y004046D02*
X010409Y004046D01*
X010409Y003948D02*
X005997Y003948D01*
X005977Y003849D02*
X010409Y003849D01*
X010409Y003751D02*
X005936Y003751D01*
X005867Y003652D02*
X010409Y003652D01*
X010410Y003554D02*
X005748Y003554D01*
X005529Y003554D02*
X005429Y003554D01*
X005429Y003652D02*
X005529Y003652D01*
X005529Y003751D02*
X005429Y003751D01*
X005429Y003849D02*
X005529Y003849D01*
X005210Y003554D02*
X002009Y003554D01*
X002019Y003652D02*
X005092Y003652D01*
X005023Y003751D02*
X002049Y003751D01*
X002049Y003849D02*
X004982Y003849D01*
X004124Y003948D02*
X002635Y003948D01*
X002831Y004046D02*
X003927Y004046D01*
X003829Y004145D02*
X002930Y004145D01*
X002990Y004243D02*
X003769Y004243D01*
X003728Y004342D02*
X003031Y004342D01*
X003049Y004440D02*
X003709Y004440D01*
X003709Y004539D02*
X003049Y004539D01*
X003040Y004637D02*
X003719Y004637D01*
X003760Y004736D02*
X002999Y004736D01*
X002951Y004834D02*
X003807Y004834D01*
X003906Y004933D02*
X002853Y004933D01*
X002687Y005031D02*
X004072Y005031D01*
X004989Y005228D02*
X001189Y005228D01*
X001189Y005327D02*
X005042Y005327D01*
X005141Y005425D02*
X001189Y005425D01*
X001189Y005524D02*
X005332Y005524D01*
X005627Y005524D02*
X010364Y005524D01*
X010251Y005425D02*
X005818Y005425D01*
X005916Y005327D02*
X010201Y005327D01*
X010179Y005228D02*
X005969Y005228D01*
X006010Y005130D02*
X010179Y005130D01*
X010219Y005031D02*
X006019Y005031D01*
X006019Y004933D02*
X010294Y004933D01*
X010409Y004834D02*
X005995Y004834D01*
X005954Y004736D02*
X010409Y004736D01*
X010409Y004637D02*
X005880Y004637D01*
X005776Y004539D02*
X010409Y004539D01*
X010409Y004440D02*
X005758Y004440D01*
X005873Y004342D02*
X010409Y004342D01*
X010409Y004243D02*
X005939Y004243D01*
X005979Y004145D02*
X010409Y004145D01*
X011069Y004145D02*
X013499Y004145D01*
X013499Y004243D02*
X011069Y004243D01*
X011069Y004342D02*
X013499Y004342D01*
X013499Y004440D02*
X011069Y004440D01*
X011069Y004539D02*
X013499Y004539D01*
X013499Y004637D02*
X011069Y004637D01*
X011069Y004736D02*
X013499Y004736D01*
X013499Y004834D02*
X011069Y004834D01*
X011069Y004933D02*
X013499Y004933D01*
X013425Y005031D02*
X011069Y005031D01*
X011047Y005130D02*
X013379Y005130D01*
X013359Y005228D02*
X010988Y005228D01*
X010897Y005327D02*
X013361Y005327D01*
X013401Y005425D02*
X010848Y005425D01*
X010735Y005524D02*
X013480Y005524D01*
X013979Y005524D02*
X014141Y005524D01*
X014100Y005425D02*
X014057Y005425D01*
X014098Y005327D02*
X014099Y005327D01*
X014099Y005228D02*
X014119Y005228D01*
X014080Y005130D02*
X014167Y005130D01*
X014273Y005031D02*
X014034Y005031D01*
X013939Y004933D02*
X015224Y004933D01*
X015396Y004834D02*
X013939Y004834D01*
X013939Y004736D02*
X015649Y004736D01*
X015649Y004834D02*
X015563Y004834D01*
X015649Y004637D02*
X013939Y004637D01*
X013939Y004539D02*
X015649Y004539D01*
X015649Y004440D02*
X013939Y004440D01*
X013939Y004342D02*
X015649Y004342D01*
X015649Y004243D02*
X013939Y004243D01*
X013939Y004145D02*
X015649Y004145D01*
X015649Y004046D02*
X013939Y004046D01*
X013939Y003948D02*
X015649Y003948D01*
X015649Y003849D02*
X013939Y003849D01*
X013939Y003751D02*
X015649Y003751D01*
X015649Y003652D02*
X013939Y003652D01*
X013939Y003554D02*
X015649Y003554D01*
X015649Y003455D02*
X013939Y003455D01*
X013939Y003357D02*
X015649Y003357D01*
X015649Y003258D02*
X013939Y003258D01*
X013939Y003160D02*
X015649Y003160D01*
X015649Y003061D02*
X013939Y003061D01*
X013939Y002963D02*
X015649Y002963D01*
X015649Y002864D02*
X013939Y002864D01*
X014025Y002766D02*
X015649Y002766D01*
X015649Y002667D02*
X014123Y002667D01*
X014222Y002569D02*
X015649Y002569D01*
X015649Y002470D02*
X014320Y002470D01*
X014419Y002372D02*
X015649Y002372D01*
X015649Y002273D02*
X014517Y002273D01*
X014616Y002175D02*
X015649Y002175D01*
X015649Y002076D02*
X014714Y002076D01*
X014092Y002076D02*
X012750Y002076D01*
X012652Y002175D02*
X013994Y002175D01*
X013895Y002273D02*
X012553Y002273D01*
X012455Y002372D02*
X013797Y002372D01*
X013698Y002470D02*
X012356Y002470D01*
X012258Y002569D02*
X013600Y002569D01*
X013501Y002667D02*
X012159Y002667D01*
X012061Y002766D02*
X013499Y002766D01*
X013499Y002864D02*
X011962Y002864D01*
X011864Y002963D02*
X013499Y002963D01*
X013499Y003061D02*
X011765Y003061D01*
X011667Y003160D02*
X013499Y003160D01*
X013499Y003258D02*
X011568Y003258D01*
X011470Y003357D02*
X013499Y003357D01*
X013499Y003455D02*
X011371Y003455D01*
X011273Y003554D02*
X013499Y003554D01*
X013499Y003652D02*
X011174Y003652D01*
X011076Y003751D02*
X013499Y003751D01*
X013499Y003849D02*
X011069Y003849D01*
X011069Y003948D02*
X013499Y003948D01*
X013499Y004046D02*
X011069Y004046D01*
X010450Y003455D02*
X002009Y003455D01*
X002009Y003357D02*
X010536Y003357D01*
X010552Y003340D02*
X010552Y003340D01*
X010635Y003258D02*
X002009Y003258D01*
X002009Y003160D02*
X010733Y003160D01*
X010832Y003061D02*
X002009Y003061D01*
X002009Y002963D02*
X010930Y002963D01*
X011029Y002864D02*
X002009Y002864D01*
X002009Y002766D02*
X005778Y002766D01*
X005680Y002667D02*
X002009Y002667D01*
X002009Y002569D02*
X005581Y002569D01*
X005483Y002470D02*
X002009Y002470D01*
X002009Y002372D02*
X005384Y002372D01*
X005286Y002273D02*
X002009Y002273D01*
X002009Y002175D02*
X005187Y002175D01*
X005089Y002076D02*
X002009Y002076D01*
X002009Y001978D02*
X004990Y001978D01*
X004892Y001879D02*
X002067Y001879D01*
X005092Y001190D02*
X005742Y001190D01*
X005701Y001288D02*
X005234Y001288D01*
X005333Y001387D02*
X005679Y001387D01*
X005679Y001485D02*
X005431Y001485D01*
X005530Y001584D02*
X005679Y001584D01*
X005689Y001682D02*
X005628Y001682D01*
X005727Y001781D02*
X005730Y001781D01*
X007229Y001781D02*
X007232Y001781D01*
X007270Y001682D02*
X007331Y001682D01*
X007279Y001584D02*
X007429Y001584D01*
X007528Y001485D02*
X007279Y001485D01*
X007279Y001387D02*
X007626Y001387D01*
X007725Y001288D02*
X007257Y001288D01*
X007217Y001190D02*
X007867Y001190D01*
X007176Y001091D02*
X011755Y001091D01*
X012184Y001091D02*
X012781Y001091D01*
X012900Y000993D02*
X007103Y000993D01*
X007005Y000894D02*
X012999Y000894D01*
X013097Y000796D02*
X006869Y000796D01*
X007969Y001978D02*
X011915Y001978D01*
X011817Y002076D02*
X007870Y002076D01*
X007772Y002175D02*
X011718Y002175D01*
X011620Y002273D02*
X007673Y002273D01*
X007575Y002372D02*
X011521Y002372D01*
X011423Y002470D02*
X007476Y002470D01*
X007378Y002569D02*
X011324Y002569D01*
X011226Y002667D02*
X007279Y002667D01*
X007181Y002766D02*
X011127Y002766D01*
X012014Y001879D02*
X008067Y001879D01*
X012054Y001781D02*
X012112Y001781D01*
X012211Y001682D02*
X012211Y001682D01*
X012294Y001584D02*
X012309Y001584D01*
X012335Y001485D02*
X012408Y001485D01*
X012339Y001387D02*
X012506Y001387D01*
X012588Y001288D02*
X012323Y001288D01*
X012282Y001190D02*
X012647Y001190D01*
X013266Y001584D02*
X013439Y001584D01*
X013439Y001485D02*
X013341Y001485D01*
X013440Y001387D02*
X013442Y001387D01*
X013470Y001682D02*
X013201Y001682D01*
X013050Y001781D02*
X013511Y001781D01*
X013595Y001879D02*
X012947Y001879D01*
X012849Y001978D02*
X013721Y001978D01*
X013719Y002760D02*
X014979Y001500D01*
X015364Y001879D02*
X015595Y001879D01*
X015649Y001978D02*
X015238Y001978D01*
X015448Y001781D02*
X015511Y001781D01*
X016309Y001934D02*
X016309Y003170D01*
X016406Y003130D01*
X016553Y003130D01*
X016689Y003186D01*
X016729Y003227D01*
X016770Y003186D01*
X016906Y003130D01*
X017053Y003130D01*
X017189Y003186D01*
X017229Y003227D01*
X017270Y003186D01*
X017406Y003130D01*
X017553Y003130D01*
X017689Y003186D01*
X017729Y003227D01*
X017770Y003186D01*
X017906Y003130D01*
X018053Y003130D01*
X018189Y003186D01*
X018293Y003290D01*
X018349Y003426D01*
X018349Y003574D01*
X018293Y003710D01*
X018189Y003814D01*
X018053Y003870D01*
X017970Y003870D01*
X017299Y004541D01*
X017299Y005869D01*
X017388Y005780D01*
X019586Y003582D01*
X019543Y003600D01*
X019396Y003600D01*
X019260Y003544D01*
X019156Y003440D01*
X019099Y003304D01*
X019099Y003156D01*
X019156Y003020D01*
X019260Y002916D01*
X019356Y002876D01*
X019839Y002393D01*
X019839Y001224D01*
X019890Y001103D01*
X019982Y001010D01*
X020283Y000710D01*
X018666Y000710D01*
X018916Y000960D01*
X019087Y000960D01*
X019285Y001042D01*
X019437Y001194D01*
X019519Y001393D01*
X019519Y001607D01*
X019437Y001806D01*
X019285Y001958D01*
X019087Y002040D01*
X018872Y002040D01*
X018673Y001958D01*
X018522Y001806D01*
X018468Y001678D01*
X018461Y001700D01*
X018424Y001773D01*
X018376Y001839D01*
X018318Y001897D01*
X018252Y001945D01*
X018179Y001982D01*
X018101Y002007D01*
X018029Y002019D01*
X018029Y001550D01*
X017929Y001550D01*
X017929Y001450D01*
X017461Y001450D01*
X017029Y001450D01*
X017029Y001550D01*
X016929Y001550D01*
X016929Y002019D01*
X016858Y002007D01*
X016780Y001982D01*
X016707Y001945D01*
X016641Y001897D01*
X016583Y001839D01*
X016535Y001773D01*
X016497Y001700D01*
X016490Y001678D01*
X016437Y001806D01*
X016309Y001934D01*
X016309Y001978D02*
X016771Y001978D01*
X016929Y001978D02*
X017029Y001978D01*
X017029Y002019D02*
X017029Y001550D01*
X017929Y001550D01*
X017929Y002019D01*
X017858Y002007D01*
X017780Y001982D01*
X017707Y001945D01*
X017641Y001897D01*
X017583Y001839D01*
X017535Y001773D01*
X017497Y001700D01*
X017479Y001644D01*
X017461Y001700D01*
X017424Y001773D01*
X017376Y001839D01*
X017318Y001897D01*
X017252Y001945D01*
X017179Y001982D01*
X017101Y002007D01*
X017029Y002019D01*
X017029Y001879D02*
X016929Y001879D01*
X016929Y001781D02*
X017029Y001781D01*
X017029Y001682D02*
X016929Y001682D01*
X016929Y001584D02*
X017029Y001584D01*
X017029Y001485D02*
X017929Y001485D01*
X017929Y001584D02*
X018029Y001584D01*
X018029Y001682D02*
X017929Y001682D01*
X017929Y001781D02*
X018029Y001781D01*
X018029Y001879D02*
X017929Y001879D01*
X017929Y001978D02*
X018029Y001978D01*
X018188Y001978D02*
X018721Y001978D01*
X018595Y001879D02*
X018336Y001879D01*
X018418Y001781D02*
X018511Y001781D01*
X018470Y001682D02*
X018467Y001682D01*
X017771Y001978D02*
X017188Y001978D01*
X017336Y001879D02*
X017623Y001879D01*
X017540Y001781D02*
X017418Y001781D01*
X017467Y001682D02*
X017492Y001682D01*
X016623Y001879D02*
X016364Y001879D01*
X016448Y001781D02*
X016540Y001781D01*
X016492Y001682D02*
X016488Y001682D01*
X016309Y002076D02*
X019839Y002076D01*
X019839Y001978D02*
X019238Y001978D01*
X019364Y001879D02*
X019839Y001879D01*
X019839Y001781D02*
X019448Y001781D01*
X019488Y001682D02*
X019839Y001682D01*
X019839Y001584D02*
X019519Y001584D01*
X019519Y001485D02*
X019839Y001485D01*
X019839Y001387D02*
X019517Y001387D01*
X019476Y001288D02*
X019839Y001288D01*
X019854Y001190D02*
X019433Y001190D01*
X019334Y001091D02*
X019902Y001091D01*
X020000Y000993D02*
X019165Y000993D01*
X018850Y000894D02*
X020099Y000894D01*
X020197Y000796D02*
X018752Y000796D01*
X019839Y002175D02*
X016309Y002175D01*
X016309Y002273D02*
X019839Y002273D01*
X019839Y002372D02*
X016309Y002372D01*
X016309Y002470D02*
X019763Y002470D01*
X019664Y002569D02*
X016309Y002569D01*
X016309Y002667D02*
X019566Y002667D01*
X019467Y002766D02*
X016309Y002766D01*
X016309Y002864D02*
X019369Y002864D01*
X019214Y002963D02*
X016309Y002963D01*
X016309Y003061D02*
X019139Y003061D01*
X019099Y003160D02*
X018124Y003160D01*
X018261Y003258D02*
X019099Y003258D01*
X019121Y003357D02*
X018320Y003357D01*
X018349Y003455D02*
X019171Y003455D01*
X019283Y003554D02*
X018349Y003554D01*
X018317Y003652D02*
X019516Y003652D01*
X019418Y003751D02*
X018252Y003751D01*
X018104Y003849D02*
X019319Y003849D01*
X019221Y003948D02*
X017893Y003948D01*
X017794Y004046D02*
X019122Y004046D01*
X019024Y004145D02*
X017696Y004145D01*
X017597Y004243D02*
X018925Y004243D01*
X018827Y004342D02*
X017499Y004342D01*
X017400Y004440D02*
X018728Y004440D01*
X018630Y004539D02*
X017302Y004539D01*
X017299Y004637D02*
X018531Y004637D01*
X018433Y004736D02*
X017299Y004736D01*
X017299Y004834D02*
X018334Y004834D01*
X018236Y004933D02*
X017299Y004933D01*
X017299Y005031D02*
X018137Y005031D01*
X018039Y005130D02*
X017299Y005130D01*
X017299Y005228D02*
X017940Y005228D01*
X017842Y005327D02*
X017299Y005327D01*
X017299Y005425D02*
X017743Y005425D01*
X017645Y005524D02*
X017299Y005524D01*
X017299Y005622D02*
X017546Y005622D01*
X017448Y005721D02*
X017299Y005721D01*
X017299Y005819D02*
X017349Y005819D01*
X017479Y006000D02*
X017479Y016000D01*
X016979Y016500D01*
X016479Y016500D02*
X017279Y015700D01*
X017279Y010780D01*
X017069Y010570D01*
X016729Y011050D02*
X015629Y011050D01*
X015868Y011335D02*
X016703Y011335D01*
X016638Y011270D02*
X015933Y011270D01*
X015839Y011364D01*
X015703Y011420D01*
X015556Y011420D01*
X015449Y011376D01*
X015449Y011609D01*
X015670Y011830D01*
X015799Y011959D01*
X015799Y014991D01*
X013570Y017220D01*
X009888Y017220D01*
X009759Y017091D01*
X009082Y016414D01*
X009043Y016510D01*
X008939Y016614D01*
X008803Y016670D01*
X008656Y016670D01*
X008520Y016614D01*
X008416Y016510D01*
X008359Y016374D01*
X008359Y016241D01*
X008309Y016191D01*
X008309Y014203D01*
X008216Y014110D01*
X008159Y013974D01*
X008159Y013826D01*
X008216Y013690D01*
X008320Y013586D01*
X008456Y013530D01*
X008548Y013530D01*
X008238Y013220D01*
X007899Y013220D01*
X007899Y013324D01*
X007843Y013460D01*
X007773Y013530D01*
X007789Y013536D01*
X007893Y013640D01*
X007949Y013776D01*
X007949Y013924D01*
X007893Y014060D01*
X007789Y014164D01*
X007699Y014201D01*
X007699Y018509D01*
X008320Y019130D01*
X008383Y019130D01*
X008359Y019074D01*
X008359Y018926D01*
X008416Y018790D01*
X008520Y018686D01*
X008656Y018630D01*
X008788Y018630D01*
X008888Y018530D01*
X014434Y018530D01*
X014419Y018494D01*
X014419Y018346D01*
X014476Y018210D01*
X014580Y018106D01*
X014716Y018050D01*
X014848Y018050D01*
X015709Y017189D01*
X015709Y015959D01*
X015838Y015830D01*
X016321Y015347D01*
X016319Y015344D01*
X016319Y015196D01*
X016376Y015060D01*
X016480Y014956D01*
X016616Y014900D01*
X016763Y014900D01*
X016809Y014919D01*
X016809Y011441D01*
X016638Y011270D01*
X016802Y011434D02*
X015449Y011434D01*
X015449Y011532D02*
X016809Y011532D01*
X016809Y011631D02*
X015471Y011631D01*
X015569Y011729D02*
X016809Y011729D01*
X016809Y011828D02*
X015668Y011828D01*
X015766Y011926D02*
X016809Y011926D01*
X016809Y012025D02*
X015799Y012025D01*
X015799Y012123D02*
X016809Y012123D01*
X016809Y012222D02*
X015799Y012222D01*
X015799Y012320D02*
X016809Y012320D01*
X016809Y012419D02*
X015799Y012419D01*
X015799Y012517D02*
X016809Y012517D01*
X016809Y012616D02*
X015799Y012616D01*
X015799Y012714D02*
X016809Y012714D01*
X016809Y012813D02*
X015799Y012813D01*
X015799Y012911D02*
X016809Y012911D01*
X016809Y013010D02*
X015799Y013010D01*
X015799Y013108D02*
X016809Y013108D01*
X016809Y013207D02*
X015799Y013207D01*
X015799Y013305D02*
X016809Y013305D01*
X016809Y013404D02*
X015799Y013404D01*
X015799Y013502D02*
X016809Y013502D01*
X016809Y013601D02*
X015799Y013601D01*
X015799Y013699D02*
X016809Y013699D01*
X016809Y013798D02*
X015799Y013798D01*
X015799Y013896D02*
X016809Y013896D01*
X016809Y013995D02*
X015799Y013995D01*
X015799Y014093D02*
X016809Y014093D01*
X016809Y014192D02*
X015799Y014192D01*
X015799Y014290D02*
X016809Y014290D01*
X016809Y014389D02*
X015799Y014389D01*
X015799Y014487D02*
X016809Y014487D01*
X016809Y014586D02*
X015799Y014586D01*
X015799Y014684D02*
X016809Y014684D01*
X016809Y014783D02*
X015799Y014783D01*
X015799Y014881D02*
X016809Y014881D01*
X016457Y014980D02*
X015799Y014980D01*
X015712Y015078D02*
X016368Y015078D01*
X016328Y015177D02*
X015614Y015177D01*
X015515Y015275D02*
X016319Y015275D01*
X016295Y015374D02*
X015417Y015374D01*
X015318Y015472D02*
X016196Y015472D01*
X016098Y015571D02*
X015220Y015571D01*
X015121Y015669D02*
X015999Y015669D01*
X015901Y015768D02*
X015023Y015768D01*
X014924Y015866D02*
X015802Y015866D01*
X015709Y015965D02*
X014826Y015965D01*
X014727Y016063D02*
X015709Y016063D01*
X015709Y016162D02*
X014629Y016162D01*
X014530Y016260D02*
X015709Y016260D01*
X015709Y016359D02*
X014432Y016359D01*
X014333Y016457D02*
X015709Y016457D01*
X015709Y016556D02*
X014235Y016556D01*
X014136Y016654D02*
X015709Y016654D01*
X015709Y016753D02*
X014038Y016753D01*
X013939Y016851D02*
X015709Y016851D01*
X015709Y016950D02*
X013841Y016950D01*
X013742Y017048D02*
X015709Y017048D01*
X015709Y017147D02*
X013644Y017147D01*
X013479Y017000D02*
X012829Y017000D01*
X012479Y017000D01*
X009979Y017000D01*
X009129Y016150D01*
X009129Y015650D01*
X009699Y015997D02*
X009699Y016109D01*
X009912Y016321D01*
X009966Y016190D01*
X010070Y016086D01*
X010206Y016030D01*
X010353Y016030D01*
X010489Y016086D01*
X010583Y016180D01*
X012988Y016180D01*
X014609Y014559D01*
X014609Y014181D01*
X014570Y014220D01*
X012920Y015870D01*
X010133Y015870D01*
X010039Y015964D01*
X009903Y016020D01*
X009756Y016020D01*
X009699Y015997D01*
X009699Y016063D02*
X010126Y016063D01*
X010037Y015965D02*
X013204Y015965D01*
X013105Y016063D02*
X010433Y016063D01*
X010564Y016162D02*
X013007Y016162D01*
X013079Y016400D02*
X014829Y014650D01*
X014829Y009600D01*
X014979Y009450D01*
X014979Y009100D01*
X015879Y008200D01*
X015879Y006850D01*
X016679Y006050D01*
X016679Y004000D01*
X016979Y003700D01*
X016979Y003500D01*
X016834Y003160D02*
X016624Y003160D01*
X016334Y003160D02*
X016309Y003160D01*
X016479Y003500D02*
X016479Y005950D01*
X015679Y006750D01*
X015679Y008100D01*
X014479Y009300D01*
X014479Y009650D01*
X014479Y014000D01*
X012829Y015650D01*
X009829Y015650D01*
X009752Y016162D02*
X009995Y016162D01*
X009937Y016260D02*
X009850Y016260D01*
X009479Y016200D02*
X009479Y014900D01*
X008879Y014300D01*
X008879Y013550D01*
X008329Y013000D01*
X007779Y013000D01*
X007529Y013250D01*
X007192Y013404D02*
X006399Y013404D01*
X006399Y013502D02*
X007258Y013502D01*
X007216Y013460D02*
X007159Y013324D01*
X007159Y013276D01*
X007053Y013320D01*
X006906Y013320D01*
X006770Y013264D01*
X006666Y013160D01*
X006626Y013064D01*
X006399Y013291D01*
X006399Y019949D01*
X006526Y019822D01*
X006820Y019700D01*
X007138Y019700D01*
X007432Y019822D01*
X007657Y020047D01*
X007779Y020341D01*
X007779Y020659D01*
X007657Y020953D01*
X007432Y021178D01*
X007162Y021290D01*
X027258Y021290D01*
X026938Y020970D01*
X026809Y020841D01*
X026809Y019641D01*
X024938Y017770D01*
X023310Y017770D01*
X023670Y018130D01*
X023803Y018130D01*
X023939Y018186D01*
X024043Y018290D01*
X024099Y018426D01*
X024099Y018574D01*
X024043Y018710D01*
X023939Y018814D01*
X023803Y018870D01*
X023656Y018870D01*
X023520Y018814D01*
X023416Y018710D01*
X023404Y018682D01*
X023393Y018710D01*
X023289Y018814D01*
X023153Y018870D01*
X023006Y018870D01*
X022870Y018814D01*
X022766Y018710D01*
X022709Y018574D01*
X022709Y018441D01*
X022588Y018320D01*
X022258Y018320D01*
X022289Y018396D01*
X022289Y018544D01*
X022233Y018680D01*
X022139Y018773D01*
X022139Y019982D01*
X022285Y020042D01*
X022437Y020194D01*
X022479Y020296D01*
X022522Y020194D01*
X022673Y020042D01*
X022872Y019960D01*
X023087Y019960D01*
X023285Y020042D01*
X023437Y020194D01*
X023479Y020296D01*
X023522Y020194D01*
X023673Y020042D01*
X023872Y019960D01*
X024087Y019960D01*
X024285Y020042D01*
X024437Y020194D01*
X024479Y020296D01*
X024522Y020194D01*
X024673Y020042D01*
X024872Y019960D01*
X025087Y019960D01*
X025285Y020042D01*
X025437Y020194D01*
X025479Y020296D01*
X025522Y020194D01*
X025673Y020042D01*
X025872Y019960D01*
X026087Y019960D01*
X026285Y020042D01*
X026437Y020194D01*
X026519Y020393D01*
X026519Y020607D01*
X026437Y020806D01*
X026285Y020958D01*
X026087Y021040D01*
X025872Y021040D01*
X025673Y020958D01*
X025522Y020806D01*
X025479Y020704D01*
X025437Y020806D01*
X025285Y020958D01*
X025087Y021040D01*
X024872Y021040D01*
X024673Y020958D01*
X024522Y020806D01*
X024479Y020704D01*
X024437Y020806D01*
X024285Y020958D01*
X024087Y021040D01*
X023872Y021040D01*
X023673Y020958D01*
X023522Y020806D01*
X023479Y020704D01*
X023437Y020806D01*
X023285Y020958D01*
X023087Y021040D01*
X022872Y021040D01*
X022673Y020958D01*
X022522Y020806D01*
X022479Y020704D01*
X022437Y020806D01*
X022285Y020958D01*
X022087Y021040D01*
X021872Y021040D01*
X021673Y020958D01*
X021522Y020806D01*
X021479Y020704D01*
X021437Y020806D01*
X021285Y020958D01*
X021087Y021040D01*
X020872Y021040D01*
X020673Y020958D01*
X020522Y020806D01*
X020479Y020704D01*
X020437Y020806D01*
X020285Y020958D01*
X020087Y021040D01*
X019872Y021040D01*
X019673Y020958D01*
X019522Y020806D01*
X019479Y020704D01*
X019437Y020806D01*
X019285Y020958D01*
X019087Y021040D01*
X018872Y021040D01*
X018673Y020958D01*
X018522Y020806D01*
X018439Y020607D01*
X018439Y020393D01*
X018522Y020194D01*
X018673Y020042D01*
X018872Y019960D01*
X019087Y019960D01*
X019285Y020042D01*
X019437Y020194D01*
X019479Y020296D01*
X019522Y020194D01*
X019673Y020042D01*
X019872Y019960D01*
X020087Y019960D01*
X020285Y020042D01*
X020437Y020194D01*
X020479Y020296D01*
X020522Y020194D01*
X020673Y020042D01*
X020723Y020022D01*
X020714Y019327D01*
X020616Y019230D01*
X020585Y019155D01*
X020520Y019220D01*
X016113Y019220D01*
X016153Y019260D01*
X016209Y019396D01*
X016209Y019544D01*
X016153Y019680D01*
X016049Y019784D01*
X015913Y019840D01*
X015766Y019840D01*
X015717Y019820D01*
X011370Y019820D01*
X011165Y020026D01*
X011180Y020018D01*
X011258Y019993D01*
X011329Y019981D01*
X011329Y020450D01*
X011429Y020450D01*
X011429Y019981D01*
X011501Y019993D01*
X011579Y020018D01*
X011652Y020055D01*
X011718Y020103D01*
X011776Y020161D01*
X011824Y020227D01*
X011861Y020300D01*
X011868Y020322D01*
X011922Y020194D01*
X012073Y020042D01*
X012272Y019960D01*
X012487Y019960D01*
X012685Y020042D01*
X012837Y020194D01*
X012879Y020296D01*
X012922Y020194D01*
X013073Y020042D01*
X013272Y019960D01*
X013487Y019960D01*
X013685Y020042D01*
X013837Y020194D01*
X013879Y020296D01*
X013922Y020194D01*
X014073Y020042D01*
X014272Y019960D01*
X014487Y019960D01*
X014685Y020042D01*
X014837Y020194D01*
X014879Y020296D01*
X014922Y020194D01*
X015073Y020042D01*
X015272Y019960D01*
X015487Y019960D01*
X015685Y020042D01*
X015837Y020194D01*
X015879Y020296D01*
X015922Y020194D01*
X016073Y020042D01*
X016272Y019960D01*
X016487Y019960D01*
X016685Y020042D01*
X016837Y020194D01*
X016879Y020296D01*
X016922Y020194D01*
X017073Y020042D01*
X017272Y019960D01*
X017487Y019960D01*
X017685Y020042D01*
X017837Y020194D01*
X017919Y020393D01*
X017919Y020607D01*
X017837Y020806D01*
X017685Y020958D01*
X017487Y021040D01*
X017272Y021040D01*
X017073Y020958D01*
X016922Y020806D01*
X016879Y020704D01*
X016837Y020806D01*
X016685Y020958D01*
X016487Y021040D01*
X016272Y021040D01*
X016073Y020958D01*
X015922Y020806D01*
X015879Y020704D01*
X015837Y020806D01*
X015685Y020958D01*
X015487Y021040D01*
X015272Y021040D01*
X015073Y020958D01*
X014922Y020806D01*
X014879Y020704D01*
X014837Y020806D01*
X014685Y020958D01*
X014487Y021040D01*
X014272Y021040D01*
X014073Y020958D01*
X013922Y020806D01*
X013879Y020704D01*
X013837Y020806D01*
X013685Y020958D01*
X013487Y021040D01*
X013272Y021040D01*
X013073Y020958D01*
X012922Y020806D01*
X012879Y020704D01*
X012837Y020806D01*
X012685Y020958D01*
X012487Y021040D01*
X012272Y021040D01*
X012073Y020958D01*
X011922Y020806D01*
X011868Y020678D01*
X011861Y020700D01*
X011824Y020773D01*
X011776Y020839D01*
X011718Y020897D01*
X011652Y020945D01*
X011579Y020982D01*
X011501Y021007D01*
X011429Y021019D01*
X011429Y020550D01*
X011329Y020550D01*
X011329Y021019D01*
X011258Y021007D01*
X011180Y020982D01*
X011107Y020945D01*
X011041Y020897D01*
X010983Y020839D01*
X010935Y020773D01*
X010897Y020700D01*
X010890Y020678D01*
X010837Y020806D01*
X010685Y020958D01*
X010487Y021040D01*
X010272Y021040D01*
X010073Y020958D01*
X009922Y020806D01*
X009839Y020607D01*
X009839Y020393D01*
X009922Y020194D01*
X010073Y020042D01*
X010272Y019960D01*
X010487Y019960D01*
X010573Y019996D01*
X011059Y019509D01*
X011188Y019380D01*
X015476Y019380D01*
X015526Y019260D01*
X015566Y019220D01*
X009370Y019220D01*
X009020Y019570D01*
X008138Y019570D01*
X008009Y019441D01*
X007388Y018820D01*
X007259Y018691D01*
X007259Y014044D01*
X007209Y013924D01*
X007209Y013776D01*
X007266Y013640D01*
X007336Y013570D01*
X007320Y013564D01*
X007216Y013460D01*
X007159Y013305D02*
X007089Y013305D01*
X006870Y013305D02*
X006399Y013305D01*
X006484Y013207D02*
X006713Y013207D01*
X006644Y013108D02*
X006582Y013108D01*
X006179Y013200D02*
X006179Y020000D01*
X005979Y020200D01*
X005609Y020200D02*
X001189Y020200D01*
X001189Y020102D02*
X005620Y020102D01*
X005660Y020003D02*
X001189Y020003D01*
X001189Y019905D02*
X002792Y019905D01*
X002727Y019878D02*
X002602Y019752D01*
X002534Y019589D01*
X002534Y019411D01*
X002602Y019248D01*
X002727Y019122D01*
X002891Y019054D01*
X003068Y019054D01*
X003232Y019122D01*
X003357Y019248D01*
X003425Y019411D01*
X003425Y019589D01*
X003357Y019752D01*
X003232Y019878D01*
X003068Y019946D01*
X002891Y019946D01*
X002727Y019878D01*
X002655Y019806D02*
X001189Y019806D01*
X001189Y019708D02*
X002583Y019708D01*
X002542Y019609D02*
X001189Y019609D01*
X001189Y019511D02*
X002534Y019511D01*
X002534Y019412D02*
X001189Y019412D01*
X001189Y019314D02*
X002574Y019314D01*
X002634Y019215D02*
X001189Y019215D01*
X001189Y019117D02*
X002741Y019117D01*
X003218Y019117D02*
X005959Y019117D01*
X005959Y019215D02*
X003325Y019215D01*
X003384Y019314D02*
X005959Y019314D01*
X005959Y019412D02*
X003425Y019412D01*
X003425Y019511D02*
X005959Y019511D01*
X005959Y019609D02*
X003416Y019609D01*
X003376Y019708D02*
X005959Y019708D01*
X005959Y019806D02*
X003303Y019806D01*
X003167Y019905D02*
X005752Y019905D01*
X005620Y020299D02*
X001189Y020299D01*
X001189Y020397D02*
X005660Y020397D01*
X005752Y020496D02*
X001189Y020496D01*
X001189Y020594D02*
X006179Y020594D01*
X006193Y020693D02*
X001189Y020693D01*
X001189Y020791D02*
X006234Y020791D01*
X006275Y020890D02*
X001189Y020890D01*
X001189Y020988D02*
X006336Y020988D01*
X006435Y021087D02*
X001189Y021087D01*
X001189Y021185D02*
X006543Y021185D01*
X006781Y021284D02*
X001189Y021284D01*
X001189Y019018D02*
X005959Y019018D01*
X005959Y018920D02*
X001189Y018920D01*
X001189Y018821D02*
X005959Y018821D01*
X005959Y018723D02*
X001189Y018723D01*
X001189Y018624D02*
X005959Y018624D01*
X005959Y018526D02*
X001189Y018526D01*
X001189Y018427D02*
X005959Y018427D01*
X005959Y018329D02*
X001189Y018329D01*
X001189Y018230D02*
X005959Y018230D01*
X005959Y018132D02*
X001189Y018132D01*
X001189Y018033D02*
X005959Y018033D01*
X005959Y017935D02*
X001189Y017935D01*
X001189Y017836D02*
X005959Y017836D01*
X005959Y017738D02*
X001189Y017738D01*
X001189Y017639D02*
X005959Y017639D01*
X005959Y017541D02*
X001189Y017541D01*
X001189Y017442D02*
X005959Y017442D01*
X005959Y017344D02*
X001189Y017344D01*
X001189Y017245D02*
X005959Y017245D01*
X005959Y017147D02*
X001189Y017147D01*
X001189Y017048D02*
X005959Y017048D01*
X005959Y016950D02*
X001189Y016950D01*
X001189Y016851D02*
X005959Y016851D01*
X005959Y016753D02*
X001189Y016753D01*
X001189Y016654D02*
X005959Y016654D01*
X005959Y016556D02*
X001189Y016556D01*
X001189Y016457D02*
X005959Y016457D01*
X005959Y016359D02*
X001189Y016359D01*
X001189Y016260D02*
X005959Y016260D01*
X005959Y016162D02*
X001189Y016162D01*
X001189Y016063D02*
X005959Y016063D01*
X005959Y015965D02*
X001189Y015965D01*
X001189Y015866D02*
X002715Y015866D01*
X002727Y015878D02*
X002602Y015752D01*
X002534Y015589D01*
X002534Y015411D01*
X002602Y015248D01*
X002727Y015122D01*
X002891Y015054D01*
X003068Y015054D01*
X003232Y015122D01*
X003357Y015248D01*
X003425Y015411D01*
X003425Y015589D01*
X003357Y015752D01*
X003232Y015878D01*
X003068Y015946D01*
X002891Y015946D01*
X002727Y015878D01*
X002617Y015768D02*
X001189Y015768D01*
X001189Y015669D02*
X002567Y015669D01*
X002534Y015571D02*
X001189Y015571D01*
X001189Y015472D02*
X002534Y015472D01*
X002549Y015374D02*
X001189Y015374D01*
X001189Y015275D02*
X002590Y015275D01*
X002673Y015177D02*
X001189Y015177D01*
X001189Y015078D02*
X002834Y015078D01*
X003125Y015078D02*
X005959Y015078D01*
X005959Y014980D02*
X001189Y014980D01*
X001189Y014881D02*
X005959Y014881D01*
X005959Y014783D02*
X001189Y014783D01*
X001189Y014684D02*
X005959Y014684D01*
X005959Y014586D02*
X001189Y014586D01*
X001189Y014487D02*
X005393Y014487D01*
X005307Y014389D02*
X004695Y014389D01*
X004933Y014290D02*
X005266Y014290D01*
X005259Y014192D02*
X005040Y014192D01*
X005138Y014093D02*
X005273Y014093D01*
X005299Y013995D02*
X005203Y013995D01*
X005243Y013896D02*
X005299Y013896D01*
X005299Y013798D02*
X005284Y013798D01*
X005297Y013404D02*
X005299Y013404D01*
X005299Y013305D02*
X005256Y013305D01*
X005216Y013207D02*
X005299Y013207D01*
X005299Y013108D02*
X005169Y013108D01*
X005071Y013010D02*
X005299Y013010D01*
X005299Y012911D02*
X004972Y012911D01*
X004770Y012813D02*
X005299Y012813D01*
X005299Y012714D02*
X002649Y012714D01*
X002649Y012707D02*
X002649Y013090D01*
X002551Y013188D01*
X002419Y013320D01*
X002134Y013320D01*
X002129Y013315D01*
X002124Y013320D01*
X001839Y013320D01*
X001748Y013229D01*
X001741Y013222D01*
X001741Y013222D01*
X001684Y013165D01*
X001609Y013090D01*
X001609Y012707D01*
X001687Y012629D01*
X001741Y012575D01*
X001761Y012554D01*
X001839Y012476D01*
X001904Y012476D01*
X001904Y011998D01*
X001741Y011834D01*
X001741Y011834D01*
X001717Y011810D01*
X001609Y011702D01*
X001609Y011516D01*
X001676Y011449D01*
X001741Y011384D01*
X001837Y011384D01*
X001763Y011311D01*
X001741Y011288D01*
X001741Y011288D01*
X001684Y011232D01*
X001609Y011156D01*
X001609Y010773D01*
X001687Y010695D01*
X001741Y010641D01*
X001757Y010625D01*
X001839Y010543D01*
X001904Y010543D01*
X001904Y010064D01*
X001741Y009900D01*
X001717Y009877D01*
X001609Y009769D01*
X001609Y009582D01*
X001676Y009515D01*
X001741Y009450D01*
X001935Y009450D01*
X001741Y009256D01*
X001741Y009256D01*
X001717Y009232D01*
X001609Y009124D01*
X001609Y008938D01*
X001676Y008871D01*
X001741Y008806D01*
X002199Y008806D01*
X002199Y008741D01*
X002331Y008609D01*
X002518Y008609D01*
X002649Y008741D01*
X002649Y009321D01*
X002617Y009353D01*
X002649Y009385D01*
X002649Y009965D01*
X002518Y010097D01*
X002354Y010097D01*
X002354Y010543D01*
X002419Y010543D01*
X002518Y010641D01*
X002649Y010773D01*
X002649Y011156D01*
X002568Y011238D01*
X002649Y011319D01*
X002649Y011899D01*
X002518Y012031D01*
X002354Y012031D01*
X002354Y012476D01*
X002419Y012476D01*
X002518Y012575D01*
X002649Y012707D01*
X002649Y012813D02*
X004188Y012813D01*
X003987Y012911D02*
X002649Y012911D01*
X002649Y013010D02*
X003888Y013010D01*
X003790Y013108D02*
X002631Y013108D01*
X002533Y013207D02*
X003743Y013207D01*
X003702Y013305D02*
X002434Y013305D01*
X001824Y013305D02*
X001189Y013305D01*
X001189Y013207D02*
X001726Y013207D01*
X001627Y013108D02*
X001189Y013108D01*
X001189Y013010D02*
X001609Y013010D01*
X001609Y012911D02*
X001189Y012911D01*
X001189Y012813D02*
X001609Y012813D01*
X001609Y012714D02*
X001189Y012714D01*
X001189Y012616D02*
X001700Y012616D01*
X001741Y012575D02*
X001741Y012575D01*
X001798Y012517D02*
X001189Y012517D01*
X001189Y012419D02*
X001904Y012419D01*
X001904Y012320D02*
X001189Y012320D01*
X001189Y012222D02*
X001904Y012222D01*
X001904Y012123D02*
X001189Y012123D01*
X001189Y012025D02*
X001904Y012025D01*
X001833Y011926D02*
X001189Y011926D01*
X001189Y011828D02*
X001734Y011828D01*
X001636Y011729D02*
X001189Y011729D01*
X001189Y011631D02*
X001609Y011631D01*
X001609Y011532D02*
X001189Y011532D01*
X001189Y011434D02*
X001691Y011434D01*
X001788Y011335D02*
X001189Y011335D01*
X001189Y011237D02*
X001689Y011237D01*
X001609Y011138D02*
X001189Y011138D01*
X001189Y011040D02*
X001609Y011040D01*
X001609Y010941D02*
X001189Y010941D01*
X001189Y010843D02*
X001609Y010843D01*
X001638Y010744D02*
X001189Y010744D01*
X001189Y010646D02*
X001736Y010646D01*
X001741Y010641D02*
X001741Y010641D01*
X001835Y010547D02*
X001189Y010547D01*
X001189Y010449D02*
X001904Y010449D01*
X001904Y010350D02*
X001189Y010350D01*
X001189Y010252D02*
X001904Y010252D01*
X001904Y010153D02*
X001189Y010153D01*
X001189Y010055D02*
X001895Y010055D01*
X001796Y009956D02*
X001189Y009956D01*
X001189Y009858D02*
X001698Y009858D01*
X001741Y009900D02*
X001741Y009900D01*
X001609Y009759D02*
X001189Y009759D01*
X001189Y009661D02*
X001609Y009661D01*
X001629Y009562D02*
X001189Y009562D01*
X001189Y009464D02*
X001728Y009464D01*
X001850Y009365D02*
X001189Y009365D01*
X001189Y009267D02*
X001751Y009267D01*
X001653Y009168D02*
X001189Y009168D01*
X001189Y009070D02*
X001609Y009070D01*
X001609Y008971D02*
X001189Y008971D01*
X001189Y008873D02*
X001674Y008873D01*
X001189Y008774D02*
X002199Y008774D01*
X002265Y008676D02*
X001189Y008676D01*
X001189Y008577D02*
X003654Y008577D01*
X003654Y008579D02*
X003654Y008251D01*
X003780Y007948D01*
X004012Y007716D01*
X004315Y007590D01*
X004643Y007590D01*
X004947Y007716D01*
X005179Y007948D01*
X005304Y008251D01*
X005304Y008579D01*
X005179Y008882D01*
X004947Y009114D01*
X004643Y009240D01*
X004315Y009240D01*
X004012Y009114D01*
X003780Y008882D01*
X003654Y008579D01*
X003654Y008479D02*
X001189Y008479D01*
X001189Y008380D02*
X003654Y008380D01*
X003654Y008282D02*
X001189Y008282D01*
X001189Y008183D02*
X003682Y008183D01*
X003723Y008085D02*
X001189Y008085D01*
X001189Y007986D02*
X003764Y007986D01*
X003840Y007888D02*
X001189Y007888D01*
X001189Y007789D02*
X003939Y007789D01*
X004073Y007691D02*
X001189Y007691D01*
X001189Y007592D02*
X004310Y007592D01*
X004648Y007592D02*
X006921Y007592D01*
X007019Y007494D02*
X001189Y007494D01*
X001189Y007395D02*
X007118Y007395D01*
X007216Y007297D02*
X001189Y007297D01*
X001189Y007198D02*
X007346Y007198D01*
X006822Y007691D02*
X004886Y007691D01*
X005020Y007789D02*
X006724Y007789D01*
X006625Y007888D02*
X005119Y007888D01*
X005195Y007986D02*
X006527Y007986D01*
X006428Y008085D02*
X005235Y008085D01*
X005276Y008183D02*
X006330Y008183D01*
X006231Y008282D02*
X005304Y008282D01*
X005304Y008380D02*
X006133Y008380D01*
X006034Y008479D02*
X005304Y008479D01*
X005304Y008577D02*
X005936Y008577D01*
X005837Y008676D02*
X005264Y008676D01*
X005224Y008774D02*
X005739Y008774D01*
X005640Y008873D02*
X005183Y008873D01*
X005090Y008971D02*
X005542Y008971D01*
X005443Y009070D02*
X004992Y009070D01*
X004817Y009168D02*
X005348Y009168D01*
X005307Y009267D02*
X002649Y009267D01*
X002649Y009168D02*
X004141Y009168D01*
X003967Y009070D02*
X002649Y009070D01*
X002649Y008971D02*
X003869Y008971D01*
X003776Y008873D02*
X002649Y008873D01*
X002649Y008774D02*
X003735Y008774D01*
X003694Y008676D02*
X002584Y008676D01*
X002629Y009365D02*
X005299Y009365D01*
X005299Y009464D02*
X002649Y009464D01*
X002649Y009562D02*
X005299Y009562D01*
X005299Y009661D02*
X002649Y009661D01*
X002649Y009759D02*
X005299Y009759D01*
X005299Y009858D02*
X002649Y009858D01*
X002649Y009956D02*
X005299Y009956D01*
X005299Y010055D02*
X002560Y010055D01*
X002354Y010153D02*
X005299Y010153D01*
X005299Y010252D02*
X002354Y010252D01*
X002354Y010350D02*
X005299Y010350D01*
X005299Y010449D02*
X002354Y010449D01*
X002423Y010547D02*
X005299Y010547D01*
X005299Y010646D02*
X002522Y010646D01*
X002620Y010744D02*
X005299Y010744D01*
X005299Y010843D02*
X002649Y010843D01*
X002649Y010941D02*
X005299Y010941D01*
X005299Y011040D02*
X002649Y011040D01*
X002649Y011138D02*
X005299Y011138D01*
X005299Y011237D02*
X002569Y011237D01*
X002649Y011335D02*
X005299Y011335D01*
X005299Y011434D02*
X002649Y011434D01*
X002649Y011532D02*
X005299Y011532D01*
X005299Y011631D02*
X002649Y011631D01*
X002649Y011729D02*
X005299Y011729D01*
X005299Y011828D02*
X002649Y011828D01*
X002622Y011926D02*
X005299Y011926D01*
X005299Y012025D02*
X002524Y012025D01*
X002354Y012123D02*
X005299Y012123D01*
X005299Y012222D02*
X002354Y012222D01*
X002354Y012320D02*
X005299Y012320D01*
X005299Y012419D02*
X002354Y012419D01*
X002460Y012517D02*
X005299Y012517D01*
X005299Y012616D02*
X002558Y012616D01*
X003662Y013404D02*
X001189Y013404D01*
X001189Y013502D02*
X003654Y013502D01*
X003654Y013601D02*
X001189Y013601D01*
X001189Y013699D02*
X003654Y013699D01*
X003674Y013798D02*
X001189Y013798D01*
X001189Y013896D02*
X003715Y013896D01*
X003756Y013995D02*
X001189Y013995D01*
X001189Y014093D02*
X003821Y014093D01*
X003919Y014192D02*
X001189Y014192D01*
X001189Y014290D02*
X004026Y014290D01*
X004263Y014389D02*
X001189Y014389D01*
X003286Y015177D02*
X005959Y015177D01*
X005959Y015275D02*
X003368Y015275D01*
X003409Y015374D02*
X005959Y015374D01*
X005959Y015472D02*
X003425Y015472D01*
X003425Y015571D02*
X005959Y015571D01*
X005959Y015669D02*
X003392Y015669D01*
X003342Y015768D02*
X005959Y015768D01*
X005959Y015866D02*
X003243Y015866D01*
X005866Y014487D02*
X005959Y014487D01*
X005952Y014389D02*
X005959Y014389D01*
X005959Y014030D02*
X005959Y013109D01*
X006088Y012980D01*
X006788Y012280D01*
X012638Y012280D01*
X013559Y011359D01*
X013559Y009309D01*
X013688Y009180D01*
X014559Y008309D01*
X014559Y007709D01*
X014688Y007580D01*
X014839Y007429D01*
X014839Y007326D01*
X014896Y007190D01*
X015000Y007086D01*
X015136Y007030D01*
X015283Y007030D01*
X015419Y007086D01*
X015459Y007127D01*
X015459Y006659D01*
X015588Y006530D01*
X016259Y005859D01*
X016259Y005686D01*
X016259Y005687D01*
X016166Y005780D01*
X014259Y007687D01*
X014166Y007780D01*
X014045Y007830D01*
X013699Y007830D01*
X013603Y007870D01*
X013456Y007870D01*
X013359Y007830D01*
X007616Y007830D01*
X005959Y009487D01*
X005959Y014030D01*
X005959Y014030D01*
X005959Y013995D02*
X005959Y013995D01*
X005959Y013896D02*
X005959Y013896D01*
X005959Y013798D02*
X005959Y013798D01*
X005959Y013699D02*
X005959Y013699D01*
X005959Y013601D02*
X005959Y013601D01*
X005959Y013502D02*
X005959Y013502D01*
X005959Y013404D02*
X005959Y013404D01*
X005959Y013305D02*
X005959Y013305D01*
X005959Y013207D02*
X005959Y013207D01*
X005959Y013108D02*
X005960Y013108D01*
X005959Y013010D02*
X006059Y013010D01*
X006157Y012911D02*
X005959Y012911D01*
X005959Y012813D02*
X006256Y012813D01*
X006354Y012714D02*
X005959Y012714D01*
X005959Y012616D02*
X006453Y012616D01*
X006551Y012517D02*
X005959Y012517D01*
X005959Y012419D02*
X006650Y012419D01*
X006748Y012320D02*
X005959Y012320D01*
X005959Y012222D02*
X012697Y012222D01*
X012795Y012123D02*
X005959Y012123D01*
X005959Y012025D02*
X012894Y012025D01*
X012992Y011926D02*
X005959Y011926D01*
X005959Y011828D02*
X013091Y011828D01*
X013189Y011729D02*
X005959Y011729D01*
X005959Y011631D02*
X013288Y011631D01*
X013386Y011532D02*
X005959Y011532D01*
X005959Y011434D02*
X013485Y011434D01*
X013559Y011335D02*
X005959Y011335D01*
X005959Y011237D02*
X013559Y011237D01*
X013559Y011138D02*
X005959Y011138D01*
X005959Y011040D02*
X013559Y011040D01*
X013559Y010941D02*
X005959Y010941D01*
X005959Y010843D02*
X013559Y010843D01*
X013559Y010744D02*
X005959Y010744D01*
X005959Y010646D02*
X013559Y010646D01*
X013559Y010547D02*
X005959Y010547D01*
X005959Y010449D02*
X013559Y010449D01*
X013559Y010350D02*
X005959Y010350D01*
X005959Y010252D02*
X013559Y010252D01*
X013559Y010153D02*
X005959Y010153D01*
X005959Y010055D02*
X013559Y010055D01*
X013559Y009956D02*
X005959Y009956D01*
X005959Y009858D02*
X013559Y009858D01*
X013559Y009759D02*
X005959Y009759D01*
X005959Y009661D02*
X013559Y009661D01*
X013559Y009562D02*
X005959Y009562D01*
X005982Y009464D02*
X013559Y009464D01*
X013559Y009365D02*
X006081Y009365D01*
X006179Y009267D02*
X013602Y009267D01*
X013700Y009168D02*
X006278Y009168D01*
X006376Y009070D02*
X013799Y009070D01*
X013897Y008971D02*
X006475Y008971D01*
X006573Y008873D02*
X013996Y008873D01*
X014094Y008774D02*
X006672Y008774D01*
X006770Y008676D02*
X014193Y008676D01*
X014291Y008577D02*
X006869Y008577D01*
X006967Y008479D02*
X014390Y008479D01*
X014488Y008380D02*
X007066Y008380D01*
X007164Y008282D02*
X014559Y008282D01*
X014559Y008183D02*
X007263Y008183D01*
X007361Y008085D02*
X014559Y008085D01*
X014559Y007986D02*
X007460Y007986D01*
X007559Y007888D02*
X014559Y007888D01*
X014559Y007789D02*
X014144Y007789D01*
X014256Y007691D02*
X014578Y007691D01*
X014676Y007592D02*
X014354Y007592D01*
X014453Y007494D02*
X014775Y007494D01*
X014839Y007395D02*
X014551Y007395D01*
X014650Y007297D02*
X014852Y007297D01*
X014893Y007198D02*
X014748Y007198D01*
X014847Y007100D02*
X014987Y007100D01*
X014945Y007001D02*
X015459Y007001D01*
X015459Y006903D02*
X015044Y006903D01*
X015142Y006804D02*
X015459Y006804D01*
X015459Y006706D02*
X015241Y006706D01*
X015339Y006607D02*
X015511Y006607D01*
X015438Y006509D02*
X015610Y006509D01*
X015536Y006410D02*
X015708Y006410D01*
X015635Y006312D02*
X015807Y006312D01*
X015733Y006213D02*
X015905Y006213D01*
X015832Y006115D02*
X016004Y006115D01*
X015930Y006016D02*
X016102Y006016D01*
X016029Y005918D02*
X016201Y005918D01*
X016259Y005819D02*
X016127Y005819D01*
X016166Y005780D02*
X016166Y005780D01*
X016226Y005721D02*
X016259Y005721D01*
X016879Y006200D02*
X016329Y006750D01*
X016329Y009050D01*
X017029Y009750D01*
X016979Y009800D01*
X015679Y009800D01*
X015229Y010250D01*
X015229Y011700D01*
X015579Y012050D01*
X015579Y014900D01*
X013479Y017000D01*
X013229Y016750D02*
X010029Y016750D01*
X009479Y016200D01*
X009125Y016457D02*
X009065Y016457D01*
X008997Y016556D02*
X009224Y016556D01*
X009322Y016654D02*
X008841Y016654D01*
X008617Y016654D02*
X007699Y016654D01*
X007699Y016556D02*
X008462Y016556D01*
X008394Y016457D02*
X007699Y016457D01*
X007699Y016359D02*
X008359Y016359D01*
X008359Y016260D02*
X007699Y016260D01*
X007699Y016162D02*
X008309Y016162D01*
X008309Y016063D02*
X007699Y016063D01*
X007699Y015965D02*
X008309Y015965D01*
X008309Y015866D02*
X007699Y015866D01*
X007699Y015768D02*
X008309Y015768D01*
X008309Y015669D02*
X007699Y015669D01*
X007699Y015571D02*
X008309Y015571D01*
X008309Y015472D02*
X007699Y015472D01*
X007699Y015374D02*
X008309Y015374D01*
X008309Y015275D02*
X007699Y015275D01*
X007699Y015177D02*
X008309Y015177D01*
X008309Y015078D02*
X007699Y015078D01*
X007699Y014980D02*
X008309Y014980D01*
X008309Y014881D02*
X007699Y014881D01*
X007699Y014783D02*
X008309Y014783D01*
X008309Y014684D02*
X007699Y014684D01*
X007699Y014586D02*
X008309Y014586D01*
X008309Y014487D02*
X007699Y014487D01*
X007699Y014389D02*
X008309Y014389D01*
X008309Y014290D02*
X007699Y014290D01*
X007722Y014192D02*
X008298Y014192D01*
X008209Y014093D02*
X007860Y014093D01*
X007920Y013995D02*
X008168Y013995D01*
X008159Y013896D02*
X007949Y013896D01*
X007949Y013798D02*
X008171Y013798D01*
X008212Y013699D02*
X007917Y013699D01*
X007853Y013601D02*
X008306Y013601D01*
X008422Y013404D02*
X007866Y013404D01*
X007899Y013305D02*
X008323Y013305D01*
X008520Y013502D02*
X007801Y013502D01*
X007306Y013601D02*
X006399Y013601D01*
X006399Y013699D02*
X007241Y013699D01*
X007209Y013798D02*
X006399Y013798D01*
X006399Y013896D02*
X007209Y013896D01*
X007239Y013995D02*
X006399Y013995D01*
X006399Y014093D02*
X007259Y014093D01*
X007259Y014192D02*
X006399Y014192D01*
X006399Y014290D02*
X007259Y014290D01*
X007259Y014389D02*
X006399Y014389D01*
X006399Y014487D02*
X007259Y014487D01*
X007259Y014586D02*
X006399Y014586D01*
X006399Y014684D02*
X007259Y014684D01*
X007259Y014783D02*
X006399Y014783D01*
X006399Y014881D02*
X007259Y014881D01*
X007259Y014980D02*
X006399Y014980D01*
X006399Y015078D02*
X007259Y015078D01*
X007259Y015177D02*
X006399Y015177D01*
X006399Y015275D02*
X007259Y015275D01*
X007259Y015374D02*
X006399Y015374D01*
X006399Y015472D02*
X007259Y015472D01*
X007259Y015571D02*
X006399Y015571D01*
X006399Y015669D02*
X007259Y015669D01*
X007259Y015768D02*
X006399Y015768D01*
X006399Y015866D02*
X007259Y015866D01*
X007259Y015965D02*
X006399Y015965D01*
X006399Y016063D02*
X007259Y016063D01*
X007259Y016162D02*
X006399Y016162D01*
X006399Y016260D02*
X007259Y016260D01*
X007259Y016359D02*
X006399Y016359D01*
X006399Y016457D02*
X007259Y016457D01*
X007259Y016556D02*
X006399Y016556D01*
X006399Y016654D02*
X007259Y016654D01*
X007259Y016753D02*
X006399Y016753D01*
X006399Y016851D02*
X007259Y016851D01*
X007259Y016950D02*
X006399Y016950D01*
X006399Y017048D02*
X007259Y017048D01*
X007259Y017147D02*
X006399Y017147D01*
X006399Y017245D02*
X007259Y017245D01*
X007259Y017344D02*
X006399Y017344D01*
X006399Y017442D02*
X007259Y017442D01*
X007259Y017541D02*
X006399Y017541D01*
X006399Y017639D02*
X007259Y017639D01*
X007259Y017738D02*
X006399Y017738D01*
X006399Y017836D02*
X007259Y017836D01*
X007259Y017935D02*
X006399Y017935D01*
X006399Y018033D02*
X007259Y018033D01*
X007259Y018132D02*
X006399Y018132D01*
X006399Y018230D02*
X007259Y018230D01*
X007259Y018329D02*
X006399Y018329D01*
X006399Y018427D02*
X007259Y018427D01*
X007259Y018526D02*
X006399Y018526D01*
X006399Y018624D02*
X007259Y018624D01*
X007291Y018723D02*
X006399Y018723D01*
X006399Y018821D02*
X007389Y018821D01*
X007388Y018820D02*
X007388Y018820D01*
X007488Y018920D02*
X006399Y018920D01*
X006399Y019018D02*
X007586Y019018D01*
X007685Y019117D02*
X006399Y019117D01*
X006399Y019215D02*
X007783Y019215D01*
X007882Y019314D02*
X006399Y019314D01*
X006399Y019412D02*
X007980Y019412D01*
X008079Y019511D02*
X006399Y019511D01*
X006399Y019609D02*
X010959Y019609D01*
X010861Y019708D02*
X007156Y019708D01*
X007394Y019806D02*
X010762Y019806D01*
X010664Y019905D02*
X007515Y019905D01*
X007614Y020003D02*
X010168Y020003D01*
X010014Y020102D02*
X007680Y020102D01*
X007721Y020200D02*
X009919Y020200D01*
X009878Y020299D02*
X007762Y020299D01*
X007779Y020397D02*
X009839Y020397D01*
X009839Y020496D02*
X007779Y020496D01*
X007779Y020594D02*
X009839Y020594D01*
X009875Y020693D02*
X007765Y020693D01*
X007725Y020791D02*
X009915Y020791D01*
X010005Y020890D02*
X007684Y020890D01*
X007623Y020988D02*
X010147Y020988D01*
X010612Y020988D02*
X011199Y020988D01*
X011329Y020988D02*
X011429Y020988D01*
X011429Y020890D02*
X011329Y020890D01*
X011329Y020791D02*
X011429Y020791D01*
X011429Y020693D02*
X011329Y020693D01*
X011329Y020594D02*
X011429Y020594D01*
X011429Y020397D02*
X011329Y020397D01*
X011329Y020299D02*
X011429Y020299D01*
X011429Y020200D02*
X011329Y020200D01*
X011329Y020102D02*
X011429Y020102D01*
X011429Y020003D02*
X011329Y020003D01*
X011226Y020003D02*
X011187Y020003D01*
X011286Y019905D02*
X020722Y019905D01*
X020723Y020003D02*
X020191Y020003D01*
X020345Y020102D02*
X020614Y020102D01*
X020519Y020200D02*
X020440Y020200D01*
X020720Y019806D02*
X015995Y019806D01*
X016125Y019708D02*
X020719Y019708D01*
X020717Y019609D02*
X016182Y019609D01*
X016209Y019511D02*
X020716Y019511D01*
X020715Y019412D02*
X016209Y019412D01*
X016175Y019314D02*
X020700Y019314D01*
X020610Y019215D02*
X020525Y019215D01*
X020429Y019000D02*
X021329Y018100D01*
X022679Y018100D01*
X023079Y018500D01*
X022730Y018624D02*
X022256Y018624D01*
X022289Y018526D02*
X022709Y018526D01*
X022695Y018427D02*
X022289Y018427D01*
X022261Y018329D02*
X022597Y018329D01*
X022779Y018723D02*
X022190Y018723D01*
X022139Y018821D02*
X022888Y018821D01*
X023271Y018821D02*
X023538Y018821D01*
X023429Y018723D02*
X023380Y018723D01*
X023729Y018500D02*
X023079Y017850D01*
X021229Y017850D01*
X020329Y018750D01*
X008979Y018750D01*
X008729Y019000D01*
X008359Y019018D02*
X008209Y019018D01*
X008307Y019117D02*
X008377Y019117D01*
X008362Y018920D02*
X008110Y018920D01*
X008012Y018821D02*
X008403Y018821D01*
X008484Y018723D02*
X007913Y018723D01*
X007815Y018624D02*
X008794Y018624D01*
X009279Y019000D02*
X020429Y019000D01*
X020929Y019020D02*
X020949Y020470D01*
X020979Y020500D01*
X020605Y020890D02*
X020353Y020890D01*
X020443Y020791D02*
X020515Y020791D01*
X020747Y020988D02*
X020212Y020988D01*
X019747Y020988D02*
X019212Y020988D01*
X019353Y020890D02*
X019605Y020890D01*
X019515Y020791D02*
X019443Y020791D01*
X018747Y020988D02*
X017612Y020988D01*
X017753Y020890D02*
X018605Y020890D01*
X018515Y020791D02*
X017843Y020791D01*
X017884Y020693D02*
X018475Y020693D01*
X018439Y020594D02*
X017919Y020594D01*
X017919Y020496D02*
X018439Y020496D01*
X018439Y020397D02*
X017919Y020397D01*
X017880Y020299D02*
X018478Y020299D01*
X018519Y020200D02*
X017840Y020200D01*
X017745Y020102D02*
X018614Y020102D01*
X018768Y020003D02*
X017591Y020003D01*
X017168Y020003D02*
X016591Y020003D01*
X016745Y020102D02*
X017014Y020102D01*
X016919Y020200D02*
X016840Y020200D01*
X016168Y020003D02*
X015591Y020003D01*
X015745Y020102D02*
X016014Y020102D01*
X015919Y020200D02*
X015840Y020200D01*
X015709Y019600D02*
X015839Y019470D01*
X015709Y019600D02*
X011279Y019600D01*
X010379Y020500D01*
X010884Y020693D02*
X010895Y020693D01*
X010843Y020791D02*
X010948Y020791D01*
X011033Y020890D02*
X010753Y020890D01*
X011560Y020988D02*
X012147Y020988D01*
X012005Y020890D02*
X011725Y020890D01*
X011811Y020791D02*
X011915Y020791D01*
X011875Y020693D02*
X011864Y020693D01*
X011860Y020299D02*
X011878Y020299D01*
X011919Y020200D02*
X011804Y020200D01*
X011716Y020102D02*
X012014Y020102D01*
X012168Y020003D02*
X011533Y020003D01*
X011058Y019511D02*
X009080Y019511D01*
X009178Y019412D02*
X011156Y019412D01*
X012591Y020003D02*
X013168Y020003D01*
X013014Y020102D02*
X012745Y020102D01*
X012840Y020200D02*
X012919Y020200D01*
X013591Y020003D02*
X014168Y020003D01*
X014014Y020102D02*
X013745Y020102D01*
X013840Y020200D02*
X013919Y020200D01*
X014591Y020003D02*
X015168Y020003D01*
X015014Y020102D02*
X014745Y020102D01*
X014840Y020200D02*
X014919Y020200D01*
X014915Y020791D02*
X014843Y020791D01*
X014753Y020890D02*
X015005Y020890D01*
X015147Y020988D02*
X014612Y020988D01*
X014147Y020988D02*
X013612Y020988D01*
X013753Y020890D02*
X014005Y020890D01*
X013915Y020791D02*
X013843Y020791D01*
X013147Y020988D02*
X012612Y020988D01*
X012753Y020890D02*
X013005Y020890D01*
X012915Y020791D02*
X012843Y020791D01*
X015612Y020988D02*
X016147Y020988D01*
X016005Y020890D02*
X015753Y020890D01*
X015843Y020791D02*
X015915Y020791D01*
X016612Y020988D02*
X017147Y020988D01*
X017005Y020890D02*
X016753Y020890D01*
X016843Y020791D02*
X016915Y020791D01*
X019191Y020003D02*
X019768Y020003D01*
X019614Y020102D02*
X019345Y020102D01*
X019440Y020200D02*
X019519Y020200D01*
X021212Y020988D02*
X021747Y020988D01*
X021605Y020890D02*
X021353Y020890D01*
X021443Y020791D02*
X021515Y020791D01*
X021919Y020440D02*
X021919Y018470D01*
X022139Y018920D02*
X026088Y018920D01*
X026186Y019018D02*
X022139Y019018D01*
X022139Y019117D02*
X026285Y019117D01*
X026383Y019215D02*
X022139Y019215D01*
X022139Y019314D02*
X026482Y019314D01*
X026580Y019412D02*
X022139Y019412D01*
X022139Y019511D02*
X026679Y019511D01*
X026777Y019609D02*
X022139Y019609D01*
X022139Y019708D02*
X026809Y019708D01*
X026809Y019806D02*
X022139Y019806D01*
X022139Y019905D02*
X026809Y019905D01*
X026809Y020003D02*
X026191Y020003D01*
X026345Y020102D02*
X026809Y020102D01*
X026809Y020200D02*
X026440Y020200D01*
X026480Y020299D02*
X026809Y020299D01*
X026809Y020397D02*
X026519Y020397D01*
X026519Y020496D02*
X026809Y020496D01*
X026809Y020594D02*
X026519Y020594D01*
X026484Y020693D02*
X026809Y020693D01*
X026809Y020791D02*
X026443Y020791D01*
X026353Y020890D02*
X026858Y020890D01*
X026956Y020988D02*
X026212Y020988D01*
X025747Y020988D02*
X025212Y020988D01*
X025353Y020890D02*
X025605Y020890D01*
X025515Y020791D02*
X025443Y020791D01*
X024747Y020988D02*
X024212Y020988D01*
X024353Y020890D02*
X024605Y020890D01*
X024515Y020791D02*
X024443Y020791D01*
X023747Y020988D02*
X023212Y020988D01*
X023353Y020890D02*
X023605Y020890D01*
X023515Y020791D02*
X023443Y020791D01*
X022747Y020988D02*
X022212Y020988D01*
X022353Y020890D02*
X022605Y020890D01*
X022515Y020791D02*
X022443Y020791D01*
X021979Y020500D02*
X021919Y020440D01*
X022345Y020102D02*
X022614Y020102D01*
X022519Y020200D02*
X022440Y020200D01*
X022191Y020003D02*
X022768Y020003D01*
X023191Y020003D02*
X023768Y020003D01*
X023614Y020102D02*
X023345Y020102D01*
X023440Y020200D02*
X023519Y020200D01*
X024191Y020003D02*
X024768Y020003D01*
X024614Y020102D02*
X024345Y020102D01*
X024440Y020200D02*
X024519Y020200D01*
X025191Y020003D02*
X025768Y020003D01*
X025614Y020102D02*
X025345Y020102D01*
X025440Y020200D02*
X025519Y020200D01*
X027029Y020750D02*
X027029Y019550D01*
X025029Y017550D01*
X020279Y017550D01*
X019329Y018500D01*
X017779Y018500D01*
X016229Y016950D01*
X016229Y016350D01*
X017029Y015550D01*
X017029Y011350D01*
X016729Y011050D01*
X015179Y012150D02*
X015179Y014800D01*
X013229Y016750D01*
X013079Y016400D02*
X010279Y016400D01*
X009618Y016950D02*
X007699Y016950D01*
X007699Y017048D02*
X009716Y017048D01*
X009815Y017147D02*
X007699Y017147D01*
X007699Y017245D02*
X015653Y017245D01*
X015555Y017344D02*
X007699Y017344D01*
X007699Y017442D02*
X015456Y017442D01*
X015358Y017541D02*
X007699Y017541D01*
X007699Y017639D02*
X015259Y017639D01*
X015161Y017738D02*
X007699Y017738D01*
X007699Y017836D02*
X015062Y017836D01*
X014964Y017935D02*
X007699Y017935D01*
X007699Y018033D02*
X014865Y018033D01*
X014555Y018132D02*
X007699Y018132D01*
X007699Y018230D02*
X014468Y018230D01*
X014427Y018329D02*
X007699Y018329D01*
X007699Y018427D02*
X014419Y018427D01*
X014433Y018526D02*
X007716Y018526D01*
X007479Y018600D02*
X007479Y013950D01*
X007579Y013850D01*
X008529Y013900D02*
X008529Y016100D01*
X008729Y016300D01*
X008679Y016250D01*
X009421Y016753D02*
X007699Y016753D01*
X007699Y016851D02*
X009519Y016851D01*
X007479Y018600D02*
X008229Y019350D01*
X008929Y019350D01*
X009279Y019000D01*
X009277Y019314D02*
X015504Y019314D01*
X014789Y018420D02*
X015929Y017280D01*
X015929Y016050D01*
X016689Y015290D01*
X016689Y015270D01*
X017739Y016240D02*
X017479Y016500D01*
X017739Y016240D02*
X017739Y006100D01*
X021979Y001860D01*
X021979Y001500D01*
X022689Y001500D02*
X018019Y006170D01*
X018019Y016460D01*
X017479Y017000D01*
X017709Y017500D02*
X018249Y016960D01*
X018249Y006250D01*
X022399Y002100D01*
X023289Y002100D01*
X023889Y001500D01*
X023979Y001500D01*
X024119Y002340D02*
X024959Y001500D01*
X024979Y001500D01*
X025979Y001500D02*
X024919Y002560D01*
X022639Y002560D01*
X018729Y006470D01*
X018729Y017400D01*
X018629Y017500D01*
X018469Y017150D02*
X018119Y017500D01*
X018119Y017710D01*
X018189Y017780D01*
X017929Y018300D02*
X016479Y016850D01*
X016479Y016500D01*
X018469Y017150D02*
X018469Y006370D01*
X022499Y002340D01*
X024119Y002340D01*
X022869Y003040D02*
X019229Y006680D01*
X019229Y017250D01*
X019479Y017500D01*
X019059Y017800D02*
X018979Y017720D01*
X018979Y006580D01*
X022759Y002800D01*
X025579Y002800D01*
X026879Y001500D01*
X026979Y001500D01*
X027159Y002310D02*
X027969Y001500D01*
X027979Y001500D01*
X028979Y001500D02*
X027779Y002700D01*
X026479Y002700D01*
X025879Y003300D01*
X022979Y003300D01*
X019479Y006800D01*
X019479Y016850D01*
X019629Y017000D01*
X019979Y016600D02*
X019729Y016350D01*
X019729Y006900D01*
X022279Y004350D01*
X028129Y004350D01*
X030979Y001500D01*
X031979Y001500D02*
X028879Y004600D01*
X022379Y004600D01*
X019979Y007000D01*
X019979Y016100D01*
X020329Y016450D01*
X020329Y016950D01*
X020379Y017000D01*
X020729Y016600D02*
X020679Y016550D01*
X020679Y016400D01*
X020229Y015950D01*
X020229Y007100D01*
X022529Y004800D01*
X029679Y004800D01*
X032979Y001500D01*
X033979Y001500D02*
X030479Y005000D01*
X022679Y005000D01*
X020479Y007200D01*
X020479Y015800D01*
X021079Y016400D01*
X021079Y016950D01*
X021129Y017000D01*
X021479Y016600D02*
X021379Y016500D01*
X021379Y016350D01*
X020729Y015700D01*
X020729Y007300D01*
X022779Y005250D01*
X030579Y005250D01*
X033329Y002500D01*
X034479Y002500D01*
X034979Y002000D01*
X034979Y001500D01*
X035979Y001500D02*
X034729Y002750D01*
X033429Y002750D01*
X030679Y005500D01*
X022879Y005500D01*
X020979Y007400D01*
X020979Y015600D01*
X021879Y016500D01*
X021879Y016950D01*
X021929Y017000D01*
X022479Y016950D02*
X022529Y017000D01*
X022479Y016950D02*
X022479Y016800D01*
X021179Y015500D01*
X021179Y007500D01*
X022979Y005700D01*
X030779Y005700D01*
X033479Y003000D01*
X035479Y003000D01*
X036979Y001500D01*
X037364Y001879D02*
X037629Y001879D01*
X037629Y001781D02*
X037448Y001781D01*
X037437Y001806D02*
X037285Y001958D01*
X037087Y002040D01*
X036872Y002040D01*
X036786Y002004D01*
X035699Y003091D01*
X035570Y003220D01*
X033570Y003220D01*
X030999Y005791D01*
X030870Y005920D01*
X023070Y005920D01*
X021399Y007591D01*
X021399Y009903D01*
X021456Y009880D01*
X021603Y009880D01*
X021739Y009936D01*
X021833Y010030D01*
X024576Y010030D01*
X024620Y009986D01*
X024756Y009930D01*
X024903Y009930D01*
X025039Y009986D01*
X025143Y010090D01*
X025199Y010226D01*
X025199Y010374D01*
X025143Y010510D01*
X025039Y010614D01*
X024903Y010670D01*
X024756Y010670D01*
X024620Y010614D01*
X024516Y010510D01*
X024499Y010470D01*
X021833Y010470D01*
X021739Y010564D01*
X021603Y010620D01*
X021456Y010620D01*
X021399Y010597D01*
X021399Y011357D01*
X021420Y011336D01*
X021556Y011280D01*
X021703Y011280D01*
X021839Y011336D01*
X021943Y011440D01*
X021999Y011576D01*
X021999Y011709D01*
X022120Y011830D01*
X022249Y011959D01*
X022249Y015209D01*
X023670Y016630D01*
X023803Y016630D01*
X023939Y016686D01*
X024043Y016790D01*
X024099Y016926D01*
X024099Y017074D01*
X024076Y017130D01*
X025220Y017130D01*
X027549Y019459D01*
X027549Y020166D01*
X027673Y020042D01*
X027759Y020007D01*
X027759Y017091D01*
X026538Y015870D01*
X026188Y015870D01*
X026059Y015741D01*
X023888Y013570D01*
X023759Y013441D01*
X023759Y012303D01*
X023666Y012210D01*
X023609Y012074D01*
X023609Y011926D01*
X022216Y011926D01*
X022249Y012025D02*
X023609Y012025D01*
X023609Y011926D02*
X023666Y011790D01*
X023770Y011686D01*
X023906Y011630D01*
X024053Y011630D01*
X024189Y011686D01*
X024229Y011727D01*
X024270Y011686D01*
X024406Y011630D01*
X024553Y011630D01*
X024689Y011686D01*
X024793Y011790D01*
X024849Y011926D01*
X025692Y011926D01*
X025766Y012000D02*
X025489Y011724D01*
X025489Y011276D01*
X025492Y011274D01*
X025388Y011170D01*
X025259Y011041D01*
X025259Y009909D01*
X025759Y009409D01*
X025888Y009280D01*
X027888Y009280D01*
X032259Y004909D01*
X032388Y004780D01*
X037388Y004780D01*
X037442Y004726D01*
X037439Y004724D01*
X037439Y004276D01*
X037749Y003966D01*
X037707Y003945D01*
X037641Y003897D01*
X037583Y003839D01*
X037535Y003773D01*
X037497Y003700D01*
X037472Y003622D01*
X037461Y003550D01*
X037929Y003550D01*
X037929Y003450D01*
X037461Y003450D01*
X037472Y003378D01*
X037497Y003300D01*
X037535Y003227D01*
X037583Y003161D01*
X037641Y003103D01*
X037707Y003055D01*
X037780Y003018D01*
X037858Y002993D01*
X037929Y002981D01*
X037929Y003450D01*
X038029Y003450D01*
X038029Y002981D01*
X038101Y002993D01*
X038179Y003018D01*
X038252Y003055D01*
X038318Y003103D01*
X038376Y003161D01*
X038424Y003227D01*
X038461Y003300D01*
X038479Y003356D01*
X038497Y003300D01*
X038535Y003227D01*
X038583Y003161D01*
X038641Y003103D01*
X038707Y003055D01*
X038780Y003018D01*
X038858Y002993D01*
X038929Y002981D01*
X038929Y003450D01*
X038461Y003450D01*
X038029Y003450D01*
X038029Y003550D01*
X038929Y003550D01*
X038929Y003450D01*
X039029Y003450D01*
X039029Y002981D01*
X039101Y002993D01*
X039179Y003018D01*
X039252Y003055D01*
X039318Y003103D01*
X039376Y003161D01*
X039424Y003227D01*
X039461Y003300D01*
X039487Y003378D01*
X039498Y003450D01*
X039029Y003450D01*
X039029Y003550D01*
X039498Y003550D01*
X039487Y003622D01*
X039461Y003700D01*
X039424Y003773D01*
X039376Y003839D01*
X039318Y003897D01*
X039252Y003945D01*
X039209Y003966D01*
X039519Y004276D01*
X039519Y004724D01*
X039243Y005000D01*
X039519Y005276D01*
X039519Y005724D01*
X039243Y006000D01*
X039519Y006276D01*
X039519Y006724D01*
X039243Y007000D01*
X039519Y007276D01*
X039519Y007724D01*
X039243Y008000D01*
X039519Y008276D01*
X039519Y008724D01*
X039243Y009000D01*
X039519Y009276D01*
X039519Y009724D01*
X039243Y010000D01*
X039519Y010276D01*
X039519Y010724D01*
X039243Y011000D01*
X039519Y011276D01*
X039519Y011724D01*
X039243Y012000D01*
X039519Y012276D01*
X039519Y012724D01*
X039243Y013000D01*
X039519Y013276D01*
X039519Y013724D01*
X039243Y014000D01*
X039519Y014276D01*
X039519Y014724D01*
X039243Y015000D01*
X039519Y015276D01*
X039519Y015724D01*
X039243Y016000D01*
X039357Y016114D01*
X039370Y016083D01*
X039462Y015990D01*
X039799Y015653D01*
X039799Y003247D01*
X039453Y002900D01*
X038384Y002900D01*
X038262Y002850D01*
X038170Y002757D01*
X037680Y002267D01*
X037629Y002146D01*
X037629Y001497D01*
X037515Y001383D01*
X037519Y001393D01*
X037519Y001607D01*
X037437Y001806D01*
X037488Y001682D02*
X037629Y001682D01*
X037629Y001584D02*
X037519Y001584D01*
X037519Y001485D02*
X037618Y001485D01*
X037519Y001387D02*
X037517Y001387D01*
X037629Y001978D02*
X037238Y001978D01*
X037629Y002076D02*
X036714Y002076D01*
X036616Y002175D02*
X037641Y002175D01*
X037686Y002273D02*
X036517Y002273D01*
X036419Y002372D02*
X037784Y002372D01*
X037883Y002470D02*
X036320Y002470D01*
X036222Y002569D02*
X037981Y002569D01*
X038080Y002667D02*
X036123Y002667D01*
X036025Y002766D02*
X038178Y002766D01*
X038297Y002864D02*
X035926Y002864D01*
X035828Y002963D02*
X039515Y002963D01*
X039614Y003061D02*
X039260Y003061D01*
X039374Y003160D02*
X039712Y003160D01*
X039799Y003258D02*
X039440Y003258D01*
X039479Y003357D02*
X039799Y003357D01*
X039799Y003455D02*
X039029Y003455D01*
X039029Y003357D02*
X038929Y003357D01*
X038929Y003455D02*
X038029Y003455D01*
X038029Y003357D02*
X037929Y003357D01*
X037929Y003455D02*
X033335Y003455D01*
X033237Y003554D02*
X037461Y003554D01*
X037482Y003652D02*
X033138Y003652D01*
X033040Y003751D02*
X037523Y003751D01*
X037593Y003849D02*
X032941Y003849D01*
X032843Y003948D02*
X037712Y003948D01*
X037670Y004046D02*
X032744Y004046D01*
X032646Y004145D02*
X037571Y004145D01*
X037473Y004243D02*
X032547Y004243D01*
X032449Y004342D02*
X037439Y004342D01*
X037439Y004440D02*
X032350Y004440D01*
X032252Y004539D02*
X037439Y004539D01*
X037439Y004637D02*
X032153Y004637D01*
X032055Y004736D02*
X037433Y004736D01*
X037479Y005000D02*
X037979Y004500D01*
X037479Y005000D02*
X032479Y005000D01*
X027979Y009500D01*
X025979Y009500D01*
X025479Y010000D01*
X025479Y010950D01*
X026029Y011500D01*
X026529Y011100D02*
X026629Y011000D01*
X030529Y011000D01*
X031679Y009850D01*
X031679Y006300D01*
X032479Y005500D01*
X037979Y005500D01*
X038479Y006000D02*
X038979Y005500D01*
X039373Y005130D02*
X039799Y005130D01*
X039799Y005228D02*
X039471Y005228D01*
X039519Y005327D02*
X039799Y005327D01*
X039799Y005425D02*
X039519Y005425D01*
X039519Y005524D02*
X039799Y005524D01*
X039799Y005622D02*
X039519Y005622D01*
X039519Y005721D02*
X039799Y005721D01*
X039799Y005819D02*
X039424Y005819D01*
X039325Y005918D02*
X039799Y005918D01*
X039799Y006016D02*
X039259Y006016D01*
X039358Y006115D02*
X039799Y006115D01*
X039799Y006213D02*
X039456Y006213D01*
X039519Y006312D02*
X039799Y006312D01*
X039799Y006410D02*
X039519Y006410D01*
X039519Y006509D02*
X039799Y006509D01*
X039799Y006607D02*
X039519Y006607D01*
X039519Y006706D02*
X039799Y006706D01*
X039799Y006804D02*
X039439Y006804D01*
X039340Y006903D02*
X039799Y006903D01*
X039799Y007001D02*
X039244Y007001D01*
X039343Y007100D02*
X039799Y007100D01*
X039799Y007198D02*
X039441Y007198D01*
X039519Y007297D02*
X039799Y007297D01*
X039799Y007395D02*
X039519Y007395D01*
X039519Y007494D02*
X039799Y007494D01*
X039799Y007592D02*
X039519Y007592D01*
X039519Y007691D02*
X039799Y007691D01*
X039799Y007789D02*
X039454Y007789D01*
X039355Y007888D02*
X039799Y007888D01*
X039799Y007986D02*
X039257Y007986D01*
X039328Y008085D02*
X039799Y008085D01*
X039799Y008183D02*
X039426Y008183D01*
X039519Y008282D02*
X039799Y008282D01*
X039799Y008380D02*
X039519Y008380D01*
X039519Y008479D02*
X039799Y008479D01*
X039799Y008577D02*
X039519Y008577D01*
X039519Y008676D02*
X039799Y008676D01*
X039799Y008774D02*
X039469Y008774D01*
X039370Y008873D02*
X039799Y008873D01*
X039799Y008971D02*
X039272Y008971D01*
X039313Y009070D02*
X039799Y009070D01*
X039799Y009168D02*
X039411Y009168D01*
X039510Y009267D02*
X039799Y009267D01*
X039799Y009365D02*
X039519Y009365D01*
X039519Y009464D02*
X039799Y009464D01*
X039799Y009562D02*
X039519Y009562D01*
X039519Y009661D02*
X039799Y009661D01*
X039799Y009759D02*
X039484Y009759D01*
X039385Y009858D02*
X039799Y009858D01*
X039799Y009956D02*
X039287Y009956D01*
X039298Y010055D02*
X039799Y010055D01*
X039799Y010153D02*
X039396Y010153D01*
X039495Y010252D02*
X039799Y010252D01*
X039799Y010350D02*
X039519Y010350D01*
X039519Y010449D02*
X039799Y010449D01*
X039799Y010547D02*
X039519Y010547D01*
X039519Y010646D02*
X039799Y010646D01*
X039799Y010744D02*
X039499Y010744D01*
X039400Y010843D02*
X039799Y010843D01*
X039799Y010941D02*
X039302Y010941D01*
X039283Y011040D02*
X039799Y011040D01*
X039799Y011138D02*
X039381Y011138D01*
X039480Y011237D02*
X039799Y011237D01*
X039799Y011335D02*
X039519Y011335D01*
X039519Y011434D02*
X039799Y011434D01*
X039799Y011532D02*
X039519Y011532D01*
X039519Y011631D02*
X039799Y011631D01*
X039799Y011729D02*
X039514Y011729D01*
X039415Y011828D02*
X039799Y011828D01*
X039799Y011926D02*
X039317Y011926D01*
X039268Y012025D02*
X039799Y012025D01*
X039799Y012123D02*
X039366Y012123D01*
X039465Y012222D02*
X039799Y012222D01*
X039799Y012320D02*
X039519Y012320D01*
X039519Y012419D02*
X039799Y012419D01*
X039799Y012517D02*
X039519Y012517D01*
X039519Y012616D02*
X039799Y012616D01*
X039799Y012714D02*
X039519Y012714D01*
X039430Y012813D02*
X039799Y012813D01*
X039799Y012911D02*
X039332Y012911D01*
X039253Y013010D02*
X039799Y013010D01*
X039799Y013108D02*
X039351Y013108D01*
X039450Y013207D02*
X039799Y013207D01*
X039799Y013305D02*
X039519Y013305D01*
X039519Y013404D02*
X039799Y013404D01*
X039799Y013502D02*
X039519Y013502D01*
X039519Y013601D02*
X039799Y013601D01*
X039799Y013699D02*
X039519Y013699D01*
X039445Y013798D02*
X039799Y013798D01*
X039799Y013896D02*
X039347Y013896D01*
X039248Y013995D02*
X039799Y013995D01*
X039799Y014093D02*
X039336Y014093D01*
X039435Y014192D02*
X039799Y014192D01*
X039799Y014290D02*
X039519Y014290D01*
X039519Y014389D02*
X039799Y014389D01*
X039799Y014487D02*
X039519Y014487D01*
X039519Y014586D02*
X039799Y014586D01*
X039799Y014684D02*
X039519Y014684D01*
X039460Y014783D02*
X039799Y014783D01*
X039799Y014881D02*
X039362Y014881D01*
X039263Y014980D02*
X039799Y014980D01*
X039799Y015078D02*
X039321Y015078D01*
X039420Y015177D02*
X039799Y015177D01*
X039799Y015275D02*
X039518Y015275D01*
X039519Y015374D02*
X039799Y015374D01*
X039799Y015472D02*
X039519Y015472D01*
X039519Y015571D02*
X039799Y015571D01*
X039784Y015669D02*
X039519Y015669D01*
X039475Y015768D02*
X039685Y015768D01*
X039587Y015866D02*
X039377Y015866D01*
X039278Y015965D02*
X039488Y015965D01*
X039390Y016063D02*
X039306Y016063D01*
X035229Y014700D02*
X035173Y014756D01*
X034979Y014756D01*
X033779Y013556D01*
X033779Y012850D01*
X033979Y012650D01*
X033979Y006500D01*
X033479Y006500D02*
X033479Y014650D01*
X033479Y019500D01*
X033979Y020000D01*
X033979Y020500D01*
X032979Y020500D02*
X032979Y006500D01*
X032479Y007000D02*
X032479Y020000D01*
X031979Y020500D01*
X031479Y020296D02*
X031522Y020194D01*
X031673Y020042D01*
X031872Y019960D01*
X032087Y019960D01*
X032173Y019996D01*
X032259Y019909D01*
X032259Y007303D01*
X032199Y007243D01*
X032199Y010591D01*
X032070Y010720D01*
X031070Y011720D01*
X027569Y011720D01*
X027569Y011724D01*
X027293Y012000D01*
X027569Y012276D01*
X027569Y012479D01*
X028720Y013630D01*
X028853Y013630D01*
X028989Y013686D01*
X029093Y013790D01*
X029149Y013926D01*
X029149Y014074D01*
X029093Y014210D01*
X028989Y014314D01*
X028853Y014370D01*
X028706Y014370D01*
X028570Y014314D01*
X028466Y014210D01*
X028409Y014074D01*
X028409Y013941D01*
X027381Y012912D01*
X027253Y013040D01*
X026806Y013040D01*
X026529Y012764D01*
X026253Y013040D01*
X025806Y013040D01*
X025489Y012724D01*
X025489Y012276D01*
X025766Y012000D01*
X025741Y012025D02*
X024849Y012025D01*
X024849Y012074D02*
X024793Y012210D01*
X024699Y012303D01*
X024699Y013359D01*
X026520Y015180D01*
X026531Y015180D01*
X026526Y015178D01*
X026301Y014953D01*
X026179Y014659D01*
X026179Y014341D01*
X026301Y014047D01*
X026526Y013822D01*
X026820Y013700D01*
X027138Y013700D01*
X027432Y013822D01*
X027657Y014047D01*
X027779Y014341D01*
X027779Y014659D01*
X027657Y014953D01*
X027432Y015178D01*
X027281Y015241D01*
X029070Y017030D01*
X029199Y017159D01*
X029199Y020007D01*
X029285Y020042D01*
X029437Y020194D01*
X029479Y020296D01*
X029522Y020194D01*
X029673Y020042D01*
X029872Y019960D01*
X030087Y019960D01*
X030285Y020042D01*
X030437Y020194D01*
X030479Y020296D01*
X030522Y020194D01*
X030673Y020042D01*
X030872Y019960D01*
X031087Y019960D01*
X031285Y020042D01*
X031437Y020194D01*
X031479Y020296D01*
X031440Y020200D02*
X031519Y020200D01*
X031614Y020102D02*
X031345Y020102D01*
X031191Y020003D02*
X031768Y020003D01*
X032259Y019905D02*
X029199Y019905D01*
X029199Y020003D02*
X029768Y020003D01*
X029614Y020102D02*
X029345Y020102D01*
X029440Y020200D02*
X029519Y020200D01*
X029199Y019806D02*
X032259Y019806D01*
X032259Y019708D02*
X029199Y019708D01*
X029199Y019609D02*
X032259Y019609D01*
X032259Y019511D02*
X029199Y019511D01*
X029199Y019412D02*
X032259Y019412D01*
X032259Y019314D02*
X029199Y019314D01*
X029199Y019215D02*
X032259Y019215D01*
X032259Y019117D02*
X029199Y019117D01*
X029199Y019018D02*
X032259Y019018D01*
X032259Y018920D02*
X029199Y018920D01*
X029199Y018821D02*
X032259Y018821D01*
X032259Y018723D02*
X029199Y018723D01*
X029199Y018624D02*
X032259Y018624D01*
X032259Y018526D02*
X029199Y018526D01*
X029199Y018427D02*
X032259Y018427D01*
X032259Y018329D02*
X029199Y018329D01*
X029199Y018230D02*
X032259Y018230D01*
X032259Y018132D02*
X029199Y018132D01*
X029199Y018033D02*
X032259Y018033D01*
X032259Y017935D02*
X029199Y017935D01*
X029199Y017836D02*
X032259Y017836D01*
X032259Y017738D02*
X029199Y017738D01*
X029199Y017639D02*
X032259Y017639D01*
X032259Y017541D02*
X029199Y017541D01*
X029199Y017442D02*
X032259Y017442D01*
X032259Y017344D02*
X029199Y017344D01*
X029199Y017245D02*
X032259Y017245D01*
X032259Y017147D02*
X029187Y017147D01*
X029088Y017048D02*
X032259Y017048D01*
X032259Y016950D02*
X028990Y016950D01*
X028891Y016851D02*
X032259Y016851D01*
X032259Y016753D02*
X028793Y016753D01*
X028694Y016654D02*
X032259Y016654D01*
X032259Y016556D02*
X028596Y016556D01*
X028497Y016457D02*
X032259Y016457D01*
X032259Y016359D02*
X028399Y016359D01*
X028300Y016260D02*
X032259Y016260D01*
X032259Y016162D02*
X028202Y016162D01*
X028103Y016063D02*
X032259Y016063D01*
X032259Y015965D02*
X028005Y015965D01*
X027906Y015866D02*
X032259Y015866D01*
X032259Y015768D02*
X027808Y015768D01*
X027709Y015669D02*
X032259Y015669D01*
X032259Y015571D02*
X027611Y015571D01*
X027512Y015472D02*
X032259Y015472D01*
X032259Y015374D02*
X027414Y015374D01*
X027315Y015275D02*
X032259Y015275D01*
X032259Y015177D02*
X027434Y015177D01*
X027533Y015078D02*
X032259Y015078D01*
X032259Y014980D02*
X027631Y014980D01*
X027687Y014881D02*
X032259Y014881D01*
X032259Y014783D02*
X027728Y014783D01*
X027769Y014684D02*
X032259Y014684D01*
X032259Y014586D02*
X027779Y014586D01*
X027779Y014487D02*
X032259Y014487D01*
X032259Y014389D02*
X027779Y014389D01*
X027758Y014290D02*
X028546Y014290D01*
X028458Y014192D02*
X027717Y014192D01*
X027677Y014093D02*
X028417Y014093D01*
X028409Y013995D02*
X027605Y013995D01*
X027507Y013896D02*
X028364Y013896D01*
X028266Y013798D02*
X027374Y013798D01*
X027773Y013305D02*
X024699Y013305D01*
X024699Y013207D02*
X027675Y013207D01*
X027576Y013108D02*
X024699Y013108D01*
X024699Y013010D02*
X025775Y013010D01*
X025677Y012911D02*
X024699Y012911D01*
X024699Y012813D02*
X025578Y012813D01*
X025489Y012714D02*
X024699Y012714D01*
X024699Y012616D02*
X025489Y012616D01*
X025489Y012517D02*
X024699Y012517D01*
X024699Y012419D02*
X025489Y012419D01*
X025489Y012320D02*
X024699Y012320D01*
X024781Y012222D02*
X025544Y012222D01*
X025643Y012123D02*
X024829Y012123D01*
X024849Y012074D02*
X024849Y011926D01*
X024808Y011828D02*
X025593Y011828D01*
X025495Y011729D02*
X024732Y011729D01*
X024554Y011631D02*
X025489Y011631D01*
X025489Y011532D02*
X021981Y011532D01*
X021999Y011631D02*
X023904Y011631D01*
X024054Y011631D02*
X024404Y011631D01*
X024479Y012000D02*
X024479Y013450D01*
X026429Y015400D01*
X027129Y015400D01*
X028979Y017250D01*
X028979Y020500D01*
X029479Y021000D02*
X027679Y021000D01*
X027329Y020650D01*
X027329Y019550D01*
X025129Y017350D01*
X020179Y017350D01*
X019229Y018300D01*
X017929Y018300D01*
X021629Y015550D02*
X023079Y017000D01*
X023729Y017000D02*
X022029Y015300D01*
X022029Y012050D01*
X021629Y011650D01*
X021936Y011434D02*
X025489Y011434D01*
X025489Y011335D02*
X021836Y011335D01*
X021423Y011335D02*
X021399Y011335D01*
X021399Y011237D02*
X025455Y011237D01*
X025388Y011170D02*
X025388Y011170D01*
X025356Y011138D02*
X021399Y011138D01*
X021399Y011040D02*
X025259Y011040D01*
X025259Y010941D02*
X021399Y010941D01*
X021399Y010843D02*
X025259Y010843D01*
X025259Y010744D02*
X021399Y010744D01*
X021399Y010646D02*
X024697Y010646D01*
X024553Y010547D02*
X021756Y010547D01*
X021529Y010250D02*
X024779Y010250D01*
X024829Y010300D01*
X024962Y010646D02*
X025259Y010646D01*
X025259Y010547D02*
X025106Y010547D01*
X025168Y010449D02*
X025259Y010449D01*
X025259Y010350D02*
X025199Y010350D01*
X025199Y010252D02*
X025259Y010252D01*
X025259Y010153D02*
X025169Y010153D01*
X025107Y010055D02*
X025259Y010055D01*
X025259Y009956D02*
X024966Y009956D01*
X024693Y009956D02*
X021759Y009956D01*
X021399Y009858D02*
X025311Y009858D01*
X025409Y009759D02*
X021399Y009759D01*
X021399Y009661D02*
X025508Y009661D01*
X025606Y009562D02*
X021399Y009562D01*
X021399Y009464D02*
X025705Y009464D01*
X025803Y009365D02*
X021399Y009365D01*
X021399Y009267D02*
X027902Y009267D01*
X028000Y009168D02*
X021399Y009168D01*
X021399Y009070D02*
X028099Y009070D01*
X028197Y008971D02*
X021399Y008971D01*
X021399Y008873D02*
X028296Y008873D01*
X028394Y008774D02*
X021399Y008774D01*
X021399Y008676D02*
X028493Y008676D01*
X028591Y008577D02*
X021399Y008577D01*
X021399Y008479D02*
X028690Y008479D01*
X028788Y008380D02*
X021399Y008380D01*
X021399Y008282D02*
X028887Y008282D01*
X028985Y008183D02*
X021399Y008183D01*
X021399Y008085D02*
X029084Y008085D01*
X029182Y007986D02*
X021399Y007986D01*
X021399Y007888D02*
X029281Y007888D01*
X029379Y007789D02*
X021399Y007789D01*
X021399Y007691D02*
X029478Y007691D01*
X029576Y007592D02*
X021399Y007592D01*
X021497Y007494D02*
X029675Y007494D01*
X029773Y007395D02*
X021595Y007395D01*
X021694Y007297D02*
X029872Y007297D01*
X029970Y007198D02*
X021792Y007198D01*
X021891Y007100D02*
X030069Y007100D01*
X030167Y007001D02*
X021989Y007001D01*
X022088Y006903D02*
X030266Y006903D01*
X030364Y006804D02*
X022186Y006804D01*
X022285Y006706D02*
X030463Y006706D01*
X030561Y006607D02*
X022383Y006607D01*
X022482Y006509D02*
X030660Y006509D01*
X030758Y006410D02*
X022580Y006410D01*
X022679Y006312D02*
X030857Y006312D01*
X030955Y006213D02*
X022777Y006213D01*
X022876Y006115D02*
X031054Y006115D01*
X031152Y006016D02*
X022974Y006016D01*
X022869Y003040D02*
X025759Y003040D01*
X026489Y002310D01*
X027159Y002310D01*
X028979Y001500D02*
X029979Y001500D01*
X033434Y003357D02*
X037479Y003357D01*
X037519Y003258D02*
X033532Y003258D01*
X035631Y003160D02*
X037584Y003160D01*
X037699Y003061D02*
X035729Y003061D01*
X037929Y003061D02*
X038029Y003061D01*
X038029Y003160D02*
X037929Y003160D01*
X037929Y003258D02*
X038029Y003258D01*
X038260Y003061D02*
X038699Y003061D01*
X038584Y003160D02*
X038374Y003160D01*
X038440Y003258D02*
X038519Y003258D01*
X038929Y003258D02*
X039029Y003258D01*
X039029Y003160D02*
X038929Y003160D01*
X038929Y003061D02*
X039029Y003061D01*
X039497Y003554D02*
X039799Y003554D01*
X039799Y003652D02*
X039477Y003652D01*
X039435Y003751D02*
X039799Y003751D01*
X039799Y003849D02*
X039366Y003849D01*
X039246Y003948D02*
X039799Y003948D01*
X039799Y004046D02*
X039289Y004046D01*
X039388Y004145D02*
X039799Y004145D01*
X039799Y004243D02*
X039486Y004243D01*
X039519Y004342D02*
X039799Y004342D01*
X039799Y004440D02*
X039519Y004440D01*
X039519Y004539D02*
X039799Y004539D01*
X039799Y004637D02*
X039519Y004637D01*
X039507Y004736D02*
X039799Y004736D01*
X039799Y004834D02*
X039409Y004834D01*
X039310Y004933D02*
X039799Y004933D01*
X039799Y005031D02*
X039274Y005031D01*
X038479Y006000D02*
X032379Y006000D01*
X031979Y006400D01*
X031979Y010500D01*
X030979Y011500D01*
X027029Y011500D01*
X026529Y011100D02*
X026529Y011950D01*
X026029Y012450D01*
X026029Y012500D01*
X026382Y012911D02*
X026677Y012911D01*
X026775Y013010D02*
X026283Y013010D01*
X026480Y012813D02*
X026578Y012813D01*
X027029Y012500D02*
X027279Y012500D01*
X028779Y014000D01*
X029149Y013995D02*
X032259Y013995D01*
X032259Y014093D02*
X029141Y014093D01*
X029100Y014192D02*
X032259Y014192D01*
X032259Y014290D02*
X029013Y014290D01*
X029137Y013896D02*
X032259Y013896D01*
X032259Y013798D02*
X029096Y013798D01*
X029002Y013699D02*
X032259Y013699D01*
X032259Y013601D02*
X028691Y013601D01*
X028592Y013502D02*
X032259Y013502D01*
X032259Y013404D02*
X028494Y013404D01*
X028395Y013305D02*
X032259Y013305D01*
X032259Y013207D02*
X028297Y013207D01*
X028198Y013108D02*
X032259Y013108D01*
X032259Y013010D02*
X028100Y013010D01*
X028001Y012911D02*
X032259Y012911D01*
X032259Y012813D02*
X027903Y012813D01*
X027804Y012714D02*
X032259Y012714D01*
X032259Y012616D02*
X027706Y012616D01*
X027607Y012517D02*
X032259Y012517D01*
X032259Y012419D02*
X027569Y012419D01*
X027569Y012320D02*
X032259Y012320D01*
X032259Y012222D02*
X027515Y012222D01*
X027416Y012123D02*
X032259Y012123D01*
X032259Y012025D02*
X027318Y012025D01*
X027367Y011926D02*
X032259Y011926D01*
X032259Y011828D02*
X027465Y011828D01*
X027564Y011729D02*
X032259Y011729D01*
X032259Y011631D02*
X031160Y011631D01*
X031258Y011532D02*
X032259Y011532D01*
X032259Y011434D02*
X031357Y011434D01*
X031455Y011335D02*
X032259Y011335D01*
X032259Y011237D02*
X031554Y011237D01*
X031652Y011138D02*
X032259Y011138D01*
X032259Y011040D02*
X031751Y011040D01*
X031849Y010941D02*
X032259Y010941D01*
X032259Y010843D02*
X031948Y010843D01*
X032046Y010744D02*
X032259Y010744D01*
X032259Y010646D02*
X032145Y010646D01*
X032199Y010547D02*
X032259Y010547D01*
X032259Y010449D02*
X032199Y010449D01*
X032199Y010350D02*
X032259Y010350D01*
X032259Y010252D02*
X032199Y010252D01*
X032199Y010153D02*
X032259Y010153D01*
X032259Y010055D02*
X032199Y010055D01*
X032199Y009956D02*
X032259Y009956D01*
X032259Y009858D02*
X032199Y009858D01*
X032199Y009759D02*
X032259Y009759D01*
X032259Y009661D02*
X032199Y009661D01*
X032199Y009562D02*
X032259Y009562D01*
X032259Y009464D02*
X032199Y009464D01*
X032199Y009365D02*
X032259Y009365D01*
X032259Y009267D02*
X032199Y009267D01*
X032199Y009168D02*
X032259Y009168D01*
X032259Y009070D02*
X032199Y009070D01*
X032199Y008971D02*
X032259Y008971D01*
X032259Y008873D02*
X032199Y008873D01*
X032199Y008774D02*
X032259Y008774D01*
X032259Y008676D02*
X032199Y008676D01*
X032199Y008577D02*
X032259Y008577D01*
X032259Y008479D02*
X032199Y008479D01*
X032199Y008380D02*
X032259Y008380D01*
X032259Y008282D02*
X032199Y008282D01*
X032199Y008183D02*
X032259Y008183D01*
X032259Y008085D02*
X032199Y008085D01*
X032199Y007986D02*
X032259Y007986D01*
X032259Y007888D02*
X032199Y007888D01*
X032199Y007789D02*
X032259Y007789D01*
X032259Y007691D02*
X032199Y007691D01*
X032199Y007592D02*
X032259Y007592D01*
X032259Y007494D02*
X032199Y007494D01*
X032199Y007395D02*
X032259Y007395D01*
X032253Y007297D02*
X032199Y007297D01*
X031459Y007297D02*
X030494Y007297D01*
X030395Y007395D02*
X031459Y007395D01*
X031459Y007494D02*
X030297Y007494D01*
X030198Y007592D02*
X031459Y007592D01*
X031459Y007691D02*
X030100Y007691D01*
X030001Y007789D02*
X031459Y007789D01*
X031459Y007888D02*
X029903Y007888D01*
X029804Y007986D02*
X031459Y007986D01*
X031459Y008085D02*
X029706Y008085D01*
X029607Y008183D02*
X031459Y008183D01*
X031459Y008282D02*
X029509Y008282D01*
X029410Y008380D02*
X031459Y008380D01*
X031459Y008479D02*
X029312Y008479D01*
X029213Y008577D02*
X031459Y008577D01*
X031459Y008676D02*
X029115Y008676D01*
X029016Y008774D02*
X031459Y008774D01*
X031459Y008873D02*
X028918Y008873D01*
X028819Y008971D02*
X031459Y008971D01*
X031459Y009070D02*
X028721Y009070D01*
X028622Y009168D02*
X031459Y009168D01*
X031459Y009267D02*
X028524Y009267D01*
X028425Y009365D02*
X031459Y009365D01*
X031459Y009464D02*
X028327Y009464D01*
X028228Y009562D02*
X031459Y009562D01*
X031459Y009661D02*
X028130Y009661D01*
X028070Y009720D02*
X031459Y006331D01*
X031459Y009759D01*
X026031Y009759D01*
X026070Y009720D02*
X025830Y009960D01*
X026253Y009960D01*
X026543Y010250D01*
X026814Y009980D01*
X026979Y009980D01*
X026979Y010450D01*
X027079Y010450D01*
X027079Y009980D01*
X027245Y009980D01*
X027549Y010285D01*
X027549Y010450D01*
X027079Y010450D01*
X027079Y010550D01*
X027549Y010550D01*
X027549Y010715D01*
X027485Y010780D01*
X030438Y010780D01*
X031459Y009759D01*
X031361Y009858D02*
X025933Y009858D01*
X025834Y009956D02*
X031262Y009956D01*
X031164Y010055D02*
X027319Y010055D01*
X027418Y010153D02*
X031065Y010153D01*
X030967Y010252D02*
X027516Y010252D01*
X027549Y010350D02*
X030868Y010350D01*
X030770Y010449D02*
X027549Y010449D01*
X027549Y010646D02*
X030573Y010646D01*
X030474Y010744D02*
X027521Y010744D01*
X027079Y010547D02*
X030671Y010547D01*
X028070Y009720D02*
X026070Y009720D01*
X026348Y010055D02*
X026739Y010055D01*
X026641Y010153D02*
X026446Y010153D01*
X026979Y010153D02*
X027079Y010153D01*
X027079Y010055D02*
X026979Y010055D01*
X026979Y010252D02*
X027079Y010252D01*
X027079Y010350D02*
X026979Y010350D01*
X026979Y010449D02*
X027079Y010449D01*
X023979Y012000D02*
X023979Y013350D01*
X026279Y015650D01*
X026629Y015650D01*
X027979Y017000D01*
X027979Y020500D01*
X027614Y020102D02*
X027549Y020102D01*
X027549Y020003D02*
X027759Y020003D01*
X027759Y019905D02*
X027549Y019905D01*
X027549Y019806D02*
X027759Y019806D01*
X027759Y019708D02*
X027549Y019708D01*
X027549Y019609D02*
X027759Y019609D01*
X027759Y019511D02*
X027549Y019511D01*
X027503Y019412D02*
X027759Y019412D01*
X027759Y019314D02*
X027404Y019314D01*
X027306Y019215D02*
X027759Y019215D01*
X027759Y019117D02*
X027207Y019117D01*
X027109Y019018D02*
X027759Y019018D01*
X027759Y018920D02*
X027010Y018920D01*
X026912Y018821D02*
X027759Y018821D01*
X027759Y018723D02*
X026813Y018723D01*
X026715Y018624D02*
X027759Y018624D01*
X027759Y018526D02*
X026616Y018526D01*
X026518Y018427D02*
X027759Y018427D01*
X027759Y018329D02*
X026419Y018329D01*
X026321Y018230D02*
X027759Y018230D01*
X027759Y018132D02*
X026222Y018132D01*
X026124Y018033D02*
X027759Y018033D01*
X027759Y017935D02*
X026025Y017935D01*
X025927Y017836D02*
X027759Y017836D01*
X027759Y017738D02*
X025828Y017738D01*
X025730Y017639D02*
X027759Y017639D01*
X027759Y017541D02*
X025631Y017541D01*
X025533Y017442D02*
X027759Y017442D01*
X027759Y017344D02*
X025434Y017344D01*
X025335Y017245D02*
X027759Y017245D01*
X027759Y017147D02*
X025237Y017147D01*
X025004Y017836D02*
X023376Y017836D01*
X023475Y017935D02*
X025103Y017935D01*
X025201Y018033D02*
X023574Y018033D01*
X023807Y018132D02*
X025300Y018132D01*
X025398Y018230D02*
X023983Y018230D01*
X024059Y018329D02*
X025497Y018329D01*
X025595Y018427D02*
X024099Y018427D01*
X024099Y018526D02*
X025694Y018526D01*
X025792Y018624D02*
X024078Y018624D01*
X024030Y018723D02*
X025891Y018723D01*
X025989Y018821D02*
X023921Y018821D01*
X024099Y017048D02*
X027716Y017048D01*
X027618Y016950D02*
X024099Y016950D01*
X024068Y016851D02*
X027519Y016851D01*
X027421Y016753D02*
X024005Y016753D01*
X023861Y016654D02*
X027322Y016654D01*
X027224Y016556D02*
X023596Y016556D01*
X023497Y016457D02*
X027125Y016457D01*
X027027Y016359D02*
X023399Y016359D01*
X023300Y016260D02*
X026928Y016260D01*
X026830Y016162D02*
X023202Y016162D01*
X023103Y016063D02*
X026731Y016063D01*
X026633Y015965D02*
X023005Y015965D01*
X022906Y015866D02*
X026184Y015866D01*
X026086Y015768D02*
X022808Y015768D01*
X022709Y015669D02*
X025987Y015669D01*
X026059Y015741D02*
X026059Y015741D01*
X025889Y015571D02*
X022611Y015571D01*
X022512Y015472D02*
X025790Y015472D01*
X025692Y015374D02*
X022414Y015374D01*
X022315Y015275D02*
X025593Y015275D01*
X025495Y015177D02*
X022249Y015177D01*
X022249Y015078D02*
X025396Y015078D01*
X025298Y014980D02*
X022249Y014980D01*
X022249Y014881D02*
X025199Y014881D01*
X025101Y014783D02*
X022249Y014783D01*
X022249Y014684D02*
X025002Y014684D01*
X024904Y014586D02*
X022249Y014586D01*
X022249Y014487D02*
X024805Y014487D01*
X024707Y014389D02*
X022249Y014389D01*
X022249Y014290D02*
X024608Y014290D01*
X024510Y014192D02*
X022249Y014192D01*
X022249Y014093D02*
X024411Y014093D01*
X024313Y013995D02*
X022249Y013995D01*
X022249Y013896D02*
X024214Y013896D01*
X024116Y013798D02*
X022249Y013798D01*
X022249Y013699D02*
X024017Y013699D01*
X023919Y013601D02*
X022249Y013601D01*
X022249Y013502D02*
X023820Y013502D01*
X023888Y013570D02*
X023888Y013570D01*
X023759Y013404D02*
X022249Y013404D01*
X022249Y013305D02*
X023759Y013305D01*
X023759Y013207D02*
X022249Y013207D01*
X022249Y013108D02*
X023759Y013108D01*
X023759Y013010D02*
X022249Y013010D01*
X022249Y012911D02*
X023759Y012911D01*
X023759Y012813D02*
X022249Y012813D01*
X022249Y012714D02*
X023759Y012714D01*
X023759Y012616D02*
X022249Y012616D01*
X022249Y012517D02*
X023759Y012517D01*
X023759Y012419D02*
X022249Y012419D01*
X022249Y012320D02*
X023759Y012320D01*
X023678Y012222D02*
X022249Y012222D01*
X022249Y012123D02*
X023630Y012123D01*
X023650Y011828D02*
X022118Y011828D01*
X022019Y011729D02*
X023727Y011729D01*
X021629Y012200D02*
X021629Y015550D01*
X024941Y013601D02*
X028069Y013601D01*
X028167Y013699D02*
X025039Y013699D01*
X025138Y013798D02*
X026585Y013798D01*
X026452Y013896D02*
X025236Y013896D01*
X025335Y013995D02*
X026354Y013995D01*
X026282Y014093D02*
X025433Y014093D01*
X025532Y014192D02*
X026241Y014192D01*
X026200Y014290D02*
X025630Y014290D01*
X025729Y014389D02*
X026179Y014389D01*
X026179Y014487D02*
X025827Y014487D01*
X025926Y014586D02*
X026179Y014586D01*
X026190Y014684D02*
X026024Y014684D01*
X026123Y014783D02*
X026231Y014783D01*
X026221Y014881D02*
X026271Y014881D01*
X026320Y014980D02*
X026328Y014980D01*
X026418Y015078D02*
X026426Y015078D01*
X026517Y015177D02*
X026525Y015177D01*
X027970Y013502D02*
X024842Y013502D01*
X024744Y013404D02*
X027872Y013404D01*
X027478Y013010D02*
X027283Y013010D01*
X034129Y013050D02*
X035179Y012000D01*
X038479Y012000D01*
X038979Y011500D01*
X037979Y011500D02*
X036179Y009700D01*
X036179Y008950D01*
X031459Y007198D02*
X030592Y007198D01*
X030691Y007100D02*
X031459Y007100D01*
X031459Y007001D02*
X030789Y007001D01*
X030888Y006903D02*
X031459Y006903D01*
X031459Y006804D02*
X030986Y006804D01*
X031085Y006706D02*
X031459Y006706D01*
X031459Y006607D02*
X031183Y006607D01*
X031282Y006509D02*
X031459Y006509D01*
X031459Y006410D02*
X031380Y006410D01*
X031251Y005918D02*
X030873Y005918D01*
X030971Y005819D02*
X031349Y005819D01*
X031448Y005721D02*
X031070Y005721D01*
X031168Y005622D02*
X031546Y005622D01*
X031645Y005524D02*
X031267Y005524D01*
X031365Y005425D02*
X031743Y005425D01*
X031842Y005327D02*
X031464Y005327D01*
X031562Y005228D02*
X031940Y005228D01*
X032039Y005130D02*
X031661Y005130D01*
X031759Y005031D02*
X032137Y005031D01*
X032236Y004933D02*
X031858Y004933D01*
X031956Y004834D02*
X032334Y004834D01*
X022979Y001500D02*
X022689Y001500D01*
X020979Y001500D02*
X020979Y002500D01*
X017479Y006000D01*
X016879Y006200D02*
X016879Y004100D01*
X017479Y003500D01*
X017334Y003160D02*
X017124Y003160D01*
X017624Y003160D02*
X017834Y003160D01*
X017979Y003500D02*
X017979Y003550D01*
X017079Y004450D01*
X017079Y007000D01*
X017029Y006950D01*
X016729Y006950D01*
X017079Y007000D02*
X017079Y007150D01*
X016529Y007700D01*
X016529Y008700D01*
X017029Y009200D01*
X015229Y008250D02*
X013979Y009500D01*
X013979Y013000D01*
X012979Y014000D01*
X009329Y014000D01*
X009279Y013950D01*
X008779Y013100D02*
X008429Y012750D01*
X007179Y012750D01*
X006979Y012950D01*
X006879Y012500D02*
X006179Y013200D01*
X006879Y012500D02*
X012729Y012500D01*
X013779Y011450D01*
X013779Y009400D01*
X014779Y008400D01*
X014779Y007800D01*
X015179Y007400D01*
X015209Y007400D01*
X015432Y007100D02*
X015459Y007100D01*
X014406Y006607D02*
X001189Y006607D01*
X001189Y006509D02*
X014504Y006509D01*
X014603Y006410D02*
X001189Y006410D01*
X001189Y006312D02*
X014701Y006312D01*
X014800Y006213D02*
X001189Y006213D01*
X001189Y006115D02*
X014898Y006115D01*
X014997Y006016D02*
X001189Y006016D01*
X001189Y005918D02*
X015095Y005918D01*
X015194Y005819D02*
X001189Y005819D01*
X001189Y005721D02*
X015292Y005721D01*
X015391Y005622D02*
X014721Y005622D01*
X014798Y005524D02*
X015294Y005524D01*
X015181Y005425D02*
X014839Y005425D01*
X014619Y005200D02*
X014469Y005350D01*
X014619Y005200D02*
X015479Y005200D01*
X014218Y005622D02*
X001189Y005622D01*
X001189Y006706D02*
X014307Y006706D01*
X014209Y006804D02*
X001189Y006804D01*
X001189Y006903D02*
X014110Y006903D01*
X014012Y007001D02*
X001189Y007001D01*
X001189Y007100D02*
X013913Y007100D01*
X015229Y007950D02*
X015229Y008250D01*
X013729Y005250D02*
X013719Y005240D01*
X013719Y002760D01*
X002324Y003948D02*
X002019Y003948D01*
X001957Y004046D02*
X002127Y004046D01*
X008779Y013100D02*
X011929Y013100D01*
X014303Y014487D02*
X014609Y014487D01*
X014609Y014389D02*
X014402Y014389D01*
X014500Y014290D02*
X014609Y014290D01*
X014599Y014192D02*
X014609Y014192D01*
X014583Y014586D02*
X014205Y014586D01*
X014106Y014684D02*
X014484Y014684D01*
X014386Y014783D02*
X014008Y014783D01*
X013909Y014881D02*
X014287Y014881D01*
X014189Y014980D02*
X013811Y014980D01*
X013712Y015078D02*
X014090Y015078D01*
X013992Y015177D02*
X013614Y015177D01*
X013515Y015275D02*
X013893Y015275D01*
X013795Y015374D02*
X013417Y015374D01*
X013318Y015472D02*
X013696Y015472D01*
X013598Y015571D02*
X013220Y015571D01*
X013121Y015669D02*
X013499Y015669D01*
X013401Y015768D02*
X013023Y015768D01*
X012924Y015866D02*
X013302Y015866D01*
X006802Y019708D02*
X006399Y019708D01*
X006399Y019806D02*
X006564Y019806D01*
X006444Y019905D02*
X006399Y019905D01*
X007524Y021087D02*
X027055Y021087D01*
X027153Y021185D02*
X007416Y021185D01*
X007178Y021284D02*
X027252Y021284D01*
X027529Y021250D02*
X027029Y020750D01*
X027529Y021250D02*
X030229Y021250D01*
X030979Y020500D01*
X030614Y020102D02*
X030345Y020102D01*
X030440Y020200D02*
X030519Y020200D01*
X030768Y020003D02*
X030191Y020003D01*
X029979Y020500D02*
X029479Y021000D01*
X034979Y020500D02*
X034979Y014756D01*
D16*
X039649Y016270D02*
X039649Y019830D01*
X038979Y020500D01*
X037979Y020500D01*
X039649Y016270D02*
X040129Y015790D01*
X040129Y003110D01*
X039589Y002570D01*
X038449Y002570D01*
X037959Y002080D01*
X037959Y001360D01*
X037439Y000840D01*
X020619Y000840D01*
X020169Y001290D01*
X020169Y002530D01*
X019469Y003230D01*
X018979Y001500D02*
X018979Y001490D01*
X018369Y000880D01*
X013479Y000880D01*
X012929Y001430D01*
X010739Y003620D01*
X010739Y005010D01*
X010549Y005200D01*
X013529Y007500D02*
X007479Y007500D01*
X005629Y009350D01*
X005629Y014200D01*
X013529Y007500D02*
X013979Y007500D01*
X015979Y005500D01*
X015979Y001500D01*
X011969Y001400D02*
X011869Y001500D01*
X007979Y001500D01*
X006979Y002500D01*
X005979Y002500D01*
X004979Y001500D01*
X001979Y001500D01*
X001679Y001800D01*
X001679Y003800D01*
M02*
