G75*
G70*
%OFA0B0*%
%FSLAX24Y24*%
%IPPOS*%
%LPD*%
%AMOC8*
5,1,8,0,0,1.08239X$1,22.5*
%
%ADD10R,0.0591X0.0118*%
%ADD11R,0.0118X0.0591*%
%ADD12R,0.0276X0.0669*%
%ADD13R,0.1102X0.0945*%
%ADD14R,0.0276X0.0354*%
%ADD15R,0.0354X0.0276*%
%ADD16R,0.0300X0.0600*%
%ADD17R,0.0315X0.0315*%
%ADD18R,0.0472X0.0217*%
%ADD19R,0.1181X0.0394*%
%ADD20R,0.0500X0.0250*%
%ADD21R,0.0900X0.0960*%
%ADD22R,0.0500X0.0579*%
%ADD23R,0.0240X0.0870*%
%ADD24R,0.0315X0.0354*%
%ADD25R,0.0787X0.0472*%
%ADD26R,0.0433X0.0787*%
%ADD27R,0.0787X0.0433*%
%ADD28R,0.0551X0.1181*%
%ADD29R,0.0709X0.0394*%
%ADD30R,0.1181X0.0354*%
%ADD31R,0.0748X0.0433*%
%ADD32R,0.0260X0.0800*%
%ADD33R,0.0315X0.0138*%
%ADD34R,0.0138X0.0315*%
%ADD35R,0.0925X0.0925*%
%ADD36R,0.0450X0.0100*%
%ADD37R,0.0100X0.0450*%
D10*
X016330Y008638D03*
X016330Y008835D03*
X016330Y009031D03*
X016330Y009228D03*
X016330Y009425D03*
X016330Y009622D03*
X016330Y009819D03*
X016330Y010016D03*
X016330Y010213D03*
X016330Y010409D03*
X016330Y010606D03*
X016330Y010803D03*
X016330Y011000D03*
X016330Y011197D03*
X016330Y011394D03*
X016330Y011591D03*
X016330Y011787D03*
X016330Y011984D03*
X016330Y012181D03*
X016330Y012378D03*
X016330Y012575D03*
X016330Y012772D03*
X016330Y012969D03*
X016330Y013165D03*
X016330Y013362D03*
X022629Y013362D03*
X022629Y013165D03*
X022629Y012969D03*
X022629Y012772D03*
X022629Y012575D03*
X022629Y012378D03*
X022629Y012181D03*
X022629Y011984D03*
X022629Y011787D03*
X022629Y011591D03*
X022629Y011394D03*
X022629Y011197D03*
X022629Y011000D03*
X022629Y010803D03*
X022629Y010606D03*
X022629Y010409D03*
X022629Y010213D03*
X022629Y010016D03*
X022629Y009819D03*
X022629Y009622D03*
X022629Y009425D03*
X022629Y009228D03*
X022629Y009031D03*
X022629Y008835D03*
X022629Y008638D03*
D11*
X021842Y007850D03*
X021645Y007850D03*
X021448Y007850D03*
X021251Y007850D03*
X021054Y007850D03*
X020857Y007850D03*
X020660Y007850D03*
X020464Y007850D03*
X020267Y007850D03*
X020070Y007850D03*
X019873Y007850D03*
X019676Y007850D03*
X019479Y007850D03*
X019282Y007850D03*
X019086Y007850D03*
X018889Y007850D03*
X018692Y007850D03*
X018495Y007850D03*
X018298Y007850D03*
X018101Y007850D03*
X017905Y007850D03*
X017708Y007850D03*
X017511Y007850D03*
X017314Y007850D03*
X017117Y007850D03*
X017117Y014150D03*
X017314Y014150D03*
X017511Y014150D03*
X017708Y014150D03*
X017905Y014150D03*
X018101Y014150D03*
X018298Y014150D03*
X018495Y014150D03*
X018692Y014150D03*
X018889Y014150D03*
X019086Y014150D03*
X019282Y014150D03*
X019479Y014150D03*
X019676Y014150D03*
X019873Y014150D03*
X020070Y014150D03*
X020267Y014150D03*
X020464Y014150D03*
X020660Y014150D03*
X020857Y014150D03*
X021054Y014150D03*
X021251Y014150D03*
X021448Y014150D03*
X021645Y014150D03*
X021842Y014150D03*
D12*
X018952Y005500D03*
X018479Y005500D03*
X018007Y005500D03*
D13*
X002479Y002256D03*
X004881Y002256D03*
X004881Y006744D03*
X002479Y006744D03*
D14*
X007723Y008500D03*
X008235Y008500D03*
X008723Y008500D03*
X009235Y008500D03*
X012723Y008500D03*
X013235Y008500D03*
X011235Y006000D03*
X010723Y006000D03*
X008485Y005850D03*
X007973Y005850D03*
X014723Y004000D03*
X015235Y004000D03*
X007735Y011000D03*
X007223Y011000D03*
X007223Y011500D03*
X007735Y011500D03*
X007735Y012000D03*
X007223Y012000D03*
X007223Y012500D03*
X007735Y012500D03*
X012223Y017000D03*
X012735Y017000D03*
X011735Y018000D03*
X011223Y018000D03*
X030723Y014500D03*
X031235Y014500D03*
D15*
X033979Y014244D03*
X034479Y014244D03*
X034479Y014756D03*
X033979Y014756D03*
X024979Y011256D03*
X024979Y010744D03*
X017479Y005756D03*
X017479Y005244D03*
X016479Y005244D03*
X015979Y005244D03*
X015979Y005756D03*
X016479Y005756D03*
X012979Y002756D03*
X012479Y002756D03*
X012479Y002244D03*
X012979Y002244D03*
X011479Y010244D03*
X011479Y010756D03*
X009479Y018744D03*
X009479Y019256D03*
D16*
X028729Y012500D03*
X030229Y012500D03*
X030229Y010500D03*
X028729Y010500D03*
D17*
X030684Y014000D03*
X031275Y014000D03*
X012775Y016500D03*
X012184Y016500D03*
D18*
X012967Y007874D03*
X012967Y007500D03*
X012967Y007126D03*
X013991Y007126D03*
X013991Y007874D03*
D19*
X004948Y015000D03*
X004948Y016000D03*
X004948Y017000D03*
X004948Y018000D03*
X004948Y019000D03*
X004948Y020000D03*
D20*
X014479Y006162D03*
X014479Y005838D03*
D21*
X014479Y006000D03*
D22*
X008826Y007500D03*
X007133Y007500D03*
D23*
X011729Y006030D03*
X012229Y006030D03*
X012729Y006030D03*
X013229Y006030D03*
X013229Y003970D03*
X012729Y003970D03*
X012229Y003970D03*
X011729Y003970D03*
D24*
X011853Y002394D03*
X011105Y002394D03*
X011479Y001567D03*
D25*
X010579Y003370D03*
X010579Y004630D03*
X007279Y004630D03*
X007279Y003370D03*
D26*
X008034Y002000D03*
X009924Y002000D03*
D27*
X008979Y001055D03*
X008979Y002945D03*
D28*
X010979Y007555D03*
X010979Y009445D03*
D29*
X006479Y013449D03*
X006479Y014551D03*
D30*
X006138Y012378D03*
X006138Y011394D03*
X006138Y010606D03*
X006138Y009622D03*
D31*
X007751Y009953D03*
X007751Y009047D03*
X009208Y009047D03*
X009208Y009953D03*
D32*
X009229Y014695D03*
X008729Y014695D03*
X008229Y014695D03*
X007729Y014695D03*
X009729Y014695D03*
X010229Y014695D03*
X010729Y014695D03*
X011229Y014695D03*
X011229Y017305D03*
X010729Y017305D03*
X010229Y017305D03*
X009729Y017305D03*
X009229Y017305D03*
X008729Y017305D03*
X008229Y017305D03*
X007729Y017305D03*
D33*
X008192Y004884D03*
X008192Y004628D03*
X008192Y004372D03*
X008192Y004116D03*
X009767Y004116D03*
X009767Y004372D03*
X009767Y004628D03*
X009767Y004884D03*
D34*
X009363Y005287D03*
X009107Y005287D03*
X008851Y005287D03*
X008595Y005287D03*
X008595Y003713D03*
X008851Y003713D03*
X009107Y003713D03*
X009363Y003713D03*
D35*
X008979Y004500D03*
D36*
X008601Y011311D03*
X008601Y011508D03*
X008601Y011705D03*
X008601Y011902D03*
X008601Y012098D03*
X008601Y012295D03*
X008601Y012492D03*
X008601Y012689D03*
X011357Y012689D03*
X011357Y012492D03*
X011357Y012295D03*
X011357Y012098D03*
X011357Y011902D03*
X011357Y011705D03*
X011357Y011508D03*
X011357Y011311D03*
D37*
X010668Y010622D03*
X010471Y010622D03*
X010275Y010622D03*
X010078Y010622D03*
X009881Y010622D03*
X009684Y010622D03*
X009487Y010622D03*
X009290Y010622D03*
X009290Y013378D03*
X009487Y013378D03*
X009684Y013378D03*
X009881Y013378D03*
X010078Y013378D03*
X010275Y013378D03*
X010471Y013378D03*
X010668Y013378D03*
M02*
