G75*
G70*
%OFA0B0*%
%FSLAX24Y24*%
%IPPOS*%
%LPD*%
%AMOC8*
5,1,8,0,0,1.08239X$1,22.5*
%
%ADD10C,0.0150*%
%ADD11C,0.0080*%
%ADD12C,0.0050*%
%ADD13C,0.0100*%
%ADD14C,0.0060*%
%ADD15C,0.0120*%
%ADD16C,0.0090*%
%ADD17C,0.0160*%
%ADD18R,0.0280X0.0160*%
%ADD19R,0.0160X0.0280*%
%ADD20C,0.0059*%
%ADD21C,0.0010*%
%ADD22R,0.0195X0.0191*%
%ADD23C,0.0157*%
%ADD24C,0.0040*%
%ADD25R,0.0167X0.0177*%
%ADD26R,0.0110X0.0010*%
%ADD27R,0.0180X0.0010*%
%ADD28R,0.0170X0.0010*%
%ADD29R,0.0220X0.0010*%
%ADD30R,0.0280X0.0010*%
%ADD31R,0.0300X0.0010*%
%ADD32R,0.0320X0.0010*%
%ADD33R,0.0350X0.0010*%
%ADD34R,0.0380X0.0010*%
%ADD35R,0.0400X0.0010*%
%ADD36R,0.0420X0.0010*%
%ADD37R,0.0410X0.0010*%
%ADD38R,0.0430X0.0010*%
%ADD39R,0.0440X0.0010*%
%ADD40R,0.0450X0.0010*%
%ADD41R,0.0460X0.0010*%
%ADD42R,0.0470X0.0010*%
%ADD43R,0.0480X0.0010*%
%ADD44R,0.0490X0.0010*%
%ADD45R,0.0500X0.0010*%
%ADD46R,0.0510X0.0010*%
%ADD47R,0.0520X0.0010*%
%ADD48R,0.0530X0.0010*%
%ADD49R,0.0540X0.0010*%
%ADD50R,0.0550X0.0010*%
%ADD51R,0.0560X0.0010*%
%ADD52R,0.2150X0.0010*%
%ADD53R,0.2250X0.0010*%
%ADD54R,0.2290X0.0010*%
%ADD55R,0.2310X0.0010*%
%ADD56R,0.2330X0.0010*%
%ADD57R,0.2370X0.0010*%
%ADD58R,0.2390X0.0010*%
%ADD59R,0.2410X0.0010*%
%ADD60R,0.2420X0.0010*%
%ADD61R,0.2440X0.0010*%
%ADD62R,0.2450X0.0010*%
%ADD63R,0.2470X0.0010*%
%ADD64R,0.2480X0.0010*%
%ADD65R,0.2490X0.0010*%
%ADD66R,0.2500X0.0010*%
%ADD67R,0.2510X0.0010*%
%ADD68R,0.2520X0.0010*%
%ADD69R,0.2530X0.0010*%
%ADD70R,0.0050X0.0010*%
%ADD71R,0.0140X0.0010*%
%ADD72R,0.0150X0.0010*%
%ADD73R,0.0230X0.0010*%
%ADD74R,0.0260X0.0010*%
%ADD75R,0.0290X0.0010*%
%ADD76R,0.0310X0.0010*%
%ADD77R,0.0340X0.0010*%
%ADD78R,0.0370X0.0010*%
%ADD79R,0.0390X0.0010*%
%ADD80R,0.0360X0.0010*%
%ADD81R,0.0240X0.0010*%
%ADD82R,0.0200X0.0010*%
%ADD83R,0.0070X0.0010*%
%ADD84R,0.2540X0.0010*%
%ADD85R,0.2460X0.0010*%
%ADD86R,0.2430X0.0010*%
%ADD87R,0.2400X0.0010*%
%ADD88R,0.2380X0.0010*%
%ADD89R,0.2360X0.0010*%
%ADD90R,0.2340X0.0010*%
%ADD91R,0.1090X0.0010*%
%ADD92R,0.1060X0.0010*%
%ADD93R,0.1040X0.0010*%
%ADD94R,0.1020X0.0010*%
%ADD95R,0.1000X0.0010*%
%ADD96R,0.0980X0.0010*%
%ADD97R,0.0960X0.0010*%
%ADD98R,0.0970X0.0010*%
%ADD99R,0.0990X0.0010*%
%ADD100R,0.1080X0.0010*%
%ADD101R,0.1120X0.0010*%
%ADD102R,0.2060X0.0010*%
%ADD103R,0.2040X0.0010*%
%ADD104R,0.2020X0.0010*%
%ADD105R,0.2000X0.0010*%
%ADD106R,0.1990X0.0010*%
%ADD107R,0.1980X0.0010*%
%ADD108R,0.1960X0.0010*%
%ADD109R,0.1940X0.0010*%
%ADD110R,0.1920X0.0010*%
%ADD111R,0.1900X0.0010*%
%ADD112R,0.1880X0.0010*%
%ADD113R,0.1860X0.0010*%
%ADD114R,0.1840X0.0010*%
%ADD115R,0.1820X0.0010*%
%ADD116R,0.1800X0.0010*%
%ADD117R,0.1770X0.0010*%
%ADD118R,0.1760X0.0010*%
%ADD119R,0.1730X0.0010*%
%ADD120R,0.1700X0.0010*%
%ADD121R,0.1680X0.0010*%
%ADD122R,0.1660X0.0010*%
%ADD123R,0.1630X0.0010*%
%ADD124R,0.1600X0.0010*%
%ADD125R,0.1580X0.0010*%
%ADD126R,0.1560X0.0010*%
%ADD127R,0.1530X0.0010*%
%ADD128R,0.1490X0.0010*%
%ADD129R,0.1460X0.0010*%
%ADD130R,0.1440X0.0010*%
%ADD131R,0.1400X0.0010*%
%ADD132R,0.1360X0.0010*%
%ADD133R,0.1330X0.0010*%
%ADD134R,0.1300X0.0010*%
%ADD135R,0.1270X0.0010*%
%ADD136R,0.1210X0.0010*%
%ADD137R,0.1150X0.0010*%
%ADD138R,0.0080X0.0010*%
%ADD139R,0.0920X0.0010*%
%ADD140R,0.0820X0.0010*%
%ADD141R,0.0770X0.0010*%
%ADD142R,0.0720X0.0010*%
%ADD143R,0.0660X0.0010*%
%ADD144R,0.0060X0.0010*%
%ADD145R,0.0040X0.0010*%
%ADD146R,0.0020X0.0010*%
%ADD147R,0.0600X0.0010*%
%ADD148R,0.0630X0.0010*%
%ADD149R,0.0680X0.0010*%
%ADD150R,0.0710X0.0010*%
%ADD151R,0.0730X0.0010*%
%ADD152R,0.0750X0.0010*%
%ADD153R,0.0790X0.0010*%
%ADD154R,0.0810X0.0010*%
%ADD155R,0.0840X0.0010*%
%ADD156R,0.0190X0.0010*%
%ADD157R,0.1430X0.0010*%
%ADD158R,0.1480X0.0010*%
%ADD159R,0.1520X0.0010*%
%ADD160R,0.1620X0.0010*%
%ADD161R,0.1650X0.0010*%
%ADD162R,0.1740X0.0010*%
%ADD163R,0.1790X0.0010*%
%ADD164R,0.0780X0.0010*%
%ADD165R,0.0760X0.0010*%
%ADD166R,0.0740X0.0010*%
%ADD167R,0.0700X0.0010*%
%ADD168R,0.0690X0.0010*%
%ADD169R,0.0800X0.0010*%
%ADD170R,0.0830X0.0010*%
%ADD171R,0.0860X0.0010*%
%ADD172R,0.0850X0.0010*%
%ADD173R,0.0870X0.0010*%
%ADD174R,0.0880X0.0010*%
%ADD175R,0.0890X0.0010*%
%ADD176R,0.0900X0.0010*%
%ADD177R,0.0910X0.0010*%
%ADD178R,0.0100X0.0010*%
%ADD179R,0.0090X0.0010*%
%ADD180R,0.0120X0.0010*%
%ADD181R,0.0130X0.0010*%
%ADD182R,0.0930X0.0010*%
%ADD183R,0.0160X0.0010*%
%ADD184R,0.0940X0.0010*%
%ADD185R,0.0950X0.0010*%
%ADD186R,0.0030X0.0010*%
%ADD187R,0.0250X0.0010*%
%ADD188R,0.0670X0.0010*%
%ADD189R,0.0640X0.0010*%
%ADD190R,0.0620X0.0010*%
%ADD191R,0.1970X0.0010*%
%ADD192R,0.1950X0.0010*%
%ADD193R,0.1930X0.0010*%
%ADD194R,0.1720X0.0010*%
%ADD195R,0.1550X0.0010*%
%ADD196R,0.1470X0.0010*%
%ADD197R,0.1420X0.0010*%
%ADD198R,0.1280X0.0010*%
%ADD199R,0.0610X0.0010*%
%ADD200R,0.0570X0.0010*%
%ADD201R,0.0330X0.0010*%
D10*
X021204Y005375D02*
X021678Y005375D01*
X021996Y005375D02*
X022233Y005375D01*
X022115Y005375D02*
X022115Y006086D01*
X021996Y006086D01*
X021678Y006086D02*
X021204Y006086D01*
X021204Y005375D01*
X021204Y005730D02*
X021441Y005730D01*
X022524Y005730D02*
X022524Y005493D01*
X022643Y005375D01*
X022879Y005375D01*
X022998Y005612D02*
X022524Y005612D01*
X022524Y005730D02*
X022643Y005849D01*
X022879Y005849D01*
X022998Y005730D01*
X022998Y005612D01*
X023316Y005730D02*
X023316Y005493D01*
X023434Y005375D01*
X023790Y005375D01*
X024226Y005493D02*
X024345Y005375D01*
X024226Y005493D02*
X024226Y005967D01*
X024108Y005849D02*
X024345Y005849D01*
X024636Y005849D02*
X024636Y005375D01*
X024636Y005612D02*
X024873Y005849D01*
X024991Y005849D01*
X025296Y005849D02*
X025414Y005849D01*
X025414Y005375D01*
X025296Y005375D02*
X025533Y005375D01*
X025824Y005493D02*
X025942Y005375D01*
X026297Y005375D01*
X025824Y005493D02*
X025824Y005730D01*
X025942Y005849D01*
X026297Y005849D01*
X025414Y006086D02*
X025414Y006204D01*
X023790Y005849D02*
X023434Y005849D01*
X023316Y005730D01*
X027407Y005849D02*
X027526Y005730D01*
X027763Y005730D01*
X027881Y005612D01*
X027881Y005493D01*
X027763Y005375D01*
X027526Y005375D01*
X027407Y005493D01*
X027407Y005849D02*
X027407Y005967D01*
X027526Y006086D01*
X027763Y006086D01*
X027881Y005967D01*
X028199Y006086D02*
X028199Y005375D01*
X028199Y005730D02*
X028318Y005849D01*
X028555Y005849D01*
X028673Y005730D01*
X028673Y005375D01*
X028991Y005493D02*
X028991Y005730D01*
X029110Y005849D01*
X029346Y005849D01*
X029465Y005730D01*
X029465Y005612D01*
X028991Y005612D01*
X028991Y005493D02*
X029110Y005375D01*
X029346Y005375D01*
X029783Y005493D02*
X029783Y005730D01*
X029901Y005849D01*
X030138Y005849D01*
X030257Y005730D01*
X030257Y005612D01*
X029783Y005612D01*
X029783Y005493D02*
X029901Y005375D01*
X030138Y005375D01*
X030575Y005375D02*
X030930Y005375D01*
X031049Y005493D01*
X031049Y005730D01*
X030930Y005849D01*
X030575Y005849D01*
X030575Y005138D01*
D11*
X002539Y000990D02*
X002469Y001060D01*
X002469Y001200D01*
X002680Y001200D01*
X002750Y001130D01*
X002750Y001060D01*
X002680Y000990D01*
X002539Y000990D01*
X002469Y001200D02*
X002609Y001340D01*
X002750Y001410D01*
X002930Y001200D02*
X003210Y001200D01*
X003390Y001270D02*
X003530Y001410D01*
X003530Y000990D01*
X003390Y000990D02*
X003670Y000990D01*
X003851Y001060D02*
X003921Y000990D01*
X004061Y000990D01*
X004131Y001060D01*
X004131Y001200D01*
X004061Y001270D01*
X003991Y001270D01*
X003851Y001200D01*
X003851Y001410D01*
X004131Y001410D01*
X004311Y001410D02*
X004311Y001130D01*
X004451Y000990D01*
X004591Y001130D01*
X004591Y001410D01*
X004094Y002728D02*
X003267Y002728D01*
X001692Y002728D02*
X001101Y002728D01*
X001101Y003516D01*
X002479Y003516D01*
X002538Y003520D01*
X002597Y003529D01*
X002655Y003541D01*
X002712Y003556D01*
X002768Y003575D01*
X002823Y003598D01*
X002876Y003624D01*
X002928Y003653D01*
X002977Y003685D01*
X003025Y003721D01*
X003070Y003759D01*
X003113Y003800D01*
X003153Y003844D01*
X003190Y003890D01*
X003224Y003938D01*
X003255Y003989D01*
X003283Y004041D01*
X003307Y004095D01*
X003328Y004150D01*
X003346Y004207D01*
X003360Y004265D01*
X003370Y004323D01*
X003377Y004382D01*
X003380Y004441D01*
X003379Y004500D01*
X003380Y004559D01*
X003377Y004618D01*
X003370Y004677D01*
X003360Y004735D01*
X003346Y004793D01*
X003328Y004850D01*
X003307Y004905D01*
X003283Y004959D01*
X003255Y005011D01*
X003224Y005062D01*
X003190Y005110D01*
X003153Y005156D01*
X003113Y005200D01*
X003070Y005241D01*
X003025Y005279D01*
X002977Y005315D01*
X002928Y005347D01*
X002876Y005376D01*
X002823Y005402D01*
X002768Y005425D01*
X002712Y005444D01*
X002655Y005459D01*
X002597Y005471D01*
X002538Y005480D01*
X002479Y005484D01*
X001101Y005484D01*
X001101Y003516D01*
X001101Y005484D02*
X001101Y006272D01*
X001692Y006272D01*
X003267Y006272D02*
X004094Y006272D01*
X005708Y006272D02*
X006338Y006272D01*
X006338Y002728D01*
X005668Y002728D01*
X006768Y003370D02*
X006768Y004630D01*
X007791Y004630D02*
X007791Y003370D01*
X008179Y003710D02*
X008179Y003970D01*
X008179Y003710D02*
X008389Y003710D01*
X008505Y002974D02*
X008016Y002474D01*
X008026Y001536D02*
X008505Y001046D01*
X009444Y001056D02*
X009943Y001526D01*
X010928Y001724D02*
X010928Y002039D01*
X010928Y001724D02*
X011164Y001724D01*
X011794Y001724D02*
X012031Y001724D01*
X012031Y002039D01*
X013479Y001750D02*
X013729Y002000D01*
X014229Y002000D01*
X014479Y001750D01*
X014729Y002000D01*
X015229Y002000D01*
X015479Y001750D01*
X015729Y002000D01*
X016229Y002000D01*
X016479Y001750D01*
X016729Y002000D01*
X017229Y002000D01*
X017479Y001750D01*
X017729Y002000D01*
X018229Y002000D01*
X018479Y001750D01*
X018729Y002000D01*
X019229Y002000D01*
X019479Y001750D01*
X019479Y001250D01*
X019229Y001000D01*
X018729Y001000D01*
X018479Y001250D01*
X018229Y001000D01*
X017729Y001000D01*
X017479Y001250D01*
X017229Y001000D01*
X016729Y001000D01*
X016479Y001250D01*
X016229Y001000D01*
X015729Y001000D01*
X015479Y001250D01*
X015229Y001000D01*
X014729Y001000D01*
X014479Y001250D01*
X014229Y001000D01*
X013729Y001000D01*
X013479Y001250D01*
X013479Y001750D01*
X011091Y003370D02*
X011091Y004630D01*
X011712Y004610D02*
X011714Y004625D01*
X011720Y004638D01*
X011729Y004650D01*
X011740Y004659D01*
X011754Y004665D01*
X011769Y004667D01*
X011784Y004665D01*
X011797Y004659D01*
X011809Y004650D01*
X011818Y004639D01*
X011824Y004625D01*
X011826Y004610D01*
X011824Y004595D01*
X011818Y004582D01*
X011809Y004570D01*
X011798Y004561D01*
X011784Y004555D01*
X011769Y004553D01*
X011754Y004555D01*
X011741Y004561D01*
X011729Y004570D01*
X011720Y004581D01*
X011714Y004595D01*
X011712Y004610D01*
X010068Y004630D02*
X010068Y003370D01*
X009779Y003710D02*
X009779Y003970D01*
X009779Y003710D02*
X009569Y003710D01*
X009454Y002964D02*
X009953Y002474D01*
X009789Y005040D02*
X009789Y005300D01*
X009579Y005300D01*
X008379Y005300D02*
X008169Y005300D01*
X008169Y005040D01*
X008885Y006929D02*
X007074Y006929D01*
X007074Y007106D01*
X007074Y007894D02*
X007074Y008071D01*
X008885Y008071D01*
X008885Y007894D01*
X008373Y007894D02*
X008373Y007106D01*
X008885Y007106D02*
X008885Y006929D01*
X008716Y008870D02*
X008243Y008870D01*
X007495Y009382D02*
X007495Y009618D01*
X008243Y010130D02*
X008716Y010130D01*
X009464Y009618D02*
X009464Y009382D01*
X013310Y008060D02*
X013648Y008060D01*
X013798Y007606D02*
X013798Y007394D01*
X013648Y006940D02*
X013310Y006940D01*
X017771Y005756D02*
X017771Y005244D01*
X019188Y005244D02*
X019188Y005756D01*
X020839Y003186D02*
X021159Y002866D01*
X021239Y002946D01*
X021239Y003106D01*
X021159Y003186D01*
X020839Y003186D01*
X020759Y003106D01*
X020759Y002946D01*
X020839Y002866D01*
X021159Y002866D01*
X021239Y002670D02*
X020919Y002670D01*
X020759Y002510D01*
X020919Y002350D01*
X021239Y002350D01*
X020999Y002350D02*
X020999Y002670D01*
X021659Y002510D02*
X021819Y002670D01*
X022139Y002670D01*
X022139Y002866D02*
X022139Y003186D01*
X022139Y003026D02*
X021659Y003026D01*
X021819Y002866D01*
X021899Y002670D02*
X021899Y002350D01*
X021819Y002350D02*
X021659Y002510D01*
X021819Y002350D02*
X022139Y002350D01*
X022229Y002000D02*
X021729Y002000D01*
X021479Y001750D01*
X021229Y002000D01*
X020729Y002000D01*
X020479Y001750D01*
X020479Y001250D01*
X020729Y001000D01*
X021229Y001000D01*
X021479Y001250D01*
X021729Y001000D01*
X022229Y001000D01*
X022479Y001250D01*
X022729Y001000D01*
X023229Y001000D01*
X023479Y001250D01*
X023729Y001000D01*
X024229Y001000D01*
X024479Y001250D01*
X024729Y001000D01*
X025229Y001000D01*
X025479Y001250D01*
X025729Y001000D01*
X026229Y001000D01*
X026479Y001250D01*
X026729Y001000D01*
X027229Y001000D01*
X027479Y001250D01*
X027729Y001000D01*
X028229Y001000D01*
X028479Y001250D01*
X028479Y001750D01*
X028229Y002000D01*
X027729Y002000D01*
X027479Y001750D01*
X027229Y002000D01*
X026729Y002000D01*
X026479Y001750D01*
X026229Y002000D01*
X025729Y002000D01*
X025479Y001750D01*
X025229Y002000D01*
X024729Y002000D01*
X024479Y001750D01*
X024229Y002000D01*
X023729Y002000D01*
X023479Y001750D01*
X023229Y002000D01*
X022729Y002000D01*
X022479Y001750D01*
X022229Y002000D01*
X022759Y002510D02*
X022919Y002350D01*
X023239Y002350D01*
X022999Y002350D02*
X022999Y002670D01*
X022919Y002670D02*
X023239Y002670D01*
X023239Y002866D02*
X022919Y003186D01*
X022839Y003186D01*
X022759Y003106D01*
X022759Y002946D01*
X022839Y002866D01*
X022919Y002670D02*
X022759Y002510D01*
X023239Y002866D02*
X023239Y003186D01*
X023759Y003106D02*
X023759Y002946D01*
X023839Y002866D01*
X023919Y002670D02*
X023759Y002510D01*
X023919Y002350D01*
X024239Y002350D01*
X023999Y002350D02*
X023999Y002670D01*
X023919Y002670D02*
X024239Y002670D01*
X024159Y002866D02*
X024239Y002946D01*
X024239Y003106D01*
X024159Y003186D01*
X024079Y003186D01*
X023999Y003106D01*
X023999Y003026D01*
X023999Y003106D02*
X023919Y003186D01*
X023839Y003186D01*
X023759Y003106D01*
X024759Y003106D02*
X024999Y002866D01*
X024999Y003186D01*
X025239Y003106D02*
X024759Y003106D01*
X024919Y002670D02*
X025239Y002670D01*
X024999Y002670D02*
X024999Y002350D01*
X024919Y002350D02*
X024759Y002510D01*
X024919Y002670D01*
X024919Y002350D02*
X025239Y002350D01*
X025709Y002510D02*
X025869Y002670D01*
X026189Y002670D01*
X026109Y002866D02*
X026189Y002946D01*
X026189Y003106D01*
X026109Y003186D01*
X025949Y003186D01*
X025869Y003106D01*
X025869Y003026D01*
X025949Y002866D01*
X025709Y002866D01*
X025709Y003186D01*
X025949Y002670D02*
X025949Y002350D01*
X025869Y002350D02*
X026189Y002350D01*
X025869Y002350D02*
X025709Y002510D01*
X026709Y002670D02*
X026789Y002510D01*
X026949Y002350D01*
X026949Y002590D01*
X027029Y002670D01*
X027109Y002670D01*
X027189Y002590D01*
X027189Y002430D01*
X027109Y002350D01*
X026949Y002350D01*
X027759Y002510D02*
X027919Y002350D01*
X028239Y002350D01*
X027999Y002350D02*
X027999Y002670D01*
X027919Y002670D02*
X028239Y002670D01*
X028239Y002866D02*
X028159Y002866D01*
X027839Y003186D01*
X027759Y003186D01*
X027759Y002866D01*
X027919Y002670D02*
X027759Y002510D01*
X029479Y001750D02*
X029729Y002000D01*
X030229Y002000D01*
X030479Y001750D01*
X030729Y002000D01*
X031229Y002000D01*
X031479Y001750D01*
X031729Y002000D01*
X032229Y002000D01*
X032479Y001750D01*
X032729Y002000D01*
X033229Y002000D01*
X033479Y001750D01*
X033729Y002000D01*
X034229Y002000D01*
X034479Y001750D01*
X034729Y002000D01*
X035229Y002000D01*
X035479Y001750D01*
X035729Y002000D01*
X036229Y002000D01*
X036479Y001750D01*
X036729Y002000D01*
X037229Y002000D01*
X037479Y001750D01*
X037479Y001250D01*
X037229Y001000D01*
X036729Y001000D01*
X036479Y001250D01*
X036229Y001000D01*
X035729Y001000D01*
X035479Y001250D01*
X035229Y001000D01*
X034729Y001000D01*
X034479Y001250D01*
X034229Y001000D01*
X033729Y001000D01*
X033479Y001250D01*
X033229Y001000D01*
X032729Y001000D01*
X032479Y001250D01*
X032229Y001000D01*
X031729Y001000D01*
X031479Y001250D01*
X031229Y001000D01*
X030729Y001000D01*
X030479Y001250D01*
X030229Y001000D01*
X029729Y001000D01*
X029479Y001250D01*
X029479Y001750D01*
X029919Y002350D02*
X029759Y002510D01*
X029919Y002670D01*
X030239Y002670D01*
X030159Y002866D02*
X030079Y002866D01*
X029999Y002946D01*
X029999Y003106D01*
X030079Y003186D01*
X030159Y003186D01*
X030239Y003106D01*
X030239Y002946D01*
X030159Y002866D01*
X029999Y002946D02*
X029919Y002866D01*
X029839Y002866D01*
X029759Y002946D01*
X029759Y003106D01*
X029839Y003186D01*
X029919Y003186D01*
X029999Y003106D01*
X029999Y002670D02*
X029999Y002350D01*
X029919Y002350D02*
X030239Y002350D01*
X030759Y002510D02*
X030919Y002670D01*
X031239Y002670D01*
X031159Y002866D02*
X031239Y002946D01*
X031239Y003106D01*
X031159Y003186D01*
X030839Y003186D01*
X030759Y003106D01*
X030759Y002946D01*
X030839Y002866D01*
X030919Y002866D01*
X030999Y002946D01*
X030999Y003186D01*
X030999Y002670D02*
X030999Y002350D01*
X030919Y002350D02*
X030759Y002510D01*
X030919Y002350D02*
X031239Y002350D01*
X031759Y002510D02*
X031919Y002350D01*
X032239Y002350D01*
X031999Y002350D02*
X031999Y002670D01*
X031919Y002670D02*
X032239Y002670D01*
X032239Y002866D02*
X032239Y003186D01*
X032239Y003026D02*
X031759Y003026D01*
X031919Y002866D01*
X031919Y002670D02*
X031759Y002510D01*
X032759Y002510D02*
X032919Y002670D01*
X033239Y002670D01*
X033239Y002866D02*
X033239Y003186D01*
X033239Y003026D02*
X032759Y003026D01*
X032919Y002866D01*
X032999Y002670D02*
X032999Y002350D01*
X032919Y002350D02*
X032759Y002510D01*
X032919Y002350D02*
X033239Y002350D01*
X033759Y002510D02*
X033919Y002350D01*
X034239Y002350D01*
X033999Y002350D02*
X033999Y002670D01*
X033919Y002670D02*
X034239Y002670D01*
X034239Y002866D02*
X034239Y003186D01*
X034239Y003026D02*
X033759Y003026D01*
X033919Y002866D01*
X033919Y002670D02*
X033759Y002510D01*
X034759Y002510D02*
X034919Y002350D01*
X035239Y002350D01*
X034999Y002350D02*
X034999Y002670D01*
X034919Y002670D02*
X035239Y002670D01*
X035239Y002866D02*
X035239Y003186D01*
X035239Y003026D02*
X034759Y003026D01*
X034919Y002866D01*
X034919Y002670D02*
X034759Y002510D01*
X035759Y002510D02*
X035919Y002670D01*
X036239Y002670D01*
X036239Y002866D02*
X036239Y003186D01*
X036239Y003026D02*
X035759Y003026D01*
X035919Y002866D01*
X035999Y002670D02*
X035999Y002350D01*
X035919Y002350D02*
X035759Y002510D01*
X035919Y002350D02*
X036239Y002350D01*
X036709Y002510D02*
X036869Y002670D01*
X037189Y002670D01*
X037189Y002866D02*
X037189Y003186D01*
X037189Y003026D02*
X036709Y003026D01*
X036869Y002866D01*
X036949Y002670D02*
X036949Y002350D01*
X036869Y002350D02*
X036709Y002510D01*
X036869Y002350D02*
X037189Y002350D01*
X037729Y003000D02*
X039229Y003000D01*
X039479Y003250D01*
X039479Y003750D01*
X039229Y004000D01*
X037729Y004000D01*
X037479Y003750D01*
X037479Y003250D01*
X037729Y003000D01*
X037189Y003461D02*
X037109Y003381D01*
X037189Y003461D02*
X037189Y003621D01*
X037109Y003702D01*
X036949Y003702D01*
X036869Y003621D01*
X036869Y003541D01*
X036949Y003381D01*
X036709Y003381D01*
X036709Y003702D01*
X036239Y003621D02*
X035759Y003621D01*
X035999Y003381D01*
X035999Y003702D01*
X036409Y004240D02*
X036329Y004320D01*
X036409Y004240D02*
X036570Y004240D01*
X036650Y004320D01*
X036650Y004480D01*
X036570Y004560D01*
X036489Y004560D01*
X036329Y004480D01*
X036329Y004720D01*
X036650Y004720D01*
X036845Y004640D02*
X036925Y004720D01*
X037085Y004720D01*
X037165Y004640D01*
X037165Y004560D01*
X036845Y004240D01*
X037165Y004240D01*
X037085Y005240D02*
X036925Y005240D01*
X036845Y005320D01*
X037165Y005640D01*
X037165Y005320D01*
X037085Y005240D01*
X036845Y005320D02*
X036845Y005640D01*
X036925Y005720D01*
X037085Y005720D01*
X037165Y005640D01*
X036650Y005720D02*
X036329Y005720D01*
X036329Y005480D01*
X036489Y005560D01*
X036570Y005560D01*
X036650Y005480D01*
X036650Y005320D01*
X036570Y005240D01*
X036409Y005240D01*
X036329Y005320D01*
X036570Y006240D02*
X036570Y006720D01*
X036329Y006480D01*
X036650Y006480D01*
X036845Y006400D02*
X036925Y006480D01*
X037085Y006480D01*
X037165Y006400D01*
X037165Y006320D01*
X037085Y006240D01*
X036925Y006240D01*
X036845Y006320D01*
X036845Y006400D01*
X036925Y006480D02*
X036845Y006560D01*
X036845Y006640D01*
X036925Y006720D01*
X037085Y006720D01*
X037165Y006640D01*
X037165Y006560D01*
X037085Y006480D01*
X037085Y007240D02*
X036925Y007240D01*
X036845Y007320D01*
X036845Y007480D01*
X037085Y007480D01*
X037165Y007400D01*
X037165Y007320D01*
X037085Y007240D01*
X036845Y007480D02*
X037005Y007640D01*
X037165Y007720D01*
X036650Y007480D02*
X036329Y007480D01*
X036570Y007720D01*
X036570Y007240D01*
X036570Y008240D02*
X036570Y008720D01*
X036329Y008480D01*
X036650Y008480D01*
X036845Y008480D02*
X037165Y008480D01*
X037085Y008240D02*
X037085Y008720D01*
X036845Y008480D01*
X036845Y009240D02*
X037165Y009560D01*
X037165Y009640D01*
X037085Y009720D01*
X036925Y009720D01*
X036845Y009640D01*
X036650Y009480D02*
X036329Y009480D01*
X036570Y009720D01*
X036570Y009240D01*
X036845Y009240D02*
X037165Y009240D01*
X037085Y010240D02*
X036925Y010240D01*
X036845Y010320D01*
X037165Y010640D01*
X037165Y010320D01*
X037085Y010240D01*
X036845Y010320D02*
X036845Y010640D01*
X036925Y010720D01*
X037085Y010720D01*
X037165Y010640D01*
X036650Y010480D02*
X036329Y010480D01*
X036570Y010720D01*
X036570Y010240D01*
X036570Y011240D02*
X036409Y011240D01*
X036329Y011320D01*
X036489Y011480D02*
X036570Y011480D01*
X036650Y011400D01*
X036650Y011320D01*
X036570Y011240D01*
X036570Y011480D02*
X036650Y011560D01*
X036650Y011640D01*
X036570Y011720D01*
X036409Y011720D01*
X036329Y011640D01*
X036845Y011640D02*
X036845Y011560D01*
X036925Y011480D01*
X037085Y011480D01*
X037165Y011400D01*
X037165Y011320D01*
X037085Y011240D01*
X036925Y011240D01*
X036845Y011320D01*
X036845Y011400D01*
X036925Y011480D01*
X037085Y011480D02*
X037165Y011560D01*
X037165Y011640D01*
X037085Y011720D01*
X036925Y011720D01*
X036845Y011640D01*
X036925Y012240D02*
X037085Y012240D01*
X037165Y012320D01*
X037165Y012400D01*
X037085Y012480D01*
X036845Y012480D01*
X036845Y012320D01*
X036925Y012240D01*
X036845Y012480D02*
X037005Y012640D01*
X037165Y012720D01*
X036650Y012640D02*
X036650Y012560D01*
X036570Y012480D01*
X036650Y012400D01*
X036650Y012320D01*
X036570Y012240D01*
X036409Y012240D01*
X036329Y012320D01*
X036489Y012480D02*
X036570Y012480D01*
X036650Y012640D02*
X036570Y012720D01*
X036409Y012720D01*
X036329Y012640D01*
X036409Y013240D02*
X036329Y013320D01*
X036409Y013240D02*
X036570Y013240D01*
X036650Y013320D01*
X036650Y013400D01*
X036570Y013480D01*
X036489Y013480D01*
X036570Y013480D02*
X036650Y013560D01*
X036650Y013640D01*
X036570Y013720D01*
X036409Y013720D01*
X036329Y013640D01*
X036845Y013480D02*
X037165Y013480D01*
X037085Y013240D02*
X037085Y013720D01*
X036845Y013480D01*
X036845Y014240D02*
X037165Y014560D01*
X037165Y014640D01*
X037085Y014720D01*
X036925Y014720D01*
X036845Y014640D01*
X036650Y014640D02*
X036650Y014560D01*
X036570Y014480D01*
X036650Y014400D01*
X036650Y014320D01*
X036570Y014240D01*
X036409Y014240D01*
X036329Y014320D01*
X036489Y014480D02*
X036570Y014480D01*
X036650Y014640D02*
X036570Y014720D01*
X036409Y014720D01*
X036329Y014640D01*
X036409Y015240D02*
X036329Y015320D01*
X036409Y015240D02*
X036570Y015240D01*
X036650Y015320D01*
X036650Y015400D01*
X036570Y015480D01*
X036489Y015480D01*
X036570Y015480D02*
X036650Y015560D01*
X036650Y015640D01*
X036570Y015720D01*
X036409Y015720D01*
X036329Y015640D01*
X036845Y015640D02*
X036845Y015320D01*
X037165Y015640D01*
X037165Y015320D01*
X037085Y015240D01*
X036925Y015240D01*
X036845Y015320D01*
X036845Y015640D02*
X036925Y015720D01*
X037085Y015720D01*
X037165Y015640D01*
X037085Y016240D02*
X036925Y016240D01*
X036845Y016320D01*
X036845Y016400D01*
X036925Y016480D01*
X037085Y016480D01*
X037165Y016400D01*
X037165Y016320D01*
X037085Y016240D01*
X037085Y016480D02*
X037165Y016560D01*
X037165Y016640D01*
X037085Y016720D01*
X036925Y016720D01*
X036845Y016640D01*
X036845Y016560D01*
X036925Y016480D01*
X036650Y016560D02*
X036329Y016240D01*
X036650Y016240D01*
X036650Y016560D02*
X036650Y016640D01*
X036570Y016720D01*
X036409Y016720D01*
X036329Y016640D01*
X036329Y017240D02*
X036650Y017560D01*
X036650Y017640D01*
X036570Y017720D01*
X036409Y017720D01*
X036329Y017640D01*
X036845Y017480D02*
X037085Y017480D01*
X037165Y017400D01*
X037165Y017320D01*
X037085Y017240D01*
X036925Y017240D01*
X036845Y017320D01*
X036845Y017480D01*
X037005Y017640D01*
X037165Y017720D01*
X037085Y018240D02*
X037085Y018720D01*
X036845Y018480D01*
X037165Y018480D01*
X036650Y018560D02*
X036650Y018640D01*
X036570Y018720D01*
X036409Y018720D01*
X036329Y018640D01*
X036650Y018560D02*
X036329Y018240D01*
X036650Y018240D01*
X036650Y017240D02*
X036329Y017240D01*
X035089Y018990D02*
X034769Y019310D01*
X034689Y019310D01*
X034609Y019230D01*
X034609Y019070D01*
X034689Y018990D01*
X035089Y018990D02*
X035089Y019310D01*
X035089Y019506D02*
X035089Y019826D01*
X035089Y019666D02*
X034609Y019666D01*
X034769Y019506D01*
X034729Y020000D02*
X035229Y020000D01*
X035479Y020250D01*
X035479Y020750D01*
X035229Y021000D01*
X034729Y021000D01*
X034479Y020750D01*
X034229Y021000D01*
X033729Y021000D01*
X033479Y020750D01*
X033229Y021000D01*
X032729Y021000D01*
X032479Y020750D01*
X032229Y021000D01*
X031729Y021000D01*
X031479Y020750D01*
X031229Y021000D01*
X030729Y021000D01*
X030479Y020750D01*
X030229Y021000D01*
X029729Y021000D01*
X029479Y020750D01*
X029229Y021000D01*
X028729Y021000D01*
X028479Y020750D01*
X028229Y021000D01*
X027729Y021000D01*
X027479Y020750D01*
X027479Y020250D01*
X027729Y020000D01*
X028229Y020000D01*
X028479Y020250D01*
X028729Y020000D01*
X029229Y020000D01*
X029479Y020250D01*
X029729Y020000D01*
X030229Y020000D01*
X030479Y020250D01*
X030729Y020000D01*
X031229Y020000D01*
X031479Y020250D01*
X031729Y020000D01*
X032229Y020000D01*
X032479Y020250D01*
X032729Y020000D01*
X033229Y020000D01*
X033479Y020250D01*
X033729Y020000D01*
X034229Y020000D01*
X034479Y020250D01*
X034729Y020000D01*
X034089Y019746D02*
X034089Y019586D01*
X034009Y019506D01*
X033689Y019826D01*
X034009Y019826D01*
X034089Y019746D01*
X034009Y019506D02*
X033689Y019506D01*
X033609Y019586D01*
X033609Y019746D01*
X033689Y019826D01*
X033089Y019746D02*
X033009Y019826D01*
X032689Y019826D01*
X032609Y019746D01*
X032609Y019586D01*
X032689Y019506D01*
X032769Y019506D01*
X032849Y019586D01*
X032849Y019826D01*
X033089Y019746D02*
X033089Y019586D01*
X033009Y019506D01*
X033089Y019310D02*
X033089Y018990D01*
X033089Y019150D02*
X032609Y019150D01*
X032769Y018990D01*
X032089Y018990D02*
X032089Y019310D01*
X032089Y019150D02*
X031609Y019150D01*
X031769Y018990D01*
X031769Y019506D02*
X031689Y019506D01*
X031609Y019586D01*
X031609Y019746D01*
X031689Y019826D01*
X031769Y019826D01*
X031849Y019746D01*
X031849Y019586D01*
X031769Y019506D01*
X031849Y019586D02*
X031929Y019506D01*
X032009Y019506D01*
X032089Y019586D01*
X032089Y019746D01*
X032009Y019826D01*
X031929Y019826D01*
X031849Y019746D01*
X031089Y019506D02*
X031009Y019506D01*
X030689Y019826D01*
X030609Y019826D01*
X030609Y019506D01*
X030609Y019150D02*
X031089Y019150D01*
X031089Y018990D02*
X031089Y019310D01*
X030769Y018990D02*
X030609Y019150D01*
X030089Y019150D02*
X029609Y019150D01*
X029769Y018990D01*
X030089Y018990D02*
X030089Y019310D01*
X030009Y019506D02*
X030089Y019586D01*
X030089Y019746D01*
X030009Y019826D01*
X029929Y019826D01*
X029849Y019746D01*
X029849Y019506D01*
X030009Y019506D01*
X029849Y019506D02*
X029689Y019666D01*
X029609Y019826D01*
X029089Y019746D02*
X029089Y019586D01*
X029009Y019506D01*
X028849Y019506D02*
X028769Y019666D01*
X028769Y019746D01*
X028849Y019826D01*
X029009Y019826D01*
X029089Y019746D01*
X028849Y019506D02*
X028609Y019506D01*
X028609Y019826D01*
X028089Y019746D02*
X027609Y019746D01*
X027849Y019506D01*
X027849Y019826D01*
X028089Y019310D02*
X028089Y018990D01*
X028089Y019150D02*
X027609Y019150D01*
X027769Y018990D01*
X028609Y019150D02*
X028769Y018990D01*
X028609Y019150D02*
X029089Y019150D01*
X029089Y018990D02*
X029089Y019310D01*
X026479Y020250D02*
X026229Y020000D01*
X025729Y020000D01*
X025479Y020250D01*
X025229Y020000D01*
X024729Y020000D01*
X024479Y020250D01*
X024229Y020000D01*
X023729Y020000D01*
X023479Y020250D01*
X023229Y020000D01*
X022729Y020000D01*
X022479Y020250D01*
X022229Y020000D01*
X021729Y020000D01*
X021479Y020250D01*
X021229Y020000D01*
X020729Y020000D01*
X020479Y020250D01*
X020229Y020000D01*
X019729Y020000D01*
X019479Y020250D01*
X019229Y020000D01*
X018729Y020000D01*
X018479Y020250D01*
X018479Y020750D01*
X018729Y021000D01*
X019229Y021000D01*
X019479Y020750D01*
X019729Y021000D01*
X020229Y021000D01*
X020479Y020750D01*
X020729Y021000D01*
X021229Y021000D01*
X021479Y020750D01*
X021729Y021000D01*
X022229Y021000D01*
X022479Y020750D01*
X022729Y021000D01*
X023229Y021000D01*
X023479Y020750D01*
X023729Y021000D01*
X024229Y021000D01*
X024479Y020750D01*
X024729Y021000D01*
X025229Y021000D01*
X025479Y020750D01*
X025729Y021000D01*
X026229Y021000D01*
X026479Y020750D01*
X026479Y020250D01*
X026009Y019660D02*
X025689Y019660D01*
X026009Y019340D01*
X026089Y019420D01*
X026089Y019580D01*
X026009Y019660D01*
X026009Y019340D02*
X025689Y019340D01*
X025609Y019420D01*
X025609Y019580D01*
X025689Y019660D01*
X025089Y019660D02*
X025089Y019340D01*
X025089Y019500D02*
X024609Y019500D01*
X024769Y019340D01*
X024929Y019000D02*
X025129Y018800D01*
X024929Y019000D02*
X024729Y018800D01*
X024929Y019000D02*
X024929Y018500D01*
X025729Y018700D02*
X025929Y018500D01*
X026129Y018700D01*
X025929Y018500D02*
X025929Y019000D01*
X024089Y019340D02*
X023769Y019660D01*
X023689Y019660D01*
X023609Y019580D01*
X023609Y019420D01*
X023689Y019340D01*
X024089Y019340D02*
X024089Y019660D01*
X023089Y019580D02*
X023089Y019420D01*
X023009Y019340D01*
X022849Y019500D02*
X022849Y019580D01*
X022929Y019660D01*
X023009Y019660D01*
X023089Y019580D01*
X022849Y019580D02*
X022769Y019660D01*
X022689Y019660D01*
X022609Y019580D01*
X022609Y019420D01*
X022689Y019340D01*
X022089Y019580D02*
X021609Y019580D01*
X021849Y019340D01*
X021849Y019660D01*
X021089Y019580D02*
X021089Y019420D01*
X021009Y019340D01*
X020849Y019340D02*
X020769Y019500D01*
X020769Y019580D01*
X020849Y019660D01*
X021009Y019660D01*
X021089Y019580D01*
X020849Y019340D02*
X020609Y019340D01*
X020609Y019660D01*
X020089Y019580D02*
X020089Y019420D01*
X020009Y019340D01*
X019849Y019340D01*
X019849Y019580D01*
X019929Y019660D01*
X020009Y019660D01*
X020089Y019580D01*
X019849Y019340D02*
X019689Y019500D01*
X019609Y019660D01*
X019089Y019340D02*
X019009Y019340D01*
X018689Y019660D01*
X018609Y019660D01*
X018609Y019340D01*
X017589Y019420D02*
X017509Y019340D01*
X017429Y019340D01*
X017349Y019420D01*
X017349Y019580D01*
X017429Y019660D01*
X017509Y019660D01*
X017589Y019580D01*
X017589Y019420D01*
X017349Y019420D02*
X017269Y019340D01*
X017189Y019340D01*
X017109Y019420D01*
X017109Y019580D01*
X017189Y019660D01*
X017269Y019660D01*
X017349Y019580D01*
X017129Y020000D02*
X017629Y020000D01*
X017879Y020250D01*
X017879Y020750D01*
X017629Y021000D01*
X017129Y021000D01*
X016879Y020750D01*
X016629Y021000D01*
X016129Y021000D01*
X015879Y020750D01*
X015629Y021000D01*
X015129Y021000D01*
X014879Y020750D01*
X014629Y021000D01*
X014129Y021000D01*
X013879Y020750D01*
X013629Y021000D01*
X013129Y021000D01*
X012879Y020750D01*
X012629Y021000D01*
X012129Y021000D01*
X011879Y020750D01*
X011629Y021000D01*
X011129Y021000D01*
X010879Y020750D01*
X010629Y021000D01*
X010129Y021000D01*
X009879Y020750D01*
X009879Y020250D01*
X010129Y020000D01*
X010629Y020000D01*
X010879Y020250D01*
X011129Y020000D01*
X011629Y020000D01*
X011879Y020250D01*
X012129Y020000D01*
X012629Y020000D01*
X012879Y020250D01*
X013129Y020000D01*
X013629Y020000D01*
X013879Y020250D01*
X014129Y020000D01*
X014629Y020000D01*
X014879Y020250D01*
X015129Y020000D01*
X015629Y020000D01*
X015879Y020250D01*
X016129Y020000D01*
X016629Y020000D01*
X016879Y020250D01*
X017129Y020000D01*
X016589Y019580D02*
X016509Y019660D01*
X016189Y019660D01*
X016109Y019580D01*
X016109Y019420D01*
X016189Y019340D01*
X016269Y019340D01*
X016349Y019420D01*
X016349Y019660D01*
X016589Y019580D02*
X016589Y019420D01*
X016509Y019340D01*
X015589Y019436D02*
X015509Y019356D01*
X015189Y019676D01*
X015509Y019676D01*
X015589Y019596D01*
X015589Y019436D01*
X015509Y019356D02*
X015189Y019356D01*
X015109Y019436D01*
X015109Y019596D01*
X015189Y019676D01*
X014589Y019676D02*
X014589Y019356D01*
X014589Y019516D02*
X014109Y019516D01*
X014269Y019356D01*
X014589Y019160D02*
X014589Y018840D01*
X014589Y019000D02*
X014109Y019000D01*
X014269Y018840D01*
X013589Y018840D02*
X013589Y019160D01*
X013589Y019000D02*
X013109Y019000D01*
X013269Y018840D01*
X013189Y019356D02*
X013109Y019436D01*
X013109Y019596D01*
X013189Y019676D01*
X013269Y019676D01*
X013589Y019356D01*
X013589Y019676D01*
X012589Y019596D02*
X012589Y019436D01*
X012509Y019356D01*
X012589Y019160D02*
X012589Y018840D01*
X012589Y019000D02*
X012109Y019000D01*
X012269Y018840D01*
X011599Y018809D02*
X011119Y018809D01*
X011599Y019129D01*
X011119Y019129D01*
X011119Y019324D02*
X011119Y019565D01*
X011199Y019645D01*
X011519Y019645D01*
X011599Y019565D01*
X011599Y019324D01*
X011119Y019324D01*
X010649Y019324D02*
X010169Y019324D01*
X010169Y019645D01*
X010409Y019484D02*
X010409Y019324D01*
X010169Y019129D02*
X010169Y018809D01*
X010649Y018809D01*
X010649Y019129D01*
X010409Y018969D02*
X010409Y018809D01*
X010409Y018613D02*
X010249Y018613D01*
X010169Y018533D01*
X010169Y018293D01*
X010649Y018293D01*
X010489Y018293D02*
X010489Y018533D01*
X010409Y018613D01*
X010489Y018453D02*
X010649Y018613D01*
X011119Y018533D02*
X011119Y018373D01*
X011199Y018293D01*
X011519Y018293D01*
X011599Y018373D01*
X011599Y018533D01*
X011519Y018613D01*
X011359Y018613D01*
X011359Y018453D01*
X011199Y018613D02*
X011119Y018533D01*
X010649Y018098D02*
X010329Y018098D01*
X010169Y017938D01*
X010329Y017777D01*
X010649Y017777D01*
X010409Y017777D02*
X010409Y018098D01*
X012109Y019436D02*
X012109Y019596D01*
X012189Y019676D01*
X012269Y019676D01*
X012349Y019596D01*
X012429Y019676D01*
X012509Y019676D01*
X012589Y019596D01*
X012349Y019596D02*
X012349Y019516D01*
X012189Y019356D02*
X012109Y019436D01*
X015109Y019000D02*
X015589Y019000D01*
X015589Y018840D02*
X015589Y019160D01*
X015269Y018840D02*
X015109Y019000D01*
X012534Y016592D02*
X012412Y016500D01*
X012412Y016319D01*
X012534Y016414D02*
X012418Y016490D01*
X012412Y016500D02*
X012412Y016681D01*
X011549Y016656D02*
X011549Y016260D01*
X011529Y016260D02*
X011499Y016258D01*
X011469Y016253D01*
X011440Y016244D01*
X011413Y016231D01*
X011387Y016216D01*
X011363Y016197D01*
X011342Y016176D01*
X011323Y016152D01*
X011308Y016126D01*
X011295Y016099D01*
X011286Y016070D01*
X011281Y016040D01*
X011279Y016010D01*
X011281Y015980D01*
X011286Y015950D01*
X011295Y015921D01*
X011308Y015894D01*
X011323Y015868D01*
X011342Y015844D01*
X011363Y015823D01*
X011387Y015804D01*
X011413Y015789D01*
X011440Y015776D01*
X011469Y015767D01*
X011499Y015762D01*
X011529Y015760D01*
X011549Y015760D02*
X011549Y015428D01*
X011550Y015423D02*
X011551Y015398D01*
X011549Y015374D01*
X011543Y015350D01*
X011534Y015328D01*
X011521Y015307D01*
X011506Y015288D01*
X011488Y015271D01*
X011468Y015257D01*
X011447Y015246D01*
X011424Y015238D01*
X011400Y015233D01*
X011399Y015234D02*
X007559Y015234D01*
X007536Y015236D01*
X007513Y015241D01*
X007491Y015250D01*
X007471Y015263D01*
X007453Y015278D01*
X007438Y015296D01*
X007425Y015316D01*
X007416Y015338D01*
X007411Y015361D01*
X007409Y015384D01*
X007409Y016616D01*
X007408Y016637D01*
X007410Y016658D01*
X007415Y016678D01*
X007423Y016697D01*
X007434Y016714D01*
X007447Y016730D01*
X007463Y016743D01*
X007481Y016754D01*
X007500Y016762D01*
X007520Y016767D01*
X007520Y016766D02*
X011399Y016766D01*
X011399Y016767D02*
X011420Y016768D01*
X011441Y016766D01*
X011461Y016761D01*
X011480Y016753D01*
X011497Y016742D01*
X011513Y016729D01*
X011526Y016713D01*
X011537Y016695D01*
X011545Y016676D01*
X011550Y016656D01*
X006970Y016190D02*
X006970Y015910D01*
X006900Y015840D01*
X006690Y015840D01*
X006690Y016260D01*
X006900Y016260D01*
X006970Y016190D01*
X006510Y016260D02*
X006510Y015840D01*
X006230Y016260D01*
X006230Y015840D01*
X006050Y015910D02*
X006050Y016050D01*
X005909Y016050D01*
X005769Y016190D02*
X005769Y015910D01*
X005839Y015840D01*
X005980Y015840D01*
X006050Y015910D01*
X006050Y016190D02*
X005980Y016260D01*
X005839Y016260D01*
X005769Y016190D01*
X005839Y016840D02*
X005769Y016910D01*
X005839Y016840D02*
X005980Y016840D01*
X006050Y016910D01*
X006050Y017050D01*
X005980Y017120D01*
X005909Y017120D01*
X005769Y017050D01*
X005769Y017260D01*
X006050Y017260D01*
X006230Y017260D02*
X006230Y016980D01*
X006370Y016840D01*
X006510Y016980D01*
X006510Y017260D01*
X006510Y017840D02*
X006230Y018260D01*
X006050Y018190D02*
X006050Y018050D01*
X005980Y017980D01*
X005769Y017980D01*
X005769Y017840D02*
X005769Y018260D01*
X005980Y018260D01*
X006050Y018190D01*
X005909Y017980D02*
X006050Y017840D01*
X006230Y017840D02*
X006510Y018260D01*
X006690Y018190D02*
X006690Y017910D01*
X006970Y018190D01*
X006970Y017910D01*
X006900Y017840D01*
X006760Y017840D01*
X006690Y017910D01*
X006690Y018190D02*
X006760Y018260D01*
X006900Y018260D01*
X006970Y018190D01*
X006900Y018840D02*
X006760Y018840D01*
X006690Y018910D01*
X006970Y019190D01*
X006970Y018910D01*
X006900Y018840D01*
X006690Y018910D02*
X006690Y019190D01*
X006760Y019260D01*
X006900Y019260D01*
X006970Y019190D01*
X006510Y019260D02*
X006230Y018840D01*
X006510Y018840D02*
X006230Y019260D01*
X006050Y019260D02*
X005769Y019260D01*
X005909Y019260D02*
X005909Y018840D01*
X003520Y020690D02*
X003520Y021110D01*
X003240Y021110D02*
X003520Y020690D01*
X003240Y020690D02*
X003240Y021110D01*
X003060Y021040D02*
X003060Y020900D01*
X002990Y020830D01*
X002780Y020830D01*
X002920Y020830D02*
X003060Y020690D01*
X002780Y020690D02*
X002780Y021110D01*
X002990Y021110D01*
X003060Y021040D01*
X002600Y021040D02*
X002530Y021110D01*
X002389Y021110D01*
X002319Y021040D01*
X002319Y020760D01*
X002389Y020690D01*
X002530Y020690D01*
X002600Y020760D01*
X002600Y020900D01*
X002459Y020900D01*
X005839Y015260D02*
X005769Y015190D01*
X005769Y014910D01*
X005839Y014840D01*
X005980Y014840D01*
X006050Y014910D01*
X006050Y015050D01*
X005909Y015050D01*
X006050Y015190D02*
X005980Y015260D01*
X005839Y015260D01*
X006230Y015260D02*
X006510Y014840D01*
X006510Y015260D01*
X006690Y015260D02*
X006690Y014840D01*
X006900Y014840D01*
X006970Y014910D01*
X006970Y015190D01*
X006900Y015260D01*
X006690Y015260D01*
X006230Y015260D02*
X006230Y014840D01*
X006179Y014250D02*
X006179Y013750D01*
X006779Y013750D02*
X006779Y014250D01*
X003520Y014360D02*
X003240Y014080D01*
X003310Y014150D02*
X003520Y013940D01*
X003240Y013940D02*
X003240Y014360D01*
X002780Y014360D02*
X002780Y013940D01*
X003060Y013940D01*
X002600Y014010D02*
X002600Y014080D01*
X002530Y014150D01*
X002319Y014150D01*
X002319Y013940D02*
X002530Y013940D01*
X002600Y014010D01*
X002530Y014150D02*
X002600Y014220D01*
X002600Y014290D01*
X002530Y014360D01*
X002319Y014360D01*
X002319Y013940D01*
X025397Y012750D02*
X025397Y012250D01*
X025529Y012250D02*
X025779Y012000D01*
X027279Y012000D01*
X027529Y011750D01*
X027529Y011250D01*
X027279Y011000D01*
X025779Y011000D01*
X025529Y010750D01*
X025529Y010250D01*
X025779Y010000D01*
X027279Y010000D01*
X027529Y010250D01*
X027529Y010750D01*
X027279Y011000D01*
X028479Y010894D02*
X028479Y012106D01*
X028991Y012500D02*
X029968Y012500D01*
X030479Y012106D02*
X030479Y010894D01*
X029968Y010500D02*
X028979Y010500D01*
X028680Y009860D02*
X028750Y009790D01*
X028750Y009650D01*
X028680Y009580D01*
X028469Y009580D01*
X028469Y009440D02*
X028469Y009860D01*
X028680Y009860D01*
X028609Y009580D02*
X028750Y009440D01*
X028930Y009510D02*
X028930Y009650D01*
X029000Y009720D01*
X029140Y009720D01*
X029210Y009650D01*
X029210Y009580D01*
X028930Y009580D01*
X028930Y009510D02*
X029000Y009440D01*
X029140Y009440D01*
X029390Y009440D02*
X029600Y009440D01*
X029670Y009510D01*
X029600Y009580D01*
X029460Y009580D01*
X029390Y009650D01*
X029460Y009720D01*
X029670Y009720D01*
X029851Y009650D02*
X029921Y009720D01*
X030061Y009720D01*
X030131Y009650D01*
X030131Y009580D01*
X029851Y009580D01*
X029851Y009510D02*
X029851Y009650D01*
X029851Y009510D02*
X029921Y009440D01*
X030061Y009440D01*
X030381Y009510D02*
X030451Y009440D01*
X030381Y009510D02*
X030381Y009790D01*
X030311Y009720D02*
X030451Y009720D01*
X028979Y011500D02*
X028981Y011544D01*
X028987Y011588D01*
X028997Y011631D01*
X029010Y011673D01*
X029027Y011714D01*
X029048Y011753D01*
X029072Y011790D01*
X029099Y011825D01*
X029129Y011857D01*
X029162Y011887D01*
X029198Y011913D01*
X029235Y011937D01*
X029275Y011956D01*
X029316Y011973D01*
X029359Y011985D01*
X029402Y011994D01*
X029446Y011999D01*
X029490Y012000D01*
X029534Y011997D01*
X029578Y011990D01*
X029621Y011979D01*
X029663Y011965D01*
X029703Y011947D01*
X029742Y011925D01*
X029778Y011901D01*
X029812Y011873D01*
X029844Y011842D01*
X029873Y011808D01*
X029899Y011772D01*
X029921Y011734D01*
X029940Y011694D01*
X029955Y011652D01*
X029967Y011610D01*
X029975Y011566D01*
X029979Y011522D01*
X029979Y011478D01*
X029975Y011434D01*
X029967Y011390D01*
X029955Y011348D01*
X029940Y011306D01*
X029921Y011266D01*
X029899Y011228D01*
X029873Y011192D01*
X029844Y011158D01*
X029812Y011127D01*
X029778Y011099D01*
X029742Y011075D01*
X029703Y011053D01*
X029663Y011035D01*
X029621Y011021D01*
X029578Y011010D01*
X029534Y011003D01*
X029490Y011000D01*
X029446Y011001D01*
X029402Y011006D01*
X029359Y011015D01*
X029316Y011027D01*
X029275Y011044D01*
X029235Y011063D01*
X029198Y011087D01*
X029162Y011113D01*
X029129Y011143D01*
X029099Y011175D01*
X029072Y011210D01*
X029048Y011247D01*
X029027Y011286D01*
X029010Y011327D01*
X028997Y011369D01*
X028987Y011412D01*
X028981Y011456D01*
X028979Y011500D01*
X027529Y012250D02*
X027279Y012000D01*
X027529Y012250D02*
X027529Y012750D01*
X027279Y013000D01*
X025779Y013000D01*
X025529Y012750D01*
X025529Y012250D01*
X025779Y012000D02*
X025529Y011750D01*
X025529Y011250D01*
X025779Y011000D01*
X026019Y009760D02*
X026159Y009760D01*
X026089Y009760D02*
X026089Y009340D01*
X026019Y009340D02*
X026159Y009340D01*
X026326Y009410D02*
X026396Y009340D01*
X026536Y009340D01*
X026606Y009410D01*
X026606Y009480D01*
X026536Y009550D01*
X026396Y009550D01*
X026326Y009620D01*
X026326Y009690D01*
X026396Y009760D01*
X026536Y009760D01*
X026606Y009690D01*
X026787Y009760D02*
X026787Y009340D01*
X026787Y009480D02*
X026997Y009480D01*
X027067Y009550D01*
X027067Y009690D01*
X026997Y009760D01*
X026787Y009760D01*
X030912Y013819D02*
X030912Y014000D01*
X031034Y014092D01*
X030912Y014181D02*
X030912Y014000D01*
X030918Y013990D02*
X031034Y013914D01*
X031619Y013930D02*
X031830Y013930D01*
X031900Y014000D01*
X031900Y014140D01*
X031830Y014210D01*
X031619Y014210D01*
X031619Y013790D01*
X032080Y013860D02*
X032150Y013790D01*
X032290Y013790D01*
X032360Y013860D01*
X032360Y014000D01*
X032290Y014070D01*
X032150Y014070D01*
X032080Y014000D01*
X032080Y013860D01*
X032540Y013860D02*
X032610Y013790D01*
X032680Y013860D01*
X032750Y013790D01*
X032820Y013860D01*
X032820Y014070D01*
X033001Y014000D02*
X033071Y014070D01*
X033211Y014070D01*
X033281Y014000D01*
X033281Y013930D01*
X033001Y013930D01*
X033001Y013860D02*
X033001Y014000D01*
X033001Y013860D02*
X033071Y013790D01*
X033211Y013790D01*
X033461Y013790D02*
X033461Y014070D01*
X033461Y013930D02*
X033601Y014070D01*
X033671Y014070D01*
X032540Y014070D02*
X032540Y013860D01*
X036845Y014240D02*
X037165Y014240D01*
X039769Y014330D02*
X039849Y014250D01*
X040010Y014250D01*
X040090Y014330D01*
X040090Y014410D01*
X040010Y014490D01*
X039929Y014490D01*
X040010Y014490D02*
X040090Y014570D01*
X040090Y014650D01*
X040010Y014730D01*
X039849Y014730D01*
X039769Y014650D01*
X040285Y014650D02*
X040365Y014730D01*
X040525Y014730D01*
X040605Y014650D01*
X040605Y014570D01*
X040525Y014490D01*
X040605Y014410D01*
X040605Y014330D01*
X040525Y014250D01*
X040365Y014250D01*
X040285Y014330D01*
X040445Y014490D02*
X040525Y014490D01*
X040605Y013730D02*
X040285Y013730D01*
X040285Y013490D01*
X040445Y013570D01*
X040525Y013570D01*
X040605Y013490D01*
X040605Y013330D01*
X040525Y013250D01*
X040365Y013250D01*
X040285Y013330D01*
X040090Y013330D02*
X040010Y013250D01*
X039849Y013250D01*
X039769Y013330D01*
X039929Y013490D02*
X040010Y013490D01*
X040090Y013410D01*
X040090Y013330D01*
X040010Y013490D02*
X040090Y013570D01*
X040090Y013650D01*
X040010Y013730D01*
X039849Y013730D01*
X039769Y013650D01*
X039849Y012730D02*
X040010Y012730D01*
X040090Y012650D01*
X040090Y012570D01*
X040010Y012490D01*
X040090Y012410D01*
X040090Y012330D01*
X040010Y012250D01*
X039849Y012250D01*
X039769Y012330D01*
X039929Y012490D02*
X040010Y012490D01*
X039769Y012650D02*
X039849Y012730D01*
X040285Y012730D02*
X040605Y012730D01*
X040605Y012650D01*
X040285Y012330D01*
X040285Y012250D01*
X040365Y011730D02*
X040285Y011650D01*
X040285Y011570D01*
X040365Y011490D01*
X040605Y011490D01*
X040605Y011330D02*
X040605Y011650D01*
X040525Y011730D01*
X040365Y011730D01*
X040090Y011650D02*
X040090Y011570D01*
X040010Y011490D01*
X040090Y011410D01*
X040090Y011330D01*
X040010Y011250D01*
X039849Y011250D01*
X039769Y011330D01*
X039929Y011490D02*
X040010Y011490D01*
X040090Y011650D02*
X040010Y011730D01*
X039849Y011730D01*
X039769Y011650D01*
X040285Y011330D02*
X040365Y011250D01*
X040525Y011250D01*
X040605Y011330D01*
X040445Y010730D02*
X040285Y010570D01*
X040090Y010490D02*
X039769Y010490D01*
X040010Y010730D01*
X040010Y010250D01*
X040285Y010250D02*
X040605Y010250D01*
X040445Y010250D02*
X040445Y010730D01*
X040365Y009730D02*
X040285Y009650D01*
X040365Y009730D02*
X040525Y009730D01*
X040605Y009650D01*
X040605Y009570D01*
X040525Y009490D01*
X040605Y009410D01*
X040605Y009330D01*
X040525Y009250D01*
X040365Y009250D01*
X040285Y009330D01*
X040445Y009490D02*
X040525Y009490D01*
X040090Y009490D02*
X039769Y009490D01*
X040010Y009730D01*
X040010Y009250D01*
X040010Y008730D02*
X039769Y008490D01*
X040090Y008490D01*
X040285Y008490D02*
X040445Y008570D01*
X040525Y008570D01*
X040605Y008490D01*
X040605Y008330D01*
X040525Y008250D01*
X040365Y008250D01*
X040285Y008330D01*
X040285Y008490D02*
X040285Y008730D01*
X040605Y008730D01*
X040010Y008730D02*
X040010Y008250D01*
X040010Y007730D02*
X039769Y007490D01*
X040090Y007490D01*
X040285Y007330D02*
X040285Y007250D01*
X040285Y007330D02*
X040605Y007650D01*
X040605Y007730D01*
X040285Y007730D01*
X040010Y007730D02*
X040010Y007250D01*
X040010Y006730D02*
X039769Y006490D01*
X040090Y006490D01*
X040285Y006570D02*
X040365Y006490D01*
X040605Y006490D01*
X040605Y006330D02*
X040605Y006650D01*
X040525Y006730D01*
X040365Y006730D01*
X040285Y006650D01*
X040285Y006570D01*
X040285Y006330D02*
X040365Y006250D01*
X040525Y006250D01*
X040605Y006330D01*
X040010Y006250D02*
X040010Y006730D01*
X040090Y005730D02*
X039769Y005730D01*
X039769Y005490D01*
X039929Y005570D01*
X040010Y005570D01*
X040090Y005490D01*
X040090Y005330D01*
X040010Y005250D01*
X039849Y005250D01*
X039769Y005330D01*
X040285Y005250D02*
X040605Y005250D01*
X040445Y005250D02*
X040445Y005730D01*
X040285Y005570D01*
X040365Y004730D02*
X040285Y004650D01*
X040365Y004730D02*
X040525Y004730D01*
X040605Y004650D01*
X040605Y004570D01*
X040525Y004490D01*
X040605Y004410D01*
X040605Y004330D01*
X040525Y004250D01*
X040365Y004250D01*
X040285Y004330D01*
X040090Y004330D02*
X040010Y004250D01*
X039849Y004250D01*
X039769Y004330D01*
X039769Y004490D02*
X039929Y004570D01*
X040010Y004570D01*
X040090Y004490D01*
X040090Y004330D01*
X039769Y004490D02*
X039769Y004730D01*
X040090Y004730D01*
X040445Y004490D02*
X040525Y004490D01*
X035239Y003621D02*
X035239Y003461D01*
X035159Y003381D01*
X034999Y003541D02*
X034999Y003621D01*
X035079Y003702D01*
X035159Y003702D01*
X035239Y003621D01*
X034999Y003621D02*
X034919Y003702D01*
X034839Y003702D01*
X034759Y003621D01*
X034759Y003461D01*
X034839Y003381D01*
X034239Y003381D02*
X034239Y003702D01*
X033919Y003702D02*
X034239Y003381D01*
X033839Y003381D02*
X033759Y003461D01*
X033759Y003621D01*
X033839Y003702D01*
X033919Y003702D01*
X033239Y003702D02*
X033239Y003381D01*
X033239Y003541D02*
X032759Y003541D01*
X032919Y003381D01*
X032239Y003461D02*
X032159Y003381D01*
X031839Y003702D01*
X032159Y003702D01*
X032239Y003621D01*
X032239Y003461D01*
X032159Y003381D02*
X031839Y003381D01*
X031759Y003461D01*
X031759Y003621D01*
X031839Y003702D01*
X039849Y015250D02*
X039769Y015330D01*
X039849Y015250D02*
X040010Y015250D01*
X040090Y015330D01*
X040090Y015410D01*
X040010Y015490D01*
X039929Y015490D01*
X040010Y015490D02*
X040090Y015570D01*
X040090Y015650D01*
X040010Y015730D01*
X039849Y015730D01*
X039769Y015650D01*
X040285Y015570D02*
X040445Y015730D01*
X040445Y015250D01*
X040285Y015250D02*
X040605Y015250D01*
X037165Y019240D02*
X036845Y019240D01*
X037165Y019560D01*
X037165Y019640D01*
X037085Y019720D01*
X036925Y019720D01*
X036845Y019640D01*
X036650Y019640D02*
X036570Y019720D01*
X036409Y019720D01*
X036329Y019640D01*
X036650Y019640D02*
X036650Y019560D01*
X036329Y019240D01*
X036650Y019240D01*
X037479Y020250D02*
X037729Y020000D01*
X039229Y020000D01*
X039479Y020250D01*
X039479Y020750D01*
X039229Y021000D01*
X037729Y021000D01*
X037479Y020750D01*
X037479Y020250D01*
X034089Y019310D02*
X034089Y018990D01*
X033769Y019310D01*
X033689Y019310D01*
X033609Y019230D01*
X033609Y019070D01*
X033689Y018990D01*
D12*
X037004Y021075D02*
X037054Y021025D01*
X037154Y021025D01*
X037205Y021075D01*
X037205Y021175D01*
X037154Y021225D01*
X037104Y021225D01*
X037004Y021175D01*
X037004Y021325D01*
X037205Y021325D01*
X037327Y021325D02*
X037327Y021125D01*
X037427Y021025D01*
X037527Y021125D01*
X037527Y021325D01*
X006524Y019900D02*
X006524Y019810D01*
X006479Y019765D01*
X006344Y019765D01*
X006434Y019765D02*
X006524Y019675D01*
X006344Y019675D02*
X006344Y019945D01*
X006479Y019945D01*
X006524Y019900D01*
X006229Y019945D02*
X006049Y019945D01*
X006139Y019945D02*
X006139Y019675D01*
X005934Y019720D02*
X005934Y019900D01*
X005889Y019945D01*
X005754Y019945D01*
X005754Y019675D01*
X005889Y019675D01*
X005934Y019720D01*
D13*
X016723Y013461D02*
X016723Y008343D01*
X016822Y008244D01*
X022137Y008244D01*
X022235Y008343D01*
X022235Y013657D01*
X022137Y013756D01*
X017019Y013756D01*
X016723Y013461D01*
X017019Y013362D02*
X017021Y013381D01*
X017026Y013400D01*
X017036Y013416D01*
X017048Y013431D01*
X017063Y013443D01*
X017079Y013453D01*
X017098Y013458D01*
X017117Y013460D01*
X017136Y013458D01*
X017155Y013453D01*
X017171Y013443D01*
X017186Y013431D01*
X017198Y013416D01*
X017208Y013400D01*
X017213Y013381D01*
X017215Y013362D01*
X017213Y013343D01*
X017208Y013324D01*
X017198Y013308D01*
X017186Y013293D01*
X017171Y013281D01*
X017155Y013271D01*
X017136Y013266D01*
X017117Y013264D01*
X017098Y013266D01*
X017079Y013271D01*
X017063Y013281D01*
X017048Y013293D01*
X017036Y013308D01*
X017026Y013324D01*
X017021Y013343D01*
X017019Y013362D01*
X010964Y012984D02*
X010964Y011016D01*
X008995Y011016D01*
X008995Y012984D01*
X010964Y012984D01*
X010373Y011409D02*
X010375Y011436D01*
X010381Y011463D01*
X010390Y011489D01*
X010403Y011513D01*
X010419Y011536D01*
X010438Y011555D01*
X010460Y011572D01*
X010484Y011586D01*
X010509Y011596D01*
X010536Y011603D01*
X010563Y011606D01*
X010591Y011605D01*
X010618Y011600D01*
X010644Y011592D01*
X010668Y011580D01*
X010691Y011564D01*
X010712Y011546D01*
X010729Y011525D01*
X010744Y011501D01*
X010755Y011476D01*
X010763Y011450D01*
X010767Y011423D01*
X010767Y011395D01*
X010763Y011368D01*
X010755Y011342D01*
X010744Y011317D01*
X010729Y011293D01*
X010712Y011272D01*
X010691Y011254D01*
X010669Y011238D01*
X010644Y011226D01*
X010618Y011218D01*
X010591Y011213D01*
X010563Y011212D01*
X010536Y011215D01*
X010509Y011222D01*
X010484Y011232D01*
X010460Y011246D01*
X010438Y011263D01*
X010419Y011282D01*
X010403Y011305D01*
X010390Y011329D01*
X010381Y011355D01*
X010375Y011382D01*
X010373Y011409D01*
D14*
X014184Y006433D02*
X014775Y006433D01*
X014775Y006434D02*
X014794Y006430D01*
X014811Y006424D01*
X014828Y006414D01*
X014842Y006402D01*
X014854Y006387D01*
X014864Y006371D01*
X014870Y006353D01*
X014874Y006334D01*
X014874Y006315D01*
X014873Y006315D02*
X014873Y005685D01*
X014874Y005685D02*
X014874Y005666D01*
X014870Y005647D01*
X014864Y005629D01*
X014854Y005613D01*
X014842Y005598D01*
X014828Y005586D01*
X014811Y005576D01*
X014794Y005570D01*
X014775Y005566D01*
X014775Y005567D02*
X014184Y005567D01*
X014184Y005566D02*
X014165Y005570D01*
X014148Y005576D01*
X014131Y005586D01*
X014117Y005598D01*
X014105Y005613D01*
X014095Y005629D01*
X014089Y005647D01*
X014085Y005666D01*
X014085Y005685D01*
X014086Y005685D02*
X014086Y006315D01*
X014085Y006315D02*
X014085Y006334D01*
X014089Y006353D01*
X014095Y006371D01*
X014104Y006387D01*
X014117Y006402D01*
X014131Y006414D01*
X014148Y006424D01*
X014166Y006430D01*
X014184Y006434D01*
X013409Y005710D02*
X013409Y004290D01*
X013809Y004040D02*
X013809Y003813D01*
X013809Y003927D02*
X014149Y003927D01*
X014149Y003672D02*
X014149Y003445D01*
X013809Y003445D01*
X013809Y003672D01*
X013979Y003558D02*
X013979Y003445D01*
X014036Y003303D02*
X013979Y003247D01*
X013979Y003133D01*
X013922Y003077D01*
X013866Y003077D01*
X013809Y003133D01*
X013809Y003247D01*
X013866Y003303D01*
X014036Y003303D02*
X014093Y003303D01*
X014149Y003247D01*
X014149Y003133D01*
X014093Y003077D01*
X014149Y002935D02*
X014149Y002708D01*
X013809Y002708D01*
X013809Y002935D01*
X013979Y002822D02*
X013979Y002708D01*
X013979Y002567D02*
X014036Y002510D01*
X014036Y002340D01*
X014149Y002340D02*
X013809Y002340D01*
X013809Y002510D01*
X013866Y002567D01*
X013979Y002567D01*
X014036Y002453D02*
X014149Y002567D01*
X014809Y002510D02*
X014809Y002397D01*
X014866Y002340D01*
X014979Y002453D02*
X014979Y002510D01*
X015036Y002567D01*
X015093Y002567D01*
X015149Y002510D01*
X015149Y002397D01*
X015093Y002340D01*
X014979Y002510D02*
X014922Y002567D01*
X014866Y002567D01*
X014809Y002510D01*
X015093Y002708D02*
X015093Y002765D01*
X015149Y002765D01*
X015149Y002708D01*
X015093Y002708D01*
X015093Y002892D02*
X015149Y002949D01*
X015149Y003063D01*
X015093Y003119D01*
X015036Y003119D01*
X014979Y003063D01*
X014979Y003006D01*
X014979Y003063D02*
X014922Y003119D01*
X014866Y003119D01*
X014809Y003063D01*
X014809Y002949D01*
X014866Y002892D01*
X014809Y003261D02*
X015036Y003261D01*
X015149Y003374D01*
X015036Y003488D01*
X014809Y003488D01*
X015809Y002935D02*
X016036Y002935D01*
X016149Y002822D01*
X016036Y002708D01*
X015809Y002708D01*
X015809Y002567D02*
X015809Y002340D01*
X015979Y002340D01*
X015922Y002453D01*
X015922Y002510D01*
X015979Y002567D01*
X016093Y002567D01*
X016149Y002510D01*
X016149Y002397D01*
X016093Y002340D01*
X016809Y002397D02*
X016809Y002510D01*
X016866Y002567D01*
X016979Y002567D02*
X016979Y002453D01*
X016979Y002567D02*
X017093Y002567D01*
X017149Y002510D01*
X017149Y002397D01*
X017093Y002340D01*
X016866Y002340D01*
X016809Y002397D01*
X016809Y002708D02*
X017149Y002935D01*
X016809Y002935D01*
X016809Y003077D02*
X016809Y003247D01*
X016866Y003303D01*
X017093Y003303D01*
X017149Y003247D01*
X017149Y003077D01*
X016809Y003077D01*
X016809Y002708D02*
X017149Y002708D01*
X017809Y002708D02*
X018149Y002935D01*
X017809Y002935D01*
X017809Y003077D02*
X017809Y003247D01*
X017866Y003303D01*
X018093Y003303D01*
X018149Y003247D01*
X018149Y003077D01*
X017809Y003077D01*
X017809Y002708D02*
X018149Y002708D01*
X018093Y002567D02*
X018149Y002510D01*
X018149Y002397D01*
X018093Y002340D01*
X017866Y002340D01*
X017809Y002397D01*
X017809Y002510D01*
X017866Y002567D01*
X017979Y002567D02*
X017979Y002453D01*
X017979Y002567D02*
X018093Y002567D01*
X018752Y002765D02*
X018809Y002765D01*
X018922Y002765D02*
X018922Y002708D01*
X018922Y002765D02*
X019149Y002765D01*
X019149Y002708D02*
X019149Y002822D01*
X019149Y002954D02*
X018922Y002954D01*
X018922Y003124D01*
X018979Y003181D01*
X019149Y003181D01*
X019036Y002567D02*
X018809Y002567D01*
X019036Y002567D02*
X019149Y002453D01*
X019036Y002340D01*
X018809Y002340D01*
X011549Y004290D02*
X011549Y005710D01*
X024759Y017330D02*
X024759Y017557D01*
X024759Y017443D02*
X025099Y017443D01*
X025099Y017698D02*
X024759Y017925D01*
X024816Y018067D02*
X024759Y018123D01*
X024759Y018237D01*
X024816Y018293D01*
X025043Y018067D01*
X025099Y018123D01*
X025099Y018237D01*
X025043Y018293D01*
X024816Y018293D01*
X024816Y018067D02*
X025043Y018067D01*
X025099Y017925D02*
X024759Y017698D01*
X025759Y017698D02*
X026099Y017925D01*
X026043Y018067D02*
X025816Y018067D01*
X025759Y018123D01*
X025759Y018237D01*
X025816Y018293D01*
X026043Y018067D01*
X026099Y018123D01*
X026099Y018237D01*
X026043Y018293D01*
X025816Y018293D01*
X025759Y017925D02*
X026099Y017698D01*
X026099Y017557D02*
X025986Y017443D01*
X025986Y017500D02*
X025986Y017330D01*
X026099Y017330D02*
X025759Y017330D01*
X025759Y017500D01*
X025816Y017557D01*
X025929Y017557D01*
X025986Y017500D01*
X027759Y017443D02*
X028099Y017443D01*
X028099Y017698D02*
X027759Y017925D01*
X027816Y018067D02*
X027759Y018123D01*
X027759Y018237D01*
X027816Y018293D01*
X027872Y018293D01*
X027929Y018237D01*
X027986Y018293D01*
X028043Y018293D01*
X028099Y018237D01*
X028099Y018123D01*
X028043Y018067D01*
X028099Y017925D02*
X027759Y017698D01*
X027759Y017557D02*
X027759Y017330D01*
X028759Y017330D02*
X028759Y017500D01*
X028816Y017557D01*
X028929Y017557D01*
X028986Y017500D01*
X028986Y017330D01*
X029099Y017330D02*
X028759Y017330D01*
X028986Y017443D02*
X029099Y017557D01*
X029099Y017698D02*
X028759Y017925D01*
X028816Y018067D02*
X028759Y018123D01*
X028759Y018237D01*
X028816Y018293D01*
X028872Y018293D01*
X028929Y018237D01*
X028986Y018293D01*
X029043Y018293D01*
X029099Y018237D01*
X029099Y018123D01*
X029043Y018067D01*
X029099Y017925D02*
X028759Y017698D01*
X028929Y018180D02*
X028929Y018237D01*
X029759Y018237D02*
X029759Y018123D01*
X029816Y018067D01*
X029759Y017925D02*
X030099Y017698D01*
X030099Y017925D02*
X029759Y017698D01*
X029759Y017557D02*
X029759Y017330D01*
X029759Y017443D02*
X030099Y017443D01*
X030759Y017500D02*
X030816Y017557D01*
X030929Y017557D01*
X030986Y017500D01*
X030986Y017330D01*
X031099Y017330D02*
X030759Y017330D01*
X030759Y017500D01*
X030759Y017698D02*
X031099Y017925D01*
X031099Y018067D02*
X030872Y018293D01*
X030816Y018293D01*
X030759Y018237D01*
X030759Y018123D01*
X030816Y018067D01*
X030759Y017925D02*
X031099Y017698D01*
X031099Y017557D02*
X030986Y017443D01*
X031759Y017443D02*
X032099Y017443D01*
X032099Y017698D02*
X031759Y017925D01*
X031872Y018067D02*
X031759Y018180D01*
X032099Y018180D01*
X032099Y018067D02*
X032099Y018293D01*
X032759Y018180D02*
X033099Y018180D01*
X033099Y018067D02*
X033099Y018293D01*
X032872Y018067D02*
X032759Y018180D01*
X032759Y017925D02*
X033099Y017698D01*
X033099Y017557D02*
X032986Y017443D01*
X032986Y017500D02*
X032986Y017330D01*
X033099Y017330D02*
X032759Y017330D01*
X032759Y017500D01*
X032816Y017557D01*
X032929Y017557D01*
X032986Y017500D01*
X032759Y017698D02*
X033099Y017925D01*
X033759Y017868D02*
X033759Y017698D01*
X034099Y017698D01*
X034099Y017868D01*
X034043Y017925D01*
X033816Y017925D01*
X033759Y017868D01*
X033872Y018067D02*
X033759Y018180D01*
X033872Y018293D01*
X034099Y018293D01*
X033929Y018293D02*
X033929Y018067D01*
X033872Y018067D02*
X034099Y018067D01*
X034043Y017557D02*
X034099Y017500D01*
X034099Y017387D01*
X034043Y017330D01*
X033929Y017387D02*
X033929Y017500D01*
X033986Y017557D01*
X034043Y017557D01*
X033929Y017387D02*
X033872Y017330D01*
X033816Y017330D01*
X033759Y017387D01*
X033759Y017500D01*
X033816Y017557D01*
X034759Y017500D02*
X034759Y017387D01*
X034816Y017330D01*
X034872Y017330D01*
X034929Y017387D01*
X034929Y017500D01*
X034986Y017557D01*
X035043Y017557D01*
X035099Y017500D01*
X035099Y017387D01*
X035043Y017330D01*
X034816Y017557D02*
X034759Y017500D01*
X034816Y017698D02*
X035043Y017698D01*
X035099Y017755D01*
X035099Y017868D01*
X035043Y017925D01*
X035099Y018067D02*
X034759Y018067D01*
X034816Y017925D02*
X034759Y017868D01*
X034759Y017755D01*
X034816Y017698D01*
X035099Y018067D02*
X035099Y018293D01*
X037479Y018250D02*
X037729Y018000D01*
X039229Y018000D01*
X039479Y018250D01*
X039479Y018750D01*
X039229Y019000D01*
X037729Y019000D01*
X037479Y019250D01*
X037479Y019750D01*
X037729Y020000D01*
X037729Y019000D02*
X037479Y018750D01*
X037479Y018250D01*
X037729Y018000D02*
X037479Y017750D01*
X037479Y017250D01*
X037729Y017000D01*
X039229Y017000D01*
X039479Y017250D01*
X039479Y017750D01*
X039229Y018000D01*
X039229Y017000D02*
X039479Y016750D01*
X039479Y016250D01*
X039229Y016000D01*
X037729Y016000D01*
X037479Y016250D01*
X037479Y016750D01*
X037729Y017000D01*
X037729Y016000D02*
X037479Y015750D01*
X037479Y015250D01*
X037729Y015000D01*
X039229Y015000D01*
X039479Y015250D01*
X039479Y015750D01*
X039229Y016000D01*
X039229Y015000D02*
X039479Y014750D01*
X039479Y014250D01*
X039229Y014000D01*
X037729Y014000D01*
X037479Y014250D01*
X037479Y014750D01*
X037729Y015000D01*
X037729Y014000D02*
X037479Y013750D01*
X037479Y013250D01*
X037729Y013000D01*
X039229Y013000D01*
X039479Y013250D01*
X039479Y013750D01*
X039229Y014000D01*
X039229Y013000D02*
X039479Y012750D01*
X039479Y012250D01*
X039229Y012000D01*
X037729Y012000D01*
X037479Y011750D01*
X037479Y011250D01*
X037729Y011000D01*
X039229Y011000D01*
X039479Y010750D01*
X039479Y010250D01*
X039229Y010000D01*
X037729Y010000D01*
X037479Y010250D01*
X037479Y010750D01*
X037729Y011000D01*
X037729Y010000D02*
X037479Y009750D01*
X037479Y009250D01*
X037729Y009000D01*
X039229Y009000D01*
X039479Y009250D01*
X039479Y009750D01*
X039229Y010000D01*
X039229Y009000D02*
X039479Y008750D01*
X039479Y008250D01*
X039229Y008000D01*
X037729Y008000D01*
X037479Y008250D01*
X037479Y008750D01*
X037729Y009000D01*
X037729Y008000D02*
X037479Y007750D01*
X037479Y007250D01*
X037729Y007000D01*
X039229Y007000D01*
X039479Y007250D01*
X039479Y007750D01*
X039229Y008000D01*
X039229Y007000D02*
X039479Y006750D01*
X039479Y006250D01*
X039229Y006000D01*
X037729Y006000D01*
X037479Y006250D01*
X037479Y006750D01*
X037729Y007000D01*
X037729Y006000D02*
X037479Y005750D01*
X037479Y005250D01*
X037729Y005000D01*
X039229Y005000D01*
X039479Y005250D01*
X039479Y005750D01*
X039229Y006000D01*
X039229Y005000D02*
X039479Y004750D01*
X039479Y004250D01*
X039229Y004000D01*
X039759Y003524D02*
X039759Y003297D01*
X039816Y003240D01*
X039929Y003240D01*
X039986Y003297D01*
X039986Y003410D01*
X039873Y003410D01*
X039986Y003524D02*
X039929Y003580D01*
X039816Y003580D01*
X039759Y003524D01*
X040128Y003580D02*
X040355Y003240D01*
X040355Y003580D01*
X040496Y003580D02*
X040666Y003580D01*
X040723Y003524D01*
X040723Y003297D01*
X040666Y003240D01*
X040496Y003240D01*
X040496Y003580D01*
X040128Y003580D02*
X040128Y003240D01*
X037729Y004000D02*
X037479Y004250D01*
X037479Y004750D01*
X037729Y005000D01*
X039229Y011000D02*
X039479Y011250D01*
X039479Y011750D01*
X039229Y012000D01*
X037729Y012000D02*
X037479Y012250D01*
X037479Y012750D01*
X037729Y013000D01*
X031759Y017330D02*
X031759Y017557D01*
X031759Y017698D02*
X032099Y017925D01*
X031099Y018067D02*
X031099Y018293D01*
X030099Y018293D02*
X030099Y018067D01*
X029872Y018293D01*
X029816Y018293D01*
X029759Y018237D01*
X027929Y018237D02*
X027929Y018180D01*
X039229Y019000D02*
X039479Y019250D01*
X039479Y019750D01*
X039229Y020000D01*
D15*
X038979Y021020D02*
X038979Y021280D01*
X037979Y021280D01*
X037679Y021280D01*
X037979Y021280D02*
X037979Y021030D01*
X035739Y019650D02*
X035739Y016870D01*
X034939Y016070D01*
X034939Y005000D01*
X034929Y004660D02*
X035599Y003990D01*
X040669Y003990D01*
X040659Y003000D02*
X039479Y003000D01*
X038979Y002980D02*
X038979Y002680D01*
X037979Y002680D01*
X037979Y002970D01*
X034929Y004660D02*
X020629Y004660D01*
X019329Y004660D02*
X013629Y004660D01*
X024579Y016150D02*
X034629Y016150D01*
X024379Y017450D02*
X012029Y017450D01*
D16*
X012524Y017795D02*
X012524Y018305D01*
X012780Y018305D01*
X012865Y018220D01*
X012865Y018050D01*
X012780Y017965D01*
X012524Y017965D01*
X013077Y017795D02*
X013247Y017965D01*
X013417Y017795D01*
X013417Y018305D01*
X013629Y018305D02*
X013799Y018135D01*
X013970Y018305D01*
X013970Y017795D01*
X013629Y017795D02*
X013629Y018305D01*
X013077Y018305D02*
X013077Y017795D01*
X024824Y016820D02*
X024824Y016480D01*
X024909Y016395D01*
X025080Y016395D01*
X025165Y016480D01*
X025377Y016480D02*
X025462Y016395D01*
X025632Y016395D01*
X025717Y016480D01*
X025717Y016820D01*
X025632Y016905D01*
X025462Y016905D01*
X025377Y016820D01*
X025377Y016480D01*
X025165Y016820D02*
X025080Y016905D01*
X024909Y016905D01*
X024824Y016820D01*
X025929Y016905D02*
X025929Y016395D01*
X026270Y016395D02*
X026270Y016905D01*
X026099Y016735D01*
X025929Y016905D01*
X026482Y016905D02*
X026652Y016735D01*
X026822Y016905D01*
X026822Y016395D01*
X027034Y016480D02*
X027119Y016395D01*
X027289Y016395D01*
X027375Y016480D01*
X027375Y016905D01*
X027587Y016905D02*
X027927Y016395D01*
X027927Y016905D01*
X028139Y016905D02*
X028309Y016905D01*
X028224Y016905D02*
X028224Y016395D01*
X028139Y016395D02*
X028309Y016395D01*
X028507Y016480D02*
X028593Y016395D01*
X028763Y016395D01*
X028848Y016480D01*
X029060Y016395D02*
X029060Y016735D01*
X029230Y016905D01*
X029400Y016735D01*
X029400Y016395D01*
X029400Y016650D02*
X029060Y016650D01*
X028848Y016820D02*
X028763Y016905D01*
X028593Y016905D01*
X028507Y016820D01*
X028507Y016480D01*
X027587Y016395D02*
X027587Y016905D01*
X027034Y016905D02*
X027034Y016480D01*
X026482Y016395D02*
X026482Y016905D01*
X029612Y016905D02*
X029953Y016905D01*
X029783Y016905D02*
X029783Y016395D01*
X030165Y016395D02*
X030335Y016395D01*
X030250Y016395D02*
X030250Y016905D01*
X030165Y016905D02*
X030335Y016905D01*
X030533Y016820D02*
X030533Y016480D01*
X030618Y016395D01*
X030788Y016395D01*
X030873Y016480D01*
X030873Y016820D01*
X030788Y016905D01*
X030618Y016905D01*
X030533Y016820D01*
X031086Y016905D02*
X031426Y016395D01*
X031426Y016905D01*
X031086Y016905D02*
X031086Y016395D01*
X035784Y008432D02*
X035784Y008092D01*
X035274Y008092D01*
X035444Y007879D02*
X035784Y007879D01*
X035529Y007879D02*
X035529Y007539D01*
X035444Y007539D02*
X035274Y007709D01*
X035444Y007879D01*
X035444Y007539D02*
X035784Y007539D01*
X035784Y007157D02*
X035274Y007157D01*
X035274Y006987D02*
X035274Y007327D01*
X035274Y006788D02*
X035274Y006618D01*
X035274Y006703D02*
X035784Y006703D01*
X035784Y006618D02*
X035784Y006788D01*
X035699Y006406D02*
X035529Y006406D01*
X035529Y006236D01*
X035359Y006406D02*
X035274Y006321D01*
X035274Y006151D01*
X035359Y006066D01*
X035699Y006066D01*
X035784Y006151D01*
X035784Y006321D01*
X035699Y006406D01*
X035784Y005868D02*
X035784Y005697D01*
X035784Y005783D02*
X035274Y005783D01*
X035274Y005868D02*
X035274Y005697D01*
X035359Y005485D02*
X035274Y005400D01*
X035274Y005145D01*
X035784Y005145D01*
X035784Y005400D01*
X035699Y005485D01*
X035359Y005485D01*
X025700Y004255D02*
X025700Y003745D01*
X025360Y004255D01*
X025360Y003745D01*
X025162Y003745D02*
X024992Y003745D01*
X025077Y003745D02*
X025077Y004255D01*
X024992Y004255D02*
X025162Y004255D01*
X024227Y004170D02*
X024142Y004255D01*
X023972Y004255D01*
X023887Y004170D01*
X023887Y003830D01*
X023972Y003745D01*
X024142Y003745D01*
X024227Y003830D01*
X024227Y004000D01*
X024057Y004000D01*
X023675Y003830D02*
X023589Y003745D01*
X023419Y003745D01*
X023334Y003830D01*
X023334Y004170D01*
X023419Y004255D01*
X023589Y004255D01*
X023675Y004170D01*
X023675Y003830D01*
X023122Y003745D02*
X022782Y003745D01*
X022782Y004255D01*
X022570Y004085D02*
X022570Y003745D01*
X022570Y004000D02*
X022229Y004000D01*
X022229Y004085D02*
X022229Y003745D01*
X022017Y003745D02*
X022017Y004255D01*
X022229Y004085D02*
X022399Y004255D01*
X022570Y004085D01*
X022017Y003745D02*
X021677Y004255D01*
X021677Y003745D01*
X021465Y003745D02*
X021465Y004085D01*
X021294Y004255D01*
X021124Y004085D01*
X021124Y003745D01*
X021124Y004000D02*
X021465Y004000D01*
X019175Y004000D02*
X019089Y003915D01*
X018834Y003915D01*
X018834Y003745D02*
X018834Y004255D01*
X019089Y004255D01*
X019175Y004170D01*
X019175Y004000D01*
X019004Y003915D02*
X019175Y003745D01*
X018622Y003745D02*
X018282Y003745D01*
X018282Y004255D01*
X018622Y004255D01*
X018452Y004000D02*
X018282Y004000D01*
X018070Y003745D02*
X018070Y004255D01*
X017729Y004255D02*
X017729Y003745D01*
X017899Y003915D01*
X018070Y003745D01*
X017517Y003830D02*
X017517Y004170D01*
X017432Y004255D01*
X017262Y004255D01*
X017177Y004170D01*
X017177Y003830D01*
X017262Y003745D01*
X017432Y003745D01*
X017517Y003830D01*
X016965Y004000D02*
X016965Y004170D01*
X016880Y004255D01*
X016624Y004255D01*
X016624Y003745D01*
X016624Y003915D02*
X016880Y003915D01*
X016965Y004000D01*
D17*
X014979Y003988D02*
X014979Y004012D01*
X015967Y005500D02*
X015991Y005500D01*
X017467Y005500D02*
X017491Y005500D01*
X012979Y008488D02*
X012979Y008512D01*
X011491Y010500D02*
X011467Y010500D01*
X008979Y008512D02*
X008979Y008488D01*
X007979Y008488D02*
X007979Y008512D01*
X007479Y010988D02*
X007479Y011012D01*
X010979Y006012D02*
X010979Y005988D01*
X008229Y005862D02*
X008229Y005838D01*
X024967Y011000D02*
X024991Y011000D01*
X011479Y017988D02*
X011479Y018012D01*
X009491Y019000D02*
X009467Y019000D01*
D18*
X016479Y005500D03*
X012979Y002500D03*
X012479Y002500D03*
X033979Y014500D03*
X034479Y014500D03*
D19*
X030979Y014500D03*
X012479Y017000D03*
X007479Y012500D03*
X007479Y012000D03*
X007479Y011500D03*
D20*
X012262Y011268D02*
X012262Y010932D01*
X012706Y010887D01*
X012735Y010786D01*
X012775Y010690D01*
X012826Y010598D01*
X012544Y010252D01*
X012781Y010014D01*
X013127Y010297D01*
X013196Y010258D01*
X013267Y010225D01*
X013465Y010702D01*
X013400Y010735D01*
X013342Y010779D01*
X013293Y010832D01*
X013252Y010892D01*
X013223Y010958D01*
X013205Y011028D01*
X013199Y011100D01*
X013206Y011180D01*
X013229Y011258D01*
X013265Y011330D01*
X013315Y011394D01*
X013375Y011448D01*
X013444Y011489D01*
X013520Y011517D01*
X013600Y011530D01*
X013681Y011528D01*
X013760Y011510D01*
X013834Y011479D01*
X013901Y011434D01*
X013959Y011377D01*
X014005Y011311D01*
X014037Y011237D01*
X014056Y011159D01*
X014059Y011078D01*
X014048Y010998D01*
X014021Y010922D01*
X013981Y010852D01*
X013929Y010790D01*
X013866Y010740D01*
X013794Y010702D01*
X013992Y010225D01*
X014063Y010258D01*
X014131Y010297D01*
X014478Y010014D01*
X014715Y010252D01*
X014433Y010598D01*
X014483Y010690D01*
X014523Y010786D01*
X014552Y010887D01*
X014997Y010932D01*
X014997Y011268D01*
X014552Y011313D01*
X014523Y011414D01*
X014483Y011510D01*
X014433Y011602D01*
X014715Y011948D01*
X014478Y012186D01*
X014131Y011903D01*
X014040Y011954D01*
X013943Y011994D01*
X013842Y012023D01*
X013797Y012468D01*
X013461Y012468D01*
X013416Y012023D01*
X013316Y011994D01*
X013219Y011954D01*
X013127Y011903D01*
X012781Y012186D01*
X012544Y011948D01*
X012826Y011602D01*
X012775Y011510D01*
X012735Y011414D01*
X012706Y011313D01*
X012262Y011268D01*
X012262Y011263D02*
X013231Y011263D01*
X013213Y011205D02*
X012262Y011205D01*
X012262Y011148D02*
X013203Y011148D01*
X013200Y011090D02*
X012262Y011090D01*
X012262Y011033D02*
X013204Y011033D01*
X013218Y010975D02*
X012262Y010975D01*
X012405Y010918D02*
X013241Y010918D01*
X013274Y010860D02*
X012714Y010860D01*
X012731Y010802D02*
X013320Y010802D01*
X013388Y010745D02*
X012753Y010745D01*
X012777Y010687D02*
X013458Y010687D01*
X013435Y010630D02*
X012808Y010630D01*
X012805Y010572D02*
X013411Y010572D01*
X013387Y010515D02*
X012758Y010515D01*
X012711Y010457D02*
X013363Y010457D01*
X013339Y010400D02*
X012664Y010400D01*
X012617Y010342D02*
X013315Y010342D01*
X013291Y010284D02*
X013149Y010284D01*
X013112Y010284D02*
X012570Y010284D01*
X012568Y010227D02*
X013042Y010227D01*
X012971Y010169D02*
X012626Y010169D01*
X012683Y010112D02*
X012901Y010112D01*
X012830Y010054D02*
X012741Y010054D01*
X013262Y010227D02*
X013268Y010227D01*
X013896Y010457D02*
X014548Y010457D01*
X014595Y010400D02*
X013919Y010400D01*
X013943Y010342D02*
X014642Y010342D01*
X014688Y010284D02*
X014146Y010284D01*
X014110Y010284D02*
X013967Y010284D01*
X013991Y010227D02*
X013996Y010227D01*
X014217Y010227D02*
X014690Y010227D01*
X014633Y010169D02*
X014287Y010169D01*
X014358Y010112D02*
X014575Y010112D01*
X014518Y010054D02*
X014429Y010054D01*
X014501Y010515D02*
X013872Y010515D01*
X013848Y010572D02*
X014454Y010572D01*
X014450Y010630D02*
X013824Y010630D01*
X013800Y010687D02*
X014482Y010687D01*
X014506Y010745D02*
X013872Y010745D01*
X013939Y010802D02*
X014528Y010802D01*
X014545Y010860D02*
X013986Y010860D01*
X014019Y010918D02*
X014854Y010918D01*
X014997Y010975D02*
X014040Y010975D01*
X014053Y011033D02*
X014997Y011033D01*
X014997Y011090D02*
X014059Y011090D01*
X014056Y011148D02*
X014997Y011148D01*
X014997Y011205D02*
X014045Y011205D01*
X014026Y011263D02*
X014997Y011263D01*
X014550Y011320D02*
X013998Y011320D01*
X013958Y011378D02*
X014534Y011378D01*
X014514Y011436D02*
X013899Y011436D01*
X013801Y011493D02*
X014490Y011493D01*
X014461Y011551D02*
X012798Y011551D01*
X012821Y011608D02*
X014438Y011608D01*
X014485Y011666D02*
X012774Y011666D01*
X012727Y011723D02*
X014532Y011723D01*
X014579Y011781D02*
X012680Y011781D01*
X012633Y011838D02*
X014626Y011838D01*
X014672Y011896D02*
X012586Y011896D01*
X012549Y011954D02*
X013066Y011954D01*
X012995Y012011D02*
X012606Y012011D01*
X012664Y012069D02*
X012925Y012069D01*
X012854Y012126D02*
X012721Y012126D01*
X012779Y012184D02*
X012784Y012184D01*
X013218Y011954D02*
X014040Y011954D01*
X014193Y011954D02*
X014710Y011954D01*
X014652Y012011D02*
X014263Y012011D01*
X014334Y012069D02*
X014595Y012069D01*
X014537Y012126D02*
X014405Y012126D01*
X014475Y012184D02*
X014480Y012184D01*
X013884Y012011D02*
X013375Y012011D01*
X013421Y012069D02*
X013838Y012069D01*
X013832Y012126D02*
X013427Y012126D01*
X013433Y012184D02*
X013826Y012184D01*
X013820Y012241D02*
X013438Y012241D01*
X013444Y012299D02*
X013814Y012299D01*
X013809Y012356D02*
X013450Y012356D01*
X013456Y012414D02*
X013803Y012414D01*
X013456Y011493D02*
X012768Y011493D01*
X012744Y011436D02*
X013361Y011436D01*
X013302Y011378D02*
X012725Y011378D01*
X012708Y011320D02*
X013260Y011320D01*
D21*
X016481Y014654D02*
X016644Y014507D01*
X016644Y015070D01*
X016649Y015070D01*
X016651Y015070D01*
X016652Y015071D01*
X016653Y015073D01*
X016652Y015074D01*
X016643Y015101D01*
X016638Y015132D01*
X016637Y015233D01*
X016642Y015266D01*
X016653Y015297D01*
X016669Y015326D01*
X016693Y015353D01*
X016722Y015376D01*
X016737Y015383D01*
X016752Y015386D01*
X016795Y015388D01*
X016818Y015386D01*
X016841Y015380D01*
X016861Y015369D01*
X016892Y015343D01*
X016916Y015312D01*
X016933Y015275D01*
X016940Y015236D01*
X016940Y015158D01*
X016928Y015080D01*
X016917Y015049D01*
X016897Y015022D01*
X016872Y015001D01*
X016841Y014987D01*
X016805Y014980D01*
X016768Y014980D01*
X016739Y014986D01*
X016711Y014998D01*
X016690Y015013D01*
X016673Y015032D01*
X016661Y015055D01*
X016659Y015058D01*
X016657Y015061D01*
X016656Y015065D01*
X016656Y015067D01*
X016653Y015064D01*
X016653Y014947D01*
X016674Y014919D01*
X016700Y014896D01*
X016730Y014878D01*
X016763Y014868D01*
X016811Y014862D01*
X016860Y014863D01*
X016907Y014870D01*
X016944Y014882D01*
X016977Y014899D01*
X017007Y014922D01*
X017033Y014950D01*
X017064Y014997D01*
X017086Y015048D01*
X017098Y015102D01*
X017103Y015189D01*
X017092Y015276D01*
X017065Y015359D01*
X017042Y015400D01*
X017011Y015435D01*
X016979Y015461D01*
X016943Y015482D01*
X016903Y015498D01*
X016860Y015505D01*
X016782Y015504D01*
X016763Y015500D01*
X016711Y015479D01*
X016696Y015470D01*
X016682Y015458D01*
X016647Y015420D01*
X016638Y015410D01*
X016636Y015411D01*
X016633Y015414D01*
X016634Y015493D01*
X016481Y015464D01*
X016481Y014654D01*
X016483Y014653D02*
X016644Y014653D01*
X016644Y014661D02*
X016481Y014661D01*
X016481Y014670D02*
X016644Y014670D01*
X016644Y014678D02*
X016481Y014678D01*
X016481Y014687D02*
X016644Y014687D01*
X016644Y014695D02*
X016481Y014695D01*
X016481Y014704D02*
X016644Y014704D01*
X016644Y014712D02*
X016481Y014712D01*
X016481Y014721D02*
X016644Y014721D01*
X016644Y014729D02*
X016481Y014729D01*
X016481Y014738D02*
X016644Y014738D01*
X016644Y014746D02*
X016481Y014746D01*
X016481Y014755D02*
X016644Y014755D01*
X016644Y014763D02*
X016481Y014763D01*
X016481Y014772D02*
X016644Y014772D01*
X016644Y014780D02*
X016481Y014780D01*
X016481Y014789D02*
X016644Y014789D01*
X016644Y014797D02*
X016481Y014797D01*
X016481Y014806D02*
X016644Y014806D01*
X016644Y014814D02*
X016481Y014814D01*
X016481Y014823D02*
X016644Y014823D01*
X016644Y014831D02*
X016481Y014831D01*
X016481Y014840D02*
X016644Y014840D01*
X016644Y014848D02*
X016481Y014848D01*
X016481Y014857D02*
X016644Y014857D01*
X016644Y014865D02*
X016481Y014865D01*
X016481Y014874D02*
X016644Y014874D01*
X016644Y014882D02*
X016481Y014882D01*
X016481Y014891D02*
X016644Y014891D01*
X016644Y014899D02*
X016481Y014899D01*
X016481Y014908D02*
X016644Y014908D01*
X016644Y014916D02*
X016481Y014916D01*
X016481Y014925D02*
X016644Y014925D01*
X016644Y014933D02*
X016481Y014933D01*
X016481Y014942D02*
X016644Y014942D01*
X016644Y014950D02*
X016481Y014950D01*
X016481Y014959D02*
X016644Y014959D01*
X016644Y014967D02*
X016481Y014967D01*
X016481Y014976D02*
X016644Y014976D01*
X016644Y014984D02*
X016481Y014984D01*
X016481Y014993D02*
X016644Y014993D01*
X016644Y015001D02*
X016481Y015001D01*
X016481Y015010D02*
X016644Y015010D01*
X016644Y015018D02*
X016481Y015018D01*
X016481Y015027D02*
X016644Y015027D01*
X016644Y015035D02*
X016481Y015035D01*
X016481Y015044D02*
X016644Y015044D01*
X016644Y015052D02*
X016481Y015052D01*
X016481Y015061D02*
X016644Y015061D01*
X016644Y015069D02*
X016481Y015069D01*
X016481Y015078D02*
X016651Y015078D01*
X016648Y015086D02*
X016481Y015086D01*
X016481Y015095D02*
X016645Y015095D01*
X016643Y015103D02*
X016481Y015103D01*
X016481Y015112D02*
X016642Y015112D01*
X016640Y015120D02*
X016481Y015120D01*
X016481Y015129D02*
X016639Y015129D01*
X016638Y015137D02*
X016481Y015137D01*
X016481Y015146D02*
X016638Y015146D01*
X016638Y015154D02*
X016481Y015154D01*
X016481Y015163D02*
X016638Y015163D01*
X016638Y015171D02*
X016481Y015171D01*
X016481Y015180D02*
X016638Y015180D01*
X016638Y015188D02*
X016481Y015188D01*
X016481Y015197D02*
X016638Y015197D01*
X016638Y015205D02*
X016481Y015205D01*
X016481Y015214D02*
X016638Y015214D01*
X016637Y015222D02*
X016481Y015222D01*
X016481Y015231D02*
X016637Y015231D01*
X016638Y015239D02*
X016481Y015239D01*
X016481Y015248D02*
X016639Y015248D01*
X016640Y015256D02*
X016481Y015256D01*
X016481Y015265D02*
X016642Y015265D01*
X016644Y015273D02*
X016481Y015273D01*
X016481Y015282D02*
X016647Y015282D01*
X016650Y015290D02*
X016481Y015290D01*
X016481Y015299D02*
X016654Y015299D01*
X016658Y015307D02*
X016481Y015307D01*
X016481Y015316D02*
X016663Y015316D01*
X016668Y015324D02*
X016481Y015324D01*
X016481Y015333D02*
X016675Y015333D01*
X016683Y015341D02*
X016481Y015341D01*
X016481Y015350D02*
X016690Y015350D01*
X016700Y015358D02*
X016481Y015358D01*
X016481Y015367D02*
X016711Y015367D01*
X016722Y015375D02*
X016481Y015375D01*
X016481Y015384D02*
X016742Y015384D01*
X016826Y015384D02*
X017051Y015384D01*
X017047Y015392D02*
X016481Y015392D01*
X016481Y015401D02*
X017042Y015401D01*
X017034Y015409D02*
X016481Y015409D01*
X016481Y015418D02*
X016633Y015418D01*
X016634Y015426D02*
X016481Y015426D01*
X016481Y015435D02*
X016634Y015435D01*
X016634Y015443D02*
X016481Y015443D01*
X016481Y015452D02*
X016634Y015452D01*
X016634Y015460D02*
X016481Y015460D01*
X016507Y015469D02*
X016634Y015469D01*
X016634Y015477D02*
X016552Y015477D01*
X016597Y015486D02*
X016634Y015486D01*
X016677Y015452D02*
X016990Y015452D01*
X016979Y015460D02*
X016685Y015460D01*
X016695Y015469D02*
X016965Y015469D01*
X016951Y015477D02*
X016709Y015477D01*
X016728Y015486D02*
X016933Y015486D01*
X016912Y015494D02*
X016750Y015494D01*
X016777Y015503D02*
X016873Y015503D01*
X016849Y015375D02*
X017056Y015375D01*
X017061Y015367D02*
X016864Y015367D01*
X016874Y015358D02*
X017066Y015358D01*
X017068Y015350D02*
X016884Y015350D01*
X016894Y015341D02*
X017071Y015341D01*
X017074Y015333D02*
X016900Y015333D01*
X016907Y015324D02*
X017076Y015324D01*
X017079Y015316D02*
X016913Y015316D01*
X016918Y015307D02*
X017082Y015307D01*
X017084Y015299D02*
X016922Y015299D01*
X016926Y015290D02*
X017087Y015290D01*
X017090Y015282D02*
X016930Y015282D01*
X016933Y015273D02*
X017092Y015273D01*
X017093Y015265D02*
X016935Y015265D01*
X016936Y015256D02*
X017094Y015256D01*
X017095Y015248D02*
X016938Y015248D01*
X016940Y015239D02*
X017097Y015239D01*
X017098Y015231D02*
X016940Y015231D01*
X016940Y015222D02*
X017099Y015222D01*
X017100Y015214D02*
X016940Y015214D01*
X016940Y015205D02*
X017101Y015205D01*
X017102Y015197D02*
X016940Y015197D01*
X016940Y015188D02*
X017103Y015188D01*
X017102Y015180D02*
X016940Y015180D01*
X016940Y015171D02*
X017102Y015171D01*
X017102Y015163D02*
X016940Y015163D01*
X016940Y015154D02*
X017101Y015154D01*
X017101Y015146D02*
X016939Y015146D01*
X016937Y015137D02*
X017100Y015137D01*
X017100Y015129D02*
X016936Y015129D01*
X016935Y015120D02*
X017099Y015120D01*
X017099Y015112D02*
X016933Y015112D01*
X016932Y015103D02*
X017098Y015103D01*
X017097Y015095D02*
X016931Y015095D01*
X016929Y015086D02*
X017095Y015086D01*
X017093Y015078D02*
X016928Y015078D01*
X016924Y015069D02*
X017091Y015069D01*
X017089Y015061D02*
X016921Y015061D01*
X016918Y015052D02*
X017087Y015052D01*
X017084Y015044D02*
X016913Y015044D01*
X016907Y015035D02*
X017080Y015035D01*
X017077Y015027D02*
X016901Y015027D01*
X016893Y015018D02*
X017073Y015018D01*
X017069Y015010D02*
X016883Y015010D01*
X016872Y015001D02*
X017066Y015001D01*
X017061Y014993D02*
X016854Y014993D01*
X016828Y014984D02*
X017056Y014984D01*
X017050Y014976D02*
X016653Y014976D01*
X016653Y014984D02*
X016747Y014984D01*
X016723Y014993D02*
X016653Y014993D01*
X016653Y015001D02*
X016707Y015001D01*
X016695Y015010D02*
X016653Y015010D01*
X016653Y015018D02*
X016686Y015018D01*
X016678Y015027D02*
X016653Y015027D01*
X016653Y015035D02*
X016672Y015035D01*
X016667Y015044D02*
X016653Y015044D01*
X016653Y015052D02*
X016663Y015052D01*
X016657Y015061D02*
X016653Y015061D01*
X016653Y014967D02*
X017045Y014967D01*
X017039Y014959D02*
X016653Y014959D01*
X016653Y014950D02*
X017034Y014950D01*
X017026Y014942D02*
X016657Y014942D01*
X016663Y014933D02*
X017018Y014933D01*
X017010Y014925D02*
X016669Y014925D01*
X016677Y014916D02*
X017000Y014916D01*
X016989Y014908D02*
X016686Y014908D01*
X016696Y014899D02*
X016978Y014899D01*
X016961Y014891D02*
X016708Y014891D01*
X016723Y014882D02*
X016945Y014882D01*
X016920Y014874D02*
X016744Y014874D01*
X016784Y014865D02*
X016878Y014865D01*
X017176Y014976D02*
X017368Y014976D01*
X017376Y014972D02*
X017358Y014981D01*
X017343Y014993D01*
X017335Y015004D01*
X017329Y015016D01*
X017326Y015029D01*
X017326Y015053D01*
X017330Y015077D01*
X017339Y015099D01*
X017348Y015112D01*
X017176Y015112D01*
X017173Y015106D02*
X017165Y015069D01*
X017165Y015027D01*
X017327Y015027D01*
X017326Y015035D02*
X017165Y015035D01*
X017165Y015027D02*
X017173Y014986D01*
X017187Y014947D01*
X017199Y014928D01*
X017214Y014911D01*
X017231Y014898D01*
X017281Y014874D01*
X017335Y014862D01*
X017400Y014861D01*
X017463Y014870D01*
X017504Y014884D01*
X017542Y014905D01*
X017574Y014933D01*
X017576Y014934D01*
X017579Y014935D01*
X017581Y014934D01*
X017583Y014932D01*
X017584Y014930D01*
X017593Y014889D01*
X017596Y014878D01*
X017597Y014877D01*
X017599Y014876D01*
X017600Y014876D01*
X017759Y014876D01*
X017756Y014884D01*
X017742Y014936D01*
X017738Y014989D01*
X017739Y015160D01*
X017578Y015160D01*
X017578Y015127D01*
X017576Y015084D01*
X017567Y015041D01*
X017565Y015034D01*
X017561Y015023D01*
X017554Y015014D01*
X017524Y014985D01*
X017512Y014977D01*
X017498Y014972D01*
X017456Y014966D01*
X017395Y014968D01*
X017376Y014972D01*
X017354Y014984D02*
X017173Y014984D01*
X017171Y014993D02*
X017343Y014993D01*
X017337Y015001D02*
X017170Y015001D01*
X017168Y015010D02*
X017332Y015010D01*
X017329Y015018D02*
X017167Y015018D01*
X017165Y015044D02*
X017326Y015044D01*
X017326Y015052D02*
X017165Y015052D01*
X017165Y015061D02*
X017327Y015061D01*
X017329Y015069D02*
X017165Y015069D01*
X017167Y015078D02*
X017331Y015078D01*
X017334Y015086D02*
X017169Y015086D01*
X017171Y015095D02*
X017338Y015095D01*
X017342Y015103D02*
X017173Y015103D01*
X017173Y015106D02*
X017190Y015140D01*
X017210Y015164D01*
X017234Y015184D01*
X017261Y015198D01*
X017320Y015217D01*
X017380Y015228D01*
X017467Y015237D01*
X017519Y015246D01*
X017539Y015253D01*
X017556Y015263D01*
X017568Y015274D01*
X017571Y015278D01*
X017573Y015283D01*
X017578Y015304D01*
X017578Y015326D01*
X017573Y015348D01*
X017567Y015361D01*
X017559Y015373D01*
X017548Y015383D01*
X017535Y015391D01*
X017521Y015396D01*
X017505Y015399D01*
X017451Y015401D01*
X017212Y015401D01*
X017217Y015409D02*
X017725Y015409D01*
X017724Y015410D02*
X017707Y015434D01*
X017685Y015453D01*
X017634Y015480D01*
X017578Y015497D01*
X017510Y015506D01*
X017441Y015506D01*
X017372Y015498D01*
X017324Y015485D01*
X017278Y015464D01*
X017246Y015441D01*
X017219Y015413D01*
X017199Y015379D01*
X017186Y015342D01*
X017180Y015303D01*
X017179Y015304D01*
X017346Y015304D01*
X017346Y015306D01*
X017349Y015328D01*
X017357Y015348D01*
X017369Y015367D01*
X017194Y015367D01*
X017191Y015358D02*
X017363Y015358D01*
X017358Y015350D02*
X017188Y015350D01*
X017186Y015341D02*
X017354Y015341D01*
X017351Y015333D02*
X017184Y015333D01*
X017183Y015324D02*
X017349Y015324D01*
X017348Y015316D02*
X017182Y015316D01*
X017181Y015307D02*
X017347Y015307D01*
X017369Y015367D02*
X017385Y015381D01*
X017404Y015392D01*
X017427Y015399D01*
X017451Y015401D01*
X017453Y015401D02*
X017728Y015401D01*
X017731Y015392D02*
X017532Y015392D01*
X017547Y015384D02*
X017734Y015384D01*
X017735Y015383D02*
X017724Y015410D01*
X017719Y015418D02*
X017224Y015418D01*
X017232Y015426D02*
X017713Y015426D01*
X017706Y015435D02*
X017240Y015435D01*
X017249Y015443D02*
X017696Y015443D01*
X017687Y015452D02*
X017261Y015452D01*
X017273Y015460D02*
X017671Y015460D01*
X017655Y015469D02*
X017289Y015469D01*
X017308Y015477D02*
X017639Y015477D01*
X017615Y015486D02*
X017328Y015486D01*
X017359Y015494D02*
X017587Y015494D01*
X017534Y015503D02*
X017413Y015503D01*
X017406Y015392D02*
X017207Y015392D01*
X017202Y015384D02*
X017390Y015384D01*
X017379Y015375D02*
X017198Y015375D01*
X017027Y015418D02*
X016645Y015418D01*
X016653Y015426D02*
X017019Y015426D01*
X017011Y015435D02*
X016661Y015435D01*
X016669Y015443D02*
X017001Y015443D01*
X017219Y015171D02*
X017559Y015171D01*
X017556Y015170D02*
X017564Y015174D01*
X017571Y015180D01*
X017229Y015180D01*
X017243Y015188D02*
X017738Y015188D01*
X017738Y015180D02*
X017578Y015180D01*
X017571Y015180D02*
X017576Y015188D01*
X017578Y015188D01*
X017578Y015164D01*
X017738Y015164D01*
X017738Y015354D01*
X017735Y015383D01*
X017736Y015375D02*
X017557Y015375D01*
X017563Y015367D02*
X017737Y015367D01*
X017738Y015358D02*
X017569Y015358D01*
X017572Y015350D02*
X017738Y015350D01*
X017738Y015341D02*
X017575Y015341D01*
X017577Y015333D02*
X017738Y015333D01*
X017738Y015324D02*
X017578Y015324D01*
X017578Y015316D02*
X017738Y015316D01*
X017738Y015307D02*
X017578Y015307D01*
X017577Y015299D02*
X017738Y015299D01*
X017738Y015290D02*
X017575Y015290D01*
X017573Y015282D02*
X017738Y015282D01*
X017738Y015273D02*
X017568Y015273D01*
X017558Y015265D02*
X017738Y015265D01*
X017738Y015256D02*
X017545Y015256D01*
X017525Y015248D02*
X017738Y015248D01*
X017738Y015239D02*
X017481Y015239D01*
X017409Y015231D02*
X017738Y015231D01*
X017738Y015222D02*
X017350Y015222D01*
X017310Y015214D02*
X017738Y015214D01*
X017738Y015205D02*
X017284Y015205D01*
X017259Y015197D02*
X017738Y015197D01*
X017738Y015171D02*
X017578Y015171D01*
X017578Y015154D02*
X017739Y015154D01*
X017739Y015146D02*
X017578Y015146D01*
X017578Y015137D02*
X017739Y015137D01*
X017739Y015129D02*
X017578Y015129D01*
X017578Y015120D02*
X017739Y015120D01*
X017739Y015112D02*
X017577Y015112D01*
X017577Y015103D02*
X017739Y015103D01*
X017739Y015095D02*
X017576Y015095D01*
X017576Y015086D02*
X017739Y015086D01*
X017739Y015078D02*
X017574Y015078D01*
X017573Y015069D02*
X017739Y015069D01*
X017739Y015061D02*
X017571Y015061D01*
X017570Y015052D02*
X017739Y015052D01*
X017739Y015044D02*
X017568Y015044D01*
X017566Y015035D02*
X017739Y015035D01*
X017739Y015027D02*
X017562Y015027D01*
X017557Y015018D02*
X017739Y015018D01*
X017738Y015010D02*
X017550Y015010D01*
X017541Y015001D02*
X017738Y015001D01*
X017738Y014993D02*
X017533Y014993D01*
X017523Y014984D02*
X017739Y014984D01*
X017739Y014976D02*
X017509Y014976D01*
X017466Y014967D02*
X017740Y014967D01*
X017741Y014959D02*
X017183Y014959D01*
X017180Y014967D02*
X017413Y014967D01*
X017433Y014865D02*
X017320Y014865D01*
X017282Y014874D02*
X017475Y014874D01*
X017500Y014882D02*
X017264Y014882D01*
X017246Y014891D02*
X017517Y014891D01*
X017532Y014899D02*
X017229Y014899D01*
X017218Y014908D02*
X017545Y014908D01*
X017555Y014916D02*
X017209Y014916D01*
X017202Y014925D02*
X017565Y014925D01*
X017575Y014933D02*
X017196Y014933D01*
X017190Y014942D02*
X017742Y014942D01*
X017741Y014950D02*
X017186Y014950D01*
X017181Y015120D02*
X017358Y015120D01*
X017359Y015122D02*
X017379Y015134D01*
X017400Y015142D01*
X017422Y015146D01*
X017195Y015146D01*
X017189Y015137D02*
X017389Y015137D01*
X017371Y015129D02*
X017185Y015129D01*
X017202Y015154D02*
X017493Y015154D01*
X017479Y015152D02*
X017518Y015159D01*
X017556Y015170D01*
X017533Y015163D02*
X017209Y015163D01*
X017348Y015112D02*
X017359Y015122D01*
X017422Y015146D02*
X017479Y015152D01*
X017582Y014933D02*
X017743Y014933D01*
X017745Y014925D02*
X017585Y014925D01*
X017587Y014916D02*
X017748Y014916D01*
X017750Y014908D02*
X017589Y014908D01*
X017591Y014899D02*
X017752Y014899D01*
X017754Y014891D02*
X017593Y014891D01*
X017595Y014882D02*
X017757Y014882D01*
X017845Y014882D02*
X018009Y014882D01*
X018009Y014876D02*
X017845Y014876D01*
X017846Y015462D01*
X017998Y015489D01*
X017998Y015376D01*
X018002Y015374D01*
X018008Y015376D01*
X018016Y015388D01*
X018043Y015429D01*
X018056Y015444D01*
X018071Y015456D01*
X018106Y015479D01*
X018130Y015493D01*
X018157Y015502D01*
X018184Y015505D01*
X018238Y015502D01*
X018238Y015350D01*
X018237Y015350D01*
X018231Y015351D01*
X018207Y015356D01*
X018146Y015356D01*
X018124Y015352D01*
X018103Y015345D01*
X018083Y015334D01*
X018056Y015311D01*
X018035Y015283D01*
X018020Y015251D01*
X018012Y015218D01*
X018009Y015184D01*
X018009Y014876D01*
X018009Y014891D02*
X017845Y014891D01*
X017845Y014899D02*
X018009Y014899D01*
X018009Y014908D02*
X017845Y014908D01*
X017845Y014916D02*
X018009Y014916D01*
X018009Y014925D02*
X017845Y014925D01*
X017845Y014933D02*
X018009Y014933D01*
X018009Y014942D02*
X017845Y014942D01*
X017845Y014950D02*
X018009Y014950D01*
X018009Y014959D02*
X017845Y014959D01*
X017845Y014967D02*
X018009Y014967D01*
X018009Y014976D02*
X017845Y014976D01*
X017846Y014984D02*
X018009Y014984D01*
X018009Y014993D02*
X017846Y014993D01*
X017846Y015001D02*
X018009Y015001D01*
X018009Y015010D02*
X017846Y015010D01*
X017846Y015018D02*
X018009Y015018D01*
X018009Y015027D02*
X017846Y015027D01*
X017846Y015035D02*
X018009Y015035D01*
X018009Y015044D02*
X017846Y015044D01*
X017846Y015052D02*
X018009Y015052D01*
X018009Y015061D02*
X017846Y015061D01*
X017846Y015069D02*
X018009Y015069D01*
X018009Y015078D02*
X017846Y015078D01*
X017846Y015086D02*
X018009Y015086D01*
X018009Y015095D02*
X017846Y015095D01*
X017846Y015103D02*
X018009Y015103D01*
X018009Y015112D02*
X017846Y015112D01*
X017846Y015120D02*
X018009Y015120D01*
X018009Y015129D02*
X017846Y015129D01*
X017846Y015137D02*
X018009Y015137D01*
X018009Y015146D02*
X017846Y015146D01*
X017846Y015154D02*
X018009Y015154D01*
X018009Y015163D02*
X017846Y015163D01*
X017846Y015171D02*
X018009Y015171D01*
X018009Y015180D02*
X017846Y015180D01*
X017846Y015188D02*
X018010Y015188D01*
X018010Y015197D02*
X017846Y015197D01*
X017846Y015205D02*
X018011Y015205D01*
X018012Y015214D02*
X017846Y015214D01*
X017846Y015222D02*
X018013Y015222D01*
X018015Y015231D02*
X017846Y015231D01*
X017846Y015239D02*
X018018Y015239D01*
X018020Y015248D02*
X017846Y015248D01*
X017846Y015256D02*
X018023Y015256D01*
X018027Y015265D02*
X017846Y015265D01*
X017846Y015273D02*
X018031Y015273D01*
X018034Y015282D02*
X017846Y015282D01*
X017846Y015290D02*
X018040Y015290D01*
X018047Y015299D02*
X017846Y015299D01*
X017846Y015307D02*
X018053Y015307D01*
X018062Y015316D02*
X017846Y015316D01*
X017846Y015324D02*
X018072Y015324D01*
X018082Y015333D02*
X017846Y015333D01*
X017846Y015341D02*
X018097Y015341D01*
X018118Y015350D02*
X017846Y015350D01*
X017846Y015358D02*
X018238Y015358D01*
X018238Y015367D02*
X017846Y015367D01*
X017846Y015375D02*
X017999Y015375D01*
X018007Y015375D02*
X018238Y015375D01*
X018238Y015384D02*
X018014Y015384D01*
X018019Y015392D02*
X018238Y015392D01*
X018238Y015401D02*
X018025Y015401D01*
X018030Y015409D02*
X018238Y015409D01*
X018238Y015418D02*
X018036Y015418D01*
X018042Y015426D02*
X018238Y015426D01*
X018238Y015435D02*
X018048Y015435D01*
X018055Y015443D02*
X018238Y015443D01*
X018238Y015452D02*
X018066Y015452D01*
X018078Y015460D02*
X018238Y015460D01*
X018238Y015469D02*
X018091Y015469D01*
X018104Y015477D02*
X018238Y015477D01*
X018238Y015486D02*
X018118Y015486D01*
X018135Y015494D02*
X018238Y015494D01*
X018222Y015503D02*
X018167Y015503D01*
X018312Y015503D02*
X018475Y015503D01*
X018475Y015511D02*
X018312Y015511D01*
X018312Y015520D02*
X018475Y015520D01*
X018475Y015528D02*
X018312Y015528D01*
X018312Y015537D02*
X018475Y015537D01*
X018475Y015545D02*
X018312Y015545D01*
X018312Y015554D02*
X018475Y015554D01*
X018475Y015562D02*
X018312Y015562D01*
X018312Y015571D02*
X018475Y015571D01*
X018475Y015579D02*
X018312Y015579D01*
X018312Y015588D02*
X018475Y015588D01*
X018475Y015596D02*
X018312Y015596D01*
X018312Y015605D02*
X018475Y015605D01*
X018475Y015613D02*
X018312Y015613D01*
X018312Y015622D02*
X018475Y015622D01*
X018475Y015630D02*
X018312Y015630D01*
X018312Y015634D02*
X018475Y015727D01*
X018475Y015265D01*
X018699Y015489D01*
X018883Y015489D01*
X018656Y015267D01*
X018918Y014874D01*
X018718Y014875D01*
X018550Y015152D01*
X018548Y015155D01*
X018477Y015086D01*
X018477Y014871D01*
X018314Y014871D01*
X018312Y014873D01*
X018312Y015634D01*
X018321Y015639D02*
X018475Y015639D01*
X018475Y015647D02*
X018336Y015647D01*
X018351Y015656D02*
X018475Y015656D01*
X018475Y015664D02*
X018366Y015664D01*
X018381Y015673D02*
X018475Y015673D01*
X018475Y015681D02*
X018395Y015681D01*
X018410Y015690D02*
X018475Y015690D01*
X018475Y015698D02*
X018425Y015698D01*
X018440Y015707D02*
X018475Y015707D01*
X018475Y015715D02*
X018455Y015715D01*
X018470Y015724D02*
X018475Y015724D01*
X018668Y015724D02*
X018747Y015724D01*
X018754Y015732D02*
X018668Y015732D01*
X018668Y015741D02*
X018762Y015741D01*
X018769Y015749D02*
X018668Y015749D01*
X018668Y015758D02*
X018777Y015758D01*
X018784Y015766D02*
X018668Y015766D01*
X018668Y015775D02*
X018792Y015775D01*
X018799Y015783D02*
X018668Y015783D01*
X018668Y015792D02*
X018807Y015792D01*
X018814Y015800D02*
X018668Y015800D01*
X018668Y015809D02*
X018822Y015809D01*
X018830Y015817D02*
X018668Y015817D01*
X018668Y015826D02*
X018837Y015826D01*
X018845Y015834D02*
X018668Y015834D01*
X018668Y015843D02*
X018852Y015843D01*
X018860Y015851D02*
X018668Y015851D01*
X018668Y015860D02*
X018869Y015860D01*
X018860Y015852D02*
X018894Y015883D01*
X018934Y015907D01*
X018949Y015912D01*
X018964Y015915D01*
X019054Y015915D01*
X019108Y015920D01*
X019160Y015934D01*
X019208Y015958D01*
X019254Y015990D01*
X019295Y016028D01*
X019329Y016072D01*
X019367Y016138D01*
X019391Y016210D01*
X019403Y016285D01*
X019400Y016361D01*
X019392Y016402D01*
X019378Y016441D01*
X019358Y016478D01*
X019323Y016523D01*
X019278Y016559D01*
X019278Y016524D01*
X019278Y016518D01*
X019275Y016513D01*
X019264Y016499D01*
X019248Y016488D01*
X019240Y016485D01*
X019218Y016483D01*
X019195Y016487D01*
X019175Y016497D01*
X019139Y016523D01*
X019123Y016537D01*
X019108Y016554D01*
X019097Y016573D01*
X019088Y016593D01*
X019086Y016606D01*
X019086Y016619D01*
X019093Y016641D01*
X019105Y016660D01*
X019121Y016675D01*
X019141Y016686D01*
X019161Y016692D01*
X019182Y016694D01*
X019206Y016694D01*
X019205Y016695D01*
X019188Y016708D01*
X019168Y016717D01*
X019154Y016723D01*
X019145Y016727D01*
X019111Y016736D01*
X019075Y016739D01*
X019041Y016736D01*
X019008Y016727D01*
X018977Y016712D01*
X018947Y016690D01*
X018919Y016664D01*
X018902Y016640D01*
X018892Y016613D01*
X018888Y016584D01*
X018892Y016555D01*
X018903Y016528D01*
X018950Y016459D01*
X019007Y016398D01*
X019022Y016380D01*
X019032Y016359D01*
X019037Y016336D01*
X019401Y016336D01*
X019401Y016344D02*
X019035Y016344D01*
X019037Y016336D02*
X019035Y016313D01*
X019027Y016291D01*
X019014Y016272D01*
X018996Y016257D01*
X018974Y016245D01*
X018950Y016237D01*
X018925Y016233D01*
X018896Y016234D01*
X018868Y016243D01*
X018843Y016258D01*
X018830Y016272D01*
X018821Y016289D01*
X018817Y016307D01*
X018817Y016324D01*
X018821Y016342D01*
X018825Y016349D01*
X018830Y016354D01*
X018863Y016378D01*
X018870Y016381D01*
X018876Y016383D01*
X018883Y016382D01*
X018864Y016385D01*
X018827Y016388D01*
X018790Y016385D01*
X018763Y016378D01*
X018737Y016365D01*
X018715Y016348D01*
X018696Y016326D01*
X018681Y016297D01*
X018671Y016266D01*
X018668Y016233D01*
X018668Y015636D01*
X018860Y015852D01*
X018878Y015868D02*
X018668Y015868D01*
X018668Y015877D02*
X018888Y015877D01*
X018898Y015885D02*
X018668Y015885D01*
X018668Y015894D02*
X018912Y015894D01*
X018927Y015902D02*
X018668Y015902D01*
X018668Y015911D02*
X018945Y015911D01*
X019103Y015919D02*
X018668Y015919D01*
X018668Y015928D02*
X019137Y015928D01*
X019164Y015936D02*
X018668Y015936D01*
X018668Y015945D02*
X019182Y015945D01*
X019199Y015953D02*
X018668Y015953D01*
X018668Y015962D02*
X019214Y015962D01*
X019226Y015970D02*
X018668Y015970D01*
X018668Y015979D02*
X019238Y015979D01*
X019250Y015987D02*
X018668Y015987D01*
X018668Y015996D02*
X019260Y015996D01*
X019269Y016004D02*
X018668Y016004D01*
X018668Y016013D02*
X019278Y016013D01*
X019287Y016021D02*
X018668Y016021D01*
X018668Y016030D02*
X019296Y016030D01*
X019303Y016038D02*
X018668Y016038D01*
X018668Y016047D02*
X019309Y016047D01*
X019316Y016055D02*
X018668Y016055D01*
X018668Y016064D02*
X019323Y016064D01*
X019330Y016072D02*
X018668Y016072D01*
X018668Y016081D02*
X019334Y016081D01*
X019339Y016089D02*
X018668Y016089D01*
X018668Y016098D02*
X019344Y016098D01*
X019349Y016106D02*
X018668Y016106D01*
X018668Y016115D02*
X019354Y016115D01*
X019358Y016123D02*
X018668Y016123D01*
X018668Y016132D02*
X019363Y016132D01*
X019367Y016140D02*
X018668Y016140D01*
X018668Y016149D02*
X019370Y016149D01*
X019373Y016157D02*
X018668Y016157D01*
X018668Y016166D02*
X019376Y016166D01*
X019379Y016174D02*
X018668Y016174D01*
X018668Y016183D02*
X019382Y016183D01*
X019385Y016191D02*
X018668Y016191D01*
X018668Y016200D02*
X019388Y016200D01*
X019391Y016208D02*
X018668Y016208D01*
X018668Y016217D02*
X019392Y016217D01*
X019394Y016225D02*
X018668Y016225D01*
X018668Y016234D02*
X018906Y016234D01*
X018931Y016234D02*
X019395Y016234D01*
X019396Y016242D02*
X018966Y016242D01*
X018985Y016251D02*
X019398Y016251D01*
X019399Y016259D02*
X018999Y016259D01*
X019009Y016268D02*
X019400Y016268D01*
X019401Y016276D02*
X019017Y016276D01*
X019023Y016285D02*
X019403Y016285D01*
X019402Y016293D02*
X019028Y016293D01*
X019031Y016302D02*
X019402Y016302D01*
X019402Y016310D02*
X019034Y016310D01*
X019035Y016319D02*
X019402Y016319D01*
X019401Y016327D02*
X019036Y016327D01*
X019034Y016353D02*
X019401Y016353D01*
X019400Y016361D02*
X019031Y016361D01*
X019027Y016370D02*
X019399Y016370D01*
X019397Y016378D02*
X019023Y016378D01*
X019017Y016387D02*
X019395Y016387D01*
X019393Y016395D02*
X019009Y016395D01*
X019002Y016404D02*
X019391Y016404D01*
X019388Y016412D02*
X018994Y016412D01*
X018986Y016421D02*
X019385Y016421D01*
X019382Y016429D02*
X018978Y016429D01*
X018970Y016438D02*
X019379Y016438D01*
X019375Y016446D02*
X018962Y016446D01*
X018954Y016455D02*
X019371Y016455D01*
X019366Y016463D02*
X018947Y016463D01*
X018941Y016472D02*
X019362Y016472D01*
X019356Y016480D02*
X018935Y016480D01*
X018930Y016489D02*
X019191Y016489D01*
X019175Y016497D02*
X018924Y016497D01*
X018918Y016506D02*
X019163Y016506D01*
X019151Y016514D02*
X018912Y016514D01*
X018907Y016523D02*
X019139Y016523D01*
X019129Y016531D02*
X018902Y016531D01*
X018898Y016540D02*
X019120Y016540D01*
X019113Y016548D02*
X018895Y016548D01*
X018892Y016557D02*
X019107Y016557D01*
X019101Y016565D02*
X018891Y016565D01*
X018890Y016574D02*
X019096Y016574D01*
X019093Y016582D02*
X018889Y016582D01*
X018889Y016591D02*
X019089Y016591D01*
X019087Y016599D02*
X018890Y016599D01*
X018891Y016608D02*
X019086Y016608D01*
X019086Y016616D02*
X018893Y016616D01*
X018896Y016625D02*
X019088Y016625D01*
X019091Y016633D02*
X018900Y016633D01*
X018904Y016642D02*
X019094Y016642D01*
X019099Y016650D02*
X018910Y016650D01*
X018916Y016659D02*
X019104Y016659D01*
X019113Y016667D02*
X018923Y016667D01*
X018932Y016676D02*
X019122Y016676D01*
X019138Y016684D02*
X018941Y016684D01*
X018951Y016693D02*
X019173Y016693D01*
X019184Y016710D02*
X018974Y016710D01*
X018963Y016701D02*
X019197Y016701D01*
X019206Y016694D02*
X019206Y016694D01*
X019165Y016718D02*
X018990Y016718D01*
X019007Y016727D02*
X019145Y016727D01*
X019111Y016735D02*
X019038Y016735D01*
X019278Y016557D02*
X019281Y016557D01*
X019278Y016548D02*
X019291Y016548D01*
X019302Y016540D02*
X019278Y016540D01*
X019278Y016531D02*
X019312Y016531D01*
X019322Y016523D02*
X019278Y016523D01*
X019276Y016514D02*
X019329Y016514D01*
X019336Y016506D02*
X019270Y016506D01*
X019262Y016497D02*
X019343Y016497D01*
X019350Y016489D02*
X019250Y016489D01*
X018864Y016378D02*
X018765Y016378D01*
X018747Y016370D02*
X018852Y016370D01*
X018841Y016361D02*
X018733Y016361D01*
X018722Y016353D02*
X018829Y016353D01*
X018823Y016344D02*
X018712Y016344D01*
X018705Y016336D02*
X018820Y016336D01*
X018818Y016327D02*
X018698Y016327D01*
X018692Y016319D02*
X018817Y016319D01*
X018817Y016310D02*
X018688Y016310D01*
X018683Y016302D02*
X018818Y016302D01*
X018820Y016293D02*
X018679Y016293D01*
X018677Y016285D02*
X018823Y016285D01*
X018828Y016276D02*
X018674Y016276D01*
X018672Y016268D02*
X018834Y016268D01*
X018842Y016259D02*
X018671Y016259D01*
X018670Y016251D02*
X018855Y016251D01*
X018870Y016242D02*
X018669Y016242D01*
X018815Y016387D02*
X018839Y016387D01*
X018739Y015715D02*
X018668Y015715D01*
X018668Y015707D02*
X018731Y015707D01*
X018724Y015698D02*
X018668Y015698D01*
X018668Y015690D02*
X018716Y015690D01*
X018709Y015681D02*
X018668Y015681D01*
X018668Y015673D02*
X018701Y015673D01*
X018694Y015664D02*
X018668Y015664D01*
X018668Y015656D02*
X018686Y015656D01*
X018679Y015647D02*
X018668Y015647D01*
X018668Y015639D02*
X018671Y015639D01*
X018696Y015486D02*
X018880Y015486D01*
X018872Y015477D02*
X018688Y015477D01*
X018679Y015469D02*
X018863Y015469D01*
X018854Y015460D02*
X018671Y015460D01*
X018662Y015452D02*
X018845Y015452D01*
X018837Y015443D02*
X018654Y015443D01*
X018645Y015435D02*
X018828Y015435D01*
X018819Y015426D02*
X018637Y015426D01*
X018628Y015418D02*
X018811Y015418D01*
X018802Y015409D02*
X018620Y015409D01*
X018611Y015401D02*
X018793Y015401D01*
X018785Y015392D02*
X018603Y015392D01*
X018594Y015384D02*
X018776Y015384D01*
X018767Y015375D02*
X018586Y015375D01*
X018577Y015367D02*
X018759Y015367D01*
X018750Y015358D02*
X018569Y015358D01*
X018560Y015350D02*
X018741Y015350D01*
X018732Y015341D02*
X018552Y015341D01*
X018543Y015333D02*
X018724Y015333D01*
X018715Y015324D02*
X018535Y015324D01*
X018526Y015316D02*
X018706Y015316D01*
X018698Y015307D02*
X018518Y015307D01*
X018509Y015299D02*
X018689Y015299D01*
X018680Y015290D02*
X018501Y015290D01*
X018492Y015282D02*
X018672Y015282D01*
X018663Y015273D02*
X018484Y015273D01*
X018475Y015273D02*
X018312Y015273D01*
X018312Y015265D02*
X018658Y015265D01*
X018663Y015256D02*
X018312Y015256D01*
X018312Y015248D02*
X018669Y015248D01*
X018675Y015239D02*
X018312Y015239D01*
X018312Y015231D02*
X018680Y015231D01*
X018686Y015222D02*
X018312Y015222D01*
X018312Y015214D02*
X018692Y015214D01*
X018697Y015205D02*
X018312Y015205D01*
X018312Y015197D02*
X018703Y015197D01*
X018709Y015188D02*
X018312Y015188D01*
X018312Y015180D02*
X018714Y015180D01*
X018720Y015171D02*
X018312Y015171D01*
X018312Y015163D02*
X018726Y015163D01*
X018731Y015154D02*
X018549Y015154D01*
X018548Y015154D02*
X018312Y015154D01*
X018312Y015146D02*
X018539Y015146D01*
X018530Y015137D02*
X018312Y015137D01*
X018312Y015129D02*
X018522Y015129D01*
X018513Y015120D02*
X018312Y015120D01*
X018312Y015112D02*
X018504Y015112D01*
X018495Y015103D02*
X018312Y015103D01*
X018312Y015095D02*
X018487Y015095D01*
X018478Y015086D02*
X018312Y015086D01*
X018312Y015078D02*
X018477Y015078D01*
X018477Y015069D02*
X018312Y015069D01*
X018312Y015061D02*
X018477Y015061D01*
X018477Y015052D02*
X018312Y015052D01*
X018312Y015044D02*
X018477Y015044D01*
X018477Y015035D02*
X018312Y015035D01*
X018312Y015027D02*
X018477Y015027D01*
X018477Y015018D02*
X018312Y015018D01*
X018312Y015010D02*
X018477Y015010D01*
X018477Y015001D02*
X018312Y015001D01*
X018312Y014993D02*
X018477Y014993D01*
X018477Y014984D02*
X018312Y014984D01*
X018312Y014976D02*
X018477Y014976D01*
X018477Y014967D02*
X018312Y014967D01*
X018312Y014959D02*
X018477Y014959D01*
X018477Y014950D02*
X018312Y014950D01*
X018312Y014942D02*
X018477Y014942D01*
X018477Y014933D02*
X018312Y014933D01*
X018312Y014925D02*
X018477Y014925D01*
X018477Y014916D02*
X018312Y014916D01*
X018312Y014908D02*
X018477Y014908D01*
X018477Y014899D02*
X018312Y014899D01*
X018312Y014891D02*
X018477Y014891D01*
X018477Y014882D02*
X018312Y014882D01*
X018312Y014874D02*
X018477Y014874D01*
X018652Y014984D02*
X018845Y014984D01*
X018850Y014976D02*
X018657Y014976D01*
X018662Y014967D02*
X018856Y014967D01*
X018862Y014959D02*
X018667Y014959D01*
X018673Y014950D02*
X018867Y014950D01*
X018873Y014942D02*
X018678Y014942D01*
X018683Y014933D02*
X018879Y014933D01*
X018884Y014925D02*
X018688Y014925D01*
X018693Y014916D02*
X018890Y014916D01*
X018896Y014908D02*
X018698Y014908D01*
X018704Y014899D02*
X018901Y014899D01*
X018907Y014891D02*
X018709Y014891D01*
X018714Y014882D02*
X018913Y014882D01*
X019031Y014882D02*
X019195Y014882D01*
X019195Y014874D02*
X019031Y014874D01*
X019031Y014872D02*
X019195Y014872D01*
X019195Y015385D01*
X019313Y015385D01*
X019313Y015490D01*
X019196Y015490D01*
X019196Y015545D01*
X019199Y015564D01*
X019206Y015582D01*
X019214Y015592D01*
X019225Y015600D01*
X019237Y015604D01*
X019274Y015607D01*
X019310Y015604D01*
X019321Y015603D01*
X019324Y015603D01*
X019324Y015722D01*
X019323Y015722D01*
X019271Y015725D01*
X019210Y015725D01*
X019170Y015718D01*
X019133Y015704D01*
X019099Y015682D01*
X019069Y015654D01*
X019056Y015635D01*
X019046Y015614D01*
X019040Y015592D01*
X019033Y015508D01*
X019033Y015490D01*
X018979Y015490D01*
X018874Y015385D01*
X019031Y015384D01*
X019031Y014872D01*
X019031Y014891D02*
X019195Y014891D01*
X019195Y014899D02*
X019031Y014899D01*
X019031Y014908D02*
X019195Y014908D01*
X019195Y014916D02*
X019031Y014916D01*
X019031Y014925D02*
X019195Y014925D01*
X019195Y014933D02*
X019031Y014933D01*
X019031Y014942D02*
X019195Y014942D01*
X019195Y014950D02*
X019031Y014950D01*
X019031Y014959D02*
X019195Y014959D01*
X019195Y014967D02*
X019031Y014967D01*
X019031Y014976D02*
X019195Y014976D01*
X019195Y014984D02*
X019031Y014984D01*
X019031Y014993D02*
X019195Y014993D01*
X019195Y015001D02*
X019031Y015001D01*
X019031Y015010D02*
X019195Y015010D01*
X019195Y015018D02*
X019031Y015018D01*
X019031Y015027D02*
X019195Y015027D01*
X019195Y015035D02*
X019031Y015035D01*
X019031Y015044D02*
X019195Y015044D01*
X019195Y015052D02*
X019031Y015052D01*
X019031Y015061D02*
X019195Y015061D01*
X019195Y015069D02*
X019031Y015069D01*
X019031Y015078D02*
X019195Y015078D01*
X019195Y015086D02*
X019031Y015086D01*
X019031Y015095D02*
X019195Y015095D01*
X019195Y015103D02*
X019031Y015103D01*
X019031Y015112D02*
X019195Y015112D01*
X019195Y015120D02*
X019031Y015120D01*
X019031Y015129D02*
X019195Y015129D01*
X019195Y015137D02*
X019031Y015137D01*
X019031Y015146D02*
X019195Y015146D01*
X019195Y015154D02*
X019031Y015154D01*
X019031Y015163D02*
X019195Y015163D01*
X019195Y015171D02*
X019031Y015171D01*
X019031Y015180D02*
X019195Y015180D01*
X019195Y015188D02*
X019031Y015188D01*
X019031Y015197D02*
X019195Y015197D01*
X019195Y015205D02*
X019031Y015205D01*
X019031Y015214D02*
X019195Y015214D01*
X019195Y015222D02*
X019031Y015222D01*
X019031Y015231D02*
X019195Y015231D01*
X019195Y015239D02*
X019031Y015239D01*
X019031Y015248D02*
X019195Y015248D01*
X019195Y015256D02*
X019031Y015256D01*
X019031Y015265D02*
X019195Y015265D01*
X019195Y015273D02*
X019031Y015273D01*
X019031Y015282D02*
X019195Y015282D01*
X019195Y015290D02*
X019031Y015290D01*
X019031Y015299D02*
X019195Y015299D01*
X019195Y015307D02*
X019031Y015307D01*
X019031Y015316D02*
X019195Y015316D01*
X019195Y015324D02*
X019031Y015324D01*
X019031Y015333D02*
X019195Y015333D01*
X019195Y015341D02*
X019031Y015341D01*
X019031Y015350D02*
X019195Y015350D01*
X019195Y015358D02*
X019031Y015358D01*
X019031Y015367D02*
X019195Y015367D01*
X019195Y015375D02*
X019031Y015375D01*
X019031Y015384D02*
X019195Y015384D01*
X019196Y015494D02*
X019033Y015494D01*
X019033Y015503D02*
X019196Y015503D01*
X019196Y015511D02*
X019034Y015511D01*
X019034Y015520D02*
X019196Y015520D01*
X019196Y015528D02*
X019035Y015528D01*
X019036Y015537D02*
X019196Y015537D01*
X019196Y015545D02*
X019036Y015545D01*
X019037Y015554D02*
X019198Y015554D01*
X019199Y015562D02*
X019038Y015562D01*
X019039Y015571D02*
X019202Y015571D01*
X019205Y015579D02*
X019039Y015579D01*
X019040Y015588D02*
X019211Y015588D01*
X019220Y015596D02*
X019041Y015596D01*
X019044Y015605D02*
X019247Y015605D01*
X019300Y015605D02*
X019324Y015605D01*
X019324Y015613D02*
X019046Y015613D01*
X019050Y015622D02*
X019324Y015622D01*
X019324Y015630D02*
X019054Y015630D01*
X019059Y015639D02*
X019324Y015639D01*
X019324Y015647D02*
X019065Y015647D01*
X019071Y015656D02*
X019324Y015656D01*
X019324Y015664D02*
X019080Y015664D01*
X019089Y015673D02*
X019324Y015673D01*
X019324Y015681D02*
X019098Y015681D01*
X019111Y015690D02*
X019324Y015690D01*
X019324Y015698D02*
X019125Y015698D01*
X019141Y015707D02*
X019324Y015707D01*
X019324Y015715D02*
X019163Y015715D01*
X019204Y015724D02*
X019290Y015724D01*
X019313Y015486D02*
X018975Y015486D01*
X018967Y015477D02*
X019313Y015477D01*
X019313Y015469D02*
X018958Y015469D01*
X018950Y015460D02*
X019313Y015460D01*
X019313Y015452D02*
X018941Y015452D01*
X018933Y015443D02*
X019313Y015443D01*
X019313Y015435D02*
X018924Y015435D01*
X018916Y015426D02*
X019313Y015426D01*
X019313Y015418D02*
X018907Y015418D01*
X018899Y015409D02*
X019313Y015409D01*
X019313Y015401D02*
X018890Y015401D01*
X018882Y015392D02*
X019313Y015392D01*
X019371Y015392D02*
X019534Y015392D01*
X019534Y015384D02*
X019371Y015384D01*
X019371Y015375D02*
X019534Y015375D01*
X019534Y015367D02*
X019371Y015367D01*
X019371Y015358D02*
X019534Y015358D01*
X019534Y015350D02*
X019371Y015350D01*
X019371Y015341D02*
X019534Y015341D01*
X019534Y015333D02*
X019371Y015333D01*
X019371Y015324D02*
X019534Y015324D01*
X019534Y015316D02*
X019371Y015316D01*
X019371Y015307D02*
X019534Y015307D01*
X019534Y015299D02*
X019371Y015299D01*
X019371Y015290D02*
X019534Y015290D01*
X019534Y015282D02*
X019371Y015282D01*
X019371Y015273D02*
X019534Y015273D01*
X019534Y015265D02*
X019371Y015265D01*
X019371Y015256D02*
X019534Y015256D01*
X019534Y015248D02*
X019371Y015248D01*
X019371Y015239D02*
X019534Y015239D01*
X019534Y015231D02*
X019371Y015231D01*
X019371Y015222D02*
X019534Y015222D01*
X019534Y015214D02*
X019371Y015214D01*
X019371Y015205D02*
X019534Y015205D01*
X019534Y015197D02*
X019371Y015197D01*
X019371Y015188D02*
X019534Y015188D01*
X019534Y015180D02*
X019371Y015180D01*
X019371Y015171D02*
X019534Y015171D01*
X019534Y015163D02*
X019371Y015163D01*
X019371Y015154D02*
X019534Y015154D01*
X019534Y015146D02*
X019371Y015146D01*
X019371Y015137D02*
X019534Y015137D01*
X019534Y015129D02*
X019371Y015129D01*
X019371Y015120D02*
X019534Y015120D01*
X019534Y015112D02*
X019371Y015112D01*
X019371Y015103D02*
X019534Y015103D01*
X019534Y015098D02*
X019534Y015492D01*
X019371Y015492D01*
X019371Y015067D01*
X019375Y015024D01*
X019387Y014982D01*
X019406Y014943D01*
X019432Y014908D01*
X019442Y014899D01*
X019478Y014878D01*
X019517Y014865D01*
X019557Y014859D01*
X019616Y014860D01*
X019674Y014869D01*
X019685Y014872D01*
X019694Y014877D01*
X019731Y014903D01*
X019763Y014934D01*
X019791Y014969D01*
X019792Y014969D01*
X019792Y014875D01*
X019950Y014875D01*
X019950Y015490D01*
X019784Y015490D01*
X019784Y015163D01*
X019781Y015114D01*
X019772Y015066D01*
X019764Y015043D01*
X019750Y015023D01*
X019732Y015007D01*
X019711Y014995D01*
X019683Y014986D01*
X019654Y014984D01*
X019624Y014987D01*
X019596Y014996D01*
X019580Y015005D01*
X019566Y015018D01*
X019554Y015033D01*
X019540Y015064D01*
X019534Y015098D01*
X019535Y015095D02*
X019371Y015095D01*
X019371Y015086D02*
X019536Y015086D01*
X019538Y015078D02*
X019371Y015078D01*
X019371Y015069D02*
X019539Y015069D01*
X019542Y015061D02*
X019372Y015061D01*
X019373Y015052D02*
X019546Y015052D01*
X019549Y015044D02*
X019373Y015044D01*
X019374Y015035D02*
X019553Y015035D01*
X019559Y015027D02*
X019375Y015027D01*
X019377Y015018D02*
X019565Y015018D01*
X019575Y015010D02*
X019379Y015010D01*
X019382Y015001D02*
X019587Y015001D01*
X019606Y014993D02*
X019384Y014993D01*
X019386Y014984D02*
X019647Y014984D01*
X019662Y014984D02*
X019950Y014984D01*
X019950Y014976D02*
X019390Y014976D01*
X019394Y014967D02*
X019790Y014967D01*
X019792Y014967D02*
X019950Y014967D01*
X019950Y014959D02*
X019792Y014959D01*
X019792Y014950D02*
X019950Y014950D01*
X019950Y014942D02*
X019792Y014942D01*
X019792Y014933D02*
X019950Y014933D01*
X019950Y014925D02*
X019792Y014925D01*
X019792Y014916D02*
X019950Y014916D01*
X019950Y014908D02*
X019792Y014908D01*
X019792Y014899D02*
X019950Y014899D01*
X019950Y014891D02*
X019792Y014891D01*
X019792Y014882D02*
X019950Y014882D01*
X020048Y014882D02*
X020214Y014882D01*
X020214Y014874D02*
X020048Y014874D01*
X020048Y014872D02*
X020048Y015491D01*
X020207Y015491D01*
X020207Y015404D01*
X020210Y015404D01*
X020214Y015405D01*
X020217Y015407D01*
X020222Y015413D01*
X020233Y015428D01*
X020249Y015447D01*
X020267Y015463D01*
X020303Y015485D01*
X020342Y015500D01*
X020383Y015506D01*
X020462Y015504D01*
X020501Y015496D01*
X020536Y015479D01*
X020567Y015455D01*
X020587Y015432D01*
X020602Y015407D01*
X020612Y015379D01*
X020622Y015335D01*
X020625Y015291D01*
X020625Y014876D01*
X020464Y014876D01*
X020464Y015256D01*
X020462Y015285D01*
X020454Y015313D01*
X020441Y015339D01*
X020429Y015355D01*
X020413Y015368D01*
X020395Y015377D01*
X020383Y015380D01*
X020369Y015381D01*
X020325Y015379D01*
X020303Y015375D01*
X020281Y015367D01*
X020048Y015367D01*
X020048Y015375D02*
X020303Y015375D01*
X020281Y015367D02*
X020262Y015354D01*
X020241Y015331D01*
X020226Y015303D01*
X020218Y015273D01*
X020048Y015273D01*
X020048Y015265D02*
X020217Y015265D01*
X020218Y015273D02*
X020214Y015241D01*
X020214Y014872D01*
X020048Y014872D01*
X020214Y014872D01*
X020214Y015214D01*
X020048Y015214D01*
X020048Y015222D02*
X020214Y015222D01*
X020214Y015231D02*
X020048Y015231D01*
X020048Y015239D02*
X020214Y015239D01*
X020215Y015248D02*
X020048Y015248D01*
X020048Y015256D02*
X020216Y015256D01*
X020220Y015282D02*
X020048Y015282D01*
X020048Y015290D02*
X020223Y015290D01*
X020225Y015299D02*
X020048Y015299D01*
X020048Y015307D02*
X020229Y015307D01*
X020233Y015316D02*
X020048Y015316D01*
X020048Y015324D02*
X020238Y015324D01*
X020243Y015333D02*
X020048Y015333D01*
X020048Y015341D02*
X020251Y015341D01*
X020259Y015350D02*
X020048Y015350D01*
X020048Y015358D02*
X020269Y015358D01*
X020219Y015409D02*
X020600Y015409D01*
X020604Y015401D02*
X020048Y015401D01*
X020048Y015409D02*
X020207Y015409D01*
X020207Y015404D02*
X020210Y015404D01*
X020207Y015404D02*
X020207Y015491D01*
X020048Y015491D01*
X020048Y014872D01*
X020048Y014891D02*
X020214Y014891D01*
X020214Y014899D02*
X020048Y014899D01*
X020048Y014908D02*
X020214Y014908D01*
X020214Y014916D02*
X020048Y014916D01*
X020048Y014925D02*
X020214Y014925D01*
X020214Y014933D02*
X020048Y014933D01*
X020048Y014942D02*
X020214Y014942D01*
X020214Y014950D02*
X020048Y014950D01*
X020048Y014959D02*
X020214Y014959D01*
X020214Y014967D02*
X020048Y014967D01*
X020048Y014976D02*
X020214Y014976D01*
X020214Y014984D02*
X020048Y014984D01*
X020048Y014993D02*
X020214Y014993D01*
X020214Y015001D02*
X020048Y015001D01*
X020048Y015010D02*
X020214Y015010D01*
X020214Y015018D02*
X020048Y015018D01*
X020048Y015027D02*
X020214Y015027D01*
X020214Y015035D02*
X020048Y015035D01*
X020048Y015044D02*
X020214Y015044D01*
X020214Y015052D02*
X020048Y015052D01*
X020048Y015061D02*
X020214Y015061D01*
X020214Y015069D02*
X020048Y015069D01*
X020048Y015078D02*
X020214Y015078D01*
X020214Y015086D02*
X020048Y015086D01*
X020048Y015095D02*
X020214Y015095D01*
X020214Y015103D02*
X020048Y015103D01*
X020048Y015112D02*
X020214Y015112D01*
X020214Y015120D02*
X020048Y015120D01*
X020048Y015129D02*
X020214Y015129D01*
X020214Y015137D02*
X020048Y015137D01*
X020048Y015146D02*
X020214Y015146D01*
X020214Y015154D02*
X020048Y015154D01*
X020048Y015163D02*
X020214Y015163D01*
X020214Y015171D02*
X020048Y015171D01*
X020048Y015180D02*
X020214Y015180D01*
X020214Y015188D02*
X020048Y015188D01*
X020048Y015197D02*
X020214Y015197D01*
X020214Y015205D02*
X020048Y015205D01*
X019950Y015205D02*
X019784Y015205D01*
X019784Y015197D02*
X019950Y015197D01*
X019950Y015188D02*
X019784Y015188D01*
X019784Y015180D02*
X019950Y015180D01*
X019950Y015171D02*
X019784Y015171D01*
X019784Y015163D02*
X019950Y015163D01*
X019950Y015154D02*
X019784Y015154D01*
X019783Y015146D02*
X019950Y015146D01*
X019950Y015137D02*
X019783Y015137D01*
X019782Y015129D02*
X019950Y015129D01*
X019950Y015120D02*
X019782Y015120D01*
X019781Y015112D02*
X019950Y015112D01*
X019950Y015103D02*
X019779Y015103D01*
X019778Y015095D02*
X019950Y015095D01*
X019950Y015086D02*
X019776Y015086D01*
X019775Y015078D02*
X019950Y015078D01*
X019950Y015069D02*
X019773Y015069D01*
X019770Y015061D02*
X019950Y015061D01*
X019950Y015052D02*
X019767Y015052D01*
X019764Y015044D02*
X019950Y015044D01*
X019950Y015035D02*
X019758Y015035D01*
X019753Y015027D02*
X019950Y015027D01*
X019950Y015018D02*
X019745Y015018D01*
X019736Y015010D02*
X019950Y015010D01*
X019950Y015001D02*
X019723Y015001D01*
X019705Y014993D02*
X019950Y014993D01*
X019783Y014959D02*
X019398Y014959D01*
X019403Y014950D02*
X019777Y014950D01*
X019770Y014942D02*
X019407Y014942D01*
X019413Y014933D02*
X019763Y014933D01*
X019754Y014925D02*
X019420Y014925D01*
X019426Y014916D02*
X019745Y014916D01*
X019736Y014908D02*
X019432Y014908D01*
X019442Y014899D02*
X019726Y014899D01*
X019714Y014891D02*
X019456Y014891D01*
X019471Y014882D02*
X019702Y014882D01*
X019688Y014874D02*
X019490Y014874D01*
X019515Y014865D02*
X019651Y014865D01*
X019784Y015214D02*
X019950Y015214D01*
X019950Y015222D02*
X019784Y015222D01*
X019784Y015231D02*
X019950Y015231D01*
X019950Y015239D02*
X019784Y015239D01*
X019784Y015248D02*
X019950Y015248D01*
X019950Y015256D02*
X019784Y015256D01*
X019784Y015265D02*
X019950Y015265D01*
X019950Y015273D02*
X019784Y015273D01*
X019784Y015282D02*
X019950Y015282D01*
X019950Y015290D02*
X019784Y015290D01*
X019784Y015299D02*
X019950Y015299D01*
X019950Y015307D02*
X019784Y015307D01*
X019784Y015316D02*
X019950Y015316D01*
X019950Y015324D02*
X019784Y015324D01*
X019784Y015333D02*
X019950Y015333D01*
X019950Y015341D02*
X019784Y015341D01*
X019784Y015350D02*
X019950Y015350D01*
X019950Y015358D02*
X019784Y015358D01*
X019784Y015367D02*
X019950Y015367D01*
X019950Y015375D02*
X019784Y015375D01*
X019784Y015384D02*
X019950Y015384D01*
X019950Y015392D02*
X019784Y015392D01*
X019784Y015401D02*
X019950Y015401D01*
X019950Y015409D02*
X019784Y015409D01*
X019784Y015418D02*
X019950Y015418D01*
X019950Y015426D02*
X019784Y015426D01*
X019784Y015435D02*
X019950Y015435D01*
X019950Y015443D02*
X019784Y015443D01*
X019784Y015452D02*
X019950Y015452D01*
X019950Y015460D02*
X019784Y015460D01*
X019784Y015469D02*
X019950Y015469D01*
X019950Y015477D02*
X019784Y015477D01*
X019784Y015486D02*
X019950Y015486D01*
X020048Y015486D02*
X020207Y015486D01*
X020207Y015477D02*
X020048Y015477D01*
X020048Y015469D02*
X020207Y015469D01*
X020207Y015460D02*
X020048Y015460D01*
X020048Y015452D02*
X020207Y015452D01*
X020207Y015443D02*
X020048Y015443D01*
X020048Y015435D02*
X020207Y015435D01*
X020207Y015426D02*
X020048Y015426D01*
X020048Y015418D02*
X020207Y015418D01*
X020210Y015404D02*
X020214Y015405D01*
X020217Y015407D01*
X020226Y015418D02*
X020595Y015418D01*
X020590Y015426D02*
X020232Y015426D01*
X020239Y015435D02*
X020584Y015435D01*
X020577Y015443D02*
X020246Y015443D01*
X020255Y015452D02*
X020570Y015452D01*
X020560Y015460D02*
X020264Y015460D01*
X020277Y015469D02*
X020550Y015469D01*
X020539Y015477D02*
X020290Y015477D01*
X020304Y015486D02*
X020522Y015486D01*
X020504Y015494D02*
X020327Y015494D01*
X020363Y015503D02*
X020467Y015503D01*
X020398Y015375D02*
X020613Y015375D01*
X020615Y015367D02*
X020415Y015367D01*
X020425Y015358D02*
X020617Y015358D01*
X020619Y015350D02*
X020433Y015350D01*
X020439Y015341D02*
X020620Y015341D01*
X020622Y015333D02*
X020444Y015333D01*
X020567Y015455D02*
X020582Y015439D01*
X020595Y015420D01*
X020605Y015400D01*
X020612Y015379D01*
X020610Y015384D02*
X020048Y015384D01*
X020048Y015392D02*
X020607Y015392D01*
X020623Y015324D02*
X020448Y015324D01*
X020453Y015316D02*
X020623Y015316D01*
X020624Y015307D02*
X020455Y015307D01*
X020458Y015299D02*
X020625Y015299D01*
X020625Y015291D02*
X020625Y014876D01*
X020464Y014876D01*
X020464Y015256D01*
X020625Y015256D01*
X020625Y015248D02*
X020464Y015248D01*
X020464Y015239D02*
X020625Y015239D01*
X020625Y015231D02*
X020464Y015231D01*
X020464Y015222D02*
X020625Y015222D01*
X020625Y015214D02*
X020464Y015214D01*
X020464Y015205D02*
X020625Y015205D01*
X020625Y015197D02*
X020464Y015197D01*
X020464Y015188D02*
X020625Y015188D01*
X020625Y015180D02*
X020464Y015180D01*
X020464Y015171D02*
X020625Y015171D01*
X020625Y015163D02*
X020464Y015163D01*
X020464Y015154D02*
X020625Y015154D01*
X020625Y015146D02*
X020464Y015146D01*
X020464Y015137D02*
X020625Y015137D01*
X020625Y015129D02*
X020464Y015129D01*
X020464Y015120D02*
X020625Y015120D01*
X020625Y015112D02*
X020464Y015112D01*
X020464Y015103D02*
X020625Y015103D01*
X020625Y015095D02*
X020464Y015095D01*
X020464Y015086D02*
X020625Y015086D01*
X020625Y015078D02*
X020464Y015078D01*
X020464Y015069D02*
X020625Y015069D01*
X020625Y015061D02*
X020464Y015061D01*
X020464Y015052D02*
X020625Y015052D01*
X020625Y015044D02*
X020464Y015044D01*
X020464Y015035D02*
X020625Y015035D01*
X020625Y015027D02*
X020464Y015027D01*
X020464Y015018D02*
X020625Y015018D01*
X020625Y015010D02*
X020464Y015010D01*
X020464Y015001D02*
X020625Y015001D01*
X020625Y014993D02*
X020464Y014993D01*
X020464Y014984D02*
X020625Y014984D01*
X020625Y014976D02*
X020464Y014976D01*
X020464Y014967D02*
X020625Y014967D01*
X020625Y014959D02*
X020464Y014959D01*
X020464Y014950D02*
X020625Y014950D01*
X020625Y014942D02*
X020464Y014942D01*
X020464Y014933D02*
X020625Y014933D01*
X020625Y014925D02*
X020464Y014925D01*
X020464Y014916D02*
X020625Y014916D01*
X020625Y014908D02*
X020464Y014908D01*
X020464Y014899D02*
X020625Y014899D01*
X020625Y014891D02*
X020464Y014891D01*
X020464Y014882D02*
X020625Y014882D01*
X020462Y015505D02*
X020423Y015507D01*
X020383Y015506D01*
X020463Y015503D02*
X020486Y015499D01*
X020508Y015493D01*
X020530Y015483D01*
X020550Y015470D01*
X020567Y015454D01*
X020625Y015290D02*
X020460Y015290D01*
X020462Y015282D02*
X020625Y015282D01*
X020625Y015273D02*
X020463Y015273D01*
X020464Y015265D02*
X020625Y015265D01*
X020226Y015303D02*
X020220Y015283D01*
X020216Y015262D01*
X020214Y015241D01*
X020626Y015291D02*
X020624Y015321D01*
X020620Y015351D01*
X020613Y015380D01*
X020384Y015506D02*
X020359Y015503D01*
X020334Y015497D01*
X020311Y015489D01*
X020288Y015477D01*
X020268Y015463D01*
X020223Y015412D02*
X020218Y015406D01*
X020263Y015354D02*
X020277Y015364D01*
X020292Y015372D01*
X020308Y015377D01*
X020326Y015379D01*
X020369Y015381D02*
X020382Y015380D01*
X020395Y015377D01*
X020267Y015463D02*
X020249Y015447D01*
X020233Y015428D01*
X020441Y015339D02*
X020451Y015319D01*
X020458Y015299D01*
X020463Y015278D01*
X020464Y015256D01*
X020441Y015339D02*
X020432Y015351D01*
X020422Y015362D01*
X020409Y015370D01*
X020395Y015377D01*
X020263Y015354D02*
X020248Y015339D01*
X020236Y015322D01*
X020227Y015303D01*
X020962Y015246D02*
X020974Y015305D01*
X020997Y015360D01*
X021030Y015410D01*
X021071Y015453D01*
X021121Y015487D01*
X021175Y015511D01*
X021235Y015524D01*
X021295Y015525D01*
X021352Y015518D01*
X021407Y015505D01*
X021453Y015487D01*
X021493Y015460D01*
X021527Y015424D01*
X021552Y015382D01*
X021569Y015337D01*
X021578Y015289D01*
X021413Y015289D01*
X021413Y015290D01*
X021411Y015314D01*
X021403Y015336D01*
X021390Y015356D01*
X021373Y015373D01*
X021352Y015385D01*
X021320Y015396D01*
X021286Y015399D01*
X021252Y015396D01*
X021219Y015389D01*
X021202Y015381D01*
X021187Y015369D01*
X021160Y015332D01*
X021139Y015291D01*
X021127Y015247D01*
X021123Y015201D01*
X021129Y015139D01*
X021142Y015078D01*
X021155Y015049D01*
X021175Y015023D01*
X021199Y015003D01*
X021228Y014990D01*
X021260Y014983D01*
X021292Y014981D01*
X021316Y014984D01*
X021340Y014991D01*
X021361Y015002D01*
X021380Y015016D01*
X021394Y015034D01*
X021407Y015058D01*
X021416Y015084D01*
X021420Y015111D01*
X021580Y015111D01*
X021580Y015109D01*
X021579Y015090D01*
X021575Y015072D01*
X021554Y015017D01*
X021522Y014968D01*
X021480Y014926D01*
X021431Y014894D01*
X021388Y014876D01*
X021343Y014865D01*
X021296Y014861D01*
X021234Y014865D01*
X021172Y014876D01*
X021130Y014890D01*
X021091Y014911D01*
X021056Y014938D01*
X021025Y014970D01*
X020998Y015010D01*
X020978Y015054D01*
X020965Y015100D01*
X020959Y015148D01*
X020962Y015246D01*
X020963Y015248D02*
X021127Y015248D01*
X021126Y015239D02*
X020962Y015239D01*
X020962Y015231D02*
X021126Y015231D01*
X021125Y015222D02*
X020962Y015222D01*
X020961Y015214D02*
X021124Y015214D01*
X021124Y015205D02*
X020961Y015205D01*
X020961Y015197D02*
X021124Y015197D01*
X021124Y015188D02*
X020961Y015188D01*
X020960Y015180D02*
X021125Y015180D01*
X021126Y015171D02*
X020960Y015171D01*
X020960Y015163D02*
X021127Y015163D01*
X021127Y015154D02*
X020960Y015154D01*
X020960Y015146D02*
X021128Y015146D01*
X021129Y015137D02*
X020961Y015137D01*
X020962Y015129D02*
X021131Y015129D01*
X021133Y015120D02*
X020963Y015120D01*
X020964Y015112D02*
X021135Y015112D01*
X021137Y015103D02*
X020965Y015103D01*
X020967Y015095D02*
X021138Y015095D01*
X021140Y015086D02*
X020969Y015086D01*
X020971Y015078D02*
X021142Y015078D01*
X021146Y015069D02*
X020974Y015069D01*
X020976Y015061D02*
X021150Y015061D01*
X021154Y015052D02*
X020979Y015052D01*
X020983Y015044D02*
X021159Y015044D01*
X021165Y015035D02*
X020987Y015035D01*
X020991Y015027D02*
X021172Y015027D01*
X021181Y015018D02*
X020995Y015018D01*
X020999Y015010D02*
X021191Y015010D01*
X021204Y015001D02*
X021004Y015001D01*
X021010Y014993D02*
X021222Y014993D01*
X021252Y014984D02*
X021016Y014984D01*
X021021Y014976D02*
X021527Y014976D01*
X021533Y014984D02*
X021318Y014984D01*
X021343Y014993D02*
X021538Y014993D01*
X021544Y015001D02*
X021360Y015001D01*
X021371Y015010D02*
X021549Y015010D01*
X021554Y015018D02*
X021381Y015018D01*
X021388Y015027D02*
X021558Y015027D01*
X021561Y015035D02*
X021395Y015035D01*
X021400Y015044D02*
X021564Y015044D01*
X021568Y015052D02*
X021404Y015052D01*
X021408Y015061D02*
X021571Y015061D01*
X021574Y015069D02*
X021411Y015069D01*
X021414Y015078D02*
X021577Y015078D01*
X021578Y015086D02*
X021417Y015086D01*
X021418Y015095D02*
X021579Y015095D01*
X021580Y015103D02*
X021419Y015103D01*
X021521Y014967D02*
X021028Y014967D01*
X021036Y014959D02*
X021513Y014959D01*
X021504Y014950D02*
X021044Y014950D01*
X021052Y014942D02*
X021496Y014942D01*
X021487Y014933D02*
X021061Y014933D01*
X021072Y014925D02*
X021478Y014925D01*
X021465Y014916D02*
X021083Y014916D01*
X021096Y014908D02*
X021452Y014908D01*
X021440Y014899D02*
X021112Y014899D01*
X021128Y014891D02*
X021424Y014891D01*
X021404Y014882D02*
X021153Y014882D01*
X021184Y014874D02*
X021380Y014874D01*
X021346Y014865D02*
X021231Y014865D01*
X020214Y015215D02*
X020214Y015241D01*
X020964Y015256D02*
X021130Y015256D01*
X021132Y015265D02*
X020966Y015265D01*
X020968Y015273D02*
X021134Y015273D01*
X021137Y015282D02*
X020970Y015282D01*
X020971Y015290D02*
X021139Y015290D01*
X021143Y015299D02*
X020973Y015299D01*
X020975Y015307D02*
X021147Y015307D01*
X021152Y015316D02*
X020979Y015316D01*
X020982Y015324D02*
X021156Y015324D01*
X021160Y015333D02*
X020986Y015333D01*
X020989Y015341D02*
X021167Y015341D01*
X021173Y015350D02*
X020993Y015350D01*
X020996Y015358D02*
X021179Y015358D01*
X021186Y015367D02*
X021001Y015367D01*
X021007Y015375D02*
X021195Y015375D01*
X021208Y015384D02*
X021012Y015384D01*
X021018Y015392D02*
X021235Y015392D01*
X021330Y015392D02*
X021546Y015392D01*
X021551Y015384D02*
X021354Y015384D01*
X021368Y015375D02*
X021555Y015375D01*
X021558Y015367D02*
X021379Y015367D01*
X021387Y015358D02*
X021561Y015358D01*
X021564Y015350D02*
X021394Y015350D01*
X021399Y015341D02*
X021567Y015341D01*
X021570Y015333D02*
X021404Y015333D01*
X021407Y015324D02*
X021571Y015324D01*
X021573Y015316D02*
X021410Y015316D01*
X021411Y015307D02*
X021575Y015307D01*
X021576Y015299D02*
X021412Y015299D01*
X021413Y015290D02*
X021578Y015290D01*
X021648Y015273D02*
X021803Y015273D01*
X021801Y015265D02*
X021646Y015265D01*
X021644Y015256D02*
X021800Y015256D01*
X021798Y015248D02*
X021642Y015248D01*
X021640Y015239D02*
X021797Y015239D01*
X021796Y015238D02*
X021794Y015164D01*
X021801Y015114D01*
X021816Y015068D01*
X021838Y015026D01*
X021905Y014985D01*
X021976Y014976D01*
X022047Y015000D01*
X022091Y015040D01*
X022113Y015089D01*
X022128Y015151D01*
X022128Y015208D01*
X022118Y015285D01*
X022088Y015350D01*
X022054Y015383D01*
X022015Y015404D01*
X021967Y015408D01*
X021963Y015408D01*
X021965Y015525D01*
X022044Y015515D01*
X022108Y015493D01*
X022186Y015439D01*
X022229Y015389D01*
X022270Y015297D01*
X022281Y015211D01*
X022271Y015128D01*
X022244Y015031D01*
X022212Y014980D01*
X022165Y014935D01*
X022121Y014904D01*
X022048Y014879D01*
X021949Y014869D01*
X021831Y014885D01*
X021719Y014955D01*
X021656Y015053D01*
X021632Y015206D01*
X021664Y015346D01*
X021748Y015453D01*
X021881Y015519D01*
X021939Y015526D01*
X021941Y015526D01*
X021946Y015524D01*
X021946Y015409D01*
X021902Y015403D01*
X021855Y015377D01*
X021823Y015333D01*
X021661Y015333D01*
X021659Y015324D02*
X021820Y015324D01*
X021816Y015316D02*
X021657Y015316D01*
X021656Y015307D02*
X021812Y015307D01*
X021808Y015299D02*
X021654Y015299D01*
X021652Y015290D02*
X021806Y015290D01*
X021807Y015297D02*
X021796Y015238D01*
X021796Y015231D02*
X021638Y015231D01*
X021636Y015222D02*
X021796Y015222D01*
X022288Y015212D02*
X022286Y015177D01*
X022282Y015141D01*
X022275Y015106D01*
X022266Y015072D01*
X022254Y015038D01*
X022248Y015044D02*
X022093Y015044D01*
X022097Y015052D02*
X022250Y015052D01*
X022253Y015061D02*
X022101Y015061D01*
X022105Y015069D02*
X022255Y015069D01*
X022257Y015078D02*
X022108Y015078D01*
X022112Y015086D02*
X022260Y015086D01*
X022262Y015095D02*
X022115Y015095D01*
X022117Y015103D02*
X022264Y015103D01*
X022267Y015112D02*
X022119Y015112D01*
X022121Y015120D02*
X022269Y015120D01*
X022271Y015129D02*
X022123Y015129D01*
X022125Y015137D02*
X022272Y015137D01*
X022274Y015146D02*
X022127Y015146D01*
X022128Y015154D02*
X022275Y015154D01*
X022276Y015163D02*
X022128Y015163D01*
X022128Y015171D02*
X022277Y015171D01*
X022278Y015180D02*
X022128Y015180D01*
X022128Y015188D02*
X022279Y015188D01*
X022280Y015197D02*
X022128Y015197D01*
X022128Y015205D02*
X022281Y015205D01*
X022281Y015214D02*
X022128Y015214D01*
X022126Y015222D02*
X022280Y015222D01*
X022279Y015231D02*
X022125Y015231D01*
X022124Y015239D02*
X022278Y015239D01*
X022277Y015248D02*
X022123Y015248D01*
X022122Y015256D02*
X022276Y015256D01*
X022274Y015265D02*
X022121Y015265D01*
X022120Y015273D02*
X022273Y015273D01*
X022272Y015282D02*
X022119Y015282D01*
X022116Y015290D02*
X022271Y015290D01*
X022269Y015299D02*
X022112Y015299D01*
X022108Y015307D02*
X022266Y015307D01*
X022262Y015316D02*
X022104Y015316D01*
X022100Y015324D02*
X022258Y015324D01*
X022254Y015333D02*
X022096Y015333D01*
X022092Y015341D02*
X022251Y015341D01*
X022247Y015350D02*
X022088Y015350D01*
X022080Y015358D02*
X022243Y015358D01*
X022239Y015367D02*
X022071Y015367D01*
X022062Y015375D02*
X022235Y015375D01*
X022232Y015384D02*
X022053Y015384D01*
X022037Y015392D02*
X022226Y015392D01*
X022219Y015401D02*
X022021Y015401D01*
X021963Y015409D02*
X022212Y015409D01*
X022204Y015418D02*
X021964Y015418D01*
X021964Y015426D02*
X022197Y015426D01*
X022190Y015435D02*
X021964Y015435D01*
X021964Y015443D02*
X022180Y015443D01*
X022168Y015452D02*
X021964Y015452D01*
X021964Y015460D02*
X022155Y015460D01*
X022143Y015469D02*
X021964Y015469D01*
X021965Y015477D02*
X022131Y015477D01*
X022119Y015486D02*
X021965Y015486D01*
X021965Y015494D02*
X022104Y015494D01*
X022079Y015503D02*
X021965Y015503D01*
X021965Y015511D02*
X022055Y015511D01*
X022005Y015520D02*
X021965Y015520D01*
X021965Y015529D02*
X021959Y015529D01*
X021959Y015404D01*
X021951Y015402D02*
X021942Y015402D01*
X021946Y015409D02*
X021714Y015409D01*
X021707Y015401D02*
X021899Y015401D01*
X021883Y015392D02*
X021701Y015392D01*
X021694Y015384D02*
X021868Y015384D01*
X021854Y015375D02*
X021687Y015375D01*
X021681Y015367D02*
X021848Y015367D01*
X021842Y015358D02*
X021674Y015358D01*
X021667Y015350D02*
X021836Y015350D01*
X021829Y015341D02*
X021663Y015341D01*
X021650Y015282D02*
X021805Y015282D01*
X021807Y015297D02*
X021823Y015333D01*
X021796Y015214D02*
X021634Y015214D01*
X021632Y015205D02*
X021795Y015205D01*
X021795Y015197D02*
X021634Y015197D01*
X021635Y015188D02*
X021795Y015188D01*
X021795Y015180D02*
X021636Y015180D01*
X021638Y015171D02*
X021795Y015171D01*
X021794Y015163D02*
X021639Y015163D01*
X021640Y015154D02*
X021796Y015154D01*
X021797Y015146D02*
X021642Y015146D01*
X021643Y015137D02*
X021798Y015137D01*
X021799Y015129D02*
X021644Y015129D01*
X021646Y015120D02*
X021800Y015120D01*
X021802Y015112D02*
X021647Y015112D01*
X021648Y015103D02*
X021805Y015103D01*
X021808Y015095D02*
X021650Y015095D01*
X021651Y015086D02*
X021810Y015086D01*
X021813Y015078D02*
X021652Y015078D01*
X021654Y015069D02*
X021816Y015069D01*
X021820Y015061D02*
X021655Y015061D01*
X021657Y015052D02*
X021824Y015052D01*
X021829Y015044D02*
X021662Y015044D01*
X021668Y015035D02*
X021833Y015035D01*
X021838Y015027D02*
X021673Y015027D01*
X021679Y015018D02*
X021851Y015018D01*
X021865Y015010D02*
X021684Y015010D01*
X021689Y015001D02*
X021878Y015001D01*
X021892Y014993D02*
X021695Y014993D01*
X021700Y014984D02*
X021910Y014984D01*
X022001Y014984D02*
X022215Y014984D01*
X022220Y014993D02*
X022026Y014993D01*
X022049Y015001D02*
X022226Y015001D01*
X022231Y015010D02*
X022058Y015010D01*
X022068Y015018D02*
X022236Y015018D01*
X022242Y015027D02*
X022077Y015027D01*
X022086Y015035D02*
X022246Y015035D01*
X022208Y014976D02*
X021706Y014976D01*
X021711Y014967D02*
X022199Y014967D01*
X022190Y014959D02*
X021717Y014959D01*
X021727Y014950D02*
X022181Y014950D01*
X022173Y014942D02*
X021740Y014942D01*
X021754Y014933D02*
X022163Y014933D01*
X022151Y014925D02*
X021767Y014925D01*
X021781Y014916D02*
X022139Y014916D01*
X022127Y014908D02*
X021795Y014908D01*
X021808Y014899D02*
X022108Y014899D01*
X022083Y014891D02*
X021822Y014891D01*
X021850Y014882D02*
X022058Y014882D01*
X021998Y014874D02*
X021913Y014874D01*
X021903Y014993D02*
X021885Y015001D01*
X021868Y015011D01*
X021853Y015024D01*
X021840Y015039D01*
X021829Y015055D01*
X021731Y014941D02*
X021712Y014959D01*
X021694Y014978D01*
X021680Y015000D01*
X022123Y015177D02*
X022122Y015210D01*
X022118Y015243D01*
X022112Y015276D01*
X021638Y015268D02*
X021633Y015231D01*
X021631Y015193D01*
X021632Y015155D01*
X021637Y015117D01*
X022092Y015055D02*
X022105Y015083D01*
X022115Y015114D01*
X022121Y015145D01*
X022123Y015177D01*
X021829Y015055D02*
X021819Y015076D01*
X021811Y015098D01*
X021805Y015121D01*
X021802Y015145D01*
X022113Y015277D02*
X022105Y015302D01*
X022094Y015326D01*
X022080Y015348D01*
X022063Y015369D01*
X022063Y015368D02*
X022050Y015378D01*
X022037Y015387D01*
X022022Y015394D01*
X021951Y015402D02*
X021951Y015529D01*
X021946Y015520D02*
X021889Y015520D01*
X021866Y015511D02*
X021946Y015511D01*
X021946Y015503D02*
X021849Y015503D01*
X021832Y015494D02*
X021946Y015494D01*
X021946Y015486D02*
X021815Y015486D01*
X021798Y015477D02*
X021946Y015477D01*
X021946Y015469D02*
X021780Y015469D01*
X021763Y015460D02*
X021946Y015460D01*
X021946Y015452D02*
X021748Y015452D01*
X021741Y015443D02*
X021946Y015443D01*
X021946Y015435D02*
X021734Y015435D01*
X021727Y015426D02*
X021946Y015426D01*
X021946Y015418D02*
X021721Y015418D01*
X021541Y015401D02*
X021024Y015401D01*
X021029Y015409D02*
X021536Y015409D01*
X021531Y015418D02*
X021037Y015418D01*
X021046Y015426D02*
X021525Y015426D01*
X021517Y015435D02*
X021054Y015435D01*
X021062Y015443D02*
X021509Y015443D01*
X021501Y015452D02*
X021070Y015452D01*
X021082Y015460D02*
X021492Y015460D01*
X021480Y015469D02*
X021095Y015469D01*
X021107Y015477D02*
X021467Y015477D01*
X021454Y015486D02*
X021119Y015486D01*
X021138Y015494D02*
X021434Y015494D01*
X021413Y015503D02*
X021157Y015503D01*
X021177Y015511D02*
X021379Y015511D01*
X021334Y015520D02*
X021216Y015520D01*
X021844Y015354D02*
X021857Y015368D01*
X021871Y015380D01*
X021887Y015389D01*
X021905Y015396D01*
X021923Y015401D01*
X021942Y015402D01*
X022090Y014884D02*
X022055Y014874D01*
X022020Y014867D01*
X021984Y014863D01*
X021948Y014862D01*
X022035Y015001D02*
X022052Y015011D01*
X022068Y015024D01*
X022081Y015039D01*
X022092Y015055D01*
X022253Y015038D02*
X022241Y015011D01*
X022226Y014986D01*
X022209Y014963D01*
X022189Y014942D01*
X022167Y014924D01*
X022143Y014907D01*
X022117Y014894D01*
X022090Y014883D01*
X022353Y014882D02*
X022523Y014882D01*
X022523Y014876D02*
X022353Y014876D01*
X022353Y015508D01*
X022510Y015508D01*
X022510Y015421D01*
X022519Y015423D01*
X022532Y015440D01*
X022562Y015471D01*
X022592Y015495D01*
X022627Y015511D01*
X022670Y015521D01*
X022724Y015526D01*
X022762Y015523D01*
X022798Y015513D01*
X022829Y015497D01*
X022857Y015476D01*
X022880Y015449D01*
X022897Y015419D01*
X022899Y015419D01*
X022901Y015420D01*
X022904Y015424D01*
X022922Y015443D01*
X022953Y015473D01*
X022988Y015498D01*
X023020Y015513D01*
X023054Y015523D01*
X023089Y015525D01*
X023140Y015521D01*
X023189Y015511D01*
X023223Y015498D01*
X023254Y015478D01*
X023279Y015452D01*
X023302Y015415D01*
X023318Y015374D01*
X023324Y015331D01*
X023324Y014875D01*
X023157Y014875D01*
X023157Y015280D01*
X023153Y015316D01*
X023324Y015316D01*
X023324Y015324D02*
X023150Y015324D01*
X023153Y015316D02*
X023140Y015349D01*
X023129Y015365D01*
X023115Y015378D01*
X023098Y015388D01*
X023079Y015393D01*
X023043Y015396D01*
X023006Y015392D01*
X022989Y015387D01*
X022974Y015378D01*
X022960Y015366D01*
X022945Y015344D01*
X022933Y015320D01*
X022927Y015294D01*
X022924Y015250D01*
X022924Y014875D01*
X022754Y014875D01*
X022754Y015291D01*
X022751Y015318D01*
X022742Y015343D01*
X022726Y015366D01*
X022712Y015379D01*
X022695Y015389D01*
X022676Y015395D01*
X022656Y015396D01*
X022622Y015394D01*
X022604Y015391D01*
X022587Y015383D01*
X022572Y015372D01*
X022539Y015334D01*
X022528Y015312D01*
X022522Y015287D01*
X022523Y015262D01*
X022523Y014876D01*
X022523Y014891D02*
X022353Y014891D01*
X022353Y014899D02*
X022523Y014899D01*
X022523Y014908D02*
X022353Y014908D01*
X022353Y014916D02*
X022523Y014916D01*
X022523Y014925D02*
X022353Y014925D01*
X022353Y014933D02*
X022523Y014933D01*
X022523Y014942D02*
X022353Y014942D01*
X022353Y014950D02*
X022523Y014950D01*
X022523Y014959D02*
X022353Y014959D01*
X022353Y014967D02*
X022523Y014967D01*
X022523Y014976D02*
X022353Y014976D01*
X022353Y014984D02*
X022523Y014984D01*
X022523Y014993D02*
X022353Y014993D01*
X022353Y015001D02*
X022523Y015001D01*
X022523Y015010D02*
X022353Y015010D01*
X022353Y015018D02*
X022523Y015018D01*
X022523Y015027D02*
X022353Y015027D01*
X022353Y015035D02*
X022523Y015035D01*
X022523Y015044D02*
X022353Y015044D01*
X022353Y015052D02*
X022523Y015052D01*
X022523Y015061D02*
X022353Y015061D01*
X022353Y015069D02*
X022523Y015069D01*
X022523Y015078D02*
X022353Y015078D01*
X022353Y015086D02*
X022523Y015086D01*
X022523Y015095D02*
X022353Y015095D01*
X022353Y015103D02*
X022523Y015103D01*
X022523Y015112D02*
X022353Y015112D01*
X022353Y015120D02*
X022523Y015120D01*
X022523Y015129D02*
X022353Y015129D01*
X022353Y015137D02*
X022523Y015137D01*
X022523Y015146D02*
X022353Y015146D01*
X022353Y015154D02*
X022523Y015154D01*
X022523Y015163D02*
X022353Y015163D01*
X022353Y015171D02*
X022523Y015171D01*
X022523Y015180D02*
X022353Y015180D01*
X022353Y015188D02*
X022523Y015188D01*
X022523Y015197D02*
X022353Y015197D01*
X022353Y015205D02*
X022523Y015205D01*
X022523Y015214D02*
X022353Y015214D01*
X022353Y015222D02*
X022523Y015222D01*
X022523Y015231D02*
X022353Y015231D01*
X022353Y015239D02*
X022523Y015239D01*
X022523Y015248D02*
X022353Y015248D01*
X022353Y015256D02*
X022523Y015256D01*
X022523Y015265D02*
X022353Y015265D01*
X022353Y015273D02*
X022523Y015273D01*
X022522Y015282D02*
X022353Y015282D01*
X022353Y015290D02*
X022523Y015290D01*
X022525Y015299D02*
X022353Y015299D01*
X022353Y015307D02*
X022527Y015307D01*
X022530Y015316D02*
X022353Y015316D01*
X022353Y015324D02*
X022534Y015324D01*
X022539Y015333D02*
X022353Y015333D01*
X022353Y015341D02*
X022546Y015341D01*
X022553Y015350D02*
X022353Y015350D01*
X022353Y015358D02*
X022561Y015358D01*
X022568Y015367D02*
X022353Y015367D01*
X022353Y015375D02*
X022577Y015375D01*
X022589Y015384D02*
X022353Y015384D01*
X022353Y015392D02*
X022614Y015392D01*
X022683Y015392D02*
X023010Y015392D01*
X022984Y015384D02*
X022704Y015384D01*
X022716Y015375D02*
X022971Y015375D01*
X022961Y015367D02*
X022725Y015367D01*
X022731Y015358D02*
X022955Y015358D01*
X022949Y015350D02*
X022737Y015350D01*
X022742Y015341D02*
X022943Y015341D01*
X022939Y015333D02*
X022746Y015333D01*
X022749Y015324D02*
X022935Y015324D01*
X022932Y015316D02*
X022751Y015316D01*
X022752Y015307D02*
X022930Y015307D01*
X022928Y015299D02*
X022753Y015299D01*
X022754Y015290D02*
X022927Y015290D01*
X022927Y015282D02*
X022754Y015282D01*
X022754Y015273D02*
X022926Y015273D01*
X022925Y015265D02*
X022754Y015265D01*
X022754Y015256D02*
X022925Y015256D01*
X022924Y015248D02*
X022754Y015248D01*
X022754Y015239D02*
X022924Y015239D01*
X022924Y015231D02*
X022754Y015231D01*
X022754Y015222D02*
X022924Y015222D01*
X022924Y015214D02*
X022754Y015214D01*
X022754Y015205D02*
X022924Y015205D01*
X022924Y015197D02*
X022754Y015197D01*
X022754Y015188D02*
X022924Y015188D01*
X022924Y015180D02*
X022754Y015180D01*
X022754Y015171D02*
X022924Y015171D01*
X022924Y015163D02*
X022754Y015163D01*
X022754Y015154D02*
X022924Y015154D01*
X022924Y015146D02*
X022754Y015146D01*
X022754Y015137D02*
X022924Y015137D01*
X022924Y015129D02*
X022754Y015129D01*
X022754Y015120D02*
X022924Y015120D01*
X022924Y015112D02*
X022754Y015112D01*
X022754Y015103D02*
X022924Y015103D01*
X022924Y015095D02*
X022754Y015095D01*
X022754Y015086D02*
X022924Y015086D01*
X022924Y015078D02*
X022754Y015078D01*
X022754Y015069D02*
X022924Y015069D01*
X022924Y015061D02*
X022754Y015061D01*
X022754Y015052D02*
X022924Y015052D01*
X022924Y015044D02*
X022754Y015044D01*
X022754Y015035D02*
X022924Y015035D01*
X022924Y015027D02*
X022754Y015027D01*
X022754Y015018D02*
X022924Y015018D01*
X022924Y015010D02*
X022754Y015010D01*
X022754Y015001D02*
X022924Y015001D01*
X022924Y014993D02*
X022754Y014993D01*
X022754Y014984D02*
X022924Y014984D01*
X022924Y014976D02*
X022754Y014976D01*
X022754Y014967D02*
X022924Y014967D01*
X022924Y014959D02*
X022754Y014959D01*
X022754Y014950D02*
X022924Y014950D01*
X022924Y014942D02*
X022754Y014942D01*
X022754Y014933D02*
X022924Y014933D01*
X022924Y014925D02*
X022754Y014925D01*
X022754Y014916D02*
X022924Y014916D01*
X022924Y014908D02*
X022754Y014908D01*
X022754Y014899D02*
X022924Y014899D01*
X022924Y014891D02*
X022754Y014891D01*
X022754Y014882D02*
X022924Y014882D01*
X023157Y014882D02*
X023324Y014882D01*
X023324Y014891D02*
X023157Y014891D01*
X023157Y014899D02*
X023324Y014899D01*
X023324Y014908D02*
X023157Y014908D01*
X023157Y014916D02*
X023324Y014916D01*
X023324Y014925D02*
X023157Y014925D01*
X023157Y014933D02*
X023324Y014933D01*
X023324Y014942D02*
X023157Y014942D01*
X023157Y014950D02*
X023324Y014950D01*
X023324Y014959D02*
X023157Y014959D01*
X023157Y014967D02*
X023324Y014967D01*
X023324Y014976D02*
X023157Y014976D01*
X023157Y014984D02*
X023324Y014984D01*
X023324Y014993D02*
X023157Y014993D01*
X023157Y015001D02*
X023324Y015001D01*
X023324Y015010D02*
X023157Y015010D01*
X023157Y015018D02*
X023324Y015018D01*
X023324Y015027D02*
X023157Y015027D01*
X023157Y015035D02*
X023324Y015035D01*
X023324Y015044D02*
X023157Y015044D01*
X023157Y015052D02*
X023324Y015052D01*
X023324Y015061D02*
X023157Y015061D01*
X023157Y015069D02*
X023324Y015069D01*
X023324Y015078D02*
X023157Y015078D01*
X023157Y015086D02*
X023324Y015086D01*
X023324Y015095D02*
X023157Y015095D01*
X023157Y015103D02*
X023324Y015103D01*
X023324Y015112D02*
X023157Y015112D01*
X023157Y015120D02*
X023324Y015120D01*
X023324Y015129D02*
X023157Y015129D01*
X023157Y015137D02*
X023324Y015137D01*
X023324Y015146D02*
X023157Y015146D01*
X023157Y015154D02*
X023324Y015154D01*
X023324Y015163D02*
X023157Y015163D01*
X023157Y015171D02*
X023324Y015171D01*
X023324Y015180D02*
X023157Y015180D01*
X023157Y015188D02*
X023324Y015188D01*
X023324Y015197D02*
X023157Y015197D01*
X023157Y015205D02*
X023324Y015205D01*
X023324Y015214D02*
X023157Y015214D01*
X023157Y015222D02*
X023324Y015222D01*
X023324Y015231D02*
X023157Y015231D01*
X023157Y015239D02*
X023324Y015239D01*
X023324Y015248D02*
X023157Y015248D01*
X023157Y015256D02*
X023324Y015256D01*
X023324Y015265D02*
X023157Y015265D01*
X023157Y015273D02*
X023324Y015273D01*
X023324Y015282D02*
X023157Y015282D01*
X023156Y015290D02*
X023324Y015290D01*
X023324Y015299D02*
X023155Y015299D01*
X023154Y015307D02*
X023324Y015307D01*
X023324Y015333D02*
X023146Y015333D01*
X023143Y015341D02*
X023323Y015341D01*
X023321Y015350D02*
X023140Y015350D01*
X023134Y015358D02*
X023320Y015358D01*
X023319Y015367D02*
X023127Y015367D01*
X023118Y015375D02*
X023317Y015375D01*
X023314Y015384D02*
X023105Y015384D01*
X023081Y015392D02*
X023311Y015392D01*
X023308Y015401D02*
X022353Y015401D01*
X022353Y015409D02*
X023305Y015409D01*
X023301Y015418D02*
X022353Y015418D01*
X022353Y015426D02*
X022510Y015426D01*
X022510Y015435D02*
X022353Y015435D01*
X022353Y015443D02*
X022510Y015443D01*
X022510Y015452D02*
X022353Y015452D01*
X022353Y015460D02*
X022510Y015460D01*
X022510Y015469D02*
X022353Y015469D01*
X022353Y015477D02*
X022510Y015477D01*
X022510Y015486D02*
X022353Y015486D01*
X022353Y015494D02*
X022510Y015494D01*
X022510Y015503D02*
X022353Y015503D01*
X022522Y015426D02*
X022893Y015426D01*
X022888Y015435D02*
X022528Y015435D01*
X022536Y015443D02*
X022883Y015443D01*
X022878Y015452D02*
X022544Y015452D01*
X022552Y015460D02*
X022870Y015460D01*
X022863Y015469D02*
X022560Y015469D01*
X022570Y015477D02*
X022855Y015477D01*
X022844Y015486D02*
X022581Y015486D01*
X022592Y015494D02*
X022833Y015494D01*
X022818Y015503D02*
X022610Y015503D01*
X022629Y015511D02*
X022801Y015511D01*
X022774Y015520D02*
X022666Y015520D01*
X022907Y015426D02*
X023295Y015426D01*
X023290Y015435D02*
X022915Y015435D01*
X022923Y015443D02*
X023285Y015443D01*
X023279Y015452D02*
X022932Y015452D01*
X022940Y015460D02*
X023271Y015460D01*
X023263Y015469D02*
X022949Y015469D01*
X022960Y015477D02*
X023255Y015477D01*
X023242Y015486D02*
X022972Y015486D01*
X022983Y015494D02*
X023229Y015494D01*
X023211Y015503D02*
X022998Y015503D01*
X023016Y015511D02*
X023187Y015511D01*
X023144Y015520D02*
X023044Y015520D01*
X021802Y015242D02*
X021800Y015209D01*
X021800Y015177D01*
X021803Y015145D01*
X021638Y015268D02*
X021645Y015301D01*
X021656Y015332D01*
X021671Y015362D01*
X021688Y015391D01*
X021709Y015417D01*
X021732Y015441D01*
X021757Y015462D01*
X021785Y015481D01*
X021731Y014941D02*
X021758Y014921D01*
X021787Y014904D01*
X021817Y014889D01*
X021849Y014878D01*
X021881Y014869D01*
X021914Y014864D01*
X021948Y014862D01*
X021903Y014993D02*
X021925Y014987D01*
X021947Y014984D01*
X021970Y014984D01*
X021992Y014987D01*
X022014Y014993D01*
X022035Y015001D01*
X021680Y015000D02*
X021665Y015028D01*
X021653Y015057D01*
X021644Y015087D01*
X021637Y015117D01*
X021965Y015529D02*
X021995Y015528D01*
X022024Y015524D01*
X022053Y015518D01*
X021844Y015354D02*
X021831Y015334D01*
X021819Y015312D01*
X021811Y015290D01*
X021805Y015266D01*
X021802Y015242D01*
X021959Y015404D02*
X021980Y015403D01*
X022001Y015400D01*
X022021Y015394D01*
X022054Y015518D02*
X022081Y015510D01*
X022108Y015499D01*
X022133Y015486D01*
X022158Y015470D01*
X022180Y015452D01*
X022179Y015452D02*
X022203Y015428D01*
X022225Y015402D01*
X022244Y015374D01*
X022259Y015344D01*
X022272Y015312D01*
X022280Y015279D01*
X022285Y015246D01*
X022287Y015212D01*
X021951Y015529D02*
X021916Y015526D01*
X021882Y015519D01*
X021848Y015509D01*
X021816Y015496D01*
X021785Y015480D01*
X020233Y015428D02*
X020222Y015413D01*
X019534Y015409D02*
X019371Y015409D01*
X019371Y015401D02*
X019534Y015401D01*
X019534Y015418D02*
X019371Y015418D01*
X019371Y015426D02*
X019534Y015426D01*
X019534Y015435D02*
X019371Y015435D01*
X019371Y015443D02*
X019534Y015443D01*
X019534Y015452D02*
X019371Y015452D01*
X019371Y015460D02*
X019534Y015460D01*
X019534Y015469D02*
X019371Y015469D01*
X019371Y015477D02*
X019534Y015477D01*
X019534Y015486D02*
X019371Y015486D01*
X018777Y015086D02*
X018590Y015086D01*
X018595Y015078D02*
X018782Y015078D01*
X018788Y015069D02*
X018600Y015069D01*
X018606Y015061D02*
X018794Y015061D01*
X018799Y015052D02*
X018611Y015052D01*
X018616Y015044D02*
X018805Y015044D01*
X018811Y015035D02*
X018621Y015035D01*
X018626Y015027D02*
X018816Y015027D01*
X018822Y015018D02*
X018631Y015018D01*
X018637Y015010D02*
X018828Y015010D01*
X018833Y015001D02*
X018642Y015001D01*
X018647Y014993D02*
X018839Y014993D01*
X018771Y015095D02*
X018585Y015095D01*
X018580Y015103D02*
X018765Y015103D01*
X018760Y015112D02*
X018575Y015112D01*
X018569Y015120D02*
X018754Y015120D01*
X018748Y015129D02*
X018564Y015129D01*
X018559Y015137D02*
X018743Y015137D01*
X018737Y015146D02*
X018554Y015146D01*
X018475Y015282D02*
X018312Y015282D01*
X018312Y015290D02*
X018475Y015290D01*
X018475Y015299D02*
X018312Y015299D01*
X018312Y015307D02*
X018475Y015307D01*
X018475Y015316D02*
X018312Y015316D01*
X018312Y015324D02*
X018475Y015324D01*
X018475Y015333D02*
X018312Y015333D01*
X018312Y015341D02*
X018475Y015341D01*
X018475Y015350D02*
X018312Y015350D01*
X018312Y015358D02*
X018475Y015358D01*
X018475Y015367D02*
X018312Y015367D01*
X018312Y015375D02*
X018475Y015375D01*
X018475Y015384D02*
X018312Y015384D01*
X018312Y015392D02*
X018475Y015392D01*
X018475Y015401D02*
X018312Y015401D01*
X018312Y015409D02*
X018475Y015409D01*
X018475Y015418D02*
X018312Y015418D01*
X018312Y015426D02*
X018475Y015426D01*
X018475Y015435D02*
X018312Y015435D01*
X018312Y015443D02*
X018475Y015443D01*
X018475Y015452D02*
X018312Y015452D01*
X018312Y015460D02*
X018475Y015460D01*
X018475Y015469D02*
X018312Y015469D01*
X018312Y015477D02*
X018475Y015477D01*
X018475Y015486D02*
X018312Y015486D01*
X018312Y015494D02*
X018475Y015494D01*
X017998Y015486D02*
X017981Y015486D01*
X017998Y015477D02*
X017933Y015477D01*
X017885Y015469D02*
X017998Y015469D01*
X017998Y015460D02*
X017846Y015460D01*
X017846Y015452D02*
X017998Y015452D01*
X017998Y015443D02*
X017846Y015443D01*
X017846Y015435D02*
X017998Y015435D01*
X017998Y015426D02*
X017846Y015426D01*
X017846Y015418D02*
X017998Y015418D01*
X017998Y015409D02*
X017846Y015409D01*
X017846Y015401D02*
X017998Y015401D01*
X017998Y015392D02*
X017846Y015392D01*
X017846Y015384D02*
X017998Y015384D01*
X016644Y014644D02*
X016492Y014644D01*
X016501Y014636D02*
X016644Y014636D01*
X016644Y014627D02*
X016511Y014627D01*
X016520Y014619D02*
X016644Y014619D01*
X016644Y014610D02*
X016530Y014610D01*
X016539Y014602D02*
X016644Y014602D01*
X016644Y014593D02*
X016549Y014593D01*
X016558Y014585D02*
X016644Y014585D01*
X016644Y014576D02*
X016567Y014576D01*
X016577Y014568D02*
X016644Y014568D01*
X016644Y014559D02*
X016586Y014559D01*
X016596Y014551D02*
X016644Y014551D01*
X016644Y014542D02*
X016605Y014542D01*
X016615Y014534D02*
X016644Y014534D01*
X016644Y014525D02*
X016624Y014525D01*
X016633Y014517D02*
X016644Y014517D01*
X016643Y014508D02*
X016644Y014508D01*
X016337Y014923D02*
X016365Y014952D01*
X016380Y014974D01*
X016391Y014999D01*
X016396Y015025D01*
X016399Y015066D01*
X016396Y015108D01*
X016382Y015147D01*
X016372Y015163D01*
X016359Y015177D01*
X016332Y015197D01*
X016302Y015213D01*
X016237Y015237D01*
X016169Y015252D01*
X016089Y015268D01*
X016059Y015279D01*
X016031Y015296D01*
X016019Y015309D01*
X016011Y015324D01*
X016009Y015340D01*
X016011Y015356D01*
X016017Y015371D01*
X016027Y015383D01*
X016040Y015391D01*
X016058Y015397D01*
X016076Y015401D01*
X015957Y015401D01*
X015956Y015406D02*
X015977Y015286D01*
X016150Y015183D01*
X016317Y015092D01*
X016274Y014964D01*
X016119Y014929D01*
X015834Y015070D01*
X016115Y014922D01*
X016277Y014958D01*
X016321Y015089D01*
X016314Y015103D01*
X015989Y015292D01*
X015970Y015400D01*
X016119Y015445D01*
X016285Y015392D01*
X016362Y015335D01*
X016381Y015349D01*
X016373Y015371D01*
X016359Y015402D01*
X016348Y015419D01*
X016334Y015435D01*
X016297Y015465D01*
X016253Y015486D01*
X016200Y015500D01*
X016145Y015506D01*
X016074Y015506D01*
X016018Y015500D01*
X015964Y015484D01*
X015913Y015458D01*
X015895Y015443D01*
X016114Y015443D01*
X016121Y015449D02*
X015956Y015406D01*
X015959Y015392D02*
X016044Y015392D01*
X016029Y015384D02*
X015960Y015384D01*
X015962Y015375D02*
X016021Y015375D01*
X016015Y015367D02*
X015963Y015367D01*
X015965Y015358D02*
X016012Y015358D01*
X016010Y015350D02*
X015966Y015350D01*
X015968Y015341D02*
X016009Y015341D01*
X016010Y015333D02*
X015969Y015333D01*
X015971Y015324D02*
X016011Y015324D01*
X016015Y015316D02*
X015972Y015316D01*
X015974Y015307D02*
X016020Y015307D01*
X016028Y015299D02*
X015975Y015299D01*
X015977Y015290D02*
X016040Y015290D01*
X016054Y015282D02*
X015984Y015282D01*
X015992Y015290D02*
X015851Y015290D01*
X015851Y015282D02*
X016007Y015282D01*
X015998Y015273D02*
X016074Y015273D01*
X016065Y015248D02*
X015862Y015248D01*
X015858Y015254D02*
X015868Y015236D01*
X015881Y015221D01*
X015908Y015200D01*
X015938Y015183D01*
X015969Y015171D01*
X016112Y015137D01*
X016159Y015125D01*
X016203Y015106D01*
X016218Y015096D01*
X016229Y015083D01*
X016236Y015068D01*
X016240Y015051D01*
X016239Y015034D01*
X016234Y015018D01*
X016226Y015003D01*
X016213Y014991D01*
X016192Y014978D01*
X016169Y014970D01*
X016144Y014967D01*
X016091Y014967D01*
X016068Y014970D01*
X016044Y014979D01*
X016023Y014993D01*
X016004Y015011D01*
X015994Y015028D01*
X015988Y015048D01*
X015986Y015068D01*
X015986Y015070D01*
X015834Y015070D01*
X015835Y015056D01*
X015839Y015033D01*
X015856Y014983D01*
X015869Y014960D01*
X015885Y014939D01*
X015905Y014922D01*
X015952Y014892D01*
X015986Y014876D01*
X016022Y014868D01*
X016123Y014861D01*
X016176Y014863D01*
X016227Y014870D01*
X016267Y014881D01*
X016304Y014899D01*
X015941Y014899D01*
X015955Y014891D02*
X016287Y014891D01*
X016304Y014899D02*
X016337Y014923D01*
X016339Y014925D02*
X015902Y014925D01*
X015892Y014933D02*
X016110Y014933D01*
X016110Y014925D02*
X016128Y014925D01*
X016139Y014933D02*
X016347Y014933D01*
X016355Y014942D02*
X016176Y014942D01*
X016167Y014933D02*
X016094Y014933D01*
X016093Y014942D02*
X015883Y014942D01*
X015876Y014950D02*
X016076Y014950D01*
X016078Y014942D02*
X016205Y014942D01*
X016214Y014950D02*
X016364Y014950D01*
X016370Y014959D02*
X016252Y014959D01*
X016243Y014950D02*
X016061Y014950D01*
X016059Y014959D02*
X015869Y014959D01*
X015864Y014967D02*
X016042Y014967D01*
X016045Y014959D02*
X016278Y014959D01*
X016280Y014967D02*
X016148Y014967D01*
X016186Y014976D02*
X016283Y014976D01*
X016278Y014976D02*
X016381Y014976D01*
X016385Y014984D02*
X016281Y014984D01*
X016286Y014984D02*
X016203Y014984D01*
X016215Y014993D02*
X016289Y014993D01*
X016284Y014993D02*
X016388Y014993D01*
X016391Y015001D02*
X016287Y015001D01*
X016292Y015001D02*
X016224Y015001D01*
X016230Y015010D02*
X016295Y015010D01*
X016290Y015010D02*
X016393Y015010D01*
X016395Y015018D02*
X016293Y015018D01*
X016298Y015018D02*
X016235Y015018D01*
X016237Y015027D02*
X016300Y015027D01*
X016295Y015027D02*
X016396Y015027D01*
X016397Y015035D02*
X016298Y015035D01*
X016303Y015035D02*
X016239Y015035D01*
X016240Y015044D02*
X016306Y015044D01*
X016301Y015044D02*
X016398Y015044D01*
X016398Y015052D02*
X016304Y015052D01*
X016309Y015052D02*
X016240Y015052D01*
X016238Y015061D02*
X016312Y015061D01*
X016307Y015061D02*
X016399Y015061D01*
X016399Y015069D02*
X016310Y015069D01*
X016315Y015069D02*
X016236Y015069D01*
X016231Y015078D02*
X016318Y015078D01*
X016313Y015078D02*
X016398Y015078D01*
X016398Y015086D02*
X016315Y015086D01*
X016320Y015086D02*
X016226Y015086D01*
X016219Y015095D02*
X016318Y015095D01*
X016312Y015095D02*
X016397Y015095D01*
X016396Y015103D02*
X016296Y015103D01*
X016299Y015112D02*
X016189Y015112D01*
X016207Y015103D02*
X016314Y015103D01*
X016284Y015120D02*
X016169Y015120D01*
X016143Y015129D02*
X016270Y015129D01*
X016265Y015120D02*
X016391Y015120D01*
X016394Y015112D02*
X016281Y015112D01*
X016250Y015129D02*
X016388Y015129D01*
X016386Y015137D02*
X016234Y015137D01*
X016241Y015146D02*
X016075Y015146D01*
X016111Y015137D02*
X016255Y015137D01*
X016226Y015154D02*
X016039Y015154D01*
X016003Y015163D02*
X016211Y015163D01*
X016203Y015154D02*
X016378Y015154D01*
X016383Y015146D02*
X016218Y015146D01*
X016197Y015171D02*
X015968Y015171D01*
X015946Y015180D02*
X016182Y015180D01*
X016172Y015171D02*
X016365Y015171D01*
X016373Y015163D02*
X016187Y015163D01*
X016167Y015188D02*
X015928Y015188D01*
X015913Y015197D02*
X016153Y015197D01*
X016141Y015188D02*
X016344Y015188D01*
X016355Y015180D02*
X016156Y015180D01*
X016138Y015205D02*
X015901Y015205D01*
X015890Y015214D02*
X016124Y015214D01*
X016113Y015205D02*
X016316Y015205D01*
X016332Y015197D02*
X016127Y015197D01*
X016109Y015222D02*
X015880Y015222D01*
X015873Y015231D02*
X016094Y015231D01*
X016084Y015222D02*
X016277Y015222D01*
X016300Y015214D02*
X016098Y015214D01*
X016080Y015239D02*
X015866Y015239D01*
X015858Y015254D02*
X015852Y015273D01*
X015848Y015318D01*
X015853Y015362D01*
X015867Y015405D01*
X015879Y015426D01*
X015895Y015443D01*
X015887Y015435D02*
X016086Y015435D01*
X016100Y015443D02*
X016141Y015443D01*
X016151Y015435D02*
X016334Y015435D01*
X016342Y015426D02*
X016177Y015426D01*
X016170Y015435D02*
X016067Y015435D01*
X016058Y015426D02*
X015880Y015426D01*
X015875Y015418D02*
X016030Y015418D01*
X016035Y015426D02*
X016199Y015426D01*
X016204Y015418D02*
X016349Y015418D01*
X016355Y015409D02*
X016231Y015409D01*
X016228Y015418D02*
X016002Y015418D01*
X016002Y015409D02*
X015870Y015409D01*
X015866Y015401D02*
X015973Y015401D01*
X015972Y015392D02*
X015863Y015392D01*
X015860Y015384D02*
X015973Y015384D01*
X015975Y015375D02*
X015858Y015375D01*
X015855Y015367D02*
X015976Y015367D01*
X015978Y015358D02*
X015853Y015358D01*
X015852Y015350D02*
X015979Y015350D01*
X015981Y015341D02*
X015851Y015341D01*
X015850Y015333D02*
X015982Y015333D01*
X015984Y015324D02*
X015849Y015324D01*
X015848Y015316D02*
X015985Y015316D01*
X015987Y015307D02*
X015849Y015307D01*
X015850Y015299D02*
X015988Y015299D01*
X016021Y015273D02*
X015852Y015273D01*
X015855Y015265D02*
X016036Y015265D01*
X016027Y015256D02*
X016147Y015256D01*
X016188Y015248D02*
X016041Y015248D01*
X016051Y015256D02*
X015857Y015256D01*
X016013Y015265D02*
X016105Y015265D01*
X016070Y015231D02*
X016254Y015231D01*
X016226Y015239D02*
X016056Y015239D01*
X016076Y015401D02*
X016110Y015403D01*
X016144Y015401D01*
X016165Y015397D01*
X016184Y015389D01*
X016201Y015378D01*
X016213Y015367D01*
X016222Y015354D01*
X016228Y015339D01*
X016231Y015329D01*
X016231Y015318D01*
X016384Y015318D01*
X016381Y015346D01*
X016300Y015397D01*
X016121Y015449D01*
X016124Y015443D02*
X016324Y015443D01*
X016313Y015452D02*
X015906Y015452D01*
X015918Y015460D02*
X016302Y015460D01*
X016288Y015469D02*
X015935Y015469D01*
X015951Y015477D02*
X016271Y015477D01*
X016253Y015486D02*
X015971Y015486D01*
X016000Y015494D02*
X016222Y015494D01*
X016176Y015503D02*
X016046Y015503D01*
X015970Y015409D02*
X016258Y015409D01*
X016257Y015401D02*
X016360Y015401D01*
X016364Y015392D02*
X016284Y015392D01*
X016287Y015401D02*
X016145Y015401D01*
X016176Y015392D02*
X016308Y015392D01*
X016296Y015384D02*
X016367Y015384D01*
X016371Y015375D02*
X016308Y015375D01*
X016319Y015367D02*
X016375Y015367D01*
X016378Y015358D02*
X016331Y015358D01*
X016342Y015350D02*
X016381Y015350D01*
X016375Y015350D02*
X016224Y015350D01*
X016227Y015341D02*
X016382Y015341D01*
X016383Y015333D02*
X016230Y015333D01*
X016231Y015324D02*
X016384Y015324D01*
X016371Y015341D02*
X016354Y015341D01*
X016362Y015358D02*
X016219Y015358D01*
X016213Y015367D02*
X016348Y015367D01*
X016335Y015375D02*
X016204Y015375D01*
X016192Y015384D02*
X016321Y015384D01*
X015986Y015069D02*
X015835Y015069D01*
X015834Y015069D02*
X015836Y015069D01*
X015835Y015061D02*
X015853Y015061D01*
X015852Y015061D02*
X015987Y015061D01*
X015987Y015052D02*
X015868Y015052D01*
X015870Y015052D02*
X015836Y015052D01*
X015837Y015044D02*
X015887Y015044D01*
X015884Y015044D02*
X015989Y015044D01*
X015991Y015035D02*
X015900Y015035D01*
X015904Y015035D02*
X015839Y015035D01*
X015841Y015027D02*
X015921Y015027D01*
X015916Y015027D02*
X015995Y015027D01*
X016000Y015018D02*
X015932Y015018D01*
X015939Y015018D02*
X015844Y015018D01*
X015847Y015010D02*
X015956Y015010D01*
X015948Y015010D02*
X016005Y015010D01*
X016014Y015001D02*
X015965Y015001D01*
X015973Y015001D02*
X015850Y015001D01*
X015853Y014993D02*
X015990Y014993D01*
X015981Y014993D02*
X016022Y014993D01*
X016036Y014984D02*
X015997Y014984D01*
X016007Y014984D02*
X015856Y014984D01*
X015860Y014976D02*
X016025Y014976D01*
X016029Y014967D02*
X016088Y014967D01*
X016052Y014976D02*
X016013Y014976D01*
X015973Y014882D02*
X016269Y014882D01*
X016241Y014874D02*
X015997Y014874D01*
X016059Y014865D02*
X016194Y014865D01*
X016316Y014908D02*
X015927Y014908D01*
X015914Y014916D02*
X016328Y014916D01*
X016376Y014967D02*
X016275Y014967D01*
X020325Y015379D02*
X020369Y015381D01*
D22*
X020819Y014968D03*
D23*
X008923Y002591D02*
X008925Y002605D01*
X008931Y002619D01*
X008939Y002631D01*
X008951Y002639D01*
X008965Y002645D01*
X008979Y002647D01*
X008993Y002645D01*
X009007Y002639D01*
X009019Y002631D01*
X009027Y002619D01*
X009033Y002605D01*
X009035Y002591D01*
X009033Y002577D01*
X009027Y002563D01*
X009019Y002551D01*
X009007Y002543D01*
X008993Y002537D01*
X008979Y002535D01*
X008965Y002537D01*
X008951Y002543D01*
X008939Y002551D01*
X008931Y002563D01*
X008925Y002577D01*
X008923Y002591D01*
D24*
X010369Y007220D02*
X009700Y007890D01*
X009700Y009780D01*
X010605Y009780D01*
X011353Y009780D02*
X012259Y009780D01*
X012259Y007890D01*
X011590Y007220D01*
X011353Y007220D01*
X010605Y007220D02*
X010369Y007220D01*
X010605Y007339D02*
X010541Y007361D01*
X010478Y007388D01*
X010416Y007418D01*
X010357Y007451D01*
X010299Y007487D01*
X010243Y007527D01*
X010190Y007570D01*
X010139Y007615D01*
X010091Y007663D01*
X010046Y007714D01*
X010003Y007768D01*
X009964Y007824D01*
X009927Y007881D01*
X009894Y007941D01*
X009865Y008003D01*
X009839Y008066D01*
X009816Y008130D01*
X009797Y008196D01*
X009782Y008263D01*
X009771Y008330D01*
X009763Y008398D01*
X009759Y008466D01*
X009759Y008534D01*
X009763Y008602D01*
X009771Y008670D01*
X009782Y008737D01*
X009797Y008804D01*
X009816Y008870D01*
X009839Y008934D01*
X009865Y008997D01*
X009894Y009059D01*
X009927Y009119D01*
X009964Y009176D01*
X010003Y009232D01*
X010046Y009286D01*
X010091Y009337D01*
X010139Y009385D01*
X010190Y009430D01*
X010243Y009473D01*
X010299Y009513D01*
X010357Y009549D01*
X010416Y009582D01*
X010478Y009612D01*
X010541Y009639D01*
X010605Y009661D01*
X011353Y009661D02*
X011417Y009639D01*
X011480Y009612D01*
X011542Y009582D01*
X011601Y009549D01*
X011659Y009513D01*
X011715Y009473D01*
X011768Y009430D01*
X011819Y009385D01*
X011867Y009337D01*
X011912Y009286D01*
X011955Y009232D01*
X011994Y009176D01*
X012031Y009119D01*
X012064Y009059D01*
X012093Y008997D01*
X012119Y008934D01*
X012142Y008870D01*
X012161Y008804D01*
X012176Y008737D01*
X012187Y008670D01*
X012195Y008602D01*
X012199Y008534D01*
X012199Y008466D01*
X012195Y008398D01*
X012187Y008330D01*
X012176Y008263D01*
X012161Y008196D01*
X012142Y008130D01*
X012119Y008066D01*
X012093Y008003D01*
X012064Y007941D01*
X012031Y007881D01*
X011994Y007824D01*
X011955Y007768D01*
X011912Y007714D01*
X011867Y007663D01*
X011819Y007615D01*
X011768Y007570D01*
X011715Y007527D01*
X011659Y007487D01*
X011601Y007451D01*
X011542Y007418D01*
X011480Y007388D01*
X011417Y007361D01*
X011353Y007339D01*
D25*
X009663Y003831D03*
D26*
X032039Y005250D03*
X033009Y005250D03*
X032829Y010810D03*
X032829Y010950D03*
X032249Y011390D03*
D27*
X032214Y010900D03*
X032214Y010890D03*
X032214Y010880D03*
X032214Y010870D03*
X032214Y010860D03*
X032834Y010860D03*
X032834Y010870D03*
X032834Y010890D03*
X032834Y010900D03*
X032034Y005260D03*
D28*
X033009Y005260D03*
X032829Y010850D03*
X032829Y010910D03*
X032209Y010910D03*
X032209Y010850D03*
D29*
X032034Y005270D03*
X033004Y005270D03*
D30*
X033004Y005280D03*
X032034Y005280D03*
X032524Y012030D03*
D31*
X032524Y009580D03*
X033004Y005290D03*
X032034Y005290D03*
D32*
X032034Y005300D03*
X033004Y005300D03*
X030844Y006670D03*
X030844Y008300D03*
D33*
X034199Y006680D03*
X033009Y005310D03*
X032029Y005310D03*
D34*
X032034Y005320D03*
X033004Y005320D03*
X031624Y009010D03*
X031634Y009030D03*
X031644Y009050D03*
X031654Y009060D03*
X031664Y009070D03*
X033384Y009070D03*
X033394Y009060D03*
X033404Y009050D03*
X033414Y009030D03*
X032524Y012010D03*
D35*
X031614Y008990D03*
X030844Y008260D03*
X030844Y006710D03*
X032034Y005330D03*
X033004Y005330D03*
X033434Y008980D03*
X033434Y008990D03*
D36*
X034194Y008250D03*
X032524Y009570D03*
X030844Y008250D03*
X030844Y006720D03*
X032034Y005340D03*
X032524Y012000D03*
D37*
X032519Y010030D03*
X031689Y009090D03*
X031609Y008980D03*
X031609Y008970D03*
X031609Y008960D03*
X033359Y009090D03*
X033439Y008970D03*
X033439Y008960D03*
X034199Y008260D03*
X034199Y006710D03*
X033009Y005340D03*
D38*
X033009Y005350D03*
X032029Y005350D03*
X034199Y006720D03*
X033439Y008950D03*
X031609Y008950D03*
D39*
X031604Y008940D03*
X030844Y008240D03*
X030844Y006730D03*
X032034Y005360D03*
X034194Y006730D03*
X034194Y008240D03*
X033444Y008940D03*
D40*
X033439Y008930D03*
X034199Y008230D03*
X031609Y008930D03*
X030849Y008230D03*
X033009Y005360D03*
D41*
X033004Y005370D03*
X032034Y005370D03*
X030844Y006740D03*
X031604Y008920D03*
X033444Y008920D03*
X034194Y006740D03*
D42*
X034199Y006750D03*
X034199Y008220D03*
X033439Y008910D03*
X030849Y008220D03*
X032039Y005380D03*
D43*
X033004Y005380D03*
X033004Y005390D03*
X034204Y006760D03*
X034204Y008210D03*
X031604Y008910D03*
X030844Y008210D03*
X030844Y008200D03*
X030844Y006760D03*
X030844Y006750D03*
X032524Y010040D03*
X032524Y011990D03*
D44*
X031609Y008900D03*
X030849Y008190D03*
X030849Y006770D03*
X032039Y005390D03*
X033009Y005400D03*
X034199Y006770D03*
X034199Y008190D03*
X034199Y008200D03*
X033439Y008900D03*
D45*
X033434Y008890D03*
X031614Y008890D03*
X030844Y006780D03*
X032034Y005410D03*
X032034Y005400D03*
X033004Y005410D03*
X034194Y006780D03*
X033274Y011480D03*
X031774Y011480D03*
D46*
X032519Y010050D03*
X033429Y008880D03*
X034199Y008180D03*
X034199Y008170D03*
X034199Y006790D03*
X033009Y005420D03*
X032029Y005420D03*
X030849Y006790D03*
X030849Y008170D03*
X030849Y008180D03*
D47*
X030844Y008160D03*
X031614Y008880D03*
X032524Y009560D03*
X034194Y008160D03*
X034194Y006810D03*
X034194Y006800D03*
X033004Y005430D03*
X032034Y005430D03*
X030844Y006800D03*
X030844Y006810D03*
X031784Y011490D03*
X032524Y011980D03*
X033254Y011490D03*
D48*
X034199Y008150D03*
X034199Y006820D03*
X033009Y005450D03*
X033009Y005440D03*
X032029Y005440D03*
X030849Y006820D03*
X030849Y008150D03*
D49*
X030844Y008140D03*
X030844Y008130D03*
X030844Y006840D03*
X030844Y006830D03*
X032034Y005490D03*
X032034Y005480D03*
X032034Y005470D03*
X032034Y005460D03*
X032034Y005450D03*
X033004Y005460D03*
X033004Y005470D03*
X034194Y006830D03*
X034194Y006840D03*
X034194Y008130D03*
X034194Y008140D03*
X032524Y010060D03*
X032524Y011970D03*
D50*
X031719Y011470D03*
X030849Y008120D03*
X030849Y008110D03*
X030849Y008100D03*
X030849Y006870D03*
X030849Y006860D03*
X030849Y006850D03*
X032039Y006180D03*
X032039Y006170D03*
X032039Y006160D03*
X032039Y006150D03*
X032039Y006140D03*
X032039Y006130D03*
X032039Y006120D03*
X032039Y006110D03*
X032039Y006100D03*
X032039Y006090D03*
X032039Y006080D03*
X032039Y006070D03*
X032039Y006060D03*
X032039Y006050D03*
X032039Y006040D03*
X032039Y006030D03*
X032039Y006020D03*
X032039Y006010D03*
X032039Y006000D03*
X032039Y005990D03*
X032039Y005980D03*
X032039Y005970D03*
X032039Y005960D03*
X032039Y005950D03*
X032039Y005940D03*
X032039Y005930D03*
X032039Y005920D03*
X032039Y005910D03*
X032039Y005900D03*
X032039Y005890D03*
X032039Y005880D03*
X032039Y005870D03*
X032039Y005860D03*
X032039Y005850D03*
X032039Y005840D03*
X032039Y005830D03*
X032039Y005820D03*
X032039Y005810D03*
X032039Y005800D03*
X032039Y005790D03*
X032039Y005780D03*
X032039Y005770D03*
X032039Y005760D03*
X032039Y005750D03*
X032039Y005740D03*
X032039Y005730D03*
X032039Y005720D03*
X032039Y005710D03*
X032039Y005700D03*
X032039Y005690D03*
X032039Y005680D03*
X032039Y005670D03*
X032039Y005660D03*
X032039Y005650D03*
X032039Y005640D03*
X032039Y005630D03*
X032039Y005620D03*
X032039Y005610D03*
X032039Y005600D03*
X032039Y005590D03*
X032039Y005580D03*
X032039Y005570D03*
X032039Y005560D03*
X032039Y005550D03*
X032039Y005540D03*
X032039Y005530D03*
X032039Y005520D03*
X032039Y005510D03*
X032039Y005500D03*
X033009Y005500D03*
X033009Y005490D03*
X033009Y005480D03*
X033009Y006180D03*
X034199Y006850D03*
X034199Y006860D03*
X034199Y006870D03*
X034199Y006880D03*
X034199Y006890D03*
X034199Y006900D03*
X034199Y006910D03*
X034199Y006920D03*
X034199Y006930D03*
X034199Y006940D03*
X034199Y006950D03*
X034199Y006960D03*
X034199Y006970D03*
X034199Y006980D03*
X034199Y006990D03*
X034199Y007000D03*
X034199Y007010D03*
X034199Y007020D03*
X034199Y007030D03*
X034199Y007040D03*
X034199Y007050D03*
X034199Y007060D03*
X034199Y007070D03*
X034199Y007080D03*
X034199Y007090D03*
X034199Y007100D03*
X034199Y007110D03*
X034199Y007120D03*
X034199Y007130D03*
X034199Y007140D03*
X034199Y007150D03*
X034199Y007160D03*
X034199Y007170D03*
X034199Y007180D03*
X034199Y007190D03*
X034199Y007200D03*
X034199Y007210D03*
X034199Y007220D03*
X034199Y007230D03*
X034199Y007240D03*
X034199Y007250D03*
X034199Y007260D03*
X034199Y007270D03*
X034199Y007280D03*
X034199Y007290D03*
X034199Y007300D03*
X034199Y007310D03*
X034199Y007320D03*
X034199Y007330D03*
X034199Y007340D03*
X034199Y007350D03*
X034199Y007360D03*
X034199Y007370D03*
X034199Y007380D03*
X034199Y007390D03*
X034199Y007400D03*
X034199Y007410D03*
X034199Y007420D03*
X034199Y007430D03*
X034199Y007440D03*
X034199Y007450D03*
X034199Y007460D03*
X034199Y007470D03*
X034199Y007480D03*
X034199Y007490D03*
X034199Y007500D03*
X034199Y007510D03*
X034199Y007520D03*
X034199Y007530D03*
X034199Y007540D03*
X034199Y007550D03*
X034199Y007560D03*
X034199Y007570D03*
X034199Y007580D03*
X034199Y007590D03*
X034199Y007600D03*
X034199Y007610D03*
X034199Y007620D03*
X034199Y007630D03*
X034199Y007640D03*
X034199Y007650D03*
X034199Y007660D03*
X034199Y007670D03*
X034199Y007680D03*
X034199Y007690D03*
X034199Y007700D03*
X034199Y007710D03*
X034199Y007720D03*
X034199Y007730D03*
X034199Y007740D03*
X034199Y007750D03*
X034199Y007760D03*
X034199Y007770D03*
X034199Y007780D03*
X034199Y007790D03*
X034199Y007800D03*
X034199Y007810D03*
X034199Y007820D03*
X034199Y007830D03*
X034199Y007840D03*
X034199Y007850D03*
X034199Y007860D03*
X034199Y007870D03*
X034199Y007880D03*
X034199Y007890D03*
X034199Y007900D03*
X034199Y007910D03*
X034199Y007920D03*
X034199Y007930D03*
X034199Y007940D03*
X034199Y007950D03*
X034199Y007960D03*
X034199Y007970D03*
X034199Y007980D03*
X034199Y007990D03*
X034199Y008000D03*
X034199Y008010D03*
X034199Y008020D03*
X034199Y008030D03*
X034199Y008040D03*
X034199Y008050D03*
X034199Y008060D03*
X034199Y008070D03*
X034199Y008080D03*
X034199Y008090D03*
X034199Y008100D03*
X034199Y008110D03*
X034199Y008120D03*
D51*
X033004Y006170D03*
X033004Y006160D03*
X033004Y006150D03*
X033004Y006140D03*
X033004Y006130D03*
X033004Y006120D03*
X033004Y006110D03*
X033004Y006100D03*
X033004Y006090D03*
X033004Y006080D03*
X033004Y006070D03*
X033004Y006060D03*
X033004Y006050D03*
X033004Y006040D03*
X033004Y006030D03*
X033004Y006020D03*
X033004Y006010D03*
X033004Y006000D03*
X033004Y005990D03*
X033004Y005980D03*
X033004Y005970D03*
X033004Y005960D03*
X033004Y005950D03*
X033004Y005940D03*
X033004Y005930D03*
X033004Y005920D03*
X033004Y005910D03*
X033004Y005900D03*
X033004Y005890D03*
X033004Y005880D03*
X033004Y005870D03*
X033004Y005860D03*
X033004Y005850D03*
X033004Y005840D03*
X033004Y005830D03*
X033004Y005820D03*
X033004Y005810D03*
X033004Y005800D03*
X033004Y005790D03*
X033004Y005780D03*
X033004Y005770D03*
X033004Y005760D03*
X033004Y005750D03*
X033004Y005740D03*
X033004Y005730D03*
X033004Y005720D03*
X033004Y005710D03*
X033004Y005700D03*
X033004Y005690D03*
X033004Y005680D03*
X033004Y005670D03*
X033004Y005660D03*
X033004Y005650D03*
X033004Y005640D03*
X033004Y005630D03*
X033004Y005620D03*
X033004Y005610D03*
X033004Y005600D03*
X033004Y005590D03*
X033004Y005580D03*
X033004Y005570D03*
X033004Y005560D03*
X033004Y005550D03*
X033004Y005540D03*
X033004Y005530D03*
X033004Y005520D03*
X033004Y005510D03*
X030844Y006880D03*
X030844Y006890D03*
X030844Y006900D03*
X030844Y006910D03*
X030844Y006920D03*
X030844Y006930D03*
X030844Y006940D03*
X030844Y006950D03*
X030844Y006960D03*
X030844Y006970D03*
X030844Y006980D03*
X030844Y006990D03*
X030844Y007000D03*
X030844Y007010D03*
X030844Y007020D03*
X030844Y007030D03*
X030844Y007040D03*
X030844Y007050D03*
X030844Y007060D03*
X030844Y007070D03*
X030844Y007080D03*
X030844Y007090D03*
X030844Y007100D03*
X030844Y007110D03*
X030844Y007120D03*
X030844Y007130D03*
X030844Y007140D03*
X030844Y007150D03*
X030844Y007160D03*
X030844Y007170D03*
X030844Y007180D03*
X030844Y007190D03*
X030844Y007200D03*
X030844Y007210D03*
X030844Y007220D03*
X030844Y007230D03*
X030844Y007240D03*
X030844Y007250D03*
X030844Y007260D03*
X030844Y007270D03*
X030844Y007280D03*
X030844Y007290D03*
X030844Y007300D03*
X030844Y007310D03*
X030844Y007320D03*
X030844Y007330D03*
X030844Y007340D03*
X030844Y007350D03*
X030844Y007360D03*
X030844Y007370D03*
X030844Y007380D03*
X030844Y007390D03*
X030844Y007400D03*
X030844Y007410D03*
X030844Y007420D03*
X030844Y007430D03*
X030844Y007440D03*
X030844Y007450D03*
X030844Y007460D03*
X030844Y007470D03*
X030844Y007480D03*
X030844Y007490D03*
X030844Y007500D03*
X030844Y007510D03*
X030844Y007520D03*
X030844Y007530D03*
X030844Y007540D03*
X030844Y007550D03*
X030844Y007560D03*
X030844Y007570D03*
X030844Y007580D03*
X030844Y007590D03*
X030844Y007600D03*
X030844Y007610D03*
X030844Y007620D03*
X030844Y007630D03*
X030844Y007640D03*
X030844Y007650D03*
X030844Y007660D03*
X030844Y007670D03*
X030844Y007680D03*
X030844Y007690D03*
X030844Y007700D03*
X030844Y007710D03*
X030844Y007720D03*
X030844Y007730D03*
X030844Y007740D03*
X030844Y007750D03*
X030844Y007760D03*
X030844Y007770D03*
X030844Y007780D03*
X030844Y007790D03*
X030844Y007800D03*
X030844Y007810D03*
X030844Y007820D03*
X030844Y007830D03*
X030844Y007840D03*
X030844Y007850D03*
X030844Y007860D03*
X030844Y007870D03*
X030844Y007880D03*
X030844Y007890D03*
X030844Y007900D03*
X030844Y007910D03*
X030844Y007920D03*
X030844Y007930D03*
X030844Y007940D03*
X030844Y007950D03*
X030844Y007960D03*
X030844Y007970D03*
X030844Y007980D03*
X030844Y007990D03*
X030844Y008000D03*
X030844Y008010D03*
X030844Y008020D03*
X030844Y008030D03*
X030844Y008040D03*
X030844Y008050D03*
X030844Y008060D03*
X030844Y008070D03*
X030844Y008080D03*
X030844Y008090D03*
X032524Y010070D03*
X033324Y011470D03*
D52*
X032519Y006190D03*
D53*
X032519Y006200D03*
D54*
X032519Y006210D03*
D55*
X032519Y006220D03*
D56*
X032519Y006230D03*
D57*
X032519Y006240D03*
D58*
X032519Y006250D03*
D59*
X032519Y006260D03*
D60*
X032514Y006270D03*
X032524Y008770D03*
X032524Y008780D03*
D61*
X032524Y008750D03*
X032524Y008740D03*
X032514Y006280D03*
D62*
X032519Y006290D03*
D63*
X032519Y006300D03*
X032519Y008710D03*
D64*
X032524Y008700D03*
X032524Y008690D03*
X032524Y008680D03*
X032524Y008670D03*
X032524Y008660D03*
X032524Y008650D03*
X032524Y006310D03*
D65*
X032519Y006320D03*
X032519Y006330D03*
X032519Y008640D03*
D66*
X032524Y008630D03*
X032524Y008620D03*
X032524Y008610D03*
X032524Y008600D03*
X032514Y006340D03*
D67*
X032519Y006350D03*
X032519Y006360D03*
X032519Y006370D03*
X032519Y008590D03*
D68*
X032524Y008580D03*
X032524Y008570D03*
X032524Y008560D03*
X032524Y008550D03*
X032524Y008540D03*
X032524Y008530D03*
X032514Y006380D03*
D69*
X032519Y006390D03*
X032519Y006400D03*
X032519Y006410D03*
X032519Y006420D03*
X032519Y006430D03*
X032519Y006440D03*
X032519Y006450D03*
X032519Y006460D03*
X032519Y006470D03*
X032519Y006480D03*
X032519Y006490D03*
X032519Y006500D03*
X032519Y006510D03*
X032519Y006520D03*
X032519Y006530D03*
X032519Y006540D03*
X032519Y006550D03*
X032519Y006560D03*
X032519Y006570D03*
X032519Y006580D03*
X032519Y006590D03*
X032519Y006600D03*
X032519Y006610D03*
X032519Y006620D03*
X032519Y006630D03*
X032519Y006640D03*
X032519Y006650D03*
X032519Y006660D03*
X032519Y006670D03*
X032519Y006680D03*
X032519Y006690D03*
X032519Y006700D03*
X032519Y006710D03*
X032519Y006720D03*
X032519Y006730D03*
X032519Y006740D03*
X032519Y006750D03*
X032519Y006760D03*
X032519Y006770D03*
X032519Y006780D03*
X032519Y006790D03*
X032519Y006800D03*
X032519Y006810D03*
X032519Y006820D03*
X032519Y006830D03*
X032519Y006840D03*
X032519Y006850D03*
X032519Y006860D03*
X032519Y006870D03*
X032519Y006880D03*
X032519Y006890D03*
X032519Y006900D03*
X032519Y006910D03*
X032519Y006920D03*
X032519Y006930D03*
X032519Y006940D03*
X032519Y006950D03*
X032519Y006960D03*
X032519Y006970D03*
X032519Y006980D03*
X032519Y006990D03*
X032519Y007000D03*
X032519Y007010D03*
X032519Y007020D03*
X032519Y007030D03*
X032519Y007040D03*
X032519Y007050D03*
X032519Y007060D03*
X032519Y007070D03*
X032519Y007080D03*
X032519Y007090D03*
X032519Y007100D03*
X032519Y007110D03*
X032519Y007120D03*
X032519Y007130D03*
X032519Y007140D03*
X032519Y007150D03*
X032519Y007160D03*
X032519Y007170D03*
X032519Y007180D03*
X032519Y007190D03*
X032519Y007200D03*
X032519Y007210D03*
X032519Y007220D03*
X032519Y007230D03*
X032519Y007240D03*
X032519Y007250D03*
X032519Y007260D03*
X032519Y007270D03*
X032519Y007280D03*
X032519Y007290D03*
X032519Y007300D03*
X032519Y007310D03*
X032519Y007320D03*
X032519Y007330D03*
X032519Y007340D03*
X032519Y007350D03*
X032519Y007360D03*
X032519Y007370D03*
X032519Y007380D03*
X032519Y007390D03*
X032519Y007400D03*
X032519Y007410D03*
X032519Y007420D03*
X032519Y007430D03*
X032519Y007440D03*
X032519Y007450D03*
X032519Y007460D03*
X032519Y007470D03*
X032519Y007480D03*
X032519Y007490D03*
X032519Y007500D03*
X032519Y007510D03*
X032519Y007520D03*
X032519Y007530D03*
X032519Y007540D03*
X032519Y007550D03*
X032519Y007560D03*
X032519Y007570D03*
X032519Y007580D03*
X032519Y007590D03*
X032519Y007600D03*
X032519Y007610D03*
X032519Y007620D03*
X032519Y007630D03*
X032519Y007640D03*
X032519Y007650D03*
X032519Y007660D03*
X032519Y007670D03*
X032519Y007680D03*
X032519Y007690D03*
X032519Y007700D03*
X032519Y007710D03*
X032519Y007720D03*
X032519Y007730D03*
X032519Y007740D03*
X032519Y007750D03*
X032519Y007760D03*
X032519Y007770D03*
X032519Y007780D03*
X032519Y007790D03*
X032519Y007800D03*
X032519Y007810D03*
X032519Y007820D03*
X032519Y007830D03*
X032519Y007840D03*
X032519Y007850D03*
X032519Y007860D03*
X032519Y007870D03*
X032519Y007880D03*
X032519Y007890D03*
X032519Y007900D03*
X032519Y007910D03*
X032519Y007920D03*
X032519Y007930D03*
X032519Y007940D03*
X032519Y007950D03*
X032519Y007960D03*
X032519Y007970D03*
X032519Y007980D03*
X032519Y007990D03*
X032519Y008000D03*
X032519Y008010D03*
X032519Y008020D03*
X032519Y008030D03*
X032519Y008040D03*
X032519Y008050D03*
X032519Y008060D03*
X032519Y008070D03*
X032519Y008080D03*
X032519Y008090D03*
X032519Y008100D03*
X032519Y008110D03*
X032519Y008120D03*
X032519Y008130D03*
X032519Y008140D03*
X032519Y008150D03*
X032519Y008160D03*
X032519Y008170D03*
X032519Y008180D03*
X032519Y008190D03*
X032519Y008200D03*
X032519Y008210D03*
X032519Y008220D03*
X032519Y008230D03*
X032519Y008240D03*
X032519Y008250D03*
X032519Y008260D03*
X032519Y008270D03*
X032519Y008280D03*
X032519Y008290D03*
X032519Y008300D03*
X032519Y008310D03*
X032519Y008490D03*
X032519Y008500D03*
X032519Y008510D03*
X032519Y008520D03*
D70*
X033309Y009850D03*
X033079Y010180D03*
X031729Y009860D03*
X032809Y011370D03*
X034199Y006620D03*
X030849Y006620D03*
D71*
X030844Y006630D03*
X032214Y010820D03*
X032214Y010830D03*
X032214Y010930D03*
X032214Y010940D03*
D72*
X032829Y010930D03*
X032829Y010830D03*
X034199Y008340D03*
X034199Y006630D03*
X030849Y008340D03*
D73*
X030849Y006640D03*
X034199Y006640D03*
D74*
X034194Y006650D03*
X030844Y006650D03*
X032524Y010000D03*
D75*
X030849Y008310D03*
X030849Y006660D03*
X034199Y006660D03*
X034199Y008310D03*
D76*
X034199Y008300D03*
X032519Y010010D03*
X034199Y006670D03*
D77*
X034194Y008290D03*
X030844Y008290D03*
X030844Y006680D03*
D78*
X030849Y006690D03*
X034199Y006690D03*
D79*
X034199Y006700D03*
X034199Y008270D03*
X033429Y009000D03*
X033419Y009010D03*
X033419Y009020D03*
X033409Y009040D03*
X033369Y009080D03*
X031679Y009080D03*
X031639Y009040D03*
X031629Y009020D03*
X031619Y009000D03*
X030849Y008270D03*
X030849Y006700D03*
D80*
X030844Y008280D03*
X032524Y010020D03*
X034194Y008280D03*
D81*
X034194Y008320D03*
X030844Y008320D03*
D82*
X030844Y008330D03*
X031964Y010190D03*
X032284Y011410D03*
X032764Y011410D03*
X034194Y008330D03*
D83*
X034199Y008350D03*
X033099Y009480D03*
X033109Y009490D03*
X033119Y009510D03*
X033129Y009530D03*
X033139Y009550D03*
X033149Y009560D03*
X033169Y009600D03*
X033179Y009620D03*
X033189Y009630D03*
X033209Y009670D03*
X033229Y009700D03*
X033249Y009740D03*
X033259Y009750D03*
X033269Y009770D03*
X033289Y009810D03*
X033299Y009820D03*
X033299Y009830D03*
X031939Y009470D03*
X031919Y009510D03*
X031899Y009540D03*
X031879Y009580D03*
X031869Y009590D03*
X031859Y009610D03*
X031839Y009650D03*
X031829Y009660D03*
X031819Y009680D03*
X031809Y009690D03*
X031799Y009720D03*
X031789Y009730D03*
X031779Y009750D03*
X031769Y009760D03*
X031759Y009790D03*
X031749Y009800D03*
X031729Y009830D03*
X031729Y009840D03*
X032829Y010960D03*
X030849Y008350D03*
D84*
X032524Y008450D03*
X032524Y008460D03*
X032524Y008470D03*
X032524Y008480D03*
D85*
X032524Y008720D03*
X032524Y008730D03*
D86*
X032519Y008760D03*
D87*
X032524Y008790D03*
X032524Y008800D03*
X032524Y008810D03*
X032524Y008820D03*
D88*
X032524Y008830D03*
X032524Y008840D03*
D89*
X032524Y008850D03*
X032524Y008860D03*
D90*
X032524Y008870D03*
D91*
X032519Y008880D03*
D92*
X032524Y008890D03*
D93*
X032524Y008900D03*
X032524Y009070D03*
X032524Y009480D03*
D94*
X032524Y009060D03*
X032524Y008910D03*
D95*
X032524Y008920D03*
X032524Y009050D03*
X032524Y009490D03*
X033504Y011200D03*
X031544Y011210D03*
D96*
X031534Y011190D03*
X031524Y011180D03*
X031514Y011170D03*
X031514Y011160D03*
X031504Y011150D03*
X031494Y011130D03*
X032524Y011730D03*
X033494Y011230D03*
X033524Y011170D03*
X033534Y011160D03*
X033534Y011150D03*
X033544Y011140D03*
X032524Y009030D03*
X032524Y008940D03*
X032524Y008930D03*
D97*
X032524Y008950D03*
X032524Y008960D03*
X032524Y008970D03*
X032524Y008980D03*
X032524Y008990D03*
X032524Y009000D03*
X032524Y009010D03*
X032524Y009500D03*
X031464Y011060D03*
X031474Y011080D03*
X031484Y011100D03*
X031484Y011110D03*
X032524Y011750D03*
X032524Y011760D03*
X033494Y011240D03*
X033564Y011100D03*
X033564Y011090D03*
X033574Y011080D03*
X033574Y011070D03*
D98*
X033559Y011110D03*
X033559Y011120D03*
X033549Y011130D03*
X032519Y011740D03*
X031549Y011230D03*
X031499Y011140D03*
X031489Y011120D03*
X031479Y011090D03*
X032519Y009020D03*
D99*
X032519Y009040D03*
X033519Y011180D03*
X033509Y011190D03*
X033499Y011210D03*
X033499Y011220D03*
X032519Y011720D03*
X031549Y011220D03*
X031539Y011200D03*
D100*
X032524Y009080D03*
D101*
X032524Y009090D03*
D102*
X032524Y009100D03*
D103*
X032524Y009110D03*
D104*
X032524Y009120D03*
D105*
X032524Y009130D03*
D106*
X032519Y009140D03*
D107*
X032524Y009150D03*
D108*
X032524Y009160D03*
D109*
X032524Y009170D03*
D110*
X032524Y009180D03*
X032524Y011530D03*
D111*
X032524Y011540D03*
X032524Y009190D03*
D112*
X032524Y009200D03*
X032524Y011550D03*
D113*
X032524Y011560D03*
X032524Y009210D03*
D114*
X032524Y009220D03*
X032524Y011570D03*
D115*
X032524Y011580D03*
X032524Y010310D03*
X032524Y009230D03*
D116*
X032524Y009240D03*
X032524Y011590D03*
D117*
X032519Y011600D03*
X032519Y010290D03*
X032519Y009250D03*
D118*
X032524Y009260D03*
D119*
X032519Y009270D03*
D120*
X032524Y009280D03*
X032524Y010270D03*
X032524Y011630D03*
D121*
X032524Y010260D03*
X032524Y009290D03*
D122*
X032524Y009300D03*
D123*
X032519Y009310D03*
D124*
X032524Y009320D03*
D125*
X032524Y009330D03*
X032524Y011660D03*
D126*
X032524Y010230D03*
X032524Y009340D03*
D127*
X032519Y009350D03*
D128*
X032519Y009360D03*
D129*
X032524Y009370D03*
D130*
X032524Y009380D03*
D131*
X032524Y009390D03*
D132*
X032524Y009400D03*
X032524Y011700D03*
D133*
X032519Y009410D03*
D134*
X032524Y009420D03*
D135*
X032519Y009430D03*
D136*
X032519Y009440D03*
X032519Y009450D03*
X032519Y009460D03*
D137*
X032559Y009470D03*
D138*
X032524Y009590D03*
X033114Y009500D03*
X033124Y009520D03*
X033134Y009540D03*
X033154Y009570D03*
X033164Y009580D03*
X033164Y009590D03*
X033174Y009610D03*
X033194Y009640D03*
X033204Y009650D03*
X033204Y009660D03*
X033214Y009680D03*
X033224Y009690D03*
X033234Y009710D03*
X033244Y009720D03*
X033244Y009730D03*
X033264Y009760D03*
X033274Y009780D03*
X033284Y009790D03*
X033284Y009800D03*
X031934Y009480D03*
X031924Y009490D03*
X031924Y009500D03*
X031914Y009520D03*
X031904Y009530D03*
X031894Y009550D03*
X031884Y009560D03*
X031884Y009570D03*
X031864Y009600D03*
X031854Y009620D03*
X031844Y009630D03*
X031844Y009640D03*
X031824Y009670D03*
X031804Y009700D03*
X031804Y009710D03*
X031784Y009740D03*
X031764Y009770D03*
X031764Y009780D03*
X031744Y009810D03*
X031734Y009820D03*
X032244Y011380D03*
X032804Y011380D03*
D139*
X032524Y011790D03*
X033494Y011270D03*
X033604Y010850D03*
X033604Y010840D03*
X033604Y010830D03*
X033604Y010820D03*
X033594Y010800D03*
X033594Y010790D03*
X033594Y010780D03*
X033584Y010760D03*
X033584Y010750D03*
X033584Y010740D03*
X032524Y009510D03*
X031464Y010730D03*
X031464Y010740D03*
X031454Y010770D03*
X031454Y010780D03*
X031444Y010800D03*
X031444Y010810D03*
X031444Y010820D03*
X031444Y010830D03*
D140*
X031554Y011330D03*
X032524Y011480D03*
X033484Y011330D03*
X033274Y010410D03*
X032524Y010180D03*
X032524Y009520D03*
D141*
X032519Y009530D03*
X032519Y010150D03*
X032519Y011470D03*
X033469Y011360D03*
X031579Y011370D03*
D142*
X031604Y011400D03*
X032524Y011440D03*
X032524Y011910D03*
X032524Y009540D03*
D143*
X032524Y009550D03*
X032524Y010100D03*
X032524Y011930D03*
D144*
X032234Y011370D03*
X032214Y010960D03*
X031734Y009850D03*
X033304Y009840D03*
D145*
X033304Y009860D03*
X031964Y010180D03*
D146*
X032524Y009990D03*
D147*
X032524Y010080D03*
X031694Y011460D03*
X033354Y011460D03*
D148*
X033389Y011440D03*
X032519Y010090D03*
D149*
X032524Y010110D03*
X033154Y010380D03*
X033164Y010390D03*
X031874Y010390D03*
X031624Y011420D03*
X033424Y011420D03*
D150*
X033439Y011400D03*
X032519Y011430D03*
X031919Y010360D03*
X032519Y010120D03*
X033129Y010360D03*
D151*
X032519Y010130D03*
X032519Y011450D03*
D152*
X032519Y011460D03*
X033459Y011380D03*
X031959Y010340D03*
X032519Y010140D03*
X031589Y011380D03*
D153*
X032519Y010160D03*
X033479Y011350D03*
D154*
X032519Y011860D03*
X031559Y011340D03*
X031769Y010410D03*
X032009Y010320D03*
X032519Y010170D03*
X033039Y010320D03*
D155*
X033314Y010430D03*
X032524Y010190D03*
X031554Y011320D03*
D156*
X032829Y010880D03*
X033079Y010190D03*
D157*
X032519Y010200D03*
D158*
X032524Y010210D03*
D159*
X032524Y010220D03*
D160*
X032524Y010240D03*
X032524Y011650D03*
D161*
X032519Y011640D03*
X032519Y010250D03*
D162*
X032524Y010280D03*
X032524Y011610D03*
D163*
X032519Y010300D03*
D164*
X033064Y010330D03*
X031984Y010330D03*
X031574Y011360D03*
X032524Y011880D03*
D165*
X032524Y011890D03*
X033464Y011370D03*
X033084Y010340D03*
D166*
X033104Y010350D03*
X031944Y010350D03*
X031594Y011390D03*
X032524Y011900D03*
X033454Y011390D03*
D167*
X033434Y011410D03*
X031904Y010370D03*
X031614Y011410D03*
D168*
X032519Y011920D03*
X031889Y010380D03*
X033139Y010370D03*
D169*
X033254Y010400D03*
X031794Y010400D03*
X031564Y011350D03*
X032524Y011870D03*
X033484Y011340D03*
D170*
X033489Y011320D03*
X032519Y011850D03*
X031749Y010420D03*
X031729Y010430D03*
X033299Y010420D03*
D171*
X033354Y010450D03*
X033364Y010460D03*
X033384Y010470D03*
X033494Y011310D03*
X032524Y011830D03*
X031554Y011310D03*
X031664Y010470D03*
X031674Y010460D03*
X031704Y010440D03*
D172*
X031689Y010450D03*
X033339Y010440D03*
X032519Y011840D03*
D173*
X032519Y011490D03*
X033489Y011300D03*
X033419Y010500D03*
X033409Y010490D03*
X033399Y010480D03*
X031649Y010480D03*
X031549Y011300D03*
D174*
X032524Y011820D03*
X033454Y010530D03*
X033444Y010520D03*
X033434Y010510D03*
X031634Y010490D03*
X031624Y010500D03*
X031614Y010510D03*
D175*
X031599Y010520D03*
X031589Y010530D03*
X031579Y010540D03*
X031569Y010550D03*
X031559Y010560D03*
X031549Y010580D03*
X031539Y010590D03*
X031519Y010620D03*
X031549Y011290D03*
X032519Y011810D03*
X033489Y011290D03*
X033519Y010610D03*
X033489Y010570D03*
X033479Y010560D03*
X033469Y010550D03*
X033459Y010540D03*
D176*
X033494Y010580D03*
X033504Y010590D03*
X033514Y010600D03*
X033524Y010620D03*
X033534Y010630D03*
X033534Y010640D03*
X033554Y010670D03*
X033564Y010690D03*
X033494Y011280D03*
X032524Y011800D03*
X031554Y011280D03*
X031484Y010680D03*
X031494Y010670D03*
X031514Y010630D03*
X031524Y010610D03*
X031534Y010600D03*
X031554Y010570D03*
D177*
X031509Y010640D03*
X031499Y010650D03*
X031499Y010660D03*
X031479Y010690D03*
X031479Y010700D03*
X031469Y010710D03*
X031469Y010720D03*
X031459Y010750D03*
X031459Y010760D03*
X031449Y010790D03*
X031549Y011270D03*
X033539Y010650D03*
X033549Y010660D03*
X033559Y010680D03*
X033569Y010700D03*
X033569Y010710D03*
X033579Y010720D03*
X033579Y010730D03*
X033589Y010770D03*
X033599Y010810D03*
D178*
X032794Y011390D03*
X032214Y010800D03*
X032524Y012040D03*
D179*
X032829Y010800D03*
D180*
X032214Y010810D03*
X032214Y010950D03*
D181*
X032829Y010940D03*
X032829Y010820D03*
D182*
X033609Y010860D03*
X033609Y010870D03*
X033609Y010880D03*
X033609Y010890D03*
X033609Y010900D03*
X033609Y010910D03*
X033609Y010920D03*
X033499Y011260D03*
X032519Y011780D03*
X031549Y011260D03*
X031439Y010890D03*
X031439Y010880D03*
X031439Y010870D03*
X031439Y010860D03*
X031439Y010850D03*
X031439Y010840D03*
D183*
X032214Y010840D03*
X032214Y010920D03*
X032834Y010920D03*
X032834Y010840D03*
X032774Y011400D03*
X032274Y011400D03*
D184*
X031454Y011030D03*
X031444Y010980D03*
X031444Y010970D03*
X031434Y010950D03*
X031434Y010940D03*
X031434Y010930D03*
X031434Y010920D03*
X031434Y010910D03*
X031434Y010900D03*
X033494Y011250D03*
X033594Y011020D03*
X033594Y011010D03*
X033604Y010970D03*
X033604Y010960D03*
X033604Y010950D03*
X033604Y010940D03*
X033604Y010930D03*
D185*
X033599Y010980D03*
X033599Y010990D03*
X033599Y011000D03*
X033589Y011030D03*
X033589Y011040D03*
X033579Y011050D03*
X033579Y011060D03*
X032519Y011770D03*
X031549Y011250D03*
X031549Y011240D03*
X031469Y011070D03*
X031459Y011050D03*
X031459Y011040D03*
X031449Y011020D03*
X031449Y011010D03*
X031449Y011000D03*
X031449Y010990D03*
X031439Y010960D03*
D186*
X032229Y011360D03*
X032819Y011360D03*
D187*
X032739Y011420D03*
X032299Y011420D03*
D188*
X031629Y011430D03*
X033409Y011430D03*
D189*
X032524Y011940D03*
X031654Y011440D03*
D190*
X031674Y011450D03*
X033374Y011450D03*
D191*
X032519Y011500D03*
D192*
X032519Y011510D03*
D193*
X032519Y011520D03*
D194*
X032524Y011620D03*
D195*
X032519Y011670D03*
D196*
X032519Y011680D03*
D197*
X032524Y011690D03*
D198*
X032524Y011710D03*
D199*
X032519Y011950D03*
D200*
X032519Y011960D03*
D201*
X032519Y012020D03*
M02*
