%
M48
M72
T01C0.0200
T02C0.0400
T03C0.0551
T04C0.0800
T05C0.0910
T06C0.1260
%
T01
X2489Y3090
X1679Y3800
X4849Y3100
X8729Y4250
X9229Y4250
X9229Y4750
X8729Y4750
X10549Y5200
X10709Y6520
X12329Y8050
X13529Y7500
X13599Y6650
X15209Y7400
X15229Y7950
X16729Y6950
X14469Y5350
X13729Y5250
X15479Y5200
X17859Y4860
X17979Y3500
X17479Y3500
X16979Y3500
X16479Y3500
X14539Y2510
X13309Y3200
X12929Y1430
X11969Y1400
X19469Y3230
X26029Y7250
X25019Y7260
X22659Y8110
X21529Y10250
X21559Y10960
X21629Y11650
X21629Y12200
X23979Y12000
X24479Y12000
X24959Y11710
X24829Y10300
X28779Y14000
X30209Y14010
X33479Y14650
X35229Y14700
X34129Y13050
X36179Y8950
X32479Y7000
X32979Y6500
X33479Y6500
X33979Y6500
X30979Y7250
X17029Y9200
X17029Y9750
X17069Y10570
X15629Y11050
X15679Y11590
X15179Y12150
X11929Y13100
X9329Y12150
X7529Y13250
X6979Y12950
X7579Y13850
X8529Y13900
X9279Y13950
X9129Y15650
X9829Y15650
X10279Y16400
X8729Y16300
X7929Y18150
X8729Y19000
X6579Y18550
X5979Y20200
X12179Y15990
X14789Y18420
X15839Y19470
X18189Y17780
X18629Y17500
X19059Y17800
X19479Y17500
X19629Y17000
X19979Y16600
X20379Y17000
X20729Y16600
X21129Y17000
X21479Y16600
X21929Y17000
X22529Y17000
X23079Y17000
X23729Y17000
X23729Y18500
X23079Y18500
X21919Y18470
X20929Y19020
X17709Y17500
X17479Y17000
X17479Y16500
X16979Y16500
X16689Y15270
X16679Y14640
X10329Y10000
X14479Y9650
X14979Y9450
X5629Y14200
X4929Y15500
T02
X10379Y20500
X11379Y20500
X12379Y20500
X13379Y20500
X14379Y20500
X15379Y20500
X16379Y20500
X17379Y20500
X18979Y20500
X19979Y20500
X20979Y20500
X21979Y20500
X22979Y20500
X23979Y20500
X24979Y20500
X25979Y20500
X27979Y20500
X28979Y20500
X29979Y20500
X30979Y20500
X31979Y20500
X32979Y20500
X33979Y20500
X34979Y20500
X37979Y20500
X38979Y20500
X38979Y19500
X37979Y19500
X37979Y18500
X38979Y18500
X38979Y17500
X37979Y17500
X37979Y16500
X38979Y16500
X38979Y15500
X37979Y15500
X37979Y14500
X38979Y14500
X38979Y13500
X37979Y13500
X37979Y12500
X38979Y12500
X38979Y11500
X37979Y11500
X37979Y10500
X38979Y10500
X38979Y9500
X37979Y9500
X37979Y8500
X38979Y8500
X38979Y7500
X37979Y7500
X37979Y6500
X38979Y6500
X38979Y5500
X37979Y5500
X37979Y4500
X38979Y4500
X38979Y3500
X37979Y3500
X36979Y1500
X35979Y1500
X34979Y1500
X33979Y1500
X32979Y1500
X31979Y1500
X30979Y1500
X29979Y1500
X27979Y1500
X26979Y1500
X25979Y1500
X24979Y1500
X23979Y1500
X22979Y1500
X21979Y1500
X20979Y1500
X18979Y1500
X17979Y1500
X16979Y1500
X15979Y1500
X14979Y1500
X13979Y1500
X5479Y4000
X5479Y5000
X26029Y10500
X27029Y10500
X27029Y11500
X26029Y11500
X26029Y12500
X27029Y12500
T03
X2979Y15500
X2979Y19500
T04
X2479Y4500
X4279Y4500
T05
X4479Y8415
X4479Y13585
T06
X6979Y20500
X26979Y14500
X36479Y20500
X26979Y3500
X38979Y1500
X6479Y1500
M30
