G75*
G70*
%OFA0B0*%
%FSLAX24Y24*%
%IPPOS*%
%LPD*%
%AMOC8*
5,1,8,0,0,1.08239X$1,22.5*
%
%ADD10OC8,0.0820*%
%ADD11C,0.0820*%
%ADD12C,0.1340*%
%ADD13C,0.0880*%
%ADD14C,0.0631*%
%ADD15C,0.1390*%
D10*
X026029Y010500D03*
X027029Y010500D03*
X027029Y011500D03*
X026029Y011500D03*
X026029Y012500D03*
X027029Y012500D03*
X037979Y012500D03*
X038979Y012500D03*
X038979Y011500D03*
X037979Y011500D03*
X037979Y010500D03*
X038979Y010500D03*
X038979Y009500D03*
X037979Y009500D03*
X037979Y008500D03*
X038979Y008500D03*
X038979Y007500D03*
X037979Y007500D03*
X037979Y006500D03*
X038979Y006500D03*
X038979Y005500D03*
X037979Y005500D03*
X037979Y004500D03*
X038979Y004500D03*
X038979Y013500D03*
X037979Y013500D03*
X037979Y014500D03*
X038979Y014500D03*
X038979Y015500D03*
X037979Y015500D03*
X037979Y016500D03*
X038979Y016500D03*
X038979Y017500D03*
X037979Y017500D03*
X037979Y018500D03*
X038979Y018500D03*
X038979Y019500D03*
X037979Y019500D03*
D11*
X037979Y020500D03*
X038979Y020500D03*
X034979Y020500D03*
X033979Y020500D03*
X032979Y020500D03*
X031979Y020500D03*
X030979Y020500D03*
X029979Y020500D03*
X028979Y020500D03*
X027979Y020500D03*
X025979Y020500D03*
X024979Y020500D03*
X023979Y020500D03*
X022979Y020500D03*
X021979Y020500D03*
X020979Y020500D03*
X019979Y020500D03*
X018979Y020500D03*
X017379Y020500D03*
X016379Y020500D03*
X015379Y020500D03*
X014379Y020500D03*
X013379Y020500D03*
X012379Y020500D03*
X011379Y020500D03*
X010379Y020500D03*
X005479Y005000D03*
X005479Y004000D03*
X013979Y001500D03*
X014979Y001500D03*
X015979Y001500D03*
X016979Y001500D03*
X017979Y001500D03*
X018979Y001500D03*
X020979Y001500D03*
X021979Y001500D03*
X022979Y001500D03*
X023979Y001500D03*
X024979Y001500D03*
X025979Y001500D03*
X026979Y001500D03*
X027979Y001500D03*
X029979Y001500D03*
X030979Y001500D03*
X031979Y001500D03*
X032979Y001500D03*
X033979Y001500D03*
X034979Y001500D03*
X035979Y001500D03*
X036979Y001500D03*
X037979Y003500D03*
X038979Y003500D03*
D12*
X006479Y001500D03*
X026979Y003500D03*
X038979Y001500D03*
X026979Y014500D03*
X036479Y020500D03*
X006979Y020500D03*
D13*
X004279Y004500D03*
X002479Y004500D03*
D14*
X002979Y015500D03*
X002979Y019500D03*
D15*
X004479Y013585D03*
X004479Y008415D03*
M02*
